<svg class="hidden">
        <path id="googleplus" d="M246.75 96.363h-25.653v25.654h-12.827v-25.654h-25.654v-12.827h25.654v-25.653h12.827v25.653h25.653v12.827zm-72.524 106.102c0 19.229-17.558 42.639-61.729 42.639-32.305 0-59.247-13.934-59.247-37.37 0-18.088 11.452-41.57 64.965-41.57-7.948-6.478-9.898-15.535-5.041-25.342-31.333 0-47.379-18.421-47.379-41.81 0-22.887 17.021-43.693 51.733-43.693h55.607l-12.426 13.041h-14.597c10.297 5.9 15.774 18.05 15.774 31.443 0 12.293-6.769 22.25-16.43 29.72-17.144 13.255-12.755 20.656 5.207 33.755 17.711 13.268 23.563 23.511 23.563 39.187zm-34.682-101.826c-2.586-19.681-15.408-35.827-30.389-36.278-14.986-.446-25.037 14.615-22.449 34.302 2.587 19.681 16.83 33.429 31.819 33.881 14.982.446 23.604-12.221 21.019-31.905zm15.449 103.8c0-16.187-14.767-31.616-39.542-31.616-22.328-.246-41.251 14.109-41.251 30.749 0 16.98 16.126 31.115 38.455 31.115 28.547-.001 42.338-13.268 42.338-30.248z"/>
        <path id="facebook" d="M135.167 66.389c7.27-6.922 17.61-9.26 27.365-9.552 10.317-.093 20.629-.037 30.946-.033.041 10.883.044 21.77-.004 32.653-6.667-.012-13.339.016-20.006-.012-4.228-.263-8.569 2.941-9.337 7.132-.101 7.282-.037 14.568-.033 21.851 9.779.04 19.557-.012 29.335.024-.716 10.535-2.023 21.021-3.556 31.467-8.637.081-17.28-.008-25.917.045-.077 31.071.04 62.142-.061 93.213-12.829.052-25.666-.024-38.495.036-.243-31.075.02-62.166-.133-93.245-6.259-.065-12.522.045-18.78-.052.024-10.446.008-20.892.012-31.334 6.254-.076 12.513.016 18.768-.044.19-10.155-.191-20.322.198-30.468.627-8.034 3.69-16.13 9.698-21.681z"/>
        <g id="link"><path d="M136.459 102.36c11.585-12.231 22.733-26.719 36.548-37.917 18.56-15.043 44.305-12.229 59.693 3.798 15.764 16.419 17.355 42.19 1.563 60.496-14.224 16.487-29.787 32.042-46.199 46.355-16.534 14.419-40.349 14.032-56.931 1.503-7.613-5.753-9.652-13.643-5.107-19.771 4.426-5.969 11.472-6.221 19.562-.7 9.579 6.537 20.07 6.514 28.462-1.453 13.86-13.157 27.401-26.682 40.495-40.6 8.042-8.547 7.683-20.661.418-28.177-7.342-7.596-19.113-8.396-28.219-.99-6.749 5.489-12.828 11.857-18.826 18.194-3.352 3.541-5.947 4.747-11.178 2.883-6.767-2.41-14.307-2.648-20.281-3.621zM163.958 198.42c-11.08 11.499-22.018 24.543-34.689 35.602-18.773 16.384-45.875 14.716-62.362-2.304-15.935-16.451-16.628-43.951-.298-61.915 13.76-15.137 28.318-29.653 43.496-43.368 17.279-15.613 42.761-15.892 59.453-2.058 7.12 5.902 8.686 13.377 4.028 19.233-4.488 5.642-11.441 5.867-18.884.611-9.673-6.83-20.242-6.804-29.135 1.539-13.536 12.699-26.718 25.817-39.428 39.341-9.171 9.758-8.815 22.03-.351 30.06 8.082 7.668 19.819 7.214 29.511-1.581 6.264-5.684 11.969-11.982 18.154-17.759 1.573-1.469 4.212-3.096 6.033-2.776 8.437 1.481 16.76 3.62 24.472 5.375z"/></g>
        <path id="twitter" d="M241.778 102.928c.091 2.032.137 4.074.137 6.127 0 62.578-47.631 134.733-134.732 134.733-26.742 0-51.633-7.84-72.589-21.276 3.705.437 7.474.662 11.296.662 22.187 0 42.604-7.571 58.811-20.272-20.722-.381-38.21-14.071-44.236-32.884 2.892.552 5.858.849 8.909.849 4.318 0 8.502-.578 12.475-1.661-21.663-4.353-37.986-23.491-37.986-46.434l.005-.595c6.384 3.546 13.686 5.677 21.448 5.923-12.706-8.492-21.066-22.985-21.066-39.415 0-8.679 2.336-16.812 6.412-23.806 23.356 28.65 58.248 47.502 97.603 49.477-.808-3.466-1.227-7.08-1.227-10.792 0-26.151 21.204-47.352 47.354-47.352 13.62 0 25.927 5.75 34.564 14.953 10.787-2.123 20.921-6.063 30.071-11.491-3.535 11.058-11.044 20.338-20.82 26.198 9.577-1.145 18.704-3.689 27.195-7.456v-.001h.001-.001c-6.346 9.499-14.373 17.838-23.624 24.513z"/>
    <path id="dribbble" fill-rule="evenodd" clip-rule="evenodd" d="M150 292.1c-78.3 0-142.1-63.8-142.1-142.1s63.8-142.1 142.1-142.1 142.1 63.8 142.1 142.1-63.8 142.1-142.1 142.1zm119.8-122.7c-4.2-1.3-37.6-11.3-75.6-5.2 15.9 43.6 22.3 79.1 23.6 86.5 27.2-18.3 46.6-47.5 52-81.3zm-72.4 92.5c-1.8-10.6-8.9-47.8-25.9-92l-.8.3c-68.5 23.9-93 71.3-95.2 75.8 20.6 16 46.4 25.6 74.5 25.6 16.8-.1 32.8-3.5 47.4-9.7zm-137.6-30.6c2.7-4.7 36.1-59.9 98.6-80.1 1.6-.5 3.2-1 4.8-1.4-3-6.9-6.4-13.8-9.8-20.6-60.6 18.1-119.4 17.4-124.7 17.3l-.1 3.7c0 31.2 11.9 59.6 31.2 81.1zm-28.6-106c5.4.1 55.4.3 112.2-14.8-20.1-35.7-41.8-65.8-45-70.2-33.9 16.1-59.3 47.4-67.2 85zm90.4-93.1c3.4 4.5 25.4 34.5 45.3 71 43.2-16.2 61.4-40.7 63.6-43.8-21.4-19-49.6-30.6-80.4-30.6-9.9 0-19.4 1.2-28.5 3.4zm122.3 41.2c-2.6 3.5-22.9 29.5-67.8 47.9 2.8 5.8 5.5 11.7 8.1 17.6.9 2.1 1.8 4.2 2.6 6.3 40.4-5.1 80.5 3.1 84.5 3.9-.2-28.7-10.5-55-27.4-75.7z"/>
    <path id="github" d="M292 150c0 78.5-63.6 142.1-142.1 142.1-78.4 0-141.9-63.6-141.9-142.1 0-78.4 63.5-142.1 141.9-142.1 78.6 0 142.1 63.7 142.1 142.1zm-106.4 115.4c48.8-16.1 84.2-61.6 84.2-115.4 0-66.2-53.7-119.9-119.9-119.9-66 0-119.7 53.7-119.7 119.9 0 53.8 35.5 99.5 84.5 115.4v-22.6c-35 7.9-42.3-16.4-42.3-16.4-5.6-14.3-13.6-18-13.6-18-11.2-7.6.8-7.5.8-7.5 12.3.8 18.9 12.6 18.9 12.6 11.7 20 30.9 12.8 36.9 9.9 1.8-8.7 8.6-10.5 10.8-11.2-31.5-3.4-65.2-14.7-65.2-69.3 0-15.3 5.4-27.8 14.3-37.5-1.4-3.6-6.2-17.8 1.4-37 0 0 11.8-3.7 38.4 14.3 11.1-3.1 23-4.6 35-4.7 11.8.1 23.7 1.7 35 4.7 26.6-18 38.3-14.3 38.3-14.3 7.6 19.3 2.9 33.4 1.4 37 9 9.7 14.4 22.2 14.4 37.5 0 54.5-33.7 65.8-65.2 69.1 5.7 3.9 11.7 11.2 11.7 25.3l-.1 28.1z"/>
  <path id="codepen" d="M150 8.7c-78.1 0-141.3 63.2-141.3 141.3s63.2 141.3 141.3 141.3c78.1 0 141.3-63.3 141.3-141.3s-63.2-141.3-141.3-141.3zm0 259.4c-65.1 0-118.1-53-118.1-118.1s53-118.1 118.1-118.1 118.1 53 118.1 118.1-53 118.1-118.1 118.1zM237.3 122.4c0-.1 0-.2-.1-.3l-.1-.6c0-.1-.1-.2-.1-.4-.1-.2-.1-.4-.2-.5-.1-.1-.1-.2-.2-.4l-.3-.5-.2-.3-.3-.5-.3-.3c-.1-.1-.2-.3-.4-.4l-.3-.3c-.1-.1-.3-.2-.4-.4l-.3-.3-.1-.1-79.9-53.3c-2.5-1.7-5.8-1.7-8.3 0l-79.8 53.3-.1.1-.3.3c-.1.1-.3.2-.4.4l-.3.3-.4.4-.3.3c-.1.1-.2.3-.3.5l-.2.3-.3.5c-.1.1-.1.2-.2.4s-.1.4-.2.5c0 .1-.1.2-.1.4-.1.2-.1.4-.1.6 0 .1 0 .2-.1.3 0 .3-.1.6-.1 1v53.3c0 .3 0 .7.1 1 0 .1 0 .2.1.3l.1.6c0 .1.1.2.1.4l.2.6c.1.1.1.2.2.4l.3.5.2.3.3.5.3.3c.1.1.2.3.4.4l.3.3c.1.1.3.2.4.4l.3.3.1.1 79.9 53.3c1.3.8 2.7 1.3 4.2 1.3s2.9-.4 4.2-1.3l79.9-53.3.1-.1.3-.3c.1-.1.3-.2.4-.4l.3-.3.4-.4.3-.3c.1-.1.2-.3.3-.5l.2-.3.3-.5c.1-.1.1-.2.2-.4l.2-.6c0-.1.1-.2.1-.4.1-.2.1-.4.1-.6 0-.1 0-.2.1-.3l.1-1v-53.3c-.2-.4-.2-.7-.3-1zm-79.8-38.2l58.8 39.2-26.2 17.6-32.6-21.8v-35zm-15 0v35l-32.6 21.8-26.3-17.6 58.9-39.2zm-64.9 53.2l18.8 12.6-18.8 12.6v-25.2zm64.9 78.4l-58.8-39.2 26.3-17.6 32.6 21.8v35zm7.5-48l-26.6-17.8 26.6-17.8 26.6 17.8-26.6 17.8zm7.5 48v-35l32.6-21.8 26.3 17.6-58.9 39.2zm64.9-53.2l-18.8-12.6 18.8-12.6v25.2z"/>
  <symbol id="icon-JAFI_menu" viewBox="0 0 650 650">
      <path d="M157.3 207.9h335.3v47.3H157.3zM157.3 301.3h335.3v47.3H157.3zM157.3 394.8h335.3v47.3H157.3z"/>
  </symbol>
    <symbol id="icon-JAFI_link" viewBox="0 0 650 650">
        <path d="M596.3 175.9L391.2 357.3l-33.7-33.7 20.3-20.3 14.6 14.6 161.9-143.2-79-79-143.7 161.4 15.2 15.2-20.3 20.3-34.4-34.4 182-204.4 122.2 122.1zM175.9 596.2L53.7 474.1l205.1-181.4 33.7 33.7-20.3 20.3-14.6-14.6L95.7 475.4l79 79L318.4 393l-15.2-15.2 20.3-20.3 34.4 34.4-182 204.3zM243.043 390.122L390.12 243.045l16.828 16.83L259.872 406.95z"/>
  </symbol>
</svg>
