<svg xmlns="http://www.w3.org/2000/svg" class="hidden"><symbol id="icon-arrow" viewBox="0 0 38 17"><title>arrow icon</title><path d="M37.72 8.37L16.766 0l5.486 6.494H0V9.96h22.194l-5.43 6.67 20.957-8.26" fill-rule="evenodd"/></symbol><symbol id="icon-link" viewBox="0 0 37 37"><title>link Icon</title><path d="M34.864 3.445l-1.592-1.592C30.938-.48 27.197-.49 24.864 1.845l-8.266 8.265c.27.21.463.37.677.586.277.277.543.596.734.885l8.295-8.295c1.54-1.54 3.987-1.53 5.526.01l1.593 1.59c1.54 1.54 1.625 4.065.085 5.604L23.3 20.696c-1.538 1.54-4.066 1.456-5.605-.083l-.81-.81c-.525.436-1.256.906-1.82 1.063l1.19 1.188c2.332 2.333 6.153 2.416 8.487.082L34.95 11.93c2.333-2.334 2.248-6.15-.086-8.485zM1.892 33.387l1.592 1.592c2.334 2.332 6.075 2.34 8.408.007l8.266-8.266c-.27-.21-.463-.37-.677-.584-.276-.277-.542-.596-.733-.885l-8.296 8.296c-1.538 1.54-3.986 1.53-5.525-.008l-1.592-1.592c-1.54-1.54-1.625-4.065-.085-5.604l10.207-10.207c1.54-1.54 4.067-1.457 5.606.082l.812.81c.524-.435 1.255-.905 1.818-1.063l-1.188-1.187c-2.334-2.334-6.154-2.416-8.488-.083L1.807 24.902c-2.334 2.333-2.25 6.15.085 8.485z" fill-rule="evenodd"/></symbol><symbol id="icon-navicon" viewBox="0 0 307 307"><title>icon-navicon</title><g fill-rule="evenodd"><path d="M39 59h229v36.538H39zM39 135.73h229v36.54H39zM39 212.462h229V249H39z"/></g></symbol></svg>