<svg xmlns="http://www.w3.org/2000/svg" class="u-hidden"><symbol id="icon-arrow" viewBox="0 0 38 17"><title>arrow icon</title><path d="M37.72 8.37L16.766 0l5.486 6.494H0V9.96h22.194l-5.43 6.67L37.722 8.37" fill-rule="evenodd"/></symbol><symbol id="icon-link" viewBox="0 0 37 37"><title>link Icon</title><path d="M34.864 3.445l-1.592-1.592a5.924 5.924 0 0 0-8.408-.008l-8.266 8.265c.27.21.463.371.677.586a6 6 0 0 1 .734.885l8.296-8.296a3.885 3.885 0 0 1 5.526.009l1.592 1.592c1.54 1.539 1.625 4.064.085 5.603L23.301 20.697c-1.539 1.539-4.067 1.456-5.606-.083l-.81-.81c-.525.436-1.256.906-1.819 1.063l1.188 1.188c2.333 2.333 6.154 2.416 8.488.082L34.949 11.93c2.334-2.334 2.249-6.151-.085-8.485zM1.892 33.387l1.592 1.592a5.924 5.924 0 0 0 8.408.008l8.266-8.266a6.822 6.822 0 0 1-.677-.585 6.01 6.01 0 0 1-.734-.885l-8.296 8.295a3.885 3.885 0 0 1-5.526-.008l-1.592-1.592c-1.54-1.54-1.625-4.065-.085-5.604l10.207-10.207c1.539-1.54 4.067-1.457 5.606.082l.81.811c.525-.436 1.256-.906 1.819-1.064l-1.188-1.187c-2.334-2.334-6.154-2.416-8.488-.083L1.807 24.902c-2.334 2.333-2.249 6.151.085 8.485z" fill-rule="evenodd"/></symbol><symbol id="icon-navicon" viewBox="0 0 307 307"><title>icon-navicon</title><g fill-rule="evenodd"><path d="M39 59h229v36.538H39zM39 135.731h229v36.538H39zM39 212.462h229V249H39z"/></g></symbol></svg>