<?xml version="1.0" encoding="utf-8"?>
<!-- Generator: Adobe Illustrator 17.0.2, SVG Export Plug-In . SVG Version: 6.00 Build 0)  -->
<!DOCTYPE svg PUBLIC "-//W3C//DTD SVG 1.1//EN" "http://www.w3.org/Graphics/SVG/1.1/DTD/svg11.dtd">
<svg version="1.1" id="Layer_1" xmlns="http://www.w3.org/2000/svg" xmlns:xlink="http://www.w3.org/1999/xlink" x="0px" y="0px"
	 width="244.754px" height="124.3px" viewBox="-800.277 -327.75 244.754 124.3"
	 enable-background="new -800.277 -327.75 244.754 124.3" xml:space="preserve">
<g>
	<g>
		<path fill="#FFFFFF" d="M-745.277-219.45l-1.9-8.5l-1.1-6l0,0l-0.8-4.5l-1.1-7.4l0.8-3.1c0-0.1,0-0.1,0-0.2l-5.3-22
			c-0.1-1.5-1.3-13.6-2.4-14.9c-0.3-0.3-0.6-1.2-0.9-2.4l0,0c-0.6-2.1-1.2-5.1-1.6-7.2l-0.9-5.5v-0.1l0,0l0,0c0,0,0-0.1-0.1-0.1
			c0,0-2.2-1.9-3.2-3.7c-0.9-1.8,0-4.4,0-4.4c0-0.1,0-0.3-0.1-0.4l-4.4-4.9c-0.3-0.5-2.1-5.4-3.2-8.5c0,0,0-0.1-0.1-0.1l-1.9-2.4
			l-1.9-1.9c-0.1-0.1-0.2-0.1-0.3-0.1s-0.2,0.1-0.3,0.2l-3.7,7l-3.8,5.8l0,0l0,0l0,0l0,0l-3.6,14.7l-2.6,8.3c0,0,0,0,0,0.1
			l-1.7,17.1l-1.3,17.2l-2.5,4c-0.1,0.1-0.1,0.2,0,0.3l1,2.5l-1,4.8l0,0l-0.1,0.4c0,0,0,0,0,0.1v5.9l-2,3.1c0,0.1-0.1,0.1-0.1,0.2
			v2.1l-2.9,8.7v0.1c0,0.3,0.6,6.4,3.7,6.9l0,0c0.1,0,0.3,0,0.4,0h0.1l8.9-2.3l0.8,2.3c-0.8,1.6-1.7,3.1-2.3,3.9l0,0l0,0
			c-0.3,0.4-0.6,0.7-0.7,0.7c-0.3-0.1-0.5-0.1-0.7,0.1c-0.5,0.5-0.4,2.3-0.4,2.8c0,0.1,0,0.1,0.1,0.2l1.3,1.7l-0.7,0.9
			c-0.1,0.1-0.1,0.3,0,0.5l3.6,3.9l0,0c0,0,0,0,0.1,0.1l0,0l0,0h0.1h0.1l0,0l7.6-1.9l2.3,0.6c0.1,0,0.1,0,0.2,0l3-0.8l4.1,0.8
			l6.6,1.3l0,0l0,0l0,0c0,0,0,0,0.1,0l0,0l0,0l0,0l0,0l0,0l0,0l0,0l3.6-4.1c0,0,0-0.1,0.1-0.1l2-4.5l0,0l0,0c0,0,0,0,0-0.1l0,0
			c0,0,0,0,0-0.1l0,0l0,0c0,0,0,0,0-0.1l0,0l0,0l-5.6-6.2c0.8-1.5,2-3,2.5-3l0,0c0.7,0.1,4.6,2.5,6.9,4l0,0c0,0,0,0,0.1,0l0,0
			l4.7,0.6c0.1,0,0.2,0,0.3-0.1l1.7-1.9C-745.277-219.25-745.277-219.35-745.277-219.45z M-751.077-218.85l1.2,0.7l-1.5-0.2
			L-751.077-218.85z M-752.077-218.65l-6.2-7.3c-0.1-0.1-0.2-0.1-0.3-0.1c-0.1,0-0.2,0.1-0.3,0.2l-2.1,4.4l-2.4-7.4h1.6l-0.6-5
			l1-0.2l0.8,1.6l0.3-0.2l-0.8-1.4l1.2-0.2l0.7,1.4l0.3-0.2l-0.6-1.3l1-0.2l1.1,2.5l0.3-0.2l-1-2.3l1.6,0.9l0.3,1l0.3-0.1l-0.2-0.6
			l1,0.5l0.6,1.7l0.4-0.1l-0.4-1.3l1.8,1l0.4,1.1l0.3-0.1l-0.2-0.7l2.5,1.3l-0.4,1.6c0,0.1,0,0.2,0,0.2l3.2,5.8l-2.9,0.6
			c-0.1,0-0.2,0.1-0.2,0.1L-752.077-218.65z M-772.877-231.95c-0.1,0-0.1,0-0.2,0.1l-5,3.6l-0.9-0.7l1.3-12.2h6.9l1,9.2H-772.877
			L-772.877-231.95z M-782.377-221.15l-5.3-8.5l1.7-2.7l-0.5,3.5h6.6l3.4,3L-782.377-221.15z M-784.877-212.15
			c0.1,0.1,0.2,0.1,0.3,0.1c0,0,0,0,0.1,0l3-0.5l-6.4,3.1l2.9-6l1-0.5l-0.9,3.5C-784.977-212.35-784.977-212.25-784.877-212.15z
			 M-778.377-212.95l0.1,0.8h0.3l-0.1-0.8l0.5-0.1l0.1,0.9h0.3l-0.1-0.9l0.5-0.1l0.1,0.8h0.3l-0.1-0.9l0.4-0.1l0.1,0.9h0.3l-0.1-0.9
			l1.7-0.3l2.3,0.3l-0.1,1.4h0.3l0.1-1.4l1,0.1l0.1,1.3h0.3l-0.1-1.2l1,0.1l0.1,1.3h0.3l-0.1-1.3l1.2,0.1l0.1,1.2h0.3l-0.1-1.2
			l1.4,0.2l0.1,1.2h0.3l-0.1-1.2l1.1,0.1l0.1,1.2h0.3l-0.1-1.1l1,0.1l0.1,1.2h0.3l-0.1-1.2l0,0l0,0l0,0l0.9,0.1l0.1,1.3h0.3
			l-0.1-1.2l0.9,0.1l0.1,0.9h0.3l-0.1-0.9l0.9,0.1l0.1,1h0.3l-0.1-1l1.5,0.1l-3.7,2.8c-0.1,0-0.1,0.1-0.1,0.2l-1,4.5l-4.2-3.9
			c-0.1-0.1-0.2-0.1-0.4-0.1l-6.1,2.2l-2.9-1.8c-0.1-0.1-0.3-0.1-0.4,0l-2.2,2l-4.4-1.7l2.8-4.1v0.5h0.3l-0.1-0.9l0.2-0.4v0.6h0.3
			l-0.1-0.9H-778.377z M-758.077-209.15l-1-0.6l0.2-0.2l0.9,0.5L-758.077-209.15z M-767.477-207.35l0.2,2.2l-0.3-0.1l-0.1-2.1
			H-767.477z M-766.777-207.65l0.2-0.1l0.1,0.1l0.2,2.6l-0.4-0.1L-766.777-207.65z M-765.677-206.85l0.3,0.3l0.1,1.8l-0.3-0.1
			L-765.677-206.85z M-764.577-205.85l0.2,0.2l0.1,1.1h-0.2l0,0L-764.577-205.85z M-763.677-204.95l0.6,0.6l-0.6-0.1V-204.95z
			 M-761.177-205.45l0.2,0.1l-0.3,0.3L-761.177-205.45z M-760.977-206.15l0.1-0.3l0.6,0.4l-0.3,0.3L-760.977-206.15z
			 M-760.777-207.25l0.1-0.3l1.1,0.7l-0.2,0.3L-760.777-207.25z M-760.477-208.25l0.1-0.3l1.5,1l-0.2,0.2L-760.477-208.25z
			 M-759.877-209.05l0.3-0.2l1.3,0.8l-0.1,0.3L-759.877-209.05z M-758.277-210.35l0.3-0.2l0.4,0.3l-0.1,0.3L-758.277-210.35z
			 M-757.377-211.05l0.2-0.2l-0.1,0.2H-757.377z M-788.377-208.35l8.1-3.9l-5.3,7.5l-0.1-2.5c0-0.2-0.1-0.3-0.3-0.3l-2.9-0.2
			L-788.377-208.35z M-788.177-207.15l-0.2,0.2l-0.2-0.2H-788.177z M-787.277-207.05h0.4l-0.9,0.8l-0.2-0.2L-787.277-207.05z
			 M-786.277-206.65v0.5l-0.6,0.7l-0.4-0.4L-786.277-206.65z M-786.277-205.05v0.4l-0.2-0.2L-786.277-205.05z M-784.677-204.75v0.4
			l-0.4,0.1L-784.677-204.75z M-784.077-205.75l0.3-0.4l0.1,1.5l-0.3,0.1L-784.077-205.75z M-783.077-207.05l0.1-0.1l0.2,0.1
			l0.1,2.2l-0.3,0.1L-783.077-207.05z M-782.177-206.85l0.3,0.1l0.1,1.6l-0.3,0.1L-782.177-206.85z M-781.077-206.45l0.3,0.1
			l0.1,0.9l-0.3,0.1L-781.077-206.45z M-780.077-206.05l0.8,0.3l-0.8,0.2V-206.05z M-776.977-206.25v0.6l-0.5-0.1L-776.977-206.25z
			 M-776.277-206.85l0.3-0.2l0.1,1.6l-0.2-0.1L-776.277-206.85z M-775.377-207.15l0.6,0.4l0.1,1l-0.6,0.2L-775.377-207.15z
			 M-774.077-206.25l0.4,0.3l-0.4,0.1V-206.25z M-770.777-206.25v0.4l-0.7-0.1L-770.777-206.25z M-770.077-206.45l0.6-0.2l0.1,1.1
			l-0.6-0.1L-770.077-206.45z M-783.677-217.45l-3-3.7l0,0c-0.1-0.1-0.2-0.2-0.4-0.1l-5.7,1.5l5.5-2.3l4.3,1.7L-783.677-217.45z
			 M-795.477-236.75l0.7,1.2l0.3-0.2l-0.7-1.2l1.1-0.6l0.7,0.8l0.3-0.2l-0.6-0.8l1.3-0.8l0.7,0.9l0.3-0.2l-0.7-0.9l1.4-0.8l0.7,0.8
			l0.3-0.2l-0.6-0.8l1.4-0.8l0.8,1l0.3-0.2l-0.8-1l1.3-0.7l0.6,0.7l0.3-0.2l-0.7-0.6l2.6-1.5l-1.2,9l-2.5,3.9l-8-1.9l-0.5-2v-2
			l0.2-0.2L-795.477-236.75z M-791.677-248.95l-0.3-7.7l4.3,2.4L-791.677-248.95z M-794.477-241.05h0.2l-0.2,0.4V-241.05z
			 M-793.877-241.75h-0.6v-0.3h0.7L-793.877-241.75z M-794.477-242.85v-0.3h0.7l0.2,0.3H-794.477z M-794.477-243.85v-0.6l0.3,0.6
			H-794.477z M-791.377-264.55l1.4-0.9l-1.5,2.2L-791.377-264.55z M-790.377-277.65l0.3-3.2l3,0.3L-790.377-277.65z
			 M-787.677-295.85l0.3,1l-1.1,1.4L-787.677-295.85z M-785.077-305.35l1.4,0.4l-2.4,3.7L-785.077-305.35z M-782.977-313.65l0.9,2
			l-1.8,1.4L-782.977-313.65z M-781.477-314.95l0.6,1.9l0.3-0.1l-0.5-1.9l0.6-0.2l0.5,1.4l0.3-0.1l-0.5-1.4l0.7-0.2l0.7,2.2l0.3-0.1
			l-0.6-2.3l0.5-0.2l0.4,1.2l0.3-0.1l-0.4-1.2l0.7-0.3l0.5,1.5l0.3-0.1l-0.5-1.6l0.8-0.3l0.5,1.5l0.3-0.1l-0.5-1.5l1-0.4
			c0.6,1,2.4,4.3,3.3,5c0.1,0.1,0.2,0.2,0.4,0.3l-4.4,4.3l-5.6-4.2l-1.2-2.8L-781.477-314.95z M-769.777-310.75l0.5,1.3l0.3-0.1
			l-0.3-0.8c0.2,0.2,0.5,0.3,0.7,0.5l0.4,1l0.3-0.1l-0.2-0.6c0.2,0.1,0.4,0.2,0.5,0.4l0.2,0.7l0.3-0.1l-0.1-0.3
			c0.9,0.6,1.7,1.1,2.1,1.4l-1.9,4.7v0.1l0,0l-0.5,4.6l-2.6,1.4l-0.3,5.4l-7.2,1.7l0.3-4.5l1.5-4.4l-0.6-2.1l1.8-3.3l-0.8-3.2
			l0.5-0.5l0.4,0.8l0.3-0.1l-0.4-0.9l0.4-0.4l0.5,0.9l0.3-0.2l-0.5-1l0.5-0.5l0.7,1.6l0.3-0.1l-0.8-1.7l0.6-0.6l0.6,1.4l0.3-0.1
			l-0.7-1.5l0.5-0.5l0.4,0.9l0.3-0.1l-0.5-1l0.5-0.5l0.7,1.7l0.3-0.1l-0.6-1.6C-770.377-311.15-770.077-310.95-769.777-310.75z
			 M-765.177-301.95l0.4,1l0.3-0.1l-0.3-0.8l0.7,0.2l0.4,1l0.3-0.1l-0.3-0.7l0.8,0.2l0.3,0.9l0.3-0.1l-0.2-0.7l1.1,0.3l-2.1,6.9v0.1
			l-0.1,3.6l-5.3,4.3l-0.1-0.9h-9.9l-0.9,6.6l-3.8-0.4l2.4-6.3l0.4,0.8l0.3-0.1l-0.5-1l0.5-0.2l0.4,0.8l0.3-0.1l-0.3-1l0.7-0.3
			l0.3,0.6l0.3-0.1l-0.2-0.7l1-0.4l0.4,1l0.3-0.1l-0.4-0.9l1.1-0.2l0.3,0.7l0.3-0.1l-0.3-0.6l0.9-0.2l0.3,0.7l0.3-0.1l-0.3-0.7
			l1.8-0.4l0.5,1.1l0.3-0.1l-0.5-1l1.3-0.3h-0.1l0.6,1.2l0.3-0.1l-0.4-1.5l1.4-0.3l0.4,0.8l0.3-0.1l-0.4-0.9l0.1-1.1l0.2,0.4
			l0.3-0.1l-0.5-1l0.1-1l0.4,0.7l0.3-0.2l-0.7-1.1l0.1-1l0.3,0.8l0.3-0.1l-0.7-1.8l0.5-0.3l0.4,1.1l0.3-0.1l-0.4-1.2l0.4-0.2
			l0.3,0.7l0.3-0.1l-0.3-0.8l0.5-0.3l0.3,0.9l0.3-0.1l-0.4-1l0.3-0.1l0.1-0.8l0.2,0.5l0.3-0.1l-0.2-1.1l0.1-0.8l0.2,0.6l0.3-0.1
			l-0.5-1.3l0.1-0.9l0.4,1l0.3-0.1l-0.5-1.3L-765.177-301.95z M-754.777-268.45h-0.7l0.4-1.3L-754.777-268.45z M-751.777-252.05
			l-0.2-0.2l1.1-0.1v-0.1l0.1,0.3L-751.777-252.05z M-750.677-251.45l0.2,0.9l-0.7-0.8L-750.677-251.45z M-751.077-253.05l-1.5,0.1
			l-0.1-0.3l1.6-0.1V-253.05z M-752.977-253.95v-0.3l1.6-0.1l0.1,0.3L-752.977-253.95z M-752.877-254.85v-0.3l1.2-0.1l0.1,0.3
			L-752.877-254.85z M-752.777-255.95v-0.5l0.9-0.1l0.1,0.5L-752.777-255.95z M-752.677-257.05v-0.4h0.5l0.1,0.4H-752.677z
			 M-752.577-258.15l0.1-0.8l0.2,0.8H-752.577z M-753.177-262.05l-1-1.2h0.7L-753.177-262.05z M-754.777-263.95l-0.4-0.4h1.4
			l0.1,0.5C-753.677-263.95-754.777-263.95-754.777-263.95z M-755.777-265.05l-0.3-0.3h2l0.1,0.3H-755.777z M-765.577-259.45
			l2.9-4.3c0,0,0-0.1,0.1-0.2l0,0l0.9-6.7l0.1,0.3l0.3-0.1l-0.4-0.8l0.2-1.3l0.3,0.7l0.3-0.1l-0.5-1.1l0.3-0.8l0.6,1.3l0.3-0.2
			l-0.8-1.6l0.5-1.5l0.5,1l0.3-0.2l-0.7-1.4l0.3-1l0.5,1l0.3-0.2l-0.7-1.3l0.2-0.7l0.6,1.2l0.3-0.2l-0.5-1l0.5,0.1l3.2,7.3l-1.4,5.5
			l0,0l0,0l-0.9,6l-2.9,3.9l-4.4-2L-765.577-259.45z M-768.177-280.55l3.1,0.8l-2.3,6.2L-768.177-280.55z M-763.077-279.35l0.4,0.9
			l0.3-0.1l-0.3-0.6l0.5,0.1l0,0l0,0l0.3,0.1l0.3,0.6l0.3-0.2l-0.2-0.4l1.1,0.2l-1.7,5.4l-1.9-1.1c-0.1-0.1-0.2-0.1-0.3,0l-2.4,1
			l1.2-3.1l0.1,0.3l0.3-0.2l-0.3-0.6l0.3-0.8l0.3,0.6l0.3-0.1l-0.4-0.9l0.4-1.1l0.7,1.5l0.3-0.1l-0.7-1.6L-763.077-279.35z
			 M-764.077-273.75l1.9,1.1l-0.9,7.5l-3.6-7.5L-764.077-273.75z M-756.277-266.05l0.1-0.4h1.8l0.1,0.4H-756.277z M-755.877-267.15
			l0.2-0.6h1.1l0.1,0.6H-755.877z M-755.677-273.25l-2.2-5l1.6,0.3C-755.977-276.45-755.777-274.75-755.677-273.25z
			 M-761.477-279.65l1.8-2.8l3,3.6L-761.477-279.65z M-762.277-279.85l-6-1.5l-0.5-4l0.5-0.4l0.5,1l0.3-0.1l-0.5-1.1l1-0.8l0.4,0.9
			l0.3-0.1l-0.5-1l0.8-0.6l0.9,1.7l0.3-0.2l-1-1.7l0.7-0.6l0.4,0.9l0.3-0.1l-0.5-1l0.5-0.4l0.3,0.7l0.3-0.1l-0.1-0.9l0.5-0.4
			l0.5,1.1l0.3-0.1l-0.5-1.2l4.2,1.6l-0.6,4L-762.277-279.85z M-761.277-298.65h0.5v0.3h-0.7L-761.277-298.65z M-762.177-295.75h1.9
			l0,0c0,0.1,0,0.2,0.1,0.3h-2.1L-762.177-295.75z M-761.577-291.65L-761.577-291.65L-761.577-291.65c0.6,0.8,1.3,1.6,1.9,2.3
			l-3.1-1.2v-2.6C-762.477-292.65-762.077-292.15-761.577-291.65z M-759.677-290.35h0.4c0.1,0.2,0.1,0.5,0.2,0.7
			C-759.277-289.95-759.477-290.15-759.677-290.35z M-760.277-291.05c-0.1-0.2-0.3-0.3-0.4-0.5h1.1c0,0.2,0.1,0.3,0.1,0.5H-760.277z
			 M-761.277-292.25c-0.1-0.1-0.2-0.2-0.3-0.4h1.8c0,0.1,0,0.2,0.1,0.4H-761.277z M-759.877-293.35h-2.2c-0.1-0.1-0.2-0.2-0.3-0.3
			h2.4C-759.977-293.65-759.877-293.45-759.877-293.35z M-762.577-294.35l0.1-0.2h2.4c0,0.1,0,0.1,0,0.2H-762.577z M-761.977-296.45
			l0.1-0.2h1.4v0.3C-760.477-296.45-761.977-296.45-761.977-296.45z M-761.677-297.35l0.1-0.3h1v0.3H-761.677z M-760.877-299.35
			h-0.2l0.1-0.4L-760.877-299.35z M-771.477-248.35h-5.3l2.6-28.7L-771.477-248.35z M-783.277-252.95l-4-9.3l1.2-0.1v0.8h0.3v-0.9
			l0.7-0.1v1.2h0.3l0.1-1.1h0.6v0.6h0.3v-0.7c0,0,0,0,0.1-0.1l0.5-0.9v0.8h0.3v-1.4l1.1-2L-783.277-252.95z M-791.977-257.45
			l0.3-4.4l0.2-0.3v0.5h0.3l0.1-1l0.3-0.5v0.4h0.3l0.1-1l0.4-0.6v0.5h0.3l0.1-1.1l0.4-0.5v1h0.3v-0.8l0.7,2.7l0,0l0,0l4.1,9.5
			L-791.977-257.45z M-789.977-281.45l0.2-1.9h0.1l0.4,0.8l0.3-0.2l-0.4-0.8l0.7-0.3l0.4,0.9l0.3-0.1l-0.4-0.9l0.6-0.3l0.7,1.4
			l0.3-0.1l-0.7-1.4l0.7-0.3l0.4,0.9l0.3-0.1l-0.4-0.9l0.9-0.4l1.2,4.4L-789.977-281.45z M-788.677-288.85h-0.5v-0.3h0.4
			L-788.677-288.85z M-789.277-288.15h0.8l0.1,0.2h-0.9V-288.15z M-787.577-287.55l-1.1-4l1.5-0.1l0.5,1.1l0.3-0.1l-0.5-1l0.9-0.1
			l0.5,1l0.3-0.1l-0.4-0.9l1.9-0.2l0.5,1l0.3-0.1l-0.4-0.9h0.4c0,0,0,0,0.1,0l0.7-0.2l0.6,1.2l0.3-0.1l-0.5-1.1l1.3-0.4l0.4,0.9
			l0.3-0.1l-0.4-0.8l2.2-0.7l-0.3,4.5l-10.9,4.9l1.6-2.9C-787.577-287.35-787.577-287.45-787.577-287.55z M-786.577-294.85l-0.6-1.9
			l0.8-0.2l0.4,1.3l0.3-0.1l-0.4-1.3l1.1-0.3l0.6,1.2l0.3-0.1l-0.5-1.1l1.2-0.3l0.5,1l0.3-0.1l-0.5-1l1.1-0.3l0.4,1l0.3-0.1
			l-0.4-0.9l1-0.3l0.5,1l0.3-0.1l-0.4-0.9l0.9-0.2l0.5,1l0.3-0.1l-0.5-1.1l2.3-0.6l0.3,0.9l-1.3,3.8l-5.3,1.7l-5.2,0.5l1.7-2.2
			C-786.577-294.65-786.577-294.75-786.577-294.85z M-781.877-286.95l-2,5.2l-1-3.8L-781.877-286.95z M-783.877-305.75l3-0.6
			c0.1,0,0.1,0,0.2-0.1l0.1,0.3l0.3-0.1l-0.1-0.5l0.4-0.4l0.1,0.4l0.3-0.1l-0.2-0.6l0.3-0.3l0.2,0.5l0.3-0.1l-0.2-0.7l0.5-0.5
			l0.3,1.2l0.3-0.1l-0.3-1.2l0.7,0.6l0.2,0.7l0.3-0.1l-0.1-0.4l1.1,0.9l0.7,2.7l-4.1-0.2L-783.877-305.75z M-784.077-309.05l2.4-2
			l2.5,1.9l-2,2.2l-3.6,0.7L-784.077-309.05z M-786.577-299.15l0.8-1.2l0.1,0.3l0.3-0.1l-0.2-0.5l0.4-0.6l0.4,0.9l0.3-0.1l-0.5-1.1
			l0.6-0.9l0.3,0.6l0.3-0.1l-0.3-1l0.5-0.7l0.4,0.9l0.3-0.1l-0.5-1.1l0.5-0.7l0,0l0,0l0.5,1.3l0.3-0.1l-0.4-1l0.8,0.3l0.4,1l0.3-0.1
			l-0.3-1l1.2,0.4l0.1,0.4l0.3-0.1v-0.2l0,0h0.1l4.1,0.2l-1.6,2.9l0.2,0.6l-10.2,2.6L-786.577-299.15z M-788.977-289.75h-0.2v-0.5
			L-788.977-289.75z M-789.377-287.15h0.9l-0.2,0.4h-0.7V-287.15z M-789.477-286.05h0.4l-0.5,0.9L-789.477-286.05z M-787.077-279.45
			l0.4,0.8l0.3-0.1l-0.4-0.9l0.5-0.5l0.4,0.9l0.3-0.1l-0.4-0.8l1,0.1l0.4,0.9l0.3-0.1l-0.3-0.7l0.9,0.1l0,0l0.6,1.2l0.3-0.1l-0.5-1
			l1,0.1l0.5,1.1l0.3-0.1l-0.4-0.9l1.5,0.2l-4.7,6.9l-2.6-6.3L-787.077-279.45z M-784.677-271.85v0.5h0.3l0.1-1.1l0.8-1.1v0.6h0.3
			l0.1-1.2l0.4-0.6v0.7h0.3l0.1-1.3l0.8-1.1v1.2h0.3v-1.7l0.4-0.6l0.1,0.9h0.3l-0.1-1.3l0.6-0.9l-1.4,11.1l-2.8,4.6l-3.5,0.3
			l-0.9-3.5l1.7-1.1c0.1,0,0.1-0.1,0.1-0.2L-784.677-271.85z M-793.477-250.55L-793.477-250.55l1-0.1v0.7h-1.2L-793.477-250.55z
			 M-793.677-249.15l1.3-0.1v0.7h-1.5L-793.677-249.15z M-792.577-255.75h-0.2l0.2-0.3V-255.75z M-793.277-255.05h0.7v0.5h-1
			L-793.277-255.05z M-793.977-253.85h1.4v0.5h-1.7L-793.977-253.85z M-792.477-252.75v0.3l-1.7,0.1l-0.1-0.4H-792.477z
			 M-792.477-251.75v0.5h-1.2l-0.2-0.5H-792.477z M-794.077-247.05L-794.077-247.05l0.4,0.1l-0.5,0.4L-794.077-247.05z
			 M-792.877-247.65L-792.877-247.65h-1.1v-0.2h1.3L-792.877-247.65z M-783.377-251.75L-783.377-251.75l-0.6,4.7l-2.4-6.4
			L-783.377-251.75z M-796.377-223.05l1.6-1.2l0.7,0.9l0.3-0.2l-0.7-0.9l0.9-0.6l0.8,0.8l0.2-0.2l-0.7-0.7l0.8-0.6l0.8,0.8l0.2-0.2
			l-0.8-0.8l0.5-0.4l0.8,0.8l0.2-0.2l-0.8-0.8l0.8-0.6l0.9,0.9l0.2-0.2l-0.9-0.9l0.9-0.7l0.9,0.9l0.2-0.2l-0.8-0.8l1-0.7l4.8,7.8
			l-3.8-1.5c-0.1,0-0.2,0-0.3,0l-8.8,3.7L-796.377-223.05z M-796.277-231.25l7.4,1.7l-7.9,5.8l-2.7-1.5L-796.277-231.25z
			 M-798.777-224.05l-0.5,0.2c0-0.2-0.1-0.4-0.1-0.6L-798.777-224.05z M-798.077-223.65l0.5,0.3l-1.5,0.7c0-0.2-0.1-0.3-0.1-0.5
			L-798.077-223.65z M-798.877-221.95l1.8-0.8v0.5l-1.7,0.7C-798.777-221.75-798.877-221.85-798.877-221.95z M-796.977-221.55v0.4
			l-1.4,0.5c0-0.1-0.1-0.2-0.1-0.3L-796.977-221.55z M-796.877-220.45v0.3l-0.9,0.3c-0.1-0.1-0.1-0.2-0.2-0.3L-796.877-220.45z
			 M-796.877-219.35v0.4c-0.2-0.1-0.3-0.1-0.4-0.2L-796.877-219.35z M-763.377-263.95l-2.3,3.4l-1.4-11.2L-763.377-263.95z
			 M-760.977-255.15h0.1c0.1,0,0.2,0,0.3-0.1l3.2-4.2c0,0,0.1-0.1,0.1-0.2l0.8-5.3l3.5,4.1l-0.7,7.3c0,0.1,0,0.2,0.1,0.3l3.1,3.6
			l-4.7,0.1l-9.4-2.3l-0.6-5.2L-760.977-255.15z M-750.677-243.95l0.1,0.5h-0.2L-750.677-243.95z M-747.177-224.45l-0.2-0.3h0.1
			L-747.177-224.45z M-747.777-225.45l-0.1-0.3h0.4l0.1,0.3H-747.777L-747.777-225.45z M-748.277-226.45l-0.1-0.2h0.7l0.1,0.2
			H-748.277z M-748.777-227.35l-0.1-0.2h1v0.2H-748.777z M-749.277-228.25l-0.1-0.1v-0.1h1.3l0.1,0.3L-749.277-228.25z
			 M-748.177-229.25h-1l0.1-0.3h0.9V-229.25z M-748.977-230.25l0.1-0.4h0.5l0.1,0.4H-748.977z M-748.777-231.35l0.1-0.6l0.1,0.6
			H-748.777z M-750.477-237.25l-0.2-0.3h0.9v0.3H-750.477z M-749.477-236.55l0.2,1l-0.7-1H-749.477z M-749.877-238.35v0.1h-1.3
			l-0.2-0.3h1.4L-749.877-238.35z M-751.777-239.15L-751.777-239.15l0.1-0.3h1.7v0.3H-751.777z M-751.477-240.15l0.1-0.3h1.3v0.3
			H-751.477z M-751.277-241.15l0.1-0.5h0.9l0.1,0.5H-751.277z M-750.377-242.35h-0.6l0.1-0.4h0.5V-242.35z M-751.477-243.35
			L-751.477-243.35L-751.477-243.35l-1,4.3c0,0.1,0,0.2,0.1,0.3l3.4,5l-0.6,3.1l-2.9-1.6l0,0l0,0l-5.5-3c-0.1,0-0.2-0.1-0.2,0
			l-4.3,0.8l-0.5-3.9l2.4-3.8c0.1-0.1,0.1-0.2,0-0.3l-4-8.5l1.3,0.3l0.9,1.8l0.3-0.2l-0.8-1.6l1.1,0.3l0.8,1.7l0.3-0.2l-0.5-1.4
			l1.4,0.3l1,2.4l0.3-0.1l-0.9-2.2l1.1,0.3l0.4,1.3l0.3-0.1l-0.4-1.1l1.1,0.3l0.5,1.4l0.3-0.1l-0.4-1.2l0.9,0.2l0.4,1.3l0.3-0.1
			l-0.3-0.8l4,2.7L-751.477-243.35z M-761.277-242.45l-1.8,2.9l-1.2-9.4L-761.277-242.45z M-749.877-220.55l3.4,1.6l-0.3,0.3
			l-3.3-1.6L-749.877-220.55z M-749.377-221.15l0.8-0.2l2.5,1.2l0.1,0.5L-749.377-221.15z M-747.477-221.55l1-0.2l0.2,0.8
			L-747.477-221.55z M-750.777-246.45l-3.4-2.3l4.1-0.1L-750.777-246.45z M-756.377-279.45l-3-3.6l0.6-0.9c0,0,0-0.1,0.1-0.1
			l0.4-2.8c0.2,0.6,0.4,1,0.6,1.3C-757.277-285.15-756.777-282.55-756.377-279.45z M-762.077-301.95l-4-1l1.2-3.2
			c0.1,0.4,0.2,0.7,0.4,1.1C-763.777-303.85-762.777-302.65-762.077-301.95z M-772.077-323.15c0,0,0,0.1,0.1,0.1l-1,1.8l0.3,0.2
			l0.8-1.5c0.1,0.3,0.2,0.6,0.4,1l-0.5,1l0.3,0.2l0.3-0.7c0.1,0.2,0.1,0.3,0.2,0.5l-0.6,1.3l0.3,0.2l0.5-1c0.1,0.2,0.2,0.5,0.3,0.7
			l-0.4,0.6l0.3,0.2l0.2-0.4c0.1,0.2,0.2,0.4,0.2,0.7l-0.3,0.5l0.3,0.2l0.1-0.2c0.1,0.2,0.1,0.4,0.2,0.6l-0.4,0.7l0.3,0.2l0.3-0.5
			c0.1,0.1,0.1,0.3,0.2,0.4l-0.4,0.8l0.3,0.2l0.3-0.7c0.1,0.3,0.2,0.6,0.3,0.9l-0.4,0.9l0.3,0.2l0.3-0.6c0,0.1,0.1,0.1,0.1,0.2l0,0
			l4.3,4.8c-0.1,0.3-0.2,0.8-0.3,1.5c-1.5-1-5.8-3.9-6.6-4.5c-0.7-0.6-2.5-3.7-3.2-5l-0.6-8.9l1.2,1.2L-772.077-323.15z
			 M-779.277-319.85l0.8,1.2l0.3-0.2l-0.9-1.3l0.1-0.2l0,0l0.1-0.1l0.5,0.8l0.3-0.2l-0.6-0.9l0.3-0.6l0.8,1.1l0.3-0.2l-0.9-1.4
			l0.3-0.5l0.5,0.8l0.3-0.2l-0.6-1l1.9-3.6l0.5,8.4l-6.9,2.4l1.6-2.4l0.5,0.8l0.3-0.2l-0.6-0.9l0.4-0.6l0.4,0.7l0.3-0.1l-0.5-0.8
			L-779.277-319.85z M-790.677-274.55l0.2-2.1l0.1-0.1l0.4,0.8l0.3-0.1l-0.4-0.9l0.5-0.4l0.4,0.9l0.3-0.1l-0.4-0.9l0.5-0.4l0.4,0.9
			l0.3-0.3l-0.5-1l0.4-0.3l2.7,6.5l-1.8,4.1l-4.1,2.6L-790.677-274.55z M-794.577-239.05L-794.577-239.05L-794.577-239.05l1.8-3.4
			c0.1-0.1,0.1-0.2,0-0.3l-1.5-2.8l1.2-1l0.7,0.9l0.3-0.2l-0.7-0.9l1.1-0.9c0,0,0,0,0-0.1l0,0v-0.1l0.5,0.6l0.3-0.2l-0.5-0.6
			l0.8-1.2l0.7,0.9l0.3-0.2l-0.7-0.9l0.7-0.9l0.4,0.5l0.3-0.2l-0.5-0.6l0.9-1.2l0.8,1l0.3-0.2l-0.8-1l1.1-1.4l3,7.9l-0.2,1.8
			l-11.3,6.3L-794.577-239.05z M-797.077-232.65l0.2,1l-1.4,2.6L-797.077-232.65z M-785.677-217.95c0-0.1,0-0.2,0-0.3l-0.3-0.9
			l2,2.4l-3.3,1.8C-786.677-215.95-786.077-217.05-785.677-217.95z M-789.777-210.75c-0.1-0.9,0-1.9,0.2-2.1c0.1,0,0.2,0,0.2,0
			c0.3,0,0.7-0.3,1.2-0.9l2.2-1.2l-2.7,5.5L-789.777-210.75z M-768.677-205.45l-0.1-1.5l0.3-0.1l0.1,1.7h-0.1L-768.677-205.45z
			 M-757.177-212.75l-5-0.4l0.3-4.8L-757.177-212.75z M-762.477-218.85v0.1l0,0l-0.4,5.6l-11.1-1.2h-0.1l-5.2,0.8l0,0l-4.9,0.8
			l2-7.5l0.1,0.8h0.3l-0.1-1.1l0.7-0.5l0.1,0.8h0.3l-0.1-1.2l0.7-0.5l0.1,1h0.3l-0.1-1.2l0.5-0.4l0.1,1.1h0.3l-0.1-1.3l0,0l0.4-0.3
			l0.1,1h0.3l-0.1-1.3l0.6-0.5l0.1,0.8h0.3l-0.1-1l1.7-1.3c0.1-0.1,0.1-0.2,0.1-0.3c0-0.1,0-0.2-0.1-0.3l-1.9-1.7l0.9-0.6l0.1,1h0.3
			l-0.1-1.2l0.9-0.6l0.1,0.7h0.3l-0.1-1l0.6-0.5l0.1,1h0.3l0.1-1.4l0.5-0.4l0.1,0.8h0.3l-0.1-1l0.5-0.4h0.1l0.1,1h0.3l-0.1-1h0.6
			l0.1,0.8h0.3l0.1-0.8h0.7l0.1,0.9h0.3l-0.1-0.9h0.8l0.3,2.5h5.1l2.7,8.3C-761.877-219.85-762.277-219.25-762.477-218.85z
			 M-759.177-222.45c-0.2,0-0.4,0.1-0.6,0.2l1.3-2.7l4.7,5.4c-1.9-1.2-4.5-2.7-5.2-2.9
			C-759.077-222.45-759.177-222.45-759.177-222.45z M-747.477-217.85l-0.6-0.1l-2.6-1.5l0.2-0.3l3.2,1.6L-747.477-217.85z
			 M-771.377-302.05l0.3,0.1l-0.7,3.3l-0.3-0.1L-771.377-302.05z M-773.277-301.45l0.3,0.1l-0.7,3.3l-0.3-0.2L-773.277-301.45z
			 M-771.677-303.05l-0.7,3.3l-0.3-0.1l0.7-3.3L-771.677-303.05z M-783.377-267.45l0.6-2.1l0.3,0.1l-0.6,2H-783.377z
			 M-784.677-267.05l-0.3-0.1l0.6-2.1l0.3,0.1L-784.677-267.05z M-783.677-268.05l-0.3-0.1l0.6-2.1l0.3,0.1L-783.677-268.05z
			 M-759.977-262.05l0.6-2.9l0.3,0.1l-0.6,2.9L-759.977-262.05z M-760.777-264.35l-0.6,2.9l-0.3-0.1l0.6-2.9L-760.777-264.35z
			 M-760.377-262.95l-0.3-0.1l0.6-2.9l0.3,0.1L-760.377-262.95z M-769.277-223.85l0.3,0.1l-1.2,5.3l-0.3-0.1L-769.277-223.85z
			 M-771.677-223.15l0.3,0.1l-1.2,5.3l-0.3-0.1L-771.677-223.15z M-769.677-225.75l-1.2,5.3l-0.3-0.1l1.2-5.3L-769.677-225.75z
			 M-781.277-225.75l-0.5,2.2l-0.3-0.1l0.5-2.2L-781.277-225.75z M-782.777-226.85l0.3,0.1l-0.5,2.2l-0.3-0.1L-782.777-226.85z
			 M-781.977-225.35l-0.3-0.1l0.5-2.2l0.3,0.1L-781.977-225.35z M-756.377-254.45l0.3,0.1l-0.5,2.2l-0.3-0.1L-756.377-254.45z
			 M-757.677-253.15l-0.4-0.1l0.5-2.2l0.3,0.1L-757.677-253.15z M-756.777-253.95l-0.3-0.1l0.5-2.2l0.3,0.1L-756.777-253.95z
			 M-789.477-233.15l0.8-3l0.3,0.1l-0.8,3L-789.477-233.15z M-790.877-232.65l-0.3-0.1l0.8-3l0.3,0.1L-790.877-232.65z
			 M-789.677-234.15l-0.3-0.1l0.8-3l0.3,0.1L-789.677-234.15z M-788.177-243.75l0.9-3.7l0.3,0.1l-0.9,3.7L-788.177-243.75z
			 M-789.777-243.15l-0.4-0.1l1-3.7l0.3,0.1L-789.777-243.15z M-788.377-244.95l-0.3-0.1l0.9-3.7l0.3,0.1L-788.377-244.95z
			 M-756.177-243.35l0.3,0.1l-1,4.1l-0.3-0.1L-756.177-243.35z M-758.377-242.85l0.3,0.1l-1,4.1l-0.3-0.1L-758.377-242.85z
			 M-756.477-244.75l-1,4.1l-0.3-0.1l1-4.1L-756.477-244.75z"/>
	</g>
	<g>
		<path fill="#E3CC98" d="M-718.164-219.993h-6.901l8.627-91.213h11.157l8.626,91.213h-6.901l-2.99-31.632h-8.627L-718.164-219.993z
			 M-710.918-298.324l-0.92,10.812l-2.646,28.986h7.247l-2.76-28.871L-710.918-298.324z"/>
		<path fill="#E3CC98" d="M-668.475-274.86c0,0.998-0.057,2.09-0.17,3.278c-0.113,1.19-0.32,2.32-0.622,3.393
			c-0.302,1.075-0.773,2.013-1.413,2.818c-0.642,0.805-1.452,1.323-2.432,1.553c0.979,0,1.79,0.402,2.432,1.208
			c0.642,0.805,1.132,1.783,1.472,2.933c0.338,1.15,0.564,2.398,0.677,3.739c0.113,1.342,0.171,2.588,0.171,3.738v19.209
			c0,2.53,0.058,4.601,0.172,6.211c0.115,1.61,0.268,2.875,0.46,3.796c0.19,0.92,0.403,1.592,0.633,2.013
			c0.23,0.422,0.46,0.748,0.69,0.978h-6.817c-0.226-0.153-0.435-0.363-0.624-0.632c-0.189-0.268-0.377-0.766-0.565-1.495
			c-0.188-0.728-0.34-1.783-0.453-3.163s-0.169-3.22-0.169-5.521v-22.775c0-2.606-0.288-4.466-0.862-5.579
			c-0.575-1.111-1.17-1.858-1.783-2.243c-0.537-0.383-1.113-0.593-1.725-0.633c-0.615-0.038-1.112-0.058-1.495-0.058h-2.876v42.099
			h-6.901v-91.213h11.328c2.06,0,3.776,0.23,5.149,0.69c1.373,0.46,2.48,1.17,3.319,2.128c0.838,0.96,1.429,2.205,1.772,3.738
			c0.343,1.535,0.553,3.336,0.63,5.406V-274.86z M-680.437-268.993c1.993,0,3.336-0.383,4.026-1.151
			c0.69-0.765,1.073-2.338,1.15-4.716v-23.58c0-1.763-0.25-3.163-0.748-4.199c-0.5-1.035-1.86-1.59-4.083-1.668h-3.681v35.312
			H-680.437z"/>
		<path fill="#E3CC98" d="M-614.414-311.207l-7.247,91.213h-9.087l-7.592-71.314l-7.477,71.314h-9.202l-7.131-91.213h7.016
			l3.911,51.875l0.46,8.396l0.805,12.423l1.265-12.423l0.69-8.396l5.867-51.875h7.592l5.981,51.99l0.69,8.742l1.265,11.963
			l0.805-12.077l0.46-8.857l3.911-51.76H-614.414z"/>
		<path fill="#E3CC98" d="M-586.694-311.207v91.213h-6.901v-42.099h-8.512v42.099h-6.901v-91.213h6.901v42.214h8.512v-42.214
			H-586.694z"/>
		<path fill="#E3CC98" d="M-566.105-219.993h-11.733v-91.213h11.733c1.38,0,2.703,0.097,3.968,0.287
			c1.265,0.192,2.396,0.672,3.393,1.438c0.995,0.768,1.783,1.918,2.358,3.451c0.575,1.535,0.863,3.681,0.863,6.441v67.979
			c0,2.76-0.288,4.908-0.863,6.441c-0.575,1.535-1.363,2.685-2.358,3.451c-0.998,0.768-2.128,1.247-3.393,1.438
			C-563.402-220.089-564.725-219.993-566.105-219.993z M-570.936-226.895h3.911c2.224,0,3.546-0.555,3.969-1.668
			c0.42-1.111,0.633-2.511,0.633-4.198v-65.678c-0.077-2.223-0.365-3.756-0.863-4.601c-0.5-0.843-1.745-1.265-3.739-1.265h-3.911
			V-226.895z"/>
	</g>
</g>
</svg>
