<?xml version="1.0" encoding="utf-8"?>
<!-- Generator: Adobe Illustrator 17.0.0, SVG Export Plug-In . SVG Version: 6.00 Build 0)  -->
<!DOCTYPE svg PUBLIC "-//W3C//DTD SVG 1.1//EN" "http://www.w3.org/Graphics/SVG/1.1/DTD/svg11.dtd">
<svg version="1.1" id="Layer_1" xmlns="http://www.w3.org/2000/svg" xmlns:xlink="http://www.w3.org/1999/xlink" x="0px" y="0px"
	 width="54.632px" height="123.887px" viewBox="0 0 54.632 123.887" enable-background="new 0 0 54.632 123.887"
	 xml:space="preserve">
<path fill="#FFFFFF" d="M54.624,107.931l-1.912-8.497l-1.095-5.963c0-0.001-0.001-0.002-0.001-0.002l-0.816-4.446l-1.054-7.376
	l0.833-3.123c0.015-0.056,0.015-0.115,0.002-0.172L45.267,56.46c-0.143-1.497-1.323-13.532-2.417-14.846
	c-0.268-0.322-0.591-1.239-0.921-2.437l0,0c-0.578-2.094-1.18-5.05-1.555-7.204l-0.851-5.508c-0.006-0.041-0.02-0.081-0.041-0.117
	c0-0.001,0-0.001-0.001-0.002c-0.003-0.005-0.008-0.008-0.011-0.012c-0.018-0.029-0.039-0.058-0.066-0.081
	c-0.022-0.018-2.195-1.893-3.163-3.728c-0.925-1.753,0.01-4.373,0.019-4.399c0.044-0.121,0.017-0.257-0.069-0.352L31.8,12.905
	c-0.298-0.531-2.076-5.415-3.145-8.419c-0.013-0.037-0.033-0.073-0.059-0.104L26.66,2.018l-1.891-1.915
	c-0.078-0.079-0.189-0.116-0.3-0.1c-0.11,0.016-0.205,0.085-0.257,0.184L20.58,7.192l-3.819,5.729
	c-0.007,0.01-0.009,0.022-0.014,0.033c-0.004,0.008-0.012,0.013-0.015,0.022c-0.004,0.008-0.003,0.017-0.005,0.025
	c-0.004,0.011-0.011,0.02-0.013,0.031L13.1,27.692l-2.553,8.298c-0.007,0.022-0.011,0.045-0.013,0.068L8.831,53.086l-1.323,17.15
	l-2.456,3.971c-0.059,0.096-0.068,0.214-0.025,0.317l1.023,2.455l-0.957,4.783l0,0l-0.086,0.432
	c-0.005,0.023-0.007,0.046-0.007,0.068v5.852l-2.069,3.104c-0.038,0.057-0.059,0.124-0.059,0.193v2.072l-2.855,8.671
	c-0.014,0.044-0.02,0.09-0.016,0.137c0.022,0.271,0.553,6.374,3.656,6.879c0.003,0.001,0.005,0.001,0.007,0.002
	c0.132,0.021,0.267,0.036,0.408,0.036c0.029,0,0.058-0.004,0.086-0.011l8.849-2.26l0.78,2.31c-0.802,1.601-1.667,3.052-2.287,3.883
	l-0.004,0.002l0.001,0.002c-0.311,0.416-0.561,0.678-0.708,0.719c-0.265-0.118-0.538-0.064-0.728,0.142
	c-0.496,0.533-0.415,2.251-0.378,2.764c0.005,0.069,0.03,0.135,0.072,0.189l1.321,1.698l-0.68,0.849
	c-0.108,0.136-0.1,0.33,0.019,0.457l3.617,3.83c0.006,0.006,0.013,0.008,0.019,0.013c0.023,0.022,0.048,0.039,0.077,0.054
	c0.012,0.006,0.023,0.012,0.035,0.017c0.008,0.003,0.014,0.008,0.022,0.01c0.033,0.01,0.066,0.014,0.099,0.014
	c0.028,0,0.056-0.004,0.084-0.01h0.001l7.572-1.893l2.253,0.615c0.061,0.016,0.125,0.016,0.185-0.001l2.951-0.828l4.122,0.834
	l6.596,1.277c0.016,0.003,0.033,0.003,0.049,0.003c0.006,0.001,0.011,0.003,0.017,0.003c0.004,0,0.007-0.002,0.01-0.002
	c0.024-0.001,0.046-0.005,0.069-0.01c0.007-0.002,0.015-0.001,0.022-0.003c0.002-0.001,0.003-0.002,0.004-0.002
	c0.017-0.005,0.032-0.014,0.048-0.022c0.011-0.006,0.024-0.01,0.034-0.016c0.012-0.008,0.023-0.019,0.034-0.028
	c0.012-0.01,0.024-0.018,0.034-0.03c0.001-0.001,0.002-0.002,0.003-0.003l3.617-4.042c0.025-0.028,0.045-0.06,0.06-0.093
	l1.942-4.468c0.003-0.005,0.003-0.011,0.005-0.017c0.006-0.015,0.009-0.031,0.013-0.048c0.004-0.017,0.007-0.034,0.008-0.051
	c0.001-0.016,0-0.031-0.001-0.048c-0.001-0.018-0.004-0.036-0.008-0.054c-0.002-0.007-0.001-0.014-0.003-0.022
	c-0.003-0.008-0.008-0.015-0.011-0.023c-0.007-0.017-0.014-0.034-0.024-0.05c-0.008-0.013-0.016-0.026-0.026-0.039
	c-0.005-0.007-0.008-0.015-0.014-0.022l-5.607-6.201c0.816-1.488,1.95-3.012,2.486-3.012c0.001,0,0.001,0,0.001,0
	c0.733,0.146,4.529,2.469,6.902,3.994c0.007,0.005,0.016,0.005,0.023,0.009c0.023,0.012,0.046,0.019,0.071,0.026
	c0.016,0.005,0.031,0.015,0.047,0.017l4.681,0.639c0.114,0.015,0.23-0.027,0.307-0.114l1.702-1.915
	C54.619,108.155,54.649,108.04,54.624,107.931z M48.873,108.545l1.164,0.679l-1.509-0.206L48.873,108.545z M47.88,108.724
	l-6.205-7.242c-0.077-0.09-0.193-0.135-0.311-0.119c-0.117,0.016-0.218,0.09-0.268,0.197l-2.084,4.42l-2.392-7.362h1.624
	l-0.614-4.973l0.986-0.191l0.813,1.59l0.31-0.158l-0.767-1.5l1.224-0.237l0.654,1.348l0.313-0.151L40.55,93.08l1.029-0.199
	l1.056,2.484l0.32-0.136l-0.98-2.305l1.637,0.887l0.316,0.953l0.33-0.109l-0.2-0.601l0.966,0.524l0.554,1.667l0.33-0.109
	l-0.437-1.316l1.839,0.997l0.369,1.081l0.33-0.112l-0.247-0.725l2.453,1.329l-0.302,1.646c-0.014,0.079-0.002,0.161,0.037,0.232
	l3.181,5.742l-2.874,0.614c-0.084,0.017-0.158,0.066-0.208,0.135L47.88,108.724z M27.219,95.478c-0.074,0-0.145,0.024-0.205,0.067
	l-4.969,3.624l-0.861-0.746l1.293-12.122h6.898l1.04,9.178L27.219,95.478L27.219,95.478z M17.782,106.244l-5.249-8.456l1.691-2.665
	l-0.451,3.495h6.573l3.391,2.94L17.782,106.244z M15.29,115.209c0.067,0.073,0.16,0.114,0.258,0.114
	c0.018,0,0.036-0.002,0.054-0.005l3.012-0.478l-6.347,3.057l2.895-5.978l0.961-0.524l-0.91,3.491
	C15.182,115.001,15.211,115.122,15.29,115.209z M21.717,114.35l0.054,0.779l0.347-0.024l-0.056-0.81l0.457-0.072l0.061,0.878
	l0.347-0.024l-0.063-0.909l0.467-0.074l0.058,0.834l0.347-0.024l-0.06-0.865l0.419-0.066l0.062,0.894l0.347-0.024l-0.064-0.924
	l1.685-0.267l2.247,0.251l-0.081,1.405l0.347,0.02l0.08-1.386l1.033,0.116l0.089,1.287l0.347-0.024l-0.085-1.224l1.017,0.114
	l0.091,1.319l0.347-0.024l-0.087-1.256l1.146,0.128l0.086,1.237l0.347-0.024l-0.081-1.174l1.347,0.151l0.084,1.224l0.347-0.024
	l-0.08-1.161l1.087,0.122l0.082,1.185l0.347-0.024l-0.078-1.122l1.017,0.113l0.084,1.218l0.347-0.024l-0.08-1.154l0.016,0.002
	l0.001-0.003c0.005,0.001,0.008,0.003,0.013,0.004l0.851,0.063l0.089,1.29l0.347-0.024l-0.086-1.241l0.937,0.069l0.064,0.929
	l0.347-0.024l-0.061-0.879l0.88,0.065l0.07,1.016l0.347-0.024l-0.067-0.967l1.517,0.111l-3.67,2.835
	c-0.064,0.049-0.108,0.119-0.126,0.198l-1.034,4.525l-4.132-3.915c-0.095-0.09-0.233-0.119-0.355-0.075l-6.064,2.151l-2.843-1.802
	c-0.13-0.083-0.3-0.069-0.416,0.033l-2.228,1.966l-4.351-1.683l2.833-4.03l0.031,0.453l0.347-0.024l-0.061-0.882l0.248-0.353
	l0.041,0.596l0.347-0.024l-0.059-0.853L21.717,114.35z M41.921,118.188l-0.971-0.616l0.216-0.167l0.861,0.539L41.921,118.188z
	 M32.559,119.921l0.154,2.218l-0.332-0.064l-0.141-2.04L32.559,119.921z M33.24,119.68l0.215-0.077l0.136,0.129l0.181,2.612
	l-0.352-0.068L33.24,119.68z M34.338,120.44l0.336,0.319l0.123,1.784l-0.319-0.062L34.338,120.44z M35.422,121.467l0.202,0.192
	l0.073,1.059l-0.207-0.041l0.016-0.001L35.422,121.467z M36.37,122.366l0.638,0.605l-0.604-0.117L36.37,122.366z M38.849,121.889
	l0.167,0.121l-0.262,0.293L38.849,121.889z M39.017,121.152l0.08-0.347l0.639,0.4l-0.253,0.282L39.017,121.152z M39.26,120.087
	l0.08-0.347l1.089,0.691l-0.223,0.249L39.26,120.087z M39.504,119.02l0.069-0.3l1.523,0.966l-0.196,0.219L39.504,119.02z
	 M40.1,118.23l0.264-0.204l1.276,0.809l-0.127,0.292L40.1,118.23z M41.754,116.952l0.29-0.224l0.39,0.281l-0.126,0.29
	L41.754,116.952z M42.618,116.284l0.197-0.152l-0.097,0.223L42.618,116.284z M11.741,118.925l8.106-3.904l-5.25,7.469l-0.087-2.5
	c-0.006-0.176-0.143-0.32-0.319-0.335l-2.844-0.238L11.741,118.925z M11.97,120.168l-0.204,0.197l-0.219-0.233L11.97,120.168z
	 M12.893,120.245l0.376,0.031l-0.849,0.782l-0.177-0.187L12.893,120.245z M13.838,120.698l0.017,0.509l-0.594,0.742l-0.364-0.385
	L13.838,120.698z M13.893,122.275l0.012,0.355l-0.16-0.17L13.893,122.275z M15.445,122.493l0.027,0.39l-0.366,0.091L15.445,122.493z
	 M16.081,121.589l0.286-0.407l0.092,1.455l-0.3,0.075L16.081,121.589z M17.007,120.272l0.102-0.145l0.173,0.067l0.139,2.203
	l-0.275,0.069L17.007,120.272z M17.996,120.47l0.323,0.125l0.098,1.553l-0.31,0.078L17.996,120.47z M19.034,120.871l0.264,0.102
	l0.065,0.938l-0.259,0.065L19.034,120.871z M20.014,121.251l0.781,0.302l-0.747,0.187L20.014,121.251z M23.144,121.03l0.04,0.572
	l-0.525-0.143L23.144,121.03z M23.801,120.45l0.249-0.219l0.077,1.629l-0.233-0.063L23.801,120.45z M24.745,120.193l0.566,0.359
	l0.072,1.04l-0.564,0.159L24.745,120.193z M26.041,121.016l0.429,0.272l-0.403,0.113L26.041,121.016z M29.312,121.073l0.027,0.393
	l-0.723-0.146L29.312,121.073z M29.993,120.831l0.594-0.211l0.077,1.113l-0.617-0.125L29.993,120.831z M16.498,109.956l-2.996-3.658
	l-0.001,0.001c-0.083-0.102-0.22-0.153-0.354-0.117l-5.669,1.448l5.483-2.331l4.316,1.672L16.498,109.956z M4.758,90.695
	l0.694,1.161l0.298-0.179l-0.69-1.155l1.051-0.601l0.66,0.841l0.274-0.215l-0.629-0.801l1.329-0.759l0.736,0.939l0.274-0.215
	l-0.705-0.898l1.414-0.808l0.663,0.845l0.274-0.215L9.771,87.83l1.367-0.781l0.81,1.033l0.274-0.215l-0.779-0.993l1.298-0.742
	l0.559,0.713l0.274-0.215l-0.528-0.673l2.549-1.456l-1.16,8.99l-2.475,3.898l-7.918-1.853l-0.473-2.037v-1.983l0.154-0.231
	L4.758,90.695z M8.52,78.577l-0.299-7.618l4.29,2.437L8.52,78.577z M5.696,86.4L5.9,86.393l-0.204,0.395V86.4z M6.266,85.685
	l-0.57,0.018v-0.337l0.741-0.013L6.266,85.685z M5.696,84.67v-0.336l0.72-0.015l0.185,0.335L5.696,84.67z M5.696,83.639v-0.62
	l0.339,0.613L5.696,83.639z M8.759,63.076l1.345-0.85l-1.446,2.152L8.759,63.076z M9.833,50.064l0.315-3.15l2.946,0.315
	L9.833,50.064z M12.522,31.939l0.318,1.001l-1.052,1.382L12.522,31.939z M15.109,22.448l1.395,0.431l-2.393,3.619L15.109,22.448z
	 M17.141,14.199l0.869,2.006l-1.717,1.435L17.141,14.199z M18.683,12.903l0.629,1.891l0.33-0.11l-0.631-1.898l0.625-0.222
	l0.469,1.411l0.33-0.11l-0.471-1.417l0.697-0.248l0.741,2.232l0.33-0.11l-0.744-2.238l0.522-0.185l0.389,1.171l0.33-0.11
	l-0.391-1.177l0.702-0.25l0.51,1.537l0.33-0.11l-0.513-1.544l0.755-0.268l0.495,1.45l0.33-0.112l-0.496-1.454l1.018-0.362
	c0.554,1.015,2.368,4.268,3.248,4.954c0.093,0.072,0.235,0.176,0.412,0.302l-4.378,4.31l-5.538-4.153l-1.199-2.765L18.683,12.903z
	 M30.29,17.075l0.495,1.262l0.324-0.127L30.8,17.422c0.239,0.162,0.483,0.328,0.728,0.493l0.4,1.02l0.324-0.127l-0.216-0.549
	c0.177,0.119,0.352,0.238,0.525,0.354l0.227,0.721l0.332-0.105l-0.097-0.306c0.9,0.604,1.673,1.121,2.048,1.372l-1.856,4.711
	c-0.012,0.03-0.012,0.062-0.015,0.093l-0.007-0.001l-0.46,4.602l-2.721,1.44l-0.315,5.414l-7.163,1.645l0.286-4.437l1.455-4.419
	L23.7,27.254l1.807-3.242L24.672,20.8l0.489-0.482l0.375,0.796l0.315-0.148l-0.427-0.906l0.433-0.426l0.474,0.929l0.31-0.158
	l-0.524-1.027l0.46-0.452l0.746,1.596l0.315-0.147l-0.799-1.708l0.64-0.631l0.623,1.352l0.316-0.146l-0.675-1.465l0.515-0.507
	l0.434,0.919l0.315-0.148l-0.486-1.03l0.541-0.533l0.652,1.703l0.325-0.124l-0.599-1.564C29.701,16.671,29.988,16.868,30.29,17.075z
	 M34.893,25.825l0.38,1.041l0.327-0.119l-0.3-0.822l0.73,0.179l0.352,0.965l0.327-0.119l-0.272-0.746l0.778,0.191l0.323,0.885
	l0.327-0.119l-0.243-0.666l1.114,0.273l-2.124,6.828c-0.01,0.031-0.015,0.064-0.015,0.097l-0.069,3.619l-5.318,4.286l-0.109-0.881
	h-9.855l-0.851,6.596l-3.771-0.404l2.409-6.226l0.366,0.781l0.315-0.147l-0.463-0.988l0.505-0.226l0.356,0.761l0.315-0.147
	l-0.353-0.755l0.746-0.334l0.301,0.643l0.315-0.147l-0.298-0.638l0.979-0.438l0.445,0.952l0.315-0.147l-0.428-0.913l1.045-0.24
	l0.328,0.699l0.315-0.147l-0.296-0.632l0.919-0.211l0.339,0.725l0.315-0.147l-0.308-0.658l1.744-0.401l0.491,1.049l0.315-0.147
	l-0.459-0.981l1.314-0.302l-0.102,0.048l0.563,1.203l0.315-0.147l-0.542-1.157l1.39-0.319l0.355,0.757l0.315-0.147l-0.43-0.919
	l0.066-1.14l0.208,0.445l0.315-0.147l-0.481-1.028l0.057-0.979l0.398,0.674l0.3-0.177l-0.661-1.119l0.059-1.016l0.289,0.809
	l0.328-0.117l-0.538-1.507l0.492-0.261l0.357,1.092l0.331-0.108l-0.376-1.149l0.427-0.226l0.253,0.707l0.328-0.117l-0.27-0.754
	l0.542-0.287l0.335,0.936l0.328-0.117l-0.351-0.983l0.278-0.147l0.079-0.787l0.191,0.533l0.328-0.117l-0.438-1.224l0.078-0.777
	l0.216,0.606l0.328-0.117l-0.463-1.297l0.093-0.936l0.372,1.041l0.328-0.117l-0.479-1.34L34.893,25.825z M45.202,59.144
	l-0.727,0.015l0.408-1.328L45.202,59.144z M48.239,75.476l-0.214-0.248l1.051-0.065L49.07,75.08l0.082,0.336L48.239,75.476z
	 M49.318,76.104l0.21,0.865l-0.719-0.832L49.318,76.104z M48.924,74.476l-1.471,0.091l-0.204-0.237l1.617-0.096L48.924,74.476z
	 M47.045,73.646l0.024-0.267l1.566-0.093l0.064,0.262L47.045,73.646z M47.131,72.678l0.029-0.331l1.227-0.075l0.08,0.327
	L47.131,72.678z M47.223,71.645l0.041-0.459l0.847-0.055l0.11,0.453L47.223,71.645z M47.327,70.485l0.036-0.41l0.483-0.034
	l0.098,0.404L47.327,70.485z M47.426,69.373l0.07-0.78l0.185,0.762L47.426,69.373z M46.757,65.549l-0.997-1.18h0.711L46.757,65.549z
	 M45.172,63.673l-0.376-0.445l1.393-0.017l0.112,0.462C46.301,63.673,45.172,63.673,45.172,63.673z M44.214,62.539l-0.27-0.319
	l1.998-0.027l0.079,0.324L44.214,62.539z M34.477,68.091l2.862-4.251c0.031-0.046,0.048-0.098,0.055-0.151h0.002l0.848-6.702
	l0.124,0.264l0.315-0.147l-0.357-0.763l0.158-1.246l0.312,0.666l0.315-0.147l-0.493-1.053l0.274-0.843l0.627,1.284l0.313-0.153
	l-0.785-1.607l0.484-1.491l0.521,1.037l0.311-0.156l-0.679-1.352L40,50.302l0.49,0.977l0.311-0.156l-0.649-1.291l0.238-0.731
	l0.574,1.186l0.313-0.151l-0.477-0.985l0.543,0.1l3.209,7.292l-1.63,5.301c-0.005,0.016-0.006,0.033-0.009,0.049l-0.003-0.001
	l-0.925,5.95L39.068,71.7l-4.386-1.957L34.477,68.091z M31.887,47.091l3.129,0.794l-2.271,6.158L31.887,47.091z M36.937,48.373
	l0.362,0.857l0.321-0.135L37.36,48.48l0.482,0.122c0.008,0.002,0.015,0.002,0.023,0.003l-0.001,0.002l0.318,0.059l0.292,0.588
	l0.312-0.155l-0.176-0.355l1.096,0.202l-1.739,5.354l-1.862-1.064c-0.093-0.054-0.205-0.06-0.305-0.02l-2.37,0.975l1.144-3.101
	l0.147,0.296l0.312-0.155l-0.294-0.591l0.304-0.824l0.291,0.621l0.315-0.147l-0.436-0.933l0.386-1.047l0.696,1.524l0.317-0.145
	l-0.723-1.584L36.937,48.373z M35.909,53.926l1.885,1.077l-0.939,7.424l-3.551-7.429L35.909,53.926z M43.747,61.527l0.126-0.409
	l1.803-0.022l0.098,0.404L43.747,61.527z M44.088,60.418l0.172-0.559l1.111-0.024l0.137,0.565L44.088,60.418z M44.355,54.365
	L42.17,49.4l1.636,0.301C44.008,51.258,44.196,52.872,44.355,54.365z M38.501,48.017l1.765-2.751l2.98,3.624L38.501,48.017z
	 M37.771,47.867l-5.976-1.516l-0.486-3.941l0.497-0.4l0.476,1.015l0.315-0.147l-0.511-1.093l0.981-0.791l0.442,0.943l0.315-0.147
	l-0.478-1.02l0.765-0.616l0.926,1.68l0.305-0.168l-0.956-1.734l0.739-0.595l0.436,0.932l0.315-0.147l-0.473-1.01l0.472-0.381
	l0.311,0.664l0.315-0.147l-0.347-0.742l0.528-0.426l0.492,1.05l0.315-0.147l-0.51-1.09l4.223,1.582l-0.576,3.941L37.771,47.867z
	 M38.723,29.153l0.509-0.011l0.045,0.294L38.63,29.45L38.723,29.153z M37.821,32.052h1.86l0.005,0.034
	c0.012,0.07,0.033,0.187,0.06,0.336h-2.04L37.821,32.052z M38.413,36.114v0.037h0.03c0.616,0.765,1.292,1.589,1.859,2.242
	l-3.077-1.152l0.049-2.558C37.582,35.074,37.981,35.577,38.413,36.114z M40.327,37.35l0.421-0.009
	c0.054,0.234,0.11,0.466,0.166,0.696C40.731,37.828,40.534,37.597,40.327,37.35z M39.76,36.666c-0.14-0.17-0.28-0.341-0.421-0.515
	h1.143c0.035,0.165,0.072,0.331,0.109,0.497L39.76,36.666z M38.777,35.454c-0.097-0.121-0.193-0.24-0.287-0.358h1.77
	c0.024,0.118,0.049,0.237,0.074,0.358H38.777z M40.12,34.401h-2.182c-0.094-0.12-0.185-0.235-0.271-0.344l2.381-0.025
	C40.071,34.152,40.095,34.275,40.12,34.401z M37.413,33.364l0.077-0.246h2.384c0.013,0.071,0.027,0.144,0.041,0.221L37.413,33.364z
	 M38.037,31.356l0.077-0.248l1.418-0.02l0.041,0.267C39.573,31.356,38.037,31.356,38.037,31.356z M38.332,30.409l0.08-0.258
	l0.972-0.021l0.041,0.264L38.332,30.409z M39.124,28.448l-0.183,0.004l0.123-0.395L39.124,28.448z M28.554,79.157h-5.255
	l2.628-28.505L28.554,79.157z M16.875,74.589l-3.998-9.249l1.198-0.088l-0.047,0.805l0.347,0.021l0.049-0.85l0.74-0.054
	l-0.063,1.091l0.347,0.021l0.066-1.136l0.634-0.046l-0.034,0.581l0.347,0.021l0.041-0.705c0.025-0.023,0.047-0.048,0.065-0.078
	l0.516-0.88l0.013,0.777l0.348-0.006l-0.022-1.35l1.138-1.943L16.875,74.589z M8.212,70.154l0.337-4.366l0.186-0.277l-0.032,0.546
	l0.347,0.021l0.066-1.134l0.311-0.463l-0.023,0.39l0.347,0.021l0.056-0.978l0.422-0.629l-0.028,0.482l0.347,0.021l0.062-1.07
	l0.352-0.524l0.017,1.04l0.348-0.006l-0.013-0.795l0.71,2.686c0.005,0.017,0.015,0.031,0.022,0.047l-0.005,0.002l4.103,9.494
	L8.212,70.154z M10.217,46.222l0.194-1.938l0.107-0.048l0.407,0.819l0.312-0.155l-0.401-0.806L11.49,43.8l0.415,0.887l0.315-0.147
	l-0.413-0.882l0.593-0.265l0.652,1.429l0.317-0.144l-0.651-1.427l0.69-0.309l0.367,0.869l0.321-0.135l-0.37-0.876l0.905-0.405
	l1.15,4.423L10.217,46.222z M11.492,38.895l-0.543,0.012l0.026-0.258l0.445-0.01L11.492,38.895z M10.879,39.605l0.809-0.017
	l0.069,0.243l-0.901,0.016L10.879,39.605z M12.57,40.151l-1.137-4.026l1.467-0.147l0.516,1.101l0.315-0.147l-0.464-0.99l0.881-0.088
	l0.45,0.961l0.315-0.147l-0.398-0.851l1.845-0.185l0.481,1.026l0.315-0.147l-0.429-0.916l0.375-0.037
	c0.025-0.003,0.049-0.008,0.072-0.015l0.745-0.241l0.551,1.177l0.315-0.147l-0.533-1.138l1.337-0.432l0.398,0.851l0.315-0.147
	l-0.38-0.812l2.198-0.711l-0.297,4.471L10.97,43.271l1.569-2.857C12.584,40.334,12.595,40.24,12.57,40.151z M13.558,32.902
	L12.96,31.02l0.789-0.2l0.409,1.271l0.331-0.107l-0.402-1.25l1.068-0.271l0.555,1.185l0.315-0.147L15.5,30.377l1.208-0.306
	l0.467,0.998l0.315-0.147l-0.439-0.938l1.061-0.269l0.445,0.95l0.315-0.147l-0.416-0.89l0.994-0.252l0.453,0.967l0.315-0.147
	l-0.425-0.907l0.863-0.218l0.465,0.993l0.315-0.147L21,28.985l2.295-0.581l0.254,0.924l-1.261,3.828l-5.293,1.712l-5.139,0.516
	l1.647-2.165C13.572,33.128,13.592,33.01,13.558,32.902z M18.251,40.775l-1.986,5.133l-0.988-3.801L18.251,40.775z M16.235,22.068
	l2.963-0.636c0.067-0.014,0.129-0.049,0.177-0.099l0.079,0.291l0.336-0.091l-0.135-0.497l0.375-0.399l0.141,0.433l0.331-0.108
	l-0.2-0.615l0.284-0.302l0.184,0.543l0.33-0.112l-0.244-0.718l0.482-0.514l0.318,1.21l0.336-0.088l-0.313-1.193l0.742,0.557
	l0.157,0.741l0.34-0.072l-0.074-0.352l1.135,0.851l0.701,2.697l-4.112-0.189L16.235,22.068z M16.012,18.782l2.433-2.033l2.512,1.884
	l-2.011,2.142L15.33,21.55L16.012,18.782z M13.543,28.62l0.804-1.215l0.1,0.289l0.329-0.113l-0.186-0.542l0.37-0.559l0.432,0.913
	l0.315-0.149l-0.523-1.104l0.604-0.914l0.251,0.62l0.323-0.13l-0.34-0.842l0.461-0.697l0.412,0.868l0.314-0.149l-0.502-1.057
	l0.491-0.744l0.041,0.012l-0.03,0.012l0.487,1.249l0.324-0.126l-0.396-1.016l0.806,0.249l0.403,1.017l0.324-0.128l-0.3-0.757
	l1.174,0.363l0.07,0.368l0.342-0.065l-0.035-0.187l0,0c0.028,0.009,0.057,0.014,0.087,0.015l4.066,0.187l-1.604,2.878l0.156,0.568
	l-10.08,2.551L13.543,28.62z M11.224,37.947l-0.18,0.004l0.047-0.473L11.224,37.947z M10.785,40.544l0.898-0.016l-0.204,0.371
	l-0.732,0.024L10.785,40.544z M10.677,41.621l0.413-0.013l-0.503,0.915L10.677,41.621z M13.06,48.182l0.355,0.759l0.315-0.147
	l-0.397-0.849l0.543-0.472l0.406,0.867l0.315-0.147l-0.395-0.844l1.04,0.111l0.43,0.918l0.315-0.147l-0.34-0.727l0.924,0.099
	l-0.012,0.006l0.563,1.203l0.315-0.147l-0.477-1.019l1.015,0.109l0.496,1.058l0.315-0.147l-0.406-0.867l1.489,0.16l-4.659,6.888
	l-2.626-6.248L13.06,48.182z M15.428,55.775l-0.026,0.448l0.347,0.021l0.061-1.045l0.767-1.133l-0.034,0.586l0.347,0.021l0.068-1.17
	l0.431-0.638l-0.04,0.683l0.347,0.021l0.074-1.268l0.767-1.133l0.017,1.181l0.348-0.005l-0.024-1.68l0.43-0.636l0.067,0.858
	l0.347-0.027l-0.101-1.294l0.597-0.882L18.79,59.75l-2.729,4.659l-3.434,0.252l-0.912-3.451l1.698-1.073
	c0.058-0.036,0.104-0.09,0.132-0.152L15.428,55.775z M6.754,77.012c0.003-0.012,0.001-0.025,0.002-0.038l1.004-0.018l0.026,0.651
	l-1.159,0.046L6.754,77.012z M6.485,78.355l1.327-0.053l0.026,0.658l-1.465-0.046L6.485,78.355z M7.556,71.777L7.372,71.78
	l0.174-0.28L7.556,71.777z M6.937,72.483l0.647-0.011l0.018,0.46L6.648,72.95L6.937,72.483z M6.212,73.654l1.417-0.026l0.019,0.481
	l-1.705-0.018L6.212,73.654z M7.675,74.805l0.011,0.274l-1.648,0.062L5.89,74.786L7.675,74.805z M7.713,75.775l0.019,0.485
	l-1.219,0.022l-0.189-0.455L7.713,75.775z M6.068,80.439l0.002,0.092l0.405-0.007L5.968,80.94L6.068,80.439z M7.269,79.871
	l-0.001-0.056l-1.079,0.017l0.045-0.226l1.308,0.041L7.269,79.871z M16.707,75.778c0.004,0.003,0.009,0.003,0.013,0.006
	l-0.598,4.631l-2.421-6.343L16.707,75.778z M3.837,104.293l1.588-1.165l0.713,0.921l0.275-0.213l-0.708-0.915l0.858-0.63
	l0.767,0.767l0.246-0.246l-0.729-0.73l0.822-0.602l0.817,0.818l0.246-0.246l-0.779-0.78l0.524-0.384l0.843,0.843l0.246-0.246
	l-0.805-0.806l0.766-0.562l0.905,0.905l0.246-0.246L9.81,99.912l0.925-0.679l0.877,0.877l0.246-0.246l-0.839-0.839l1.005-0.737
	l4.822,7.769l-3.767-1.459c-0.085-0.033-0.178-0.031-0.262,0.005l-8.747,3.719L3.837,104.293z M3.933,96.226l7.373,1.725
	l-7.848,5.756l-2.682-1.595L3.933,96.226z M1.403,103.294l-0.532,0.211c-0.038-0.215-0.069-0.411-0.093-0.582L1.403,103.294z
	 M2.159,103.744l0.538,0.32l-1.567,0.648c-0.045-0.175-0.085-0.346-0.122-0.513L2.159,103.744z M1.32,105.386l1.839-0.76
	l0.028,0.488l-1.738,0.66C1.404,105.645,1.36,105.516,1.32,105.386z M3.23,105.842l0.023,0.394l-1.422,0.452
	c-0.043-0.088-0.085-0.177-0.125-0.268L3.23,105.842z M3.295,106.954l0.02,0.343l-0.935,0.28c-0.068-0.086-0.132-0.176-0.195-0.27
	L3.295,106.954z M3.356,108.01l0.021,0.363c-0.151-0.062-0.295-0.142-0.43-0.24L3.356,108.01z M36.651,63.616l-2.304,3.421
	L32.977,55.93L36.651,63.616z M39.037,72.448c0.046,0.021,0.094,0.03,0.142,0.03c0.106,0,0.21-0.049,0.278-0.138l3.138-4.149
	c0.035-0.046,0.058-0.1,0.066-0.157l0.822-5.283l3.47,4.106l-0.649,7.282c-0.009,0.094,0.022,0.187,0.083,0.259l3.072,3.554
	l-4.709,0.092l-9.328-2.305l-0.64-5.192L39.037,72.448z M49.314,83.547l0.076,0.53l-0.196,0.004L49.314,83.547z M52.791,102.957
	l-0.193-0.348h0.115L52.791,102.957z M52.213,101.913l-0.142-0.256l0.426-0.01l0.06,0.267H52.213z M51.69,100.969l-0.134-0.242
	l0.73-0.014l0.054,0.24L51.69,100.969z M51.175,100.038l-0.092-0.167l1.014-0.007l0.035,0.156L51.175,100.038z M50.698,99.178
	l-0.078-0.14l0.026-0.139l1.257-0.021l0.053,0.292L50.698,99.178z M51.775,98.184l-1.001,0.017l0.052-0.283l0.897-0.016
	L51.775,98.184z M50.954,97.219l0.075-0.411l0.491-0.011l0.075,0.41L50.954,97.219z M51.158,96.108l0.118-0.642l0.117,0.637
	L51.158,96.108z M49.487,90.221l-0.169-0.254l0.945-0.017l0.047,0.257L49.487,90.221z M50.437,90.901l0.19,1.035l-0.683-1.026
	L50.437,90.901z M50.113,89.134l0.023,0.122l-1.275,0.023l-0.167-0.251l1.402-0.017L50.113,89.134z M48.234,88.338L48.234,88.338
	l0.06-0.266l1.664-0.02l0.038,0.264L48.234,88.338z M48.451,87.374l0.074-0.33l1.286-0.017l0.047,0.331L48.451,87.374z
	 M48.683,86.346l0.103-0.457l0.861-0.015l0.066,0.458L48.683,86.346z M49.548,85.179l-0.604,0.011l0.092-0.41l0.453-0.008
	L49.548,85.179z M48.477,84.094h-0.006l0.001,0.024l-0.949,4.212c-0.021,0.093-0.003,0.19,0.05,0.269l3.336,5.016l-0.561,3.054
	l-2.917-1.581l-0.01-0.03l-0.028,0.01l-5.357-2.903c-0.071-0.039-0.152-0.051-0.232-0.036l-4.258,0.824l-0.481-3.9l2.408-3.78
	c0.064-0.1,0.072-0.226,0.022-0.334l-3.931-8.447l1.318,0.326l0.936,1.831l0.31-0.158l-0.799-1.562l1.057,0.261l0.824,1.699
	l0.313-0.151l-0.698-1.439l1.396,0.345l1.03,2.424l0.32-0.136l-0.928-2.183l1.134,0.28l0.425,1.28l0.33-0.109l-0.356-1.072
	l1.048,0.259l0.454,1.37l0.33-0.109l-0.386-1.161l0.935,0.231l0.427,1.252l0.33-0.112l-0.277-0.811l3.962,2.735L48.477,84.094z
	 M38.782,85.059l-1.853,2.908l-1.156-9.374L38.782,85.059z M50.125,106.833l3.366,1.545l-0.271,0.305l-3.272-1.607L50.125,106.833z
	 M50.564,106.268l0.77-0.164l2.438,1.211l0.107,0.474L50.564,106.268z M52.428,105.87l0.972-0.207l0.175,0.777L52.428,105.87z
	 M49.182,81.057l-3.386-2.337l4.03-0.079L49.182,81.057z M43.61,48.238l-2.949-3.587l0.592-0.923
	c0.027-0.042,0.044-0.089,0.051-0.138l0.406-2.779c0.205,0.572,0.409,1.015,0.605,1.249C42.7,42.521,43.175,45.126,43.61,48.238z
	 M37.978,25.865l-3.968-0.973l1.235-3.134c0.077,0.375,0.197,0.746,0.38,1.092C36.228,23.991,37.23,25.113,37.978,25.865z
	 M28.019,4.777c0.013,0.038,0.031,0.086,0.05,0.14l-0.921,1.725l0.307,0.164l0.771-1.446c0.1,0.279,0.224,0.628,0.367,1.021
	l-0.488,0.956l0.31,0.158l0.34-0.666c0.059,0.163,0.12,0.331,0.182,0.504l-0.64,1.254l0.31,0.158L29.1,7.781
	c0.082,0.226,0.166,0.458,0.252,0.691l-0.334,0.655l0.31,0.158l0.187-0.367c0.082,0.223,0.164,0.446,0.245,0.667l-0.265,0.52
	l0.31,0.158l0.12-0.234c0.071,0.192,0.141,0.38,0.21,0.564l-0.398,0.707l0.303,0.17l0.255-0.453c0.052,0.137,0.102,0.27,0.151,0.4
	l-0.474,0.929l0.31,0.158l0.332-0.651c0.129,0.334,0.245,0.624,0.343,0.86l-0.457,0.895l0.31,0.158l0.326-0.639
	c0.036,0.078,0.067,0.138,0.089,0.173c0.011,0.016,0.022,0.032,0.035,0.046l4.279,4.743c-0.087,0.277-0.235,0.812-0.326,1.463
	c-1.456-0.973-5.785-3.873-6.566-4.48c-0.725-0.564-2.5-3.689-3.169-4.93l-0.553-8.891l1.217,1.231L28.019,4.777z M20.848,8.044
	l0.793,1.24l0.293-0.187l-0.875-1.369l0.111-0.166c0.007-0.011,0.013-0.022,0.02-0.033l0.064-0.124l0.516,0.782l0.29-0.192
	l-0.622-0.944l0.315-0.608l0.777,1.216l0.293-0.187l-0.886-1.385l0.28-0.541l0.523,0.819l0.293-0.187L22.402,5.19l1.849-3.567
	l0.52,8.378l-6.851,2.434l1.579-2.367l0.524,0.795l0.29-0.192l-0.605-0.917l0.401-0.601l0.435,0.66l0.29-0.192l-0.516-0.783
	L20.848,8.044z M9.524,53.148l0.207-2.074l0.124-0.107l0.365,0.778l0.315-0.147l-0.407-0.868l0.46-0.4l0.397,0.848l0.315-0.147
	l-0.439-0.938l0.496-0.431l0.428,0.915l0.315-0.147l-0.47-1.005l0.401-0.348l2.728,6.491l-1.808,4.038l-4.127,2.607L9.524,53.148z
	 M5.638,88.413c0.007-0.011,0.011-0.024,0.016-0.035l0.003,0.002l1.75-3.387c0.053-0.103,0.052-0.226-0.005-0.328L5.88,81.913
	l1.152-0.946l0.708,0.902l0.274-0.215l-0.712-0.908l1.129-0.927c0.021-0.017,0.031-0.041,0.047-0.062l0.007,0.006l0.046-0.06
	l0.445,0.568l0.274-0.215l-0.5-0.638l0.886-1.15l0.678,0.865l0.274-0.215l-0.733-0.935l0.67-0.869l0.424,0.54l0.274-0.215
	l-0.479-0.61l0.904-1.173l0.747,0.953l0.274-0.215l-0.802-1.023l1.06-1.377l3.007,7.879l-0.227,1.763l-11.12,6.355L5.638,88.413z
	 M3.163,94.827l0.221,0.95l-1.382,2.577L3.163,94.827z M14.474,109.425c0.041-0.083,0.048-0.178,0.018-0.266l-0.318-0.943
	l1.953,2.385l-3.282,1.792C13.456,111.415,14.046,110.289,14.474,109.425z M10.37,116.601c-0.055-0.921,0.023-1.859,0.172-2.099
	c0.073,0.031,0.15,0.047,0.232,0.047c0.329,0,0.736-0.345,1.168-0.871l2.169-1.184l-2.66,5.495L10.37,116.601z M31.371,121.878
	l-0.103-1.498l0.29-0.103l0.115,1.662l-0.085-0.016L31.371,121.878z M42.832,114.618l-4.934-0.363l0.299-4.763L42.832,114.618z
	 M37.594,108.483c-0.024,0.045-0.033,0.093-0.036,0.141h-0.004l-0.349,5.566l-11.049-1.236c-0.031-0.004-0.063-0.003-0.093,0.003
	l-5.202,0.825c-0.001,0-0.001,0-0.002,0l-4.84,0.767l1.949-7.471l0.054,0.778l0.347-0.024l-0.076-1.104l0.655-0.515l0.064,0.925
	l0.347-0.024l-0.081-1.162l0.68-0.536l0.067,0.976l0.347-0.024l-0.084-1.212l0.471-0.37l0.075,1.089l0.347-0.024l-0.092-1.325
	h-0.001l0.424-0.334l0.071,1.02l0.347-0.024l-0.087-1.257l0.634-0.499l0.053,0.772l0.347-0.024l-0.07-1.009l1.689-1.328
	c0.082-0.064,0.13-0.161,0.133-0.265c0.003-0.104-0.042-0.203-0.12-0.271l-1.928-1.671l0.867-0.632l0.067,0.971l0.347-0.024
	l-0.082-1.189l0.862-0.629l0.051,0.745l0.347-0.024l-0.067-0.963l0.619-0.451l0.07,1.011l0.347-0.024L25.928,97.2l0.537-0.392
	l0.056,0.81l0.347-0.024l-0.071-1.028l0.534-0.389h0.09l0.068,0.989l0.347-0.024l-0.067-0.965h0.612l0.054,0.779l0.347-0.024
	l-0.052-0.755h0.655l0.064,0.927l0.347-0.024l-0.063-0.903h0.758l0.277,2.444h5.117l2.677,8.238
	C38.128,107.505,37.772,108.146,37.594,108.483z M40.787,104.884c-0.186,0-0.381,0.072-0.578,0.188l1.287-2.73l4.641,5.416
	c-1.868-1.159-4.466-2.714-5.188-2.859C40.896,104.889,40.842,104.884,40.787,104.884z M52.445,109.553l-0.607-0.083l-2.553-1.489
	l0.245-0.335l3.209,1.576L52.445,109.553z M28.739,25.743l0.34,0.074l-0.711,3.261l-0.34-0.074L28.739,25.743z M26.834,26.31
	l0.34,0.074l-0.711,3.261l-0.34-0.074L26.834,26.31z M28.374,24.753l-0.711,3.261l-0.34-0.074l0.711-3.261L28.374,24.753z
	 M16.798,60.142l0.6-2.059l0.251,0.073l-0.6,2.059L16.798,60.142z M15.439,60.573L15.189,60.5l0.6-2.059l0.251,0.073L15.439,60.573z
	 M16.454,59.543l-0.251-0.073l0.6-2.06l0.251,0.073L16.454,59.543z M40.01,65.582l0.632-2.897l0.255,0.056l-0.632,2.897
	L40.01,65.582z M39.203,63.245l-0.632,2.897l-0.255-0.056l0.632-2.897L39.203,63.245z M39.638,64.693l-0.255-0.056l0.632-2.897
	l0.255,0.056L39.638,64.693z M30.792,103.495l0.34,0.074l-1.144,5.245l-0.34-0.074L30.792,103.495z M28.356,104.2l0.34,0.074
	l-1.144,5.245l-0.34-0.074L28.356,104.2z M30.408,101.652l-1.144,5.245l-0.34-0.074l1.144-5.245L30.408,101.652z M18.849,101.648
	l-0.483,2.215l-0.34-0.074l0.483-2.215L18.849,101.648z M17.352,100.563l0.34,0.074l-0.483,2.215l-0.34-0.074L17.352,100.563z
	 M18.124,102.047l-0.34-0.074l0.483-2.215l0.34,0.074L18.124,102.047z M43.601,73.076l0.34,0.074l-0.483,2.216l-0.34-0.074
	L43.601,73.076z M42.301,74.355l-0.34-0.074l0.483-2.215l0.34,0.074L42.301,74.355z M43.216,73.55l-0.34-0.074l0.483-2.215
	l0.34,0.074L43.216,73.55z M10.644,94.282l0.77-3.015l0.337,0.086l-0.77,3.015L10.644,94.282z M9.341,94.774l-0.337-0.086
	l0.77-3.015l0.337,0.086L9.341,94.774z M10.494,93.267l-0.337-0.086l0.77-3.015l0.337,0.086L10.494,93.267z M12.021,83.775
	l0.945-3.701l0.337,0.086l-0.945,3.701L12.021,83.775z M10.343,84.359l-0.337-0.086l0.946-3.701l0.337,0.086L10.343,84.359z
	 M11.76,82.508l-0.337-0.086l0.945-3.701l0.337,0.086L11.76,82.508z M43.815,84.095l0.337,0.086l-1.033,4.045l-0.337-0.086
	L43.815,84.095z M41.615,84.639l0.337,0.086l-1.034,4.045l-0.337-0.086L41.615,84.639z M43.499,82.703l-1.034,4.045l-0.337-0.086
	l1.034-4.045L43.499,82.703z"/>
</svg>
