<svg xmlns="http://www.w3.org/2000/svg" width="106.391" height="241.258" viewBox="0 0 106.391 241.258"><path fill="#D04D36" d="M106.374 210.185l-3.724-16.547-2.133-11.613-.001-.004-1.59-8.659-2.053-14.365 1.622-6.081a.69.69 0 0 0 .004-.335l-10.347-42.63c-.278-2.916-2.576-26.353-4.707-28.911-.522-.627-1.151-2.413-1.794-4.746-1.125-4.078-2.297-9.834-3.029-14.03l-1.657-10.727a.653.653 0 0 0-.079-.227l-.001-.003c-.005-.01-.015-.015-.021-.024a.688.688 0 0 0-.128-.157c-.042-.036-4.274-3.686-6.16-7.26-1.802-3.414.019-8.516.037-8.567a.678.678 0 0 0-.134-.686l-8.553-9.481c-.58-1.034-4.043-10.546-6.124-16.395a.684.684 0 0 0-.114-.202L51.917 3.93 48.234.201a.678.678 0 0 0-1.084.164l-7.073 13.64-7.438 11.156c-.013.019-.017.043-.028.064-.008.015-.023.026-.03.042-.007.015-.005.033-.01.048-.007.021-.021.039-.026.06l-7.034 28.552-4.972 16.159a.656.656 0 0 0-.026.132l-3.316 33.162-2.577 33.398-4.782 7.733a.677.677 0 0 0-.049.617l1.993 4.781-1.863 9.314-.168.841a.666.666 0 0 0-.013.133v11.396l-4.029 6.044a.679.679 0 0 0-.114.376v4.035l-5.56 16.885a.684.684 0 0 0-.032.266c.043.527 1.077 12.412 7.119 13.396l.014.003a5 5 0 0 0 .794.07.67.67 0 0 0 .167-.021l17.232-4.402 1.519 4.498c-1.561 3.118-3.247 5.943-4.454 7.561l-.007.004.002.003c-.605.81-1.092 1.321-1.378 1.4-.517-.23-1.047-.124-1.418.276-.966 1.038-.808 4.383-.737 5.383a.67.67 0 0 0 .141.368l2.572 3.307-1.324 1.654a.678.678 0 0 0 .037.889l7.044 7.458c.011.011.026.015.037.026a.662.662 0 0 0 .15.105c.023.012.045.024.069.033.015.006.027.016.043.02a.678.678 0 0 0 .356.008h.001l14.745-3.686 4.387 1.197a.68.68 0 0 0 .361-.001l5.746-1.613 8.028 1.625 12.845 2.486c.032.006.064.005.096.006.011.001.022.006.034.006.007 0 .013-.003.02-.003a.603.603 0 0 0 .134-.02c.014-.003.029-.002.043-.006l.008-.004c.033-.01.063-.027.093-.042.022-.011.046-.019.067-.032.024-.016.045-.037.067-.055.023-.019.047-.036.067-.058l.006-.005 7.044-7.872a.67.67 0 0 0 .116-.182l3.781-8.701c.005-.01.005-.022.009-.033a.706.706 0 0 0 .025-.093.68.68 0 0 0 .016-.099c.002-.031 0-.061-.002-.093a.618.618 0 0 0-.015-.105c-.003-.014-.002-.028-.006-.043-.005-.016-.015-.029-.021-.045a.629.629 0 0 0-.097-.173c-.01-.013-.016-.029-.028-.042l-10.919-12.075c1.59-2.897 3.798-5.866 4.842-5.866h.002c1.428.285 8.82 4.808 13.44 7.778.013.009.031.009.045.017.044.024.09.037.138.051.032.009.06.03.092.034l9.115 1.244a.683.683 0 0 0 .598-.222l3.315-3.729a.677.677 0 0 0 .155-.599zm-11.199 1.196l2.266 1.322-2.939-.401.673-.921zm-1.934.348l-12.084-14.103a.677.677 0 0 0-1.128.152l-4.058 8.607-4.658-14.336h3.163l-1.195-9.685 1.921-.372 1.583 3.097.604-.308-1.494-2.922 2.383-.461 1.273 2.625.61-.295-1.195-2.463 2.004-.388 2.056 4.837.623-.265-1.908-4.489 3.187 1.727.616 1.855.643-.213-.389-1.17 1.882 1.02 1.079 3.247.643-.213-.851-2.562 3.581 1.941.718 2.106.642-.218-.481-1.411 4.777 2.589-.588 3.205a.68.68 0 0 0 .073.451l6.195 11.181-5.597 1.195a.675.675 0 0 0-.406.263l-4.224 5.776zm-40.235-25.794a.68.68 0 0 0-.399.13l-9.676 7.057-1.676-1.453 2.518-23.607h13.433l2.025 17.873h-6.225zm-18.378 20.964l-10.222-16.468 3.294-5.189-.878 6.807h12.801l6.604 5.726-11.599 9.124zm-4.853 17.46a.677.677 0 0 0 .608.213l5.865-.93-12.361 5.954 5.637-11.641 1.871-1.021-1.773 6.798a.677.677 0 0 0 .153.627zm12.515-1.674l.105 1.517.676-.046-.109-1.577.889-.141.118 1.709.676-.046-.122-1.77.91-.144.112 1.625.676-.046-.116-1.685.816-.129.12 1.74.676-.046-.125-1.8 3.282-.52 4.375.489-.157 2.736.676.038.155-2.699 2.012.225.174 2.506.676-.046-.165-2.383 1.981.222.178 2.569.676-.046-.169-2.446 2.231.25.167 2.409.676-.046-.158-2.286 2.624.294.164 2.383.676-.046-.156-2.26 2.116.237.159 2.308.676-.046-.151-2.185 1.98.221.164 2.371.676-.046-.156-2.248.032.004.001-.005c.009.001.016.006.025.007l1.657.122.173 2.513.676-.046-.167-2.417 1.824.134.125 1.809.676-.046-.118-1.712 1.714.126.137 1.979.676-.046-.13-1.883 2.955.217-7.146 5.521a.678.678 0 0 0-.246.385l-2.014 8.812-8.047-7.625a.676.676 0 0 0-.692-.147l-11.809 4.189-5.536-3.51a.679.679 0 0 0-.811.064l-4.338 3.828-8.474-3.278 5.517-7.849.061.883.676-.046-.118-1.718.483-.688.08 1.161.676-.046-.115-1.661.913-.147zm39.346 7.475l-1.89-1.199.421-.326 1.676 1.049-.207.476zm-18.232 3.375l.299 4.319-.647-.125-.275-3.973.623-.221zm1.327-.47l.419-.149.265.251.352 5.087-.686-.133-.35-5.056zm2.138 1.48l.655.621.24 3.474-.621-.12-.274-3.975zm2.11 2l.393.373.142 2.062-.404-.08.032-.002-.163-2.353zm1.848 1.751l1.243 1.178-1.177-.228-.066-.95zm4.826-.929l.326.235-.51.57.184-.805zm.328-1.435l.155-.676 1.245.779-.492.55-.908-.653zm.474-2.074l.155-.676 2.121 1.345-.434.485-1.842-1.154zm.475-2.078l.134-.584 2.965 1.881-.382.426-2.717-1.723zm1.159-1.539l.515-.398 2.484 1.576-.247.569-2.752-1.747zm3.221-2.489l.564-.436.76.547-.245.564-1.079-.675zm1.683-1.301l.383-.296-.189.435-.194-.139zm-60.129 5.144l15.785-7.603-10.224 14.546-.169-4.868a.679.679 0 0 0-.621-.652l-5.539-.464.768-.959zm.445 2.42l-.398.383-.427-.453.825.07zm1.798.151l.732.061-1.653 1.522-.345-.365 1.266-1.218zm1.84.882l.034.991-1.157 1.445-.708-.75 1.831-1.686zm.107 3.071l.024.691-.312-.331.288-.36zm3.023.424l.053.76-.712.178.659-.938zm1.238-1.76l.557-.792.179 2.833-.584.146-.152-2.187zm1.803-2.565l.199-.283.336.13.271 4.291-.535.134-.271-4.272zm1.926.386l.629.243.191 3.024-.604.151-.216-3.418zm2.021.781l.514.199.126 1.826-.504.126-.136-2.151zm1.91.739l1.521.588-1.455.364-.066-.952zm6.094-.429l.077 1.113-1.022-.279.945-.834zm1.281-1.131l.484-.427.15 3.172-.453-.123-.181-2.622zm1.838-.499l1.103.699.14 2.026-1.099.309-.144-3.034zm2.524 1.601l.836.53-.784.22-.052-.75zm6.37.112l.053.766-1.408-.285 1.355-.481zm1.326-.471l1.156-.41.15 2.168-1.201-.243-.105-1.515zm-26.281-21.179l-5.834-7.124-.001.001a.67.67 0 0 0-.69-.228l-11.04 2.82 10.678-4.54 8.405 3.256-1.518 5.815zM9.265 176.619l1.352 2.261.581-.348-1.344-2.249 2.047-1.17 1.285 1.638.533-.418-1.224-1.56 2.589-1.479 1.434 1.828.533-.418-1.372-1.749 2.754-1.574 1.291 1.646.533-.418-1.23-1.568 2.662-1.521 1.578 2.012.533-.418-1.517-1.934 2.527-1.444 1.089 1.389.533-.418-1.028-1.31 4.963-2.836-2.259 17.507-4.819 7.591-15.42-3.608-.922-3.967v-3.862l.299-.449 2.019-1.154zm7.325-23.597l-.582-14.836 8.355 4.745-7.773 10.091zm-5.498 15.233l.397-.013-.397.769v-.756zm1.11-1.392l-1.11.036v-.656l1.443-.026-.333.646zm-1.11-1.976v-.654l1.402-.03.361.652-1.763.032zm0-2.009v-1.207l.66 1.193-.66.014zm5.964-40.043l2.62-1.655-2.815 4.19.195-2.535zm2.092-25.34l.613-6.134 5.737.614-6.35 5.52zm5.237-35.297l.619 1.95-2.048 2.692 1.429-4.642zm5.037-18.482l2.717.839-4.66 7.048 1.943-7.887zm3.958-16.065l1.693 3.907-3.344 2.794 1.651-6.701zm3.002-2.524l1.224 3.683.643-.214-1.228-3.696 1.218-.433.913 2.747.643-.214-.917-2.76 1.358-.483 1.443 4.346.643-.214-1.448-4.359 1.016-.361.757 2.28.643-.214-.762-2.293 1.368-.486.994 2.993.643-.214-.999-3.006 1.47-.522.963 2.823.642-.219-.966-2.831 1.983-.704c1.078 1.977 4.611 8.312 6.325 9.647.181.141.458.343.802.589l-8.525 8.394-10.784-8.088-2.334-5.385 2.272-.806zm22.604 8.125l.963 2.457.631-.248-.601-1.533 1.417.961.779 1.987.631-.248-.42-1.07 1.023.69.443 1.405.646-.204-.188-.595c1.752 1.177 3.258 2.184 3.988 2.671L64.684 48.7c-.023.059-.024.121-.03.182l-.014-.001-.896 8.961-5.299 2.805-.614 10.543-13.949 3.204.557-8.64 2.834-8.606-1.12-4.073 3.519-6.314-1.627-6.255.953-.939.731 1.55.613-.289-.832-1.764.843-.83.923 1.809.604-.308-1.02-2 .895-.881 1.453 3.109.614-.287-1.555-3.327 1.247-1.228 1.213 2.632.615-.284-1.315-2.853 1.003-.987.845 1.79.613-.289-.946-2.005 1.054-1.038 1.27 3.316.633-.242-1.166-3.045c.506.35 1.064.733 1.653 1.136zm8.964 17.04l.74 2.027.637-.232-.584-1.601 1.422.349.686 1.88.637-.232-.53-1.453 1.515.371.629 1.723.637-.232-.473-1.296 2.17.532-4.137 13.296a.665.665 0 0 0-.03.188l-.134 7.048-10.357 8.346-.212-1.716H41.374l-1.658 12.845-7.343-.786 4.691-12.124.712 1.521.614-.287-.901-1.925.983-.44.693 1.481.614-.287-.688-1.47 1.453-.65.586 1.252.614-.287-.581-1.242 1.907-.853.867 1.853.614-.287-.833-1.778 2.035-.467.638 1.362.614-.287-.576-1.23 1.789-.411.661 1.412.614-.287-.6-1.281 3.396-.78.956 2.042.614-.287-.894-1.91 2.558-.588-.199.093 1.097 2.342.614-.287-1.055-2.253 2.706-.622.691 1.475.614-.287-.838-1.789.129-2.22.406.867.614-.287-.937-2.002.111-1.907.775 1.312.584-.345-1.288-2.18.115-1.978.562 1.575.638-.228-1.048-2.935.959-.508.695 2.126.645-.21-.732-2.238.831-.44.492 1.377.638-.228-.525-1.469 1.055-.559.652 1.823.638-.228-.684-1.915.541-.286.153-1.532.371 1.038.638-.228-.852-2.383.151-1.514.421 1.18.638-.228-.902-2.525.182-1.823.724 2.028.638-.228-.932-2.609 1.701.413zm20.076 64.885l-1.416.03.795-2.587.621 2.557zm5.913 31.806l-.416-.482 2.046-.126-.01-.163.159.655-1.779.116zm2.103 1.222l.409 1.685-1.4-1.62.991-.065zm-.769-3.17l-2.865.177-.398-.461 3.149-.187.114.471zm-3.658-1.617l.046-.52 3.049-.181.124.51-3.219.191zm.168-1.885l.057-.645 2.39-.146.155.637-2.602.154zm.179-2.011l.08-.893 1.65-.108.214.882-1.944.119zm.202-2.259l.071-.799.941-.067.191.787-1.203.079zm.193-2.166l.136-1.519.36 1.484-.496.035zm-1.304-7.447l-1.941-2.298h1.384l.557 2.298zm-3.086-3.653l-.732-.866 2.713-.033.218.899h-2.199zm-1.865-2.208l-.525-.622 3.891-.052.153.631-3.519.043zM67.14 132.6l5.573-8.278a.671.671 0 0 0 .107-.294h.004l1.651-13.051.241.515.614-.287-.696-1.486.307-2.427.607 1.296.614-.287-.96-2.051.533-1.641 1.221 2.5.609-.298-1.529-3.13.943-2.903 1.014 2.019.606-.304-1.322-2.632.618-1.903.955 1.902.606-.304-1.263-2.515.463-1.424 1.118 2.31.61-.295-.929-1.919 1.057.195 6.249 14.2-3.174 10.324c-.01.032-.012.064-.017.096l-.005-.001-1.801 11.588-5.684 7.514-8.542-3.812-.398-3.217zm-5.045-40.894l6.093 1.546-4.423 11.992-1.67-13.538zm9.835 2.496l.705 1.669.625-.263-.505-1.197.939.238c.015.004.03.003.045.006l-.001.004.62.114.569 1.146.608-.302-.343-.691 2.134.393-3.386 10.427-3.627-2.073a.675.675 0 0 0-.594-.038l-4.615 1.899 2.227-6.038.287.577.608-.302-.572-1.151.592-1.604.566 1.209.614-.287-.85-1.816.752-2.039 1.355 2.968.617-.282-1.408-3.085 2.038.518zm-2.002 10.813l3.67 2.098-1.829 14.458-6.915-14.468 5.074-2.088zm15.265 14.802l.245-.797 3.511-.043.191.787-3.947.053zm.663-2.158l.334-1.088 2.163-.046.267 1.1-2.764.034zm.521-11.789l-4.255-9.668 3.186.586c.393 3.032.759 6.176 1.069 9.082zM74.976 93.509l3.437-5.358 5.803 7.058-9.24-1.7zm-1.422-.293l-11.638-2.953-.947-7.674.967-.779.926 1.977.614-.287-.996-2.128 1.911-1.54.86 1.836.614-.287-.93-1.987 1.49-1.2 1.804 3.271.593-.327-1.861-3.376 1.439-1.159.85 1.815.614-.287-.921-1.966.92-.741.606 1.294.614-.287-.676-1.445 1.029-.829.958 2.045.614-.287-.994-2.123 8.224 3.08-1.121 7.675-5.563 8.669zm1.854-36.443l.991-.021.088.573-1.259.027.18-.579zm-1.756 5.645h3.622l.01.066.116.654h-3.973l.225-.72zm1.153 7.91v.072h.058c1.2 1.489 2.517 3.095 3.621 4.367l-5.992-2.244.095-4.981c.599.761 1.376 1.741 2.218 2.786zm3.727 2.407l.819-.018c.106.455.214.907.324 1.355a84.068 84.068 0 0 1-1.143-1.337zm-1.105-1.332a194.11 194.11 0 0 1-.82-1.003h2.225c.069.321.14.644.212.968l-1.617.035zm-1.914-2.359l-.558-.697h3.446l.144.697h-3.032zm2.615-2.052h-4.25l-.527-.669 4.637-.048.14.717zm-5.271-2.019l.149-.48h4.642l.08.43-4.871.05zm1.216-3.911l.15-.482 2.761-.038.08.52h-2.991zm.574-1.843l.156-.503 1.893-.041.079.514-2.128.03zM76.19 55.4l-.357.008.239-.77.118.762zm-20.584 98.75H45.372l5.117-55.511 5.117 55.511zm-22.745-8.896l-7.785-18.011 2.333-.171-.091 1.567.676.04.096-1.656 1.441-.106-.123 2.124.676.04.128-2.213 1.235-.09-.066 1.132.676.04.08-1.373a.718.718 0 0 0 .127-.152l1.004-1.714.025 1.514.678-.011-.043-2.629 2.217-3.784-3.284 25.453zm-16.869-8.635l.656-8.503.363-.54-.062 1.063.676.04.128-2.208.606-.902-.044.759.676.04.11-1.904.822-1.224-.054.939.676.04.121-2.084.686-1.021.033 2.025.678-.011-.025-1.548 1.382 5.231c.009.033.029.06.043.091l-.009.004 7.991 18.488-15.453-8.775zm3.904-46.607l.377-3.774.209-.094.792 1.594.608-.302-.78-1.57 1.273-.57.809 1.727.614-.287-.804-1.717 1.155-.517 1.27 2.782.617-.281-1.268-2.778 1.343-.601.714 1.692.625-.263-.72-1.705 1.763-.789 2.24 8.613-10.837-1.16zm2.483-14.267l-1.058.023.05-.502.867-.019.141.498zm-1.194 1.382l1.575-.034.134.473-1.755.031.046-.47zm3.292 1.064l-2.214-7.841 2.857-.287 1.004 2.144.614-.287-.903-1.928 1.715-.172.877 1.872.614-.287-.776-1.657 3.593-.361.936 1.999.614-.287-.835-1.783.73-.073a.751.751 0 0 0 .141-.029l1.451-.469 1.073 2.293.614-.287-1.037-2.216 2.603-.842.776 1.658.614-.287-.74-1.581 4.281-1.384-.579 8.707-21.138 9.46 3.056-5.564a.67.67 0 0 0 .059-.511zm1.925-14.118l-1.164-3.665 1.537-.389.797 2.475.645-.208-.783-2.434 2.08-.527 1.081 2.308.614-.287-1.025-2.19 2.352-.595.91 1.944.614-.287-.855-1.826 2.067-.523.866 1.851.614-.287-.811-1.733 1.935-.49.882 1.884.614-.287-.827-1.766 1.68-.425.905 1.933.614-.287-.85-1.816 4.469-1.131.495 1.799-2.455 7.454-10.307 3.334-10.008 1.004 3.207-4.217a.674.674 0 0 0 .107-.616zm9.139 15.332l-3.868 9.996-1.925-7.403 5.793-2.593zm-3.925-36.429l5.77-1.238a.68.68 0 0 0 .345-.193l.154.567.654-.177-.263-.968.73-.777.274.843.645-.21-.389-1.197.553-.589.359 1.057.642-.218-.475-1.399.939-1 .619 2.357.655-.172-.61-2.323 1.445 1.084.305 1.443.663-.14-.145-.685 2.21 1.657 1.366 5.252-8.008-.368-8.438-2.606zm-.435-6.399l4.739-3.96 4.891 3.668-3.917 4.172-7.041 1.51 1.328-5.39zm-4.808 19.157l1.565-2.366.194.563.641-.221-.363-1.055.72-1.089.842 1.778.613-.29-1.018-2.149 1.177-1.78.488 1.208.629-.254-.663-1.64.898-1.358.802 1.69.612-.291-.978-2.059.957-1.448.079.024-.059.023.948 2.433.631-.246-.771-1.978 1.569.485.785 1.98.63-.25-.584-1.474 2.286.706.136.717.666-.126-.069-.364a.644.644 0 0 0 .169.029l7.918.364L44.7 52.9l.304 1.107-19.629 4.968.998-3.241zm-4.516 18.165l-.351.008.092-.922.259.914zm-.855 5.056l1.749-.031-.397.723-1.426.046.074-.738zm-.21 2.098l.804-.026-.979 1.782.175-1.756zm4.64 12.776l.692 1.478.614-.287-.774-1.653 1.057-.919.79 1.689.614-.287-.769-1.643 2.025.217.837 1.787.614-.287-.663-1.416 1.8.193-.024.011 1.097 2.342.614-.287-.929-1.985 1.977.212.965 2.06.614-.287-.791-1.689 2.9.311-9.072 13.414-5.114-12.168.926-.806zm4.612 14.788l-.051.873.676.04.118-2.036 1.493-2.207-.066 1.142.676.04.133-2.279.84-1.242-.077 1.331.676.04.144-2.469 1.493-2.207.033 2.299.678-.009-.046-3.271.838-1.239.13 1.67.675-.053-.197-2.52 1.162-1.718-2.782 21.556-5.314 9.073-6.688.49-1.776-6.721 3.306-2.089a.683.683 0 0 0 .257-.296l3.669-8.198zm-16.893 41.356c.005-.024.001-.049.004-.074l1.955-.035.05 1.267-2.258.09.249-1.248zm-.523 2.615l2.585-.103.05 1.282-2.853-.089.218-1.09zm2.086-12.81l-.359.006.338-.546.021.54zm-1.206 1.376l1.26-.021.035.896-1.857.034.562-.909zm-1.411 2.281l2.759-.051.037.936-3.321-.035.525-.85zm2.849 2.241l.021.534-3.209.12-.288-.691 3.476.037zm.074 1.888l.037.945-2.373.042-.369-.886 2.705-.101zm-3.204 9.083l.003.179.789-.013-.987.81.195-.976zm2.339-1.105l-.002-.11-2.102.034.088-.441 2.548.079-.532.438zm18.38-7.971c.008.005.017.006.026.011l-1.164 9.019-4.715-12.353 5.853 3.323zm-25.064 55.53l3.092-2.268 1.389 1.794.536-.414-1.379-1.781 1.671-1.226 1.494 1.494.479-.479-1.42-1.421 1.6-1.173 1.591 1.593.479-.479-1.518-1.519 1.02-.748 1.642 1.642.479-.479-1.568-1.569 1.492-1.094 1.762 1.763.479-.479-1.688-1.689 1.802-1.322 1.708 1.708.479-.479-1.634-1.634 1.958-1.436 9.391 15.129-7.336-2.842a.672.672 0 0 0-.51.009l-17.034 7.243-.456-7.844zm.188-15.71l14.359 3.36L6.734 201.96l-5.223-3.107 6.148-11.462zm-4.928 13.765l-1.036.41a33.03 33.03 0 0 1-.181-1.134l1.217.724zm1.472.876l1.048.624-3.052 1.262c-.087-.34-.166-.674-.237-.999l2.241-.887zm-1.634 3.198l3.582-1.48.055.95-3.384 1.285a21.569 21.569 0 0 1-.253-.755zm3.72.888l.045.768-2.77.881a16.595 16.595 0 0 1-.244-.521l2.969-1.128zm.126 2.164l.039.667-1.82.546a7.668 7.668 0 0 1-.379-.526l2.16-.687zm.12 2.058l.041.706a3.993 3.993 0 0 1-.838-.467l.797-.239zm64.838-86.453l-4.486 6.663-2.669-21.632 7.155 14.969zm4.646 17.198a.679.679 0 0 0 .817-.21l6.111-8.08a.669.669 0 0 0 .129-.305l1.6-10.288 6.757 7.997-1.263 14.18a.676.676 0 0 0 .162.504l5.983 6.921-9.171.18-18.165-4.488-1.247-10.11 8.287 3.699zM96.033 162.7l.148 1.032-.382.007.234-1.039zm6.772 37.798l-.376-.678h.223l.153.678zm-1.126-2.033l-.276-.499.829-.02.117.519h-.67zm-1.018-1.837l-.261-.471 1.422-.027.105.467-1.266.031zm-1.004-1.813l-.18-.325 1.974-.014.068.304-1.862.035zm-.929-1.675l-.152-.273.05-.271 2.447-.041.104.568-2.449.017zm2.098-1.937l-1.95.033.101-.552 1.747-.031.102.55zm-1.599-1.879l.147-.8.956-.022.147.799-1.25.023zm.397-2.162l.23-1.251.228 1.241-.458.01zm-3.254-11.465l-.329-.495 1.84-.033.092.5-1.603.028zm1.85 1.323l.37 2.016-1.33-1.999.96-.017zm-.631-3.44l.044.237-2.483.045-.325-.488 2.73-.033.034.239zm-3.659-1.551l.117-.518 3.241-.039.074.515-3.432.042zm.423-1.877l.145-.642 2.504-.034.092.644-2.741.032zm.452-2.002l.201-.89 1.676-.03.128.892-2.005.028zm1.683-2.272l-1.176.021.18-.799.882-.016.114.794zm-2.084-2.114h-.011l.001.047-1.849 8.202a.678.678 0 0 0 .097.524l6.496 9.768-1.092 5.948-5.68-3.078-.02-.059-.055.019-10.432-5.654a.675.675 0 0 0-.452-.07l-8.293 1.605-.937-7.595 4.69-7.362a.677.677 0 0 0 .042-.65l-7.655-16.449 2.567.634 1.823 3.566.604-.308-1.555-3.042 2.059.509 1.604 3.309.61-.295-1.359-2.803 2.718.671 2.005 4.72.623-.265-1.807-4.252 2.208.546.828 2.493.643-.213-.693-2.088 2.041.504.885 2.667.643-.213-.751-2.261 1.82.449.832 2.439.642-.218-.539-1.58 7.715 5.326-1.016 4.509zm-18.88 1.88l-3.608 5.663-2.252-18.255 5.86 12.592zm22.089 42.402l6.554 3.008-.528.594-6.372-3.129.346-.473zm.854-1.1l1.499-.32 4.748 2.359.208.924-6.455-2.963zm3.631-.775l1.893-.404.341 1.514-2.234-1.11zm-6.322-48.32l-6.594-4.552 7.849-.154-1.255 4.706zM84.925 93.938l-5.743-6.986 1.153-1.798a.681.681 0 0 0 .1-.268l.791-5.411c.399 1.113.797 1.976 1.178 2.432.749.899 1.674 5.972 2.521 12.031zM73.957 50.37l-7.727-1.895 2.406-6.103c.149.731.384 1.452.74 2.127 1.173 2.222 3.124 4.406 4.581 5.871zM54.564 9.302l.097.272-1.793 3.359.598.319 1.502-2.815c.195.544.437 1.222.714 1.989l-.95 1.862.604.308.662-1.297.354.981-1.246 2.442.604.308.958-1.878.49 1.346-.651 1.276.604.308.365-.715.477 1.299-.517 1.013.604.308.233-.456.409 1.099-.775 1.377.59.332.496-.882.295.778-.924 1.81.604.308.647-1.268c.252.65.477 1.215.667 1.674l-.889 1.742.604.308.635-1.244c.071.152.131.268.174.337a.67.67 0 0 0 .069.09l8.333 9.237c-.17.539-.458 1.581-.635 2.85-2.836-1.895-11.266-7.543-12.786-8.725-1.412-1.099-4.868-7.184-6.171-9.6L48.54 2.439l2.37 2.397 3.654 4.466zm-13.965 6.364l1.544 2.415.57-.365-1.704-2.666.216-.324a.828.828 0 0 0 .038-.064l.125-.241 1.004 1.522.565-.373-1.212-1.838.614-1.184 1.514 2.369.57-.365-1.725-2.698.546-1.053 1.019 1.594.57-.365-1.229-1.923 3.601-6.946 1.013 16.315-13.342 4.74 3.074-4.61 1.02 1.548.565-.373-1.178-1.786.781-1.171.847 1.285.565-.373-1.004-1.524 1.033-1.546zm-22.052 87.835l.404-4.039.241-.209.71 1.516.614-.287-.792-1.691.896-.779.773 1.652.614-.287-.855-1.827.965-.839.834 1.781.614-.287-.916-1.957.78-.678 5.312 12.64-3.52 7.864-8.036 5.076 1.362-17.649zm-7.569 68.675c.014-.021.021-.046.032-.068l.006.003 3.407-6.596a.676.676 0 0 0-.009-.639l-2.964-5.358 2.243-1.842 1.378 1.756.533-.418-1.387-1.768 2.199-1.806c.04-.033.061-.08.092-.121l.014.011.089-.116.867 1.106.533-.418-.974-1.242 1.725-2.24 1.321 1.684.533-.418-1.427-1.82 1.305-1.693.825 1.052.533-.418-.932-1.188 1.76-2.285 1.455 1.856.533-.418-1.562-1.992 2.065-2.681 5.856 15.343-.443 3.433L8.929 175.25l2.049-3.074zm-4.819 12.491l.43 1.85-2.692 5.019 2.262-6.869zm22.026 28.428a.675.675 0 0 0 .035-.518l-.62-1.837 3.804 4.645-6.392 3.489c1.191-1.904 2.34-4.097 3.173-5.779zm-7.992 13.975c-.108-1.794.044-3.621.334-4.087.142.061.293.092.452.092.641 0 1.434-.671 2.275-1.696l4.223-2.305-5.181 10.701-2.103-2.705zm40.899 10.275l-.201-2.918.565-.2.224 3.236-.166-.032-.422-.086zm22.319-14.138l-9.609-.707.582-9.276 9.027 9.983zM73.21 211.26a.67.67 0 0 0-.07.275h-.007l-.68 10.839-21.517-2.407a.609.609 0 0 0-.181.005l-10.131 1.606h-.003l-9.425 1.494 3.795-14.55.105 1.515.676-.046-.148-2.149 1.275-1.003.125 1.801.676-.046-.157-2.262 1.325-1.043.131 1.9.676-.046-.163-2.36.917-.721.147 2.121.676-.046-.179-2.58h-.001l.826-.65.138 1.986.676-.046-.169-2.447 1.234-.971.104 1.504.676-.046-.136-1.965 3.289-2.587a.676.676 0 0 0 .025-1.045l-3.754-3.255 1.688-1.231.131 1.891.676-.046-.16-2.316 1.679-1.225.1 1.451.676-.046-.13-1.876 1.205-.879.136 1.968.676-.046-.166-2.393 1.046-.763.109 1.577.676-.046-.139-2.002 1.04-.758h.175l.133 1.926.676-.046-.13-1.88h1.191l.105 1.517.676-.046-.102-1.471h1.276l.125 1.805.676-.046-.122-1.758h1.477l.539 4.759h9.964l5.214 16.043a36.085 36.085 0 0 0-1.887 3.162zm6.218-7.008c-.362 0-.741.141-1.126.366l2.506-5.316 9.037 10.548c-3.637-2.257-8.697-5.285-10.103-5.567a1.555 1.555 0 0 0-.314-.031zm22.703 9.091l-1.182-.161-4.971-2.9.477-.652 6.25 3.069-.574.644zM55.965 50.133l.662.144-1.385 6.351-.662-.144 1.385-6.351zm-3.71 1.104l.662.144-1.385 6.351-.662-.144 1.385-6.351zm3-3.032l-1.385 6.351-.662-.144 1.385-6.351.662.144zM32.711 117.12l1.169-4.01.488.142-1.169 4.01-.488-.142zm-2.645.84l-.488-.143 1.169-4.01.488.143-1.169 4.01zm1.975-2.006l-.488-.142 1.169-4.011.488.142-1.169 4.011zm45.873 11.761l1.23-5.641.496.109-1.23 5.641-.496-.109zm-1.57-4.552l-1.23 5.641-.496-.109 1.23-5.641.496.109zm.847 2.82l-.496-.109 1.23-5.641.496.109-1.23 5.641zm-17.228 75.563l.662.144-2.227 10.215-.662-.144 2.227-10.215zm-4.743 1.374l.662.144-2.227 10.215-.662-.144 2.227-10.215zm3.996-4.963l-2.227 10.215-.662-.144 2.227-10.215.662.144zm-22.511-.008l-.941 4.314-.662-.144.941-4.314.662.144zm-2.914-2.112l.662.144-.94 4.314-.662-.144.94-4.314zm1.503 2.89l-.662-.144.94-4.314.662.144-.94 4.314zm49.613-56.418l.662.144-.94 4.315-.662-.144.94-4.315zm-2.531 2.491l-.662-.144.94-4.314.662.144-.94 4.314zm1.782-1.568l-.662-.144.94-4.314.662.144-.94 4.314zm-63.431 40.374l1.5-5.872.657.168-1.5 5.872-.657-.168zm-2.538.958l-.657-.168 1.5-5.872.657.168-1.5 5.872zm2.247-2.936l-.657-.168 1.5-5.872.657.168-1.5 5.872zm2.972-18.484l1.841-7.208.657.168-1.841 7.208-.657-.168zm-3.266 1.138l-.657-.168 1.842-7.208.657.168-1.842 7.208zm2.758-3.605l-.657-.168 1.841-7.208.657.168-1.841 7.208zm62.425 3.09l.657.168-2.012 7.878-.657-.168 2.012-7.878zm-4.285 1.059l.657.168-2.013 7.878-.657-.168 2.013-7.878zm3.67-3.77l-2.013 7.878-.657-.168 2.013-7.878.657.168z"/></svg>