<svg xmlns="http://www.w3.org/2000/svg" width="54.632" height="123.887" viewBox="0 0 54.632 123.887"><path fill="#FFF" d="M54.624 107.931l-1.912-8.497-1.095-5.963-.001-.002-.816-4.446-1.054-7.376.833-3.123a.357.357 0 0 0 .002-.172L45.267 56.46c-.143-1.497-1.323-13.532-2.417-14.846-.268-.322-.591-1.239-.921-2.437-.578-2.094-1.18-5.05-1.555-7.204l-.851-5.508a.327.327 0 0 0-.041-.117l-.001-.002c-.003-.005-.008-.008-.011-.012a.34.34 0 0 0-.066-.081c-.022-.018-2.195-1.893-3.163-3.728-.925-1.753.01-4.373.019-4.399a.348.348 0 0 0-.069-.352L31.8 12.905c-.298-.531-2.076-5.415-3.145-8.419a.337.337 0 0 0-.059-.104L26.66 2.018 24.769.103a.348.348 0 0 0-.557.084L20.58 7.192l-3.819 5.729c-.007.01-.009.022-.014.033-.004.008-.012.013-.015.022-.004.008-.003.017-.005.025-.004.011-.011.02-.013.031L13.1 27.692l-2.553 8.298a.314.314 0 0 0-.013.068L8.831 53.086l-1.323 17.15-2.456 3.971a.349.349 0 0 0-.025.317l1.023 2.455-.957 4.783-.086.432a.32.32 0 0 0-.007.068v5.852l-2.069 3.104a.348.348 0 0 0-.059.193v2.072l-2.855 8.671a.351.351 0 0 0-.016.137c.022.271.553 6.374 3.656 6.879l.007.002c.132.021.267.036.408.036a.356.356 0 0 0 .086-.011l8.849-2.26.78 2.31c-.802 1.601-1.667 3.052-2.287 3.883l-.004.002.001.002c-.311.416-.561.678-.708.719a.614.614 0 0 0-.728.142c-.496.533-.415 2.251-.378 2.764a.35.35 0 0 0 .072.189l1.321 1.698-.68.849a.35.35 0 0 0 .019.457l3.617 3.83c.006.006.013.008.019.013a.323.323 0 0 0 .077.054l.035.017c.008.003.014.008.022.01a.338.338 0 0 0 .183.004h.001l7.572-1.893 2.253.615a.352.352 0 0 0 .185-.001l2.951-.828 4.122.834 6.596 1.277c.016.003.033.003.049.003.006.001.011.003.017.003l.01-.002a.396.396 0 0 0 .069-.01c.007-.002.015-.001.022-.003l.004-.002c.017-.005.032-.014.048-.022.011-.006.024-.01.034-.016.012-.008.023-.019.034-.028.012-.01.024-.018.034-.03l.003-.003 3.617-4.042a.37.37 0 0 0 .06-.093l1.942-4.468c.003-.005.003-.011.005-.017.006-.015.009-.031.013-.048a.3.3 0 0 0 .008-.051c.001-.016 0-.031-.001-.048a.335.335 0 0 0-.008-.054c-.002-.007-.001-.014-.003-.022l-.011-.023c-.007-.017-.014-.034-.024-.05a.44.44 0 0 0-.026-.039c-.005-.007-.008-.015-.014-.022l-5.607-6.201c.816-1.488 1.95-3.012 2.486-3.012h.001c.733.146 4.529 2.469 6.902 3.994.007.005.016.005.023.009a.355.355 0 0 0 .071.026c.016.005.031.015.047.017l4.681.639a.35.35 0 0 0 .307-.114l1.702-1.915a.347.347 0 0 0 .081-.309zm-5.751.614l1.164.679-1.509-.206.345-.473zm-.993.179l-6.205-7.242a.347.347 0 0 0-.579.078l-2.084 4.42-2.392-7.362h1.624l-.614-4.973.986-.191.813 1.59.31-.158-.767-1.5 1.224-.237.654 1.348.313-.151-.613-1.266 1.029-.199 1.056 2.484.32-.136-.98-2.305 1.637.887.316.953.33-.109-.2-.601.966.524.554 1.667.33-.109-.437-1.316 1.839.997.369 1.081.33-.112-.247-.725 2.453 1.329-.302 1.646a.353.353 0 0 0 .037.232l3.181 5.742-2.874.614a.342.342 0 0 0-.208.135l-2.169 2.965zM27.219 95.478a.351.351 0 0 0-.205.067l-4.969 3.624-.861-.746 1.293-12.122h6.898l1.04 9.178-3.196-.001zm-9.437 10.766l-5.249-8.456 1.691-2.665-.451 3.495h6.573l3.391 2.94-5.955 4.686zm-2.492 8.965a.35.35 0 0 0 .312.109l3.012-.478-6.347 3.057 2.895-5.978.961-.524-.91 3.491a.345.345 0 0 0 .077.323zm6.427-.859l.054.779.347-.024-.056-.81.457-.072.061.878.347-.024-.063-.909.467-.074.058.834.347-.024-.06-.865.419-.066.062.894.347-.024-.064-.924 1.685-.267 2.247.251-.081 1.405.347.02.08-1.386 1.033.116.089 1.287.347-.024-.085-1.224 1.017.114.091 1.319.347-.024-.087-1.256 1.146.128.086 1.237.347-.024-.081-1.174 1.347.151.084 1.224.347-.024-.08-1.161 1.087.122.082 1.185.347-.024-.078-1.122 1.017.113.084 1.218.347-.024-.08-1.154.016.002.001-.003.013.004.851.063.089 1.29.347-.024-.086-1.241.937.069.064.929.347-.024-.061-.879.88.065.07 1.016.347-.024-.067-.967 1.517.111-3.67 2.835a.345.345 0 0 0-.126.198l-1.034 4.525-4.132-3.915a.347.347 0 0 0-.355-.075l-6.064 2.151-2.843-1.802a.348.348 0 0 0-.416.033l-2.228 1.966-4.351-1.683 2.833-4.03.031.453.347-.024-.061-.882.248-.353.041.596.347-.024-.059-.853.472-.074zm20.204 3.838l-.971-.616.216-.167.861.539-.106.244zm-9.362 1.733l.154 2.218-.332-.064-.141-2.04.319-.114zm.681-.241l.215-.077.136.129.181 2.612-.352-.068-.18-2.596zm1.098.76l.336.319.123 1.784-.319-.062-.14-2.041zm1.084 1.027l.202.192.073 1.059-.207-.041.016-.001-.084-1.209zm.948.899l.638.605-.604-.117-.034-.488zm2.479-.477l.167.121-.262.293.095-.414zm.168-.737l.08-.347.639.4-.253.282-.466-.335zm.243-1.065l.08-.347 1.089.691-.223.249-.946-.593zm.244-1.067l.069-.3 1.523.966-.196.219-1.396-.885zm.596-.79l.264-.204 1.276.809-.127.292-1.413-.897zm1.654-1.278l.29-.224.39.281-.126.29-.554-.347zm.864-.668l.197-.152-.097.223-.1-.071zm-30.877 2.641l8.106-3.904-5.25 7.469-.087-2.5a.349.349 0 0 0-.319-.335l-2.844-.238.394-.492zm.229 1.243l-.204.197-.219-.233.423.036zm.923.077l.376.031-.849.782-.177-.187.65-.626zm.945.453l.017.509-.594.742-.364-.385.941-.866zm.055 1.577l.012.355-.16-.17.148-.185zm1.552.218l.027.39-.366.091.339-.481zm.636-.904l.286-.407.092 1.455-.3.075-.078-1.123zm.926-1.317l.102-.145.173.067.139 2.203-.275.069-.139-2.194zm.989.198l.323.125.098 1.553-.31.078-.111-1.756zm1.038.401l.264.102.065.938-.259.065-.07-1.105zm.98.38l.781.302-.747.187-.034-.489zm3.13-.221l.04.572-.525-.143.485-.429zm.657-.58l.249-.219.077 1.629-.233-.063-.093-1.347zm.944-.257l.566.359.072 1.04-.564.159-.074-1.558zm1.296.823l.429.272-.403.113-.026-.385zm3.271.057l.027.393-.723-.146.696-.247zm.681-.242l.594-.211.077 1.113-.617-.125-.054-.777zm-13.495-10.875l-2.996-3.658-.001.001a.343.343 0 0 0-.354-.117l-5.669 1.448 5.483-2.331 4.316 1.672-.779 2.985zM4.758 90.695l.694 1.161.298-.179-.69-1.155 1.051-.601.66.841.274-.215-.629-.801 1.329-.759.736.939.274-.215-.705-.898 1.414-.808.663.845.274-.215-.63-.805 1.367-.781.81 1.033.274-.215-.779-.993 1.298-.742.559.713.274-.215-.528-.673 2.549-1.456-1.16 8.99-2.475 3.898-7.918-1.853-.473-2.037v-1.983l.154-.231 1.035-.59zM8.52 78.577l-.299-7.618 4.29 2.437-3.991 5.181zM5.696 86.4l.204-.007-.204.395V86.4zm.57-.715l-.57.018v-.337l.741-.013-.171.332zm-.57-1.015v-.336l.72-.015.185.335-.905.016zm0-1.031v-.62l.339.613-.339.007zm3.063-20.563l1.345-.85-1.446 2.152.101-1.302zm1.074-13.012l.315-3.15 2.946.315-3.261 2.835zm2.689-18.125l.318 1.001-1.052 1.382.734-2.383zm2.587-9.491l1.395.431-2.393 3.619.998-4.05zm2.032-8.249l.869 2.006-1.717 1.435.848-3.441zm1.542-1.296l.629 1.891.33-.11-.631-1.898.625-.222.469 1.411.33-.11-.471-1.417.697-.248.741 2.232.33-.11-.744-2.238.522-.185.389 1.171.33-.11-.391-1.177.702-.25.51 1.537.33-.11-.513-1.544.755-.268.495 1.45.33-.112-.496-1.454 1.018-.362c.554 1.015 2.368 4.268 3.248 4.954.093.072.235.176.412.302l-4.378 4.31-5.538-4.153-1.199-2.765 1.169-.415zm11.607 4.172l.495 1.262.324-.127-.309-.788.728.493.4 1.02.324-.127-.216-.549.525.354.227.721.332-.105-.097-.306 2.048 1.372-1.856 4.711c-.012.03-.012.062-.015.093l-.007-.001-.46 4.602-2.721 1.44-.315 5.414-7.163 1.645.286-4.437 1.455-4.419-.575-2.089 1.807-3.242-.835-3.212.489-.482.375.796.315-.148-.427-.906.433-.426.474.929.31-.158-.524-1.027.46-.452.746 1.596.315-.147-.799-1.708.64-.631.623 1.352.316-.146-.675-1.465.515-.507.434.919.315-.148-.486-1.03.541-.533.652 1.703.325-.124-.599-1.564.85.582zm4.603 8.75l.38 1.041.327-.119-.3-.822.73.179.352.965.327-.119-.272-.746.778.191.323.885.327-.119-.243-.666 1.114.273-2.124 6.828a.317.317 0 0 0-.015.097l-.069 3.619-5.318 4.286-.109-.881h-9.855l-.851 6.596-3.771-.404 2.409-6.226.366.781.315-.147-.463-.988.505-.226.356.761.315-.147-.353-.755.746-.334.301.643.315-.147-.298-.638.979-.438.445.952.315-.147-.428-.913 1.045-.24.328.699.315-.147-.296-.632.919-.211.339.725.315-.147-.308-.658 1.744-.401.491 1.049.315-.147-.459-.981 1.314-.302-.102.048.563 1.203.315-.147-.542-1.157 1.39-.319.355.757.315-.147-.43-.919.066-1.14.208.445.315-.147-.481-1.028.057-.979.398.674.3-.177-.661-1.119.059-1.016.289.809.328-.117-.538-1.507.492-.261.357 1.092.331-.108-.376-1.149.427-.226.253.707.328-.117-.27-.754.542-.287.335.936.328-.117-.351-.983.278-.147.079-.787.191.533.328-.117-.438-1.224.078-.777.216.606.328-.117-.463-1.297.093-.936.372 1.041.328-.117-.479-1.34.871.207zm10.309 33.319l-.727.015.408-1.328.319 1.313zm3.037 16.332l-.214-.248 1.051-.065-.006-.083.082.336-.913.06zm1.079.628l.21.865-.719-.832.509-.033zm-.394-1.628l-1.471.091-.204-.237 1.617-.096.058.242zm-1.879-.83l.024-.267 1.566-.093.064.262-1.654.098zm.086-.968l.029-.331 1.227-.075.08.327-1.336.079zm.092-1.033l.041-.459.847-.055.11.453-.998.061zm.104-1.16l.036-.41.483-.034.098.404-.617.04zm.099-1.112l.07-.78.185.762-.255.018zm-.669-3.824l-.997-1.18h.711l.286 1.18zm-1.585-1.876l-.376-.445 1.393-.017.112.462h-1.129zm-.958-1.134l-.27-.319 1.998-.027.079.324-1.807.022zm-9.737 5.552l2.862-4.251a.35.35 0 0 0 .055-.151h.002l.848-6.702.124.264.315-.147-.357-.763.158-1.246.312.666.315-.147-.493-1.053.274-.843.627 1.284.313-.153-.785-1.607.484-1.491.521 1.037.311-.156-.679-1.352.316-.978.49.977.311-.156-.649-1.291.238-.731.574 1.186.313-.151-.477-.985.543.1 3.209 7.292-1.63 5.301c-.005.016-.006.033-.009.049l-.003-.001-.925 5.95-2.917 3.858-4.386-1.957-.205-1.652zm-2.59-21l3.129.794-2.271 6.158-.858-6.952zm5.05 1.282l.362.857.321-.135-.26-.615.482.122.023.003-.001.002.318.059.292.588.312-.155-.176-.355 1.096.202-1.739 5.354-1.862-1.064a.348.348 0 0 0-.305-.02l-2.37.975 1.144-3.101.147.296.312-.155-.294-.591.304-.824.291.621.315-.147-.436-.933.386-1.047.696 1.524.317-.145-.723-1.584 1.048.268zm-1.028 5.553l1.885 1.077-.939 7.424-3.551-7.429 2.605-1.072zm7.838 7.601l.126-.409 1.803-.022.098.404-2.027.027zm.341-1.109l.172-.559 1.111-.024.137.565-1.42.018zm.267-6.053L42.17 49.4l1.636.301c.202 1.557.39 3.171.549 4.664zm-5.854-6.348l1.765-2.751 2.98 3.624-4.745-.873zm-.73-.15l-5.976-1.516-.486-3.941.497-.4.476 1.015.315-.147-.511-1.093.981-.791.442.943.315-.147-.478-1.02.765-.616.926 1.68.305-.168-.956-1.734.739-.595.436.932.315-.147-.473-1.01.472-.381.311.664.315-.147-.347-.742.528-.426.492 1.05.315-.147-.51-1.09 4.223 1.582-.576 3.941-2.855 4.451zm.952-18.714l.509-.011.045.294-.647.014.093-.297zm-.902 2.899h1.86l.005.034.06.336h-2.04l.115-.37zm.592 4.062v.037h.03a83.66 83.66 0 0 0 1.859 2.242l-3.077-1.152.049-2.558c.308.391.707.894 1.139 1.431zm1.914 1.236l.421-.009c.054.234.11.466.166.696-.183-.209-.38-.44-.587-.687zm-.567-.684l-.421-.515h1.143c.035.165.072.331.109.497l-.831.018zm-.983-1.212l-.287-.358h1.77l.074.358h-1.557zm1.343-1.053h-2.182l-.271-.344 2.381-.025.072.369zm-2.707-1.037l.077-.246h2.384l.041.221-2.502.025zm.624-2.008l.077-.248 1.418-.02.041.267-1.536.001zm.295-.947l.08-.258.972-.021.041.264-1.093.015zm.792-1.961l-.183.004.123-.395.06.391zm-10.57 50.709h-5.255l2.628-28.505 2.627 28.505zm-11.679-4.568l-3.998-9.249 1.198-.088-.047.805.347.021.049-.85.74-.054-.063 1.091.347.021.066-1.136.634-.046-.034.581.347.021.041-.705a.35.35 0 0 0 .065-.078l.516-.88.013.777.348-.006-.022-1.35 1.138-1.943-1.685 13.068zm-8.663-4.435l.337-4.366.186-.277-.032.546.347.021.066-1.134.311-.463-.023.39.347.021.056-.978.422-.629-.028.482.347.021.062-1.07.352-.524.017 1.04.348-.006-.013-.795.71 2.686c.005.017.015.031.022.047l-.005.002 4.103 9.494-7.932-4.508zm2.005-23.932l.194-1.938.107-.048.407.819.312-.155-.401-.806.654-.294.415.887.315-.147-.413-.882.593-.265.652 1.429.317-.144-.651-1.427.69-.309.367.869.321-.135-.37-.876.905-.405 1.15 4.423-5.564-.596zm1.275-7.327l-.543.012.026-.258.445-.01.072.256zm-.613.71l.809-.017.069.243-.901.016.023-.242zm1.691.546l-1.137-4.026 1.467-.147.516 1.101.315-.147-.464-.99.881-.088.45.961.315-.147-.398-.851 1.845-.185.481 1.026.315-.147-.429-.916.375-.037a.418.418 0 0 0 .072-.015l.745-.241.551 1.177.315-.147-.533-1.138 1.337-.432.398.851.315-.147-.38-.812 2.198-.711-.297 4.471-10.853 4.857 1.569-2.857a.344.344 0 0 0 .031-.263zm.988-7.249l-.598-1.882.789-.2.409 1.271.331-.107-.402-1.25 1.068-.271.555 1.185.315-.147-.525-1.124 1.208-.306.467.998.315-.147-.439-.938 1.061-.269.445.95.315-.147-.416-.89.994-.252.453.967.315-.147-.425-.907.863-.218.465.993.315-.147-.436-.932 2.295-.581.254.924-1.261 3.828-5.293 1.712-5.139.516 1.647-2.165a.35.35 0 0 0 .055-.317zm4.693 7.873l-1.986 5.133-.988-3.801 2.974-1.332zm-2.016-18.707l2.963-.636a.345.345 0 0 0 .177-.099l.079.291.336-.091-.135-.497.375-.399.141.433.331-.108-.2-.615.284-.302.184.543.33-.112-.244-.718.482-.514.318 1.21.336-.088-.313-1.193.742.557.157.741.34-.072-.074-.352 1.135.851.701 2.697-4.112-.189-4.333-1.338zm-.223-3.286l2.433-2.033 2.512 1.884-2.011 2.142-3.616.775.682-2.768zm-2.469 9.838l.804-1.215.1.289.329-.113-.186-.542.37-.559.432.913.315-.149-.523-1.104.604-.914.251.62.323-.13-.34-.842.461-.697.412.868.314-.149-.502-1.057.491-.744.041.012-.03.012.487 1.249.324-.126-.396-1.016.806.249.403 1.017.324-.128-.3-.757 1.174.363.07.368.342-.065-.035-.187a.317.317 0 0 0 .087.015l4.066.187-1.604 2.878.156.568-10.08 2.551.51-1.665zm-2.319 9.327l-.18.004.047-.473.133.469zm-.439 2.597l.898-.016-.204.371-.732.024.038-.379zm-.108 1.077l.413-.013-.503.915.09-.902zm2.383 6.561l.355.759.315-.147-.397-.849.543-.472.406.867.315-.147-.395-.844 1.04.111.43.918.315-.147-.34-.727.924.099-.012.006.563 1.203.315-.147-.477-1.019 1.015.109.496 1.058.315-.147-.406-.867 1.489.16-4.659 6.888-2.626-6.248.476-.417zm2.368 7.593l-.026.448.347.021.061-1.045.767-1.133-.034.586.347.021.068-1.17.431-.638-.04.683.347.021.074-1.268.767-1.133.017 1.181.348-.005-.024-1.68.43-.636.067.858.347-.027-.101-1.294.597-.882L18.79 59.75l-2.729 4.659-3.434.252-.912-3.451 1.698-1.073a.348.348 0 0 0 .132-.152l1.883-4.21zM6.754 77.012c.003-.012.001-.025.002-.038l1.004-.018.026.651-1.159.046.127-.641zm-.269 1.343l1.327-.053.026.658-1.465-.046.112-.559zm1.071-6.578l-.184.003.174-.28.01.277zm-.619.706l.647-.011.018.46-.954.018.289-.467zm-.725 1.171l1.417-.026.019.481-1.705-.018.269-.437zm1.463 1.151l.011.274-1.648.062-.148-.355 1.785.019zm.038.97l.019.485-1.219.022-.189-.455 1.389-.052zm-1.645 4.664l.002.092.405-.007-.507.416.1-.501zm1.201-.568l-.001-.056-1.079.017.045-.226 1.308.041-.273.224zm9.438-4.093c.004.003.009.003.013.006l-.598 4.631-2.421-6.343 3.006 1.706zm-12.87 28.515l1.588-1.165.713.921.275-.213-.708-.915.858-.63.767.767.246-.246-.729-.73.822-.602.817.818.246-.246-.779-.78.524-.384.843.843.246-.246-.805-.806.766-.562.905.905.246-.246-.868-.864.925-.679.877.877.246-.246-.839-.839 1.005-.737 4.822 7.769-3.767-1.459a.345.345 0 0 0-.262.005l-8.747 3.719-.233-4.029zm.096-8.067l7.373 1.725-7.848 5.756-2.682-1.595 3.157-5.886zm-2.53 7.068l-.532.211a16.77 16.77 0 0 1-.093-.582l.625.371zm.756.45l.538.32-1.567.648a15.623 15.623 0 0 1-.122-.513l1.151-.455zm-.839 1.642l1.839-.76.028.488-1.738.66a11.014 11.014 0 0 1-.129-.388zm1.91.456l.023.394-1.422.452a7.312 7.312 0 0 1-.125-.268l1.524-.578zm.065 1.112l.02.343-.935.28a4.233 4.233 0 0 1-.195-.27l1.11-.353zm.061 1.056l.021.363a2.068 2.068 0 0 1-.43-.24l.409-.123zm33.295-44.394l-2.304 3.421-1.37-11.107 3.674 7.686zm2.386 8.832a.35.35 0 0 0 .42-.108l3.138-4.149a.337.337 0 0 0 .066-.157l.822-5.283 3.47 4.106-.649 7.282a.35.35 0 0 0 .083.259l3.072 3.554-4.709.092-9.328-2.305-.64-5.192 4.255 1.901zm10.277 11.099l.076.53-.196.004.12-.534zm3.477 19.41l-.193-.348h.115l.078.348zm-.578-1.044l-.142-.256.426-.01.06.267h-.344zm-.523-.944l-.134-.242.73-.014.054.24-.65.016zm-.515-.931l-.092-.167 1.014-.007.035.156-.957.018zm-.477-.86l-.078-.14.026-.139 1.257-.021.053.292-1.258.008zm1.077-.994l-1.001.017.052-.283.897-.016.052.282zm-.821-.965l.075-.411.491-.011.075.41-.641.012zm.204-1.111l.118-.642.117.637-.235.005zm-1.671-5.887l-.169-.254.945-.017.047.257-.823.014zm.95.68l.19 1.035-.683-1.026.493-.009zm-.324-1.767l.023.122-1.275.023-.167-.251 1.402-.017.017.123zm-1.879-.796l.06-.266 1.664-.02.038.264-1.762.022zm.217-.964l.074-.33 1.286-.017.047.331-1.407.016zm.232-1.028l.103-.457.861-.015.066.458-1.03.014zm.865-1.167l-.604.011.092-.41.453-.008.059.407zm-1.071-1.085h-.006l.001.024-.949 4.212a.345.345 0 0 0 .05.269l3.336 5.016-.561 3.054-2.917-1.581-.01-.03-.028.01-5.357-2.903a.346.346 0 0 0-.232-.036l-4.258.824-.481-3.9 2.408-3.78a.348.348 0 0 0 .022-.334l-3.931-8.447 1.318.326.936 1.831.31-.158-.799-1.562 1.057.261.824 1.699.313-.151-.698-1.439 1.396.345 1.03 2.424.32-.136-.928-2.183 1.134.28.425 1.28.33-.109-.356-1.072 1.048.259.454 1.37.33-.109-.386-1.161.935.231.427 1.252.33-.112-.277-.811 3.962 2.735-.522 2.312zm-9.695.965l-1.853 2.908-1.156-9.374 3.009 6.466zm11.343 21.774l3.366 1.545-.271.305-3.272-1.607.177-.243zm.439-.565l.77-.164 2.438 1.211.107.474-3.315-1.521zm1.864-.398l.972-.207.175.777-1.147-.57zm-3.246-24.813l-3.386-2.337 4.03-.079-.644 2.416zM43.61 48.238l-2.949-3.587.592-.923a.345.345 0 0 0 .051-.138l.406-2.779c.205.572.409 1.015.605 1.249.385.461.86 3.066 1.295 6.178zm-5.632-22.373l-3.968-.973 1.235-3.134c.077.375.197.746.38 1.092.603 1.141 1.605 2.263 2.353 3.015zM28.019 4.777l.05.14-.921 1.725.307.164.771-1.446c.1.279.224.628.367 1.021l-.488.956.31.158.34-.666.182.504-.64 1.254.31.158.493-.964.252.691-.334.655.31.158.187-.367.245.667-.265.52.31.158.12-.234.21.564-.398.707.303.17.255-.453.151.4-.474.929.31.158.332-.651c.129.334.245.624.343.86l-.457.895.31.158.326-.639c.036.078.067.138.089.173a.398.398 0 0 0 .035.046l4.279 4.743a9.362 9.362 0 0 0-.326 1.463c-1.456-.973-5.785-3.873-6.566-4.48-.725-.564-2.5-3.689-3.169-4.93l-.553-8.891 1.217 1.231 1.877 2.295zm-7.171 3.267l.793 1.24.293-.187-.875-1.369.111-.166.02-.033.064-.124.516.782.29-.192-.622-.944.315-.608.777 1.216.293-.187-.886-1.385.28-.541.523.819.293-.187-.631-.988 1.849-3.567.52 8.378-6.851 2.434 1.579-2.367.524.795.29-.192-.605-.917.401-.601.435.66.29-.192-.516-.783.53-.794zM9.524 53.148l.207-2.074.124-.107.365.778.315-.147-.407-.868.46-.4.397.848.315-.147-.439-.938.496-.431.428.915.315-.147-.47-1.005.401-.348 2.728 6.491-1.808 4.038-4.127 2.607.7-9.065zM5.638 88.413c.007-.011.011-.024.016-.035l.003.002 1.75-3.387a.347.347 0 0 0-.005-.328L5.88 81.913l1.152-.946.708.902.274-.215-.712-.908 1.129-.927c.021-.017.031-.041.047-.062l.007.006.046-.06.445.568.274-.215-.5-.638.886-1.15.678.865.274-.215-.733-.935.67-.869.424.54.274-.215-.479-.61.904-1.173.747.953.274-.215-.802-1.023 1.06-1.377 3.007 7.879-.227 1.763-11.12 6.355 1.051-1.578zm-2.475 6.414l.221.95-1.382 2.577 1.161-3.527zm11.311 14.598a.346.346 0 0 0 .018-.266l-.318-.943 1.953 2.385-3.282 1.792c.611-.978 1.201-2.104 1.629-2.968zm-4.104 7.176c-.055-.921.023-1.859.172-2.099.073.031.15.047.232.047.329 0 .736-.345 1.168-.871l2.169-1.184-2.66 5.495-1.081-1.388zm21.001 5.277l-.103-1.498.29-.103.115 1.662-.085-.016-.217-.045zm11.461-7.26l-4.934-.363.299-4.763 4.635 5.126zm-5.238-6.135a.339.339 0 0 0-.036.141h-.004l-.349 5.566-11.049-1.236a.29.29 0 0 0-.093.003l-5.202.825h-.002l-4.84.767 1.949-7.471.054.778.347-.024-.076-1.104.655-.515.064.925.347-.024-.081-1.162.68-.536.067.976.347-.024-.084-1.212.471-.37.075 1.089.347-.024-.092-1.325h-.001l.424-.334.071 1.02.347-.024-.087-1.257.634-.499.053.772.347-.024-.07-1.009 1.689-1.328a.348.348 0 0 0 .013-.536l-1.928-1.671.867-.632.067.971.347-.024-.082-1.189.862-.629.051.745.347-.024-.067-.963.619-.451.07 1.011.347-.024-.081-1.227.537-.392.056.81.347-.024-.071-1.028.534-.389h.09l.068.989.347-.024-.067-.965h.612l.054.779.347-.024-.052-.755h.655l.064.927.347-.024-.063-.903h.758l.277 2.444h5.117l2.677 8.238c-.434.646-.79 1.287-.968 1.624zm3.193-3.599c-.186 0-.381.072-.578.188l1.287-2.73 4.641 5.416c-1.868-1.159-4.466-2.714-5.188-2.859a.872.872 0 0 0-.162-.015zm11.658 4.669l-.607-.083-2.553-1.489.245-.335 3.209 1.576-.294.331zm-23.706-83.81l.34.074-.711 3.261-.34-.074.711-3.261zm-1.905.567l.34.074-.711 3.261-.34-.074.711-3.261zm1.54-1.557l-.711 3.261-.34-.074.711-3.261.34.074zM16.798 60.142l.6-2.059.251.073-.6 2.059-.251-.073zm-1.359.431l-.25-.073.6-2.059.251.073-.601 2.059zm1.015-1.03l-.251-.073.6-2.06.251.073-.6 2.06zm23.556 6.039l.632-2.897.255.056-.632 2.897-.255-.056zm-.807-2.337l-.632 2.897-.255-.056.632-2.897.255.056zm.435 1.448l-.255-.056.632-2.897.255.056-.632 2.897zm-8.846 38.802l.34.074-1.144 5.245-.34-.074 1.144-5.245zm-2.436.705l.34.074-1.144 5.245-.34-.074 1.144-5.245zm2.052-2.548l-1.144 5.245-.34-.074 1.144-5.245.34.074zm-11.559-.004l-.483 2.215-.34-.074.483-2.215.34.074zm-1.497-1.085l.34.074-.483 2.215-.34-.074.483-2.215zm.772 1.484l-.34-.074.483-2.215.34.074-.483 2.215zm25.477-28.971l.34.074-.483 2.216-.34-.074.483-2.216zm-1.3 1.279l-.34-.074.483-2.215.34.074-.483 2.215zm.915-.805l-.34-.074.483-2.215.34.074-.483 2.215zM10.644 94.282l.77-3.015.337.086-.77 3.015-.337-.086zm-1.303.492l-.337-.086.77-3.015.337.086-.77 3.015zm1.153-1.507l-.337-.086.77-3.015.337.086-.77 3.015zm1.527-9.492l.945-3.701.337.086-.945 3.701-.337-.086zm-1.678.584l-.337-.086.946-3.701.337.086-.946 3.701zm1.417-1.851l-.337-.086.945-3.701.337.086-.945 3.701zm32.055 1.587l.337.086-1.033 4.045-.337-.086 1.033-4.045zm-2.2.544l.337.086-1.034 4.045-.337-.086 1.034-4.045zm1.884-1.936l-1.034 4.045-.337-.086 1.034-4.045.337.086z"/></svg>