<?xml version="1.0" encoding="UTF-8" standalone="no"?>
<svg width="37px" height="37px" viewBox="0 0 37 37" version="1.1" xmlns="http://www.w3.org/2000/svg" xmlns:xlink="http://www.w3.org/1999/xlink" xmlns:sketch="http://www.bohemiancoding.com/sketch/ns">
    <!-- Generator: Sketch 3.3.2 (12043) - http://www.bohemiancoding.com/sketch -->
    <title>link Icon</title>
    <desc>Created with Sketch.</desc>
    <defs></defs>
    <g id="Page-1" stroke="none" stroke-width="1" fill="none" fill-rule="evenodd" sketch:type="MSPage">
        <g id="Artboard-1" sketch:type="MSArtboardGroup" transform="translate(-102.000000, -456.000000)" fill="#D04D36">
            <g id="Link-Post-#1" sketch:type="MSLayerGroup" transform="translate(89.000000, 443.000000)">
                <g id="Link-Icon" sketch:type="MSShapeGroup">
                    <path d="M47.8638517,16.4450537 L46.2718392,14.8528714 C43.9383251,12.5193573 40.1973674,12.5110372 37.8638533,14.8447211 L29.5981569,23.1102477 C29.8679636,23.3207955 30.0608525,23.481423 30.2753056,23.6960458 C30.5519042,23.9726444 30.8178056,24.291862 31.0091663,24.5808557 L39.3045771,16.2854449 C40.8436131,14.7462391 43.2920794,14.7545591 44.8311154,16.2935951 L46.423128,17.8857775 C47.9623337,19.4248134 48.0475716,21.9501976 46.5083658,23.4892336 L36.3010458,33.6967235 C34.7620098,35.2357595 32.2339089,35.1532383 30.6947031,33.6142023 L29.8840943,32.8034238 C29.3602719,33.2401405 28.6292978,33.7097978 28.0662524,33.8671992 L29.2539793,35.0549261 C31.5874934,37.3884402 35.4082555,37.4709613 37.7417696,35.1374473 L47.9492594,24.9299574 C50.2827735,22.5964433 50.1975356,18.7785678 47.8638517,16.4450537 Z M14.8919073,46.386639 L16.4840896,47.9788213 C18.8176037,50.3123354 22.5585614,50.3206554 24.8920755,47.9871413 L33.1577719,39.7214449 C32.8879652,39.5108972 32.6950763,39.3502696 32.4806233,39.1358166 C32.2040247,38.8590482 31.9381233,38.5398307 31.7467625,38.2508369 L23.4513517,46.5462477 C21.9123158,48.0854535 19.4638494,48.0771335 17.9248134,46.5380975 L16.3328009,44.9459152 C14.7935951,43.4067094 14.7083572,40.881495 16.247563,39.342459 L26.454883,29.1349692 C27.993919,27.5959332 30.52202,27.6782845 32.0612258,29.2174903 L32.8718345,30.0282688 C33.3956569,29.5915521 34.1266311,29.1218948 34.6896765,28.9644934 L33.5019496,27.7767665 C31.1684355,25.4432524 27.3476733,25.3607313 25.0141593,27.6942454 L14.8068392,37.9017352 C12.4731553,40.2352493 12.5583932,44.0531249 14.8919073,46.386639 Z" id="link-Icon"></path>
                </g>
            </g>
        </g>
    </g>
</svg>