<?xml version="1.0" encoding="utf-8"?>
<!-- Generator: Adobe Illustrator 17.0.0, SVG Export Plug-In . SVG Version: 6.00 Build 0)  -->
<!DOCTYPE svg PUBLIC "-//W3C//DTD SVG 1.1//EN" "http://www.w3.org/Graphics/SVG/1.1/DTD/svg11.dtd">
<svg version="1.1" id="Layer_1" xmlns="http://www.w3.org/2000/svg" xmlns:xlink="http://www.w3.org/1999/xlink" x="0px" y="0px"
	 width="440.966px" height="1000px" viewBox="-193.167 -438.057 440.966 1000"
	 enable-background="new -193.167 -438.057 440.966 1000" xml:space="preserve">
<path fill="#FFFFFF" d="M247.735,433.129l-15.433-68.585l-8.838-48.131c0-0.008-0.008-0.016-0.008-0.016l-6.586-35.886
	l-8.508-59.536l6.724-25.208c0.121-0.452,0.121-0.928,0.016-1.388L172.208,17.674c-1.154-12.083-10.679-109.225-19.509-119.831
	c-2.163-2.599-4.77-10.001-7.434-19.671l0,0c-4.665-16.902-9.525-40.762-12.551-58.148l-6.869-44.459
	c-0.048-0.331-0.161-0.654-0.331-0.944c0-0.008,0-0.008-0.008-0.016c-0.024-0.04-0.065-0.065-0.089-0.097
	c-0.145-0.234-0.315-0.468-0.533-0.654c-0.178-0.145-17.717-15.28-25.531-30.091c-7.466-14.15,0.081-35.297,0.153-35.507
	c0.355-0.977,0.137-2.074-0.557-2.841l-35.442-39.301c-2.405-4.286-16.757-43.708-25.385-67.955
	c-0.105-0.299-0.266-0.589-0.476-0.839L22.02-421.761L6.756-437.219c-0.63-0.638-1.526-0.936-2.421-0.807
	c-0.888,0.129-1.655,0.686-2.074,1.485l-29.316,56.542l-30.826,46.242c-0.057,0.081-0.073,0.178-0.113,0.266
	c-0.032,0.065-0.097,0.105-0.121,0.178c-0.032,0.065-0.024,0.137-0.04,0.202c-0.032,0.089-0.089,0.161-0.105,0.25l-29.171,118.33
	l-20.607,66.978c-0.056,0.178-0.089,0.363-0.105,0.549L-121.89-9.559l-10.679,138.429l-19.824,32.052
	c-0.476,0.775-0.549,1.727-0.202,2.559l8.257,19.816l-7.725,38.607l0,0l-0.694,3.487c-0.04,0.186-0.056,0.371-0.056,0.549v47.235
	l-16.7,25.054c-0.307,0.46-0.476,1.001-0.476,1.558v16.724l-23.045,69.989c-0.113,0.355-0.161,0.726-0.129,1.106
	c0.178,2.187,4.464,51.449,29.51,55.525c0.024,0.008,0.04,0.008,0.057,0.016c1.065,0.17,2.155,0.291,3.293,0.291
	c0.234,0,0.468-0.032,0.694-0.089l71.426-18.242l6.296,18.645c-6.473,12.923-13.455,24.635-18.46,31.342l-0.032,0.016l0.008,0.016
	c-2.51,3.358-4.528,5.473-5.715,5.804c-2.139-0.952-4.343-0.517-5.876,1.146c-4.004,4.302-3.35,18.169-3.051,22.31
	c0.04,0.557,0.242,1.09,0.581,1.526l10.663,13.706l-5.489,6.853c-0.872,1.098-0.807,2.664,0.153,3.689l29.195,30.914
	c0.048,0.048,0.105,0.065,0.153,0.105c0.186,0.178,0.387,0.315,0.622,0.436c0.097,0.048,0.186,0.097,0.283,0.137
	c0.065,0.024,0.113,0.065,0.178,0.081c0.266,0.081,0.533,0.113,0.799,0.113c0.226,0,0.452-0.032,0.678-0.081h0.008l61.118-15.28
	l18.185,4.964c0.492,0.129,1.009,0.129,1.493-0.008l23.819-6.683l33.271,6.732l53.241,10.307c0.129,0.024,0.266,0.024,0.396,0.024
	c0.048,0.008,0.089,0.024,0.137,0.024c0.032,0,0.056-0.016,0.081-0.016c0.194-0.008,0.371-0.04,0.557-0.081
	c0.057-0.016,0.121-0.008,0.178-0.024c0.016-0.008,0.024-0.016,0.032-0.016c0.137-0.04,0.258-0.113,0.387-0.178
	c0.089-0.048,0.194-0.081,0.274-0.129c0.097-0.065,0.186-0.153,0.274-0.226c0.097-0.081,0.194-0.145,0.274-0.242
	c0.008-0.008,0.016-0.016,0.024-0.024l29.195-32.626c0.202-0.226,0.363-0.484,0.484-0.751l15.675-36.064
	c0.024-0.04,0.024-0.089,0.04-0.137c0.048-0.121,0.073-0.25,0.105-0.387s0.057-0.274,0.065-0.412c0.008-0.129,0-0.25-0.008-0.387
	c-0.008-0.145-0.032-0.291-0.065-0.436c-0.016-0.057-0.008-0.113-0.024-0.178c-0.024-0.065-0.065-0.121-0.089-0.186
	c-0.057-0.137-0.113-0.274-0.194-0.404c-0.065-0.105-0.129-0.21-0.21-0.315c-0.04-0.057-0.065-0.121-0.113-0.178l-45.258-50.052
	c6.586-12.011,15.74-24.312,20.066-24.312c0.008,0,0.008,0,0.008,0c5.917,1.178,36.556,19.929,55.71,32.238
	c0.057,0.04,0.129,0.04,0.186,0.073c0.186,0.097,0.371,0.153,0.573,0.21c0.129,0.04,0.25,0.121,0.379,0.137l37.783,5.158
	c0.92,0.121,1.856-0.218,2.478-0.92l13.738-15.457C247.694,434.938,247.936,434.009,247.735,433.129z M201.315,438.085l9.395,5.481
	l-12.18-1.663L201.315,438.085z M193.3,439.53l-50.084-58.455c-0.622-0.726-1.558-1.09-2.51-0.961
	c-0.944,0.129-1.76,0.726-2.163,1.59l-16.821,35.677l-19.307-59.423h13.108l-4.956-40.14l7.959-1.542l6.562,12.834l2.502-1.275
	l-6.191-12.107l9.88-1.913l5.279,10.881l2.526-1.219l-4.948-10.219l8.306-1.606l8.524,20.05l2.583-1.098l-7.91-18.605l13.213,7.16
	l2.551,7.692l2.664-0.88l-1.614-4.851l7.797,4.23l4.472,13.455l2.664-0.88l-3.527-10.622l14.844,8.047l2.978,8.725l2.664-0.904
	l-1.994-5.852l19.8,10.727l-2.438,13.286c-0.113,0.638-0.016,1.3,0.299,1.873l25.676,46.347l-23.198,4.956
	c-0.678,0.137-1.275,0.533-1.679,1.09L193.3,439.53z M26.532,332.613c-0.597,0-1.17,0.194-1.655,0.541l-40.108,29.252l-6.95-6.021
	l10.437-97.844h55.678l8.395,74.081L26.532,332.613L26.532,332.613z M-49.64,419.513l-42.368-68.254l13.649-21.511l-3.64,28.21
	h53.055l27.371,23.731L-49.64,419.513z M-69.755,491.875c0.541,0.589,1.291,0.92,2.082,0.92c0.145,0,0.291-0.016,0.436-0.04
	l24.312-3.858l-51.231,24.675l23.367-48.252l7.757-4.23l-7.345,28.178C-70.627,490.196-70.393,491.173-69.755,491.875z
	 M-17.879,484.941l0.436,6.288l2.801-0.194l-0.452-6.538l3.689-0.581l0.492,7.087l2.801-0.194l-0.509-7.337l3.769-0.597l0.468,6.732
	l2.801-0.194l-0.484-6.982l3.382-0.533l0.5,7.216l2.801-0.194l-0.517-7.458l13.601-2.155l18.137,2.026l-0.654,11.341l2.801,0.161
	l0.646-11.187l8.338,0.936l0.718,10.388l2.801-0.194l-0.686-9.88l8.209,0.92l0.735,10.646l2.801-0.194l-0.702-10.138l9.25,1.033
	l0.694,9.985l2.801-0.194l-0.654-9.476l10.872,1.219l0.678,9.88l2.801-0.194l-0.646-9.371L95.415,488l0.662,9.565l2.801-0.194
	l-0.63-9.056l8.209,0.912l0.678,9.831l2.801-0.194l-0.646-9.315l0.129,0.016l0.008-0.024c0.04,0.008,0.065,0.024,0.105,0.032
	l6.869,0.509l0.718,10.412l2.801-0.194l-0.694-10.017l7.563,0.557l0.517,7.499l2.801-0.194l-0.492-7.095l7.103,0.525l0.565,8.201
	l2.801-0.194l-0.541-7.805l12.245,0.896l-29.623,22.883c-0.517,0.396-0.872,0.961-1.017,1.598l-8.346,36.524l-33.352-31.6
	c-0.767-0.726-1.881-0.961-2.865-0.605l-48.946,17.362L4.69,524.29c-1.049-0.67-2.421-0.557-3.358,0.266l-17.984,15.869
	l-35.12-13.585l22.867-32.529l0.25,3.656l2.801-0.194l-0.492-7.119l2.002-2.849l0.331,4.811l2.801-0.194l-0.476-6.885
	L-17.879,484.941z M145.201,515.92l-7.838-4.972l1.743-1.348l6.95,4.351L145.201,515.92z M69.634,529.908l1.243,17.903l-2.68-0.517
	l-1.138-16.466L69.634,529.908z M75.131,527.963l1.735-0.622l1.098,1.041l1.461,21.083l-2.841-0.549L75.131,527.963z
	 M83.994,534.098l2.712,2.575l0.993,14.4l-2.575-0.5L83.994,534.098z M92.743,542.387l1.63,1.55l0.589,8.548l-1.671-0.331
	l0.129-0.008L92.743,542.387z M100.395,549.643l5.15,4.883l-4.875-0.944L100.395,549.643z M120.405,545.793l1.348,0.977
	l-2.115,2.365L120.405,545.793z M121.761,539.845l0.646-2.801l5.158,3.229l-2.042,2.276L121.761,539.845z M123.722,531.248
	l0.646-2.801l8.79,5.578l-1.8,2.01L123.722,531.248z M125.692,522.636l0.557-2.422l12.293,7.797l-1.582,1.768L125.692,522.636z
	 M130.502,516.259l2.131-1.647l10.299,6.53l-1.025,2.357L130.502,516.259z M143.853,505.944l2.341-1.808l3.148,2.268l-1.017,2.341
	L143.853,505.944z M150.827,500.552l1.59-1.227l-0.783,1.8L150.827,500.552z M-98.401,521.869l65.429-31.512l-42.376,60.287
	l-0.702-20.179c-0.048-1.421-1.154-2.583-2.575-2.704l-22.956-1.921L-98.401,521.869z M-96.553,531.902l-1.647,1.59l-1.768-1.881
	L-96.553,531.902z M-89.103,532.524l3.035,0.25l-6.853,6.312l-1.429-1.509L-89.103,532.524z M-81.475,536.18l0.137,4.108
	l-4.795,5.989l-2.938-3.108L-81.475,536.18z M-81.031,548.909l0.097,2.865l-1.291-1.372L-81.031,548.909z M-68.504,550.669
	l0.218,3.148l-2.954,0.735L-68.504,550.669z M-63.37,543.372l2.308-3.285l0.743,11.744l-2.421,0.605L-63.37,543.372z
	 M-55.896,532.742l0.823-1.17l1.396,0.541l1.122,17.782l-2.22,0.557L-55.896,532.742z M-47.913,534.34l2.607,1.009l0.791,12.535
	l-2.502,0.63L-47.913,534.34z M-39.535,537.576l2.131,0.823l0.525,7.571l-2.091,0.525L-39.535,537.576z M-31.625,540.644
	l6.304,2.438l-6.03,1.509L-31.625,540.644z M-6.36,538.86l0.323,4.617l-4.238-1.154L-6.36,538.86z M-1.057,534.178l2.01-1.768
	l0.622,13.149l-1.881-0.509L-1.057,534.178z M6.562,532.104l4.569,2.898l0.581,8.394l-4.552,1.283L6.562,532.104z M17.023,538.747
	l3.463,2.195l-3.253,0.912L17.023,538.747z M43.426,539.207l0.218,3.172l-5.836-1.178L43.426,539.207z M48.922,537.254l4.795-1.703
	l0.622,8.984l-4.98-1.009L48.922,537.254z M-60.004,449.475l-24.183-29.526l-0.008,0.008c-0.67-0.823-1.776-1.235-2.857-0.944
	l-45.758,11.688l44.257-18.815l34.837,13.496L-60.004,449.475z M-154.765,294.007l5.602,9.371l2.405-1.445l-5.569-9.323l8.483-4.851
	l5.327,6.788l2.212-1.735l-5.077-6.465l10.727-6.126l5.941,7.579l2.212-1.735l-5.69-7.248l11.413-6.522l5.351,6.821l2.212-1.735
	l-5.085-6.498l11.034-6.304l6.538,8.338l2.212-1.735l-6.288-8.015l10.477-5.989l4.512,5.755l2.212-1.735l-4.262-5.432l20.575-11.752
	l-9.363,72.564l-19.977,31.463l-63.911-14.957l-3.818-16.442v-16.006l1.243-1.865L-154.765,294.007z M-124.4,196.195l-2.413-61.49
	l34.627,19.671L-124.4,196.195z M-147.194,259.339l1.647-0.057l-1.647,3.188V259.339z M-142.593,253.568l-4.601,0.145v-2.72
	l5.981-0.105L-142.593,253.568z M-147.194,245.375v-2.712l5.812-0.121l1.493,2.704L-147.194,245.375z M-147.194,237.053v-5.004
	l2.736,4.948L-147.194,237.053z M-122.471,71.076l10.856-6.861l-11.672,17.37L-122.471,71.076z M-113.802-33.952l2.543-25.426
	l23.779,2.543L-113.802-33.952z M-92.097-180.25l2.567,8.08l-8.491,11.155L-92.097-180.25z M-71.216-256.858l11.26,3.479
	l-19.315,29.211L-71.216-256.858z M-54.814-323.441l7.014,16.192l-13.859,11.583L-54.814-323.441z M-42.368-333.902l5.077,15.263
	l2.664-0.888l-5.093-15.32l5.045-1.792l3.786,11.389l2.664-0.888l-3.802-11.438l5.626-2.002l5.981,18.016l2.664-0.888l-6.005-18.064
	l4.213-1.493l3.14,9.452l2.664-0.888l-3.156-9.5l5.666-2.018l4.117,12.406l2.664-0.888l-4.141-12.463l6.094-2.163l3.995,11.704
	l2.664-0.904l-4.004-11.736l8.217-2.922c4.472,8.193,19.114,34.45,26.217,39.987c0.751,0.581,1.897,1.421,3.326,2.438L2.575-274.712
	l-44.701-33.522l-9.678-22.318L-42.368-333.902z M51.32-300.227l3.995,10.186l2.615-1.025l-2.494-6.36
	c1.929,1.308,3.899,2.647,5.876,3.979l3.229,8.233l2.615-1.025l-1.743-4.431c1.429,0.961,2.841,1.921,4.238,2.857l1.832,5.82
	l2.68-0.848l-0.783-2.47c7.264,4.875,13.504,9.048,16.531,11.074l-14.981,38.025c-0.097,0.242-0.097,0.5-0.121,0.751l-0.056-0.008
	l-3.713,37.146l-21.963,11.623l-2.543,43.7l-57.817,13.278l2.308-35.814l11.744-35.669l-4.641-16.862l14.585-26.168l-6.74-25.926
	l3.947-3.891l3.027,6.425l2.543-1.195l-3.447-7.313l3.495-3.439l3.826,7.499l2.502-1.275l-4.23-8.29l3.713-3.648l6.021,12.882
	l2.543-1.187l-6.449-13.786l5.166-5.093l5.029,10.913l2.551-1.178l-5.448-11.825l4.157-4.092l3.503,7.418l2.543-1.195l-3.923-8.314
	l4.367-4.302L46.67-291.3l2.623-1.001l-4.835-12.624C46.565-303.488,48.882-301.898,51.32-300.227z M88.473-229.6l3.067,8.403
	l2.639-0.961l-2.421-6.635l5.892,1.445l2.841,7.789l2.639-0.961l-2.195-6.021l6.28,1.542l2.607,7.143l2.639-0.961l-1.961-5.376
	l8.992,2.204l-17.144,55.113c-0.081,0.25-0.121,0.517-0.121,0.783l-0.557,29.211l-42.925,34.595l-0.88-7.111H-21.68l-6.869,53.24
	l-30.438-3.261l19.445-50.254l2.954,6.304l2.543-1.187l-3.737-7.975l4.076-1.824l2.874,6.143l2.543-1.187l-2.849-6.094l6.021-2.696
	l2.43,5.19l2.543-1.187l-2.405-5.15l7.902-3.535l3.592,7.684l2.543-1.187l-3.455-7.369l8.435-1.937l2.647,5.642l2.543-1.187
	l-2.389-5.101l7.418-1.703l2.736,5.852l2.543-1.187l-2.486-5.311l14.077-3.237l3.963,8.467l2.543-1.187l-3.705-7.918l10.606-2.438
	l-0.823,0.387l4.544,9.71l2.543-1.187l-4.375-9.339l11.22-2.575l2.865,6.11l2.543-1.187l-3.471-7.418l0.533-9.202l1.679,3.592
	l2.543-1.187l-3.882-8.298l0.46-7.902l3.213,5.44l2.421-1.429l-5.335-9.032l0.476-8.201l2.333,6.53l2.647-0.944l-4.343-12.164
	l3.971-2.107l2.882,8.814l2.672-0.872l-3.035-9.274l3.447-1.824l2.042,5.707l2.647-0.944l-2.179-6.086l4.375-2.317l2.704,7.555
	l2.647-0.944l-2.833-7.934l2.244-1.187l0.638-6.352l1.542,4.302l2.647-0.944l-3.535-9.88l0.63-6.272l1.743,4.891l2.647-0.944
	l-3.737-10.469l0.751-7.555l3.003,8.403l2.647-0.944l-3.866-10.816L88.473-229.6z M171.684,39.339l-5.868,0.121l3.293-10.719
	L171.684,39.339z M196.197,171.165l-1.727-2.002l8.483-0.525l-0.048-0.67l0.662,2.712L196.197,171.165z M204.907,176.234
	l1.695,6.982l-5.804-6.716L204.907,176.234z M201.726,163.093l-11.873,0.735l-1.647-1.913l13.052-0.775L201.726,163.093z
	 M186.56,156.394l0.194-2.155l12.64-0.751l0.517,2.115L186.56,156.394z M187.254,148.58l0.234-2.672l9.904-0.605l0.646,2.639
	L187.254,148.58z M187.997,140.242l0.331-3.705l6.837-0.444l0.888,3.656L187.997,140.242z M188.836,130.879l0.291-3.309l3.899-0.274
	l0.791,3.261L188.836,130.879z M189.635,121.903l0.565-6.296l1.493,6.151L189.635,121.903z M184.235,91.038l-8.047-9.525h5.739
	L184.235,91.038z M171.442,75.895l-3.035-3.592l11.244-0.137l0.904,3.729C180.554,75.895,171.442,75.895,171.442,75.895z
	 M163.709,66.742l-2.179-2.575l16.127-0.218l0.638,2.615L163.709,66.742z M85.116,111.556l23.101-34.313
	c0.25-0.371,0.387-0.791,0.444-1.219h0.016l6.845-54.096l1.001,2.131l2.543-1.187l-2.882-6.159l1.275-10.057l2.518,5.376
	l2.543-1.187l-3.979-8.499l2.212-6.804l5.061,10.364l2.526-1.235L122.003-8.3l3.907-12.035l4.205,8.37l2.51-1.259l-5.481-10.913
	l2.551-7.894l3.955,7.886l2.51-1.259l-5.238-10.42l1.921-5.9l4.633,9.573l2.526-1.219l-3.85-7.951l4.383,0.807l25.902,58.858
	L153.28,61.132c-0.04,0.129-0.048,0.266-0.073,0.396l-0.024-0.008l-7.466,48.026l-23.545,31.14L86.77,124.89L85.116,111.556z
	 M64.21-57.949l25.256,6.409L71.135-1.835L64.21-57.949z M104.972-47.601l2.922,6.917l2.591-1.09l-2.099-4.964l3.891,0.985
	c0.065,0.016,0.121,0.016,0.186,0.024l-0.008,0.016l2.567,0.476l2.357,4.746l2.518-1.251l-1.421-2.865l8.847,1.63L113.286,0.24
	L98.256-8.349c-0.751-0.436-1.655-0.484-2.462-0.161l-19.13,7.87l9.234-25.03l1.187,2.389l2.518-1.251l-2.373-4.77l2.454-6.651
	l2.349,5.012l2.543-1.187l-3.519-7.531l3.116-8.451l5.618,12.301l2.559-1.17l-5.836-12.785L104.972-47.601z M96.674-2.779
	l15.215,8.693l-7.579,59.924L75.647,5.874L96.674-2.779z M159.94,58.573l1.017-3.301l14.553-0.178l0.791,3.261L159.94,58.573z
	 M162.692,49.622l1.388-4.512l8.968-0.194l1.106,4.56L162.692,49.622z M164.847,0.764l-17.637-40.076l13.205,2.43
	C162.046-24.314,163.564-11.287,164.847,0.764z M117.596-50.474l14.246-22.205l24.053,29.252L117.596-50.474z M111.703-51.685
	L63.467-63.922l-3.923-31.81l4.012-3.229l3.842,8.193l2.543-1.187l-4.125-8.822l7.918-6.385l3.568,7.612l2.543-1.187l-3.858-8.233
	l6.175-4.972l7.474,13.56l2.462-1.356l-7.716-13.996l5.965-4.803l3.519,7.523l2.543-1.187l-3.818-8.152l3.81-3.075l2.51,5.36
	l2.543-1.187l-2.801-5.989l4.262-3.439l3.971,8.475l2.543-1.187l-4.117-8.798l34.087,12.769l-4.649,31.81L111.703-51.685z
	 M119.388-202.738l4.108-0.089l0.363,2.373l-5.222,0.113L119.388-202.738z M112.107-179.338h15.013l0.04,0.274
	c0.097,0.565,0.266,1.509,0.484,2.712h-16.466L112.107-179.338z M116.885-146.551v0.299h0.242
	c4.972,6.175,10.429,12.826,15.005,18.097l-24.836-9.299l0.396-20.647C110.178-154.946,113.398-150.886,116.885-146.551z
	 M132.335-136.575l3.398-0.073c0.436,1.889,0.888,3.761,1.34,5.618C135.595-132.716,134.005-134.581,132.335-136.575z
	 M127.758-142.095c-1.13-1.372-2.26-2.752-3.398-4.157h9.226c0.283,1.332,0.581,2.672,0.88,4.012L127.758-142.095z M119.824-151.878
	c-0.783-0.977-1.558-1.937-2.317-2.89h14.287c0.194,0.952,0.396,1.913,0.597,2.89H119.824z M130.664-160.378h-17.612
	c-0.759-0.969-1.493-1.897-2.187-2.777l19.219-0.202C130.268-162.388,130.462-161.395,130.664-160.378z M108.814-168.748
	l0.622-1.986h19.243c0.105,0.573,0.218,1.162,0.331,1.784L108.814-168.748z M113.851-184.956l0.622-2.002l11.446-0.161l0.331,2.155
	C126.249-184.956,113.851-184.956,113.851-184.956z M116.232-192.6l0.646-2.082l7.846-0.17l0.331,2.131L116.232-192.6z
	 M122.624-208.428l-1.477,0.032l0.993-3.188L122.624-208.428z M37.307,200.876H-5.109L16.103-29.206L37.307,200.876z
	 M-56.961,164.005l-32.27-74.655l9.67-0.71l-0.379,6.498l2.801,0.17l0.396-6.861l5.973-0.436l-0.509,8.806l2.801,0.17l0.533-9.169
	l5.117-0.371l-0.274,4.69l2.801,0.17l0.331-5.691c0.202-0.186,0.379-0.387,0.525-0.63l4.165-7.103l0.105,6.272l2.809-0.048
	l-0.178-10.897l9.186-15.683L-56.961,164.005z M-126.886,128.207l2.72-35.241l1.501-2.236l-0.258,4.407l2.801,0.17l0.533-9.153
	l2.51-3.737l-0.186,3.148l2.801,0.17l0.452-7.894l3.406-5.077l-0.226,3.891l2.801,0.17l0.5-8.637l2.841-4.23l0.137,8.395
	l2.809-0.048l-0.105-6.417l5.731,21.68c0.04,0.137,0.121,0.25,0.178,0.379l-0.04,0.016l33.118,76.632L-126.886,128.207z
	 M-110.702-64.963l1.566-15.643l0.864-0.387l3.285,6.611l2.518-1.251l-3.237-6.506l5.279-2.373l3.35,7.16l2.543-1.187l-3.334-7.119
	l4.786-2.139l5.263,11.534l2.559-1.162l-5.255-11.518l5.569-2.494l2.962,7.014l2.591-1.09l-2.987-7.071l7.305-3.269l9.282,35.701
	L-110.702-64.963z M-100.411-124.104l-4.383,0.097l0.21-2.082l3.592-0.081L-100.411-124.104z M-105.359-118.373l6.53-0.137
	l0.557,1.961l-7.273,0.129L-105.359-118.373z M-91.71-113.966l-9.177-32.496l11.841-1.187l4.165,8.887l2.543-1.187l-3.745-7.991
	l7.111-0.71l3.632,7.757l2.543-1.187l-3.213-6.869l14.892-1.493l3.882,8.281l2.543-1.187l-3.463-7.394l3.027-0.299
	c0.202-0.024,0.396-0.065,0.581-0.121l6.013-1.945l4.447,9.5l2.543-1.187l-4.302-9.186l10.792-3.487l3.213,6.869l2.543-1.187
	l-3.067-6.554l17.741-5.739l-2.397,36.088l-87.601,39.204l12.664-23.061C-91.597-112.489-91.508-113.247-91.71-113.966z
	 M-83.735-172.477l-4.827-15.191l6.369-1.614l3.301,10.259l2.672-0.864l-3.245-10.09l8.62-2.187l4.48,9.565l2.543-1.187
	l-4.238-9.072l9.751-2.47l3.769,8.055l2.543-1.187l-3.543-7.571l8.564-2.171l3.592,7.668l2.543-1.187l-3.358-7.184l8.023-2.034
	l3.656,7.805l2.543-1.187l-3.43-7.321l6.966-1.76l3.753,8.015l2.543-1.187l-3.519-7.523l18.524-4.69l2.05,7.458l-10.178,30.898
	l-42.723,13.819l-41.48,4.165l13.294-17.475C-83.622-170.653-83.461-171.605-83.735-172.477z M-45.855-108.929l-16.03,41.432
	l-7.975-30.68L-45.855-108.929z M-62.127-259.925l23.916-5.134c0.541-0.113,1.041-0.396,1.429-0.799l0.638,2.349l2.712-0.735
	l-1.09-4.012l3.027-3.221l1.138,3.495l2.672-0.872l-1.614-4.964l2.292-2.438l1.485,4.383l2.664-0.904l-1.969-5.795l3.891-4.149
	l2.567,9.767l2.712-0.71l-2.526-9.629l5.989,4.496l1.267,5.981l2.744-0.581l-0.597-2.841l9.161,6.869L6.038-247.6l-33.191-1.526
	L-62.127-259.925z M-63.927-286.449l19.638-16.41l20.276,15.207l-16.232,17.289l-29.187,6.255L-63.927-286.449z M-83.856-207.04
	l6.49-9.807l0.807,2.333l2.656-0.912l-1.501-4.375l2.986-4.512l3.487,7.369l2.543-1.203l-4.221-8.911l4.875-7.377l2.026,5.004
	l2.607-1.049l-2.744-6.796l3.721-5.626l3.326,7.006l2.534-1.203l-4.052-8.532l3.963-6.005l0.331,0.097l-0.242,0.097l3.931,10.081
	l2.615-1.017l-3.196-8.201l6.506,2.01l3.253,8.209l2.615-1.033l-2.421-6.11l9.476,2.93l0.565,2.97l2.76-0.525l-0.283-1.509l0,0
	c0.226,0.073,0.46,0.113,0.702,0.121l32.819,1.509l-12.947,23.23l1.259,4.585l-81.362,20.591L-83.856-207.04z M-102.574-131.756
	l-1.453,0.032l0.379-3.818L-102.574-131.756z M-106.118-110.794l7.248-0.129l-1.647,2.995l-5.908,0.194L-106.118-110.794z
	 M-106.989-102.101l3.334-0.105l-4.06,7.386L-106.989-102.101z M-87.755-49.143l2.865,6.126l2.543-1.187l-3.204-6.853l4.383-3.81
	l3.277,6.998l2.543-1.187l-3.188-6.812l8.394,0.896l3.471,7.41l2.543-1.187l-2.744-5.868l7.458,0.799l-0.097,0.048l4.544,9.71
	l2.543-1.187l-3.85-8.225l8.193,0.88l4.004,8.54l2.543-1.187l-3.277-6.998l12.019,1.291L-70.401,4.655l-21.196-50.432
	L-87.755-49.143z M-68.641,12.145l-0.21,3.616l2.801,0.17l0.492-8.435l6.191-9.145l-0.274,4.73l2.801,0.17l0.549-9.444l3.479-5.15
	l-0.323,5.513l2.801,0.17l0.597-10.235l6.191-9.145l0.137,9.533l2.809-0.04l-0.194-13.56l3.471-5.134l0.541,6.925l2.801-0.218
	l-0.815-10.445l4.819-7.119L-41.504,44.23l-22.027,37.606L-91.25,83.87l-7.361-27.855l13.706-8.661
	c0.468-0.291,0.839-0.726,1.065-1.227L-68.641,12.145z M-138.654,183.563c0.024-0.097,0.008-0.202,0.016-0.307l8.104-0.145
	l0.21,5.255l-9.355,0.371L-138.654,183.563z M-140.826,194.403l10.711-0.428l0.21,5.311l-11.825-0.371L-140.826,194.403z
	 M-132.181,141.308l-1.485,0.024l1.404-2.26L-132.181,141.308z M-137.177,147.006l5.222-0.089l0.145,3.713l-7.7,0.145
	L-137.177,147.006z M-143.029,156.458l11.438-0.21l0.153,3.882l-13.762-0.145L-143.029,156.458z M-131.22,165.749l0.089,2.212
	l-13.302,0.5l-1.195-2.865L-131.22,165.749z M-130.914,173.578l0.153,3.915l-9.839,0.178l-1.526-3.673L-130.914,173.578z
	 M-144.192,211.224l0.016,0.743l3.269-0.057l-4.092,3.358L-144.192,211.224z M-134.497,206.639l-0.008-0.452l-8.709,0.137
	l0.363-1.824l10.558,0.331L-134.497,206.639z M-58.317,173.602c0.032,0.024,0.073,0.024,0.105,0.048l-4.827,37.38l-19.541-51.198
	L-58.317,173.602z M-162.199,403.765l12.818-9.403l5.755,7.434l2.22-1.719l-5.715-7.386l6.925-5.085l6.191,6.191l1.986-1.986
	l-5.884-5.892l6.635-4.859l6.595,6.603l1.986-1.986l-6.288-6.296l4.23-3.1l6.804,6.804l1.986-1.986l-6.498-6.506l6.183-4.536
	l7.305,7.305l1.986-1.986l-7.006-6.974l7.466-5.481l7.079,7.079l1.986-1.986l-6.772-6.772l8.112-5.949l38.921,62.708l-30.406-11.776
	c-0.686-0.266-1.437-0.25-2.115,0.04l-70.603,30.018L-162.199,403.765z M-161.424,338.651l59.512,13.924l-63.346,46.46
	l-21.648-12.874L-161.424,338.651z M-181.846,395.701l-4.294,1.703c-0.307-1.735-0.557-3.317-0.751-4.698L-181.846,395.701z
	 M-175.744,399.334l4.343,2.583l-12.648,5.23c-0.363-1.413-0.686-2.793-0.985-4.141L-175.744,399.334z M-182.516,412.587
	l14.844-6.134l0.226,3.939l-14.029,5.327C-181.838,414.678-182.193,413.636-182.516,412.587z M-167.099,416.268l0.186,3.18
	l-11.478,3.648c-0.347-0.71-0.686-1.429-1.009-2.163L-167.099,416.268z M-166.574,425.243l0.161,2.769l-7.547,2.26
	c-0.549-0.694-1.065-1.421-1.574-2.179L-166.574,425.243z M-166.082,433.767l0.17,2.93c-1.219-0.5-2.381-1.146-3.471-1.937
	L-166.082,433.767z M102.663,75.435l-18.597,27.613L73.008,13.396L102.663,75.435z M121.922,146.724
	c0.371,0.17,0.759,0.242,1.146,0.242c0.856,0,1.695-0.396,2.244-1.114l25.329-33.489c0.283-0.371,0.468-0.807,0.533-1.267
	l6.635-42.642l28.009,33.142l-5.238,58.778c-0.073,0.759,0.178,1.509,0.67,2.091l24.796,28.687l-38.009,0.743l-75.292-18.605
	l-5.166-41.908L121.922,146.724z M204.874,236.311l0.613,4.278l-1.582,0.032L204.874,236.311z M232.939,392.981l-1.558-2.809h0.928
	L232.939,392.981z M228.274,384.554l-1.146-2.066l3.439-0.081l0.484,2.155h-2.777V384.554z M224.053,376.935l-1.082-1.953
	l5.892-0.113l0.436,1.937L224.053,376.935z M219.896,369.42l-0.743-1.348l8.185-0.057l0.283,1.259L219.896,369.42z M216.045,362.478
	l-0.63-1.13l0.21-1.122l10.146-0.17l0.428,2.357L216.045,362.478z M224.739,354.455l-8.08,0.137l0.42-2.284l7.24-0.129
	L224.739,354.455z M218.112,346.666l0.605-3.317l3.963-0.089l0.605,3.309L218.112,346.666z M219.758,337.699l0.952-5.182
	l0.944,5.142L219.758,337.699z M206.271,290.181l-1.364-2.05l7.628-0.137l0.379,2.074L206.271,290.181z M213.939,295.67l1.534,8.354
	l-5.513-8.281L213.939,295.67z M211.324,281.407l0.186,0.985l-10.291,0.186l-1.348-2.026l11.316-0.137L211.324,281.407z
	 M196.157,274.982L196.157,274.982l0.484-2.147l13.431-0.161l0.307,2.131L196.157,274.982z M197.909,267.201l0.597-2.664
	l10.38-0.137l0.379,2.672L197.909,267.201z M199.781,258.903l0.831-3.689l6.95-0.121l0.533,3.697L199.781,258.903z M206.763,249.484
	l-4.875,0.089l0.743-3.309l3.656-0.065L206.763,249.484z M198.118,240.726h-0.048l0.008,0.194l-7.66,33.998
	c-0.169,0.751-0.024,1.534,0.404,2.171l26.927,40.487l-4.528,24.651l-23.545-12.761l-0.081-0.242l-0.226,0.081l-43.24-23.432
	c-0.573-0.315-1.227-0.412-1.873-0.291l-34.369,6.651l-3.882-31.479l19.437-30.511c0.517-0.807,0.581-1.824,0.178-2.696
	l-31.73-68.181l10.638,2.631l7.555,14.779l2.502-1.275l-6.449-12.608l8.532,2.107l6.651,13.714l2.526-1.219l-5.634-11.615
	l11.268,2.785l8.314,19.566l2.583-1.098l-7.49-17.62l9.153,2.26l3.43,10.332l2.664-0.88l-2.873-8.653l8.459,2.091l3.665,11.058
	l2.664-0.88l-3.116-9.371l7.547,1.865l3.447,10.106l2.664-0.904l-2.236-6.546l31.98,22.076L198.118,240.726z M119.864,248.515
	l-14.957,23.472l-9.331-75.663L119.864,248.515z M211.42,424.267l27.169,12.471l-2.187,2.462l-26.41-12.971L211.42,424.267z
	 M214.964,419.706l6.215-1.324l19.679,9.775l0.864,3.826L214.964,419.706z M230.009,416.494l7.846-1.671l1.413,6.272
	L230.009,416.494z M203.809,216.212l-27.331-18.863l32.529-0.638L203.809,216.212z M158.834-48.691L135.03-77.643l4.778-7.45
	c0.218-0.339,0.355-0.718,0.412-1.114l3.277-22.431c1.655,4.617,3.301,8.193,4.883,10.081
	C151.489-94.836,155.323-73.809,158.834-48.691z M113.374-229.277l-32.028-7.854l9.968-25.296c0.622,3.027,1.59,6.021,3.067,8.814
	C99.249-244.403,107.337-235.347,113.374-229.277z M32.989-399.492c0.105,0.307,0.25,0.694,0.404,1.13l-7.434,13.924l2.478,1.324
	l6.223-11.672c0.807,2.252,1.808,5.069,2.962,8.241l-3.939,7.716l2.502,1.275l2.744-5.376c0.476,1.316,0.969,2.672,1.469,4.068
	l-5.166,10.122l2.502,1.275l3.979-7.781c0.662,1.824,1.34,3.697,2.034,5.578l-2.696,5.287l2.502,1.275l1.509-2.962
	c0.662,1.8,1.324,3.6,1.978,5.384l-2.139,4.197l2.502,1.275l0.969-1.889c0.573,1.55,1.138,3.067,1.695,4.552l-3.213,5.707
	l2.446,1.372l2.058-3.656c0.42,1.106,0.823,2.179,1.219,3.229l-3.826,7.499l2.502,1.275l2.68-5.255
	c1.041,2.696,1.978,5.037,2.769,6.942l-3.689,7.224l2.502,1.275l2.631-5.158c0.291,0.63,0.541,1.114,0.718,1.396
	c0.089,0.129,0.178,0.258,0.283,0.371l34.539,38.284c-0.702,2.236-1.897,6.554-2.631,11.809
	c-11.752-7.854-46.694-31.261-52.998-36.161c-5.852-4.552-20.179-29.776-25.579-39.793l-4.464-71.765l9.823,9.936L32.989-399.492z
	 M-24.893-373.122l6.401,10.009l2.365-1.509l-7.063-11.05l0.896-1.34c0.057-0.089,0.105-0.178,0.161-0.266l0.517-1.001l4.165,6.312
	l2.341-1.55l-5.021-7.62l2.543-4.908l6.272,9.815l2.365-1.509l-7.151-11.179l2.26-4.367l4.221,6.611l2.365-1.509l-5.093-7.975
	L2.575-424.95l4.197,67.624l-55.299,19.646l12.745-19.106l4.23,6.417l2.341-1.55l-4.883-7.402l3.237-4.851l3.511,5.327l2.341-1.55
	l-4.165-6.32L-24.893-373.122z M-116.296-9.059l1.671-16.741l1.001-0.864l2.946,6.28l2.543-1.187l-3.285-7.006l3.713-3.229
	l3.204,6.845l2.543-1.187l-3.543-7.571l4.004-3.479l3.455,7.386l2.543-1.187l-3.794-8.112l3.237-2.809l22.019,52.393l-14.594,32.593
	l-33.312,21.043L-116.296-9.059z M-147.662,275.587c0.057-0.089,0.089-0.194,0.129-0.283l0.024,0.016l14.125-27.339
	c0.428-0.831,0.42-1.824-0.04-2.648l-12.285-22.213l9.299-7.636l5.715,7.281l2.212-1.735l-5.747-7.329l9.113-7.482
	c0.17-0.137,0.25-0.331,0.379-0.5l0.057,0.048l0.371-0.484l3.592,4.585l2.212-1.735l-4.036-5.15l7.151-9.282l5.473,6.982
	l2.212-1.735l-5.917-7.547l5.408-7.014l3.422,4.359l2.212-1.735l-3.866-4.924l7.297-9.468l6.03,7.692l2.212-1.735l-6.473-8.257
	l8.556-11.115l24.271,63.596l-1.832,14.23l-89.757,51.295L-147.662,275.587z M-167.64,327.359l1.784,7.668l-11.155,20.801
	L-167.64,327.359z M-76.341,445.189c0.331-0.67,0.387-1.437,0.145-2.147l-2.567-7.612l15.764,19.251l-26.491,14.464
	C-84.558,461.251-79.796,452.162-76.341,445.189z M-109.467,503.111c-0.444-7.434,0.186-15.005,1.388-16.942
	c0.589,0.25,1.211,0.379,1.873,0.379c2.656,0,5.941-2.785,9.428-7.03l17.507-9.557l-21.471,44.354L-109.467,503.111z
	 M60.045,545.705l-0.831-12.091l2.341-0.831l0.928,13.415l-0.686-0.129L60.045,545.705z M152.554,487.104l-39.825-2.93l2.413-38.445
	L152.554,487.104z M110.275,437.585c-0.194,0.363-0.266,0.751-0.291,1.138h-0.032l-2.817,44.927l-89.183-9.977
	c-0.25-0.032-0.509-0.024-0.751,0.024l-41.989,6.659c-0.008,0-0.008,0-0.016,0l-39.067,6.191l15.732-60.303l0.436,6.28l2.801-0.194
	l-0.613-8.911l5.287-4.157l0.517,7.466l2.801-0.194l-0.654-9.379l5.489-4.326l0.541,7.878l2.801-0.194l-0.678-9.783l3.802-2.987
	l0.605,8.79l2.801-0.194l-0.743-10.695h-0.008l3.422-2.696l0.573,8.233l2.801-0.194l-0.702-10.146l5.117-4.028l0.428,6.231
	l2.801-0.194l-0.565-8.144l13.633-10.719c0.662-0.517,1.049-1.3,1.074-2.139c0.024-0.839-0.339-1.639-0.969-2.187l-15.562-13.488
	l6.998-5.101l0.541,7.838l2.801-0.194l-0.662-9.597l6.958-5.077l0.412,6.013l2.801-0.194l-0.541-7.773l4.996-3.64l0.565,8.16
	l2.801-0.194l-0.654-9.904l4.334-3.164l0.452,6.538l2.801-0.194l-0.573-8.298l4.31-3.14h0.726l0.549,7.983l2.801-0.194l-0.541-7.789
	h4.94l0.436,6.288l2.801-0.194l-0.42-6.094h5.287l0.517,7.482l2.801-0.194l-0.509-7.289h6.118l2.236,19.727H96.48l21.608,66.494
	C114.585,429.691,111.712,434.865,110.275,437.585z M136.048,408.535c-1.501,0-3.075,0.581-4.665,1.517l10.388-22.036l37.46,43.716
	c-15.078-9.355-36.048-21.906-41.876-23.077C136.927,408.576,136.491,408.535,136.048,408.535z M230.147,446.222l-4.899-0.67
	l-20.607-12.019l1.978-2.704l25.902,12.721L230.147,446.222z M38.8-230.262l2.744,0.597l-5.739,26.322l-2.744-0.597L38.8-230.262z
	 M23.424-225.685l2.744,0.597l-5.739,26.322l-2.744-0.597L23.424-225.685z M35.854-238.253l-5.739,26.322l-2.744-0.597l5.739-26.322
	L35.854-238.253z M-57.583,47.394l4.843-16.619l2.026,0.589l-4.843,16.62L-57.583,47.394z M-68.552,50.873l-2.018-0.589
	l4.843-16.619l2.026,0.589L-68.552,50.873z M-60.36,42.559l-2.026-0.589l4.843-16.628l2.026,0.589L-60.36,42.559z M129.776,91.304
	l5.101-23.384l2.058,0.452l-5.101,23.384L129.776,91.304z M123.262,72.44l-5.101,23.384l-2.058-0.452l5.101-23.384L123.262,72.44z
	 M126.773,84.128l-2.058-0.452l5.101-23.384l2.058,0.452L126.773,84.128z M55.372,397.324l2.744,0.597l-9.234,42.336l-2.744-0.597
	L55.372,397.324z M35.709,403.014l2.744,0.597l-9.234,42.336l-2.744-0.597L35.709,403.014z M52.272,382.448l-9.234,42.336
	l-2.744-0.597l9.234-42.336L52.272,382.448z M-41.028,382.415l-3.899,17.879l-2.744-0.597l3.899-17.879L-41.028,382.415z
	 M-53.111,373.658l2.744,0.597l-3.899,17.879l-2.744-0.597L-53.111,373.658z M-46.88,385.636l-2.744-0.597l3.899-17.879l2.744,0.597
	L-46.88,385.636z M158.761,151.793l2.744,0.597l-3.899,17.887l-2.744-0.597L158.761,151.793z M148.268,162.116l-2.744-0.597
	l3.899-17.879l2.744,0.597L148.268,162.116z M155.654,155.619l-2.744-0.597l3.899-17.879l2.744,0.597L155.654,155.619z
	 M-107.256,322.96l6.215-24.336l2.72,0.694l-6.215,24.336L-107.256,322.96z M-117.773,326.931l-2.72-0.694l6.215-24.336l2.72,0.694
	L-117.773,326.931z M-108.466,314.767l-2.72-0.694l6.215-24.336l2.72,0.694L-108.466,314.767z M-96.141,238.151l7.628-29.873
	l2.72,0.694l-7.628,29.873L-96.141,238.151z M-109.685,242.865l-2.72-0.694l7.636-29.873l2.72,0.694L-109.685,242.865z
	 M-98.248,227.924l-2.72-0.694l7.628-29.873l2.72,0.694L-98.248,227.924z M160.488,240.734l2.72,0.694l-8.338,32.65l-2.72-0.694
	L160.488,240.734z M142.731,245.125l2.72,0.694l-8.346,32.65l-2.72-0.694L142.731,245.125z M157.938,229.498l-8.346,32.65
	l-2.72-0.694l8.346-32.65L157.938,229.498z"/>
</svg>
