<?xml version="1.0" encoding="utf-8"?>
<!-- Generator: Adobe Illustrator 17.0.0, SVG Export Plug-In . SVG Version: 6.00 Build 0)  -->
<!DOCTYPE svg PUBLIC "-//W3C//DTD SVG 1.1//EN" "http://www.w3.org/Graphics/SVG/1.1/DTD/svg11.dtd">
<svg version="1.1" id="Layer_1" xmlns="http://www.w3.org/2000/svg" xmlns:xlink="http://www.w3.org/1999/xlink" x="0px" y="0px"
	 width="106.391px" height="241.258px" viewBox="0 0 106.391 241.258" enable-background="new 0 0 106.391 241.258"
	 xml:space="preserve">
<path fill="#D04D36" d="M106.374,210.185l-3.724-16.547l-2.133-11.613c0-0.001-0.001-0.003-0.001-0.004l-1.59-8.659l-2.053-14.365
	l1.622-6.081c0.029-0.109,0.03-0.224,0.004-0.335l-10.347-42.63c-0.278-2.916-2.576-26.353-4.707-28.911
	c-0.522-0.627-1.151-2.413-1.794-4.746l0,0c-1.125-4.078-2.297-9.834-3.029-14.03l-1.657-10.727
	c-0.012-0.08-0.039-0.157-0.079-0.227c0-0.001,0-0.002-0.001-0.003c-0.005-0.01-0.015-0.015-0.021-0.024
	c-0.036-0.057-0.076-0.112-0.128-0.157c-0.042-0.036-4.274-3.686-6.16-7.26c-1.802-3.414,0.019-8.516,0.037-8.567
	c0.086-0.236,0.034-0.5-0.134-0.686l-8.553-9.481c-0.58-1.034-4.043-10.546-6.124-16.395c-0.026-0.073-0.065-0.142-0.114-0.202
	L51.917,3.93l-3.683-3.729c-0.152-0.154-0.369-0.225-0.584-0.194c-0.214,0.032-0.4,0.166-0.5,0.358l-7.073,13.64l-7.438,11.156
	c-0.013,0.019-0.017,0.043-0.028,0.064c-0.008,0.015-0.023,0.026-0.03,0.042c-0.007,0.015-0.005,0.033-0.01,0.048
	c-0.007,0.021-0.021,0.039-0.026,0.06l-7.034,28.552l-4.972,16.159c-0.013,0.043-0.022,0.087-0.026,0.132l-3.316,33.162
	l-2.577,33.398l-4.782,7.733c-0.115,0.186-0.133,0.416-0.049,0.617l1.993,4.781l-1.863,9.314c0,0,0,0,0,0l-0.168,0.841
	c-0.009,0.044-0.013,0.089-0.013,0.133v11.396l-4.029,6.044c-0.074,0.111-0.114,0.242-0.114,0.376v4.035l-5.56,16.885
	c-0.028,0.085-0.039,0.176-0.032,0.266c0.043,0.527,1.077,12.412,7.119,13.396c0.005,0.001,0.009,0.001,0.014,0.003
	c0.257,0.041,0.519,0.07,0.794,0.07c0.056,0,0.113-0.007,0.167-0.021l17.232-4.402l1.519,4.498
	c-1.561,3.118-3.247,5.943-4.454,7.561l-0.007,0.004l0.002,0.003c-0.605,0.81-1.092,1.321-1.378,1.4
	c-0.517-0.23-1.047-0.124-1.418,0.276c-0.966,1.038-0.808,4.383-0.737,5.383c0.009,0.134,0.058,0.262,0.141,0.368l2.572,3.307
	l-1.324,1.654c-0.211,0.264-0.195,0.643,0.037,0.889l7.044,7.458c0.011,0.011,0.026,0.015,0.037,0.026
	c0.045,0.042,0.094,0.076,0.15,0.105c0.023,0.012,0.045,0.024,0.069,0.033c0.015,0.006,0.027,0.016,0.043,0.02
	c0.064,0.019,0.129,0.028,0.193,0.028c0.055,0,0.11-0.007,0.163-0.02c0,0,0.001,0,0.001,0l14.745-3.686l4.387,1.197
	c0.118,0.032,0.243,0.032,0.361-0.001l5.746-1.613l8.028,1.625l12.845,2.486c0.032,0.006,0.064,0.005,0.096,0.006
	c0.011,0.001,0.022,0.006,0.034,0.006c0.007,0,0.013-0.003,0.02-0.003c0.046-0.001,0.09-0.009,0.134-0.02
	c0.014-0.003,0.029-0.002,0.043-0.006c0.003-0.001,0.005-0.003,0.008-0.004c0.033-0.01,0.063-0.027,0.093-0.042
	c0.022-0.011,0.046-0.019,0.067-0.032c0.024-0.016,0.045-0.037,0.067-0.055c0.023-0.019,0.047-0.036,0.067-0.058
	c0.002-0.002,0.004-0.003,0.006-0.005l7.044-7.872c0.048-0.054,0.088-0.116,0.116-0.182l3.781-8.701
	c0.005-0.01,0.005-0.022,0.009-0.033c0.011-0.03,0.018-0.061,0.025-0.093c0.007-0.033,0.014-0.066,0.016-0.099
	c0.002-0.031,0-0.061-0.002-0.093c-0.002-0.036-0.007-0.07-0.015-0.105c-0.003-0.014-0.002-0.028-0.006-0.043
	c-0.005-0.016-0.015-0.029-0.021-0.045c-0.013-0.034-0.028-0.066-0.047-0.098c-0.015-0.026-0.031-0.051-0.05-0.075
	c-0.01-0.013-0.016-0.029-0.028-0.042l-10.919-12.075c1.59-2.897,3.798-5.866,4.842-5.866c0.001,0,0.001,0,0.002,0
	c1.428,0.285,8.82,4.808,13.44,7.778c0.013,0.009,0.031,0.009,0.045,0.017c0.044,0.024,0.09,0.037,0.138,0.051
	c0.032,0.009,0.06,0.03,0.092,0.034l9.115,1.244c0.222,0.029,0.448-0.053,0.598-0.222l3.315-3.729
	C106.364,210.621,106.422,210.398,106.374,210.185z M95.175,211.381l2.266,1.322l-2.939-0.401L95.175,211.381z M93.241,211.729
	l-12.084-14.103c-0.15-0.175-0.375-0.263-0.606-0.231c-0.228,0.031-0.424,0.175-0.522,0.383l-4.058,8.607l-4.658-14.336h3.163
	l-1.195-9.685l1.921-0.372l1.583,3.097l0.604-0.308l-1.494-2.922l2.383-0.461l1.273,2.625l0.61-0.295l-1.195-2.463l2.004-0.388
	l2.056,4.837l0.623-0.265l-1.908-4.489l3.187,1.727l0.616,1.855l0.643-0.213l-0.389-1.17l1.882,1.02l1.079,3.247l0.643-0.213
	l-0.851-2.562l3.581,1.941l0.718,2.106l0.642-0.218l-0.481-1.411l4.777,2.589l-0.588,3.205c-0.028,0.154-0.003,0.314,0.073,0.451
	l6.195,11.181l-5.597,1.195c-0.163,0.034-0.307,0.128-0.406,0.263L93.241,211.729z M53.006,185.935c-0.144,0-0.283,0.046-0.399,0.13
	l-9.676,7.057l-1.676-1.453l2.518-23.607h13.433l2.025,17.873H53.006z M34.628,206.899l-10.222-16.468l3.294-5.189l-0.878,6.807
	h12.801l6.604,5.726L34.628,206.899z M29.775,224.359c0.13,0.143,0.312,0.222,0.502,0.222c0.035,0,0.071-0.003,0.106-0.009
	l5.865-0.93l-12.361,5.954l5.637-11.641l1.871-1.021l-1.773,6.798C29.564,223.954,29.621,224.189,29.775,224.359z M42.29,222.685
	l0.105,1.517l0.676-0.046l-0.109-1.577l0.889-0.141l0.118,1.709l0.676-0.046l-0.122-1.77l0.91-0.144l0.112,1.625l0.676-0.046
	l-0.116-1.685l0.816-0.129l0.12,1.74l0.676-0.046l-0.125-1.8l3.282-0.52l4.375,0.489l-0.157,2.736l0.676,0.038l0.155-2.699
	l2.012,0.225l0.174,2.506l0.676-0.046l-0.165-2.383l1.981,0.222l0.178,2.569l0.676-0.046l-0.169-2.446l2.231,0.25l0.167,2.409
	l0.676-0.046l-0.158-2.286l2.624,0.294l0.164,2.383l0.676-0.046l-0.156-2.26l2.116,0.237l0.159,2.308l0.676-0.046l-0.151-2.185
	l1.98,0.221l0.164,2.371l0.676-0.046l-0.156-2.248l0.032,0.004l0.001-0.005c0.009,0.001,0.016,0.006,0.025,0.007l1.657,0.122
	l0.173,2.513l0.676-0.046l-0.167-2.417l1.824,0.134l0.125,1.809l0.676-0.046l-0.118-1.712l1.714,0.126l0.137,1.979l0.676-0.046
	l-0.13-1.883l2.955,0.217l-7.146,5.521c-0.124,0.096-0.211,0.232-0.246,0.385l-2.014,8.812l-8.047-7.625
	c-0.185-0.176-0.454-0.232-0.692-0.147l-11.809,4.189l-5.536-3.51c-0.253-0.161-0.584-0.135-0.811,0.064l-4.338,3.828l-8.474-3.278
	l5.517-7.849l0.061,0.883l0.676-0.046l-0.118-1.718l0.483-0.688l0.08,1.161l0.676-0.046l-0.115-1.661L42.29,222.685z M81.636,230.16
	l-1.89-1.199l0.421-0.326l1.676,1.049L81.636,230.16z M63.404,233.535l0.299,4.319l-0.647-0.125l-0.275-3.973L63.404,233.535z
	 M64.731,233.065l0.419-0.149l0.265,0.251l0.352,5.087l-0.686-0.133L64.731,233.065z M66.869,234.545l0.655,0.621l0.24,3.474
	l-0.621-0.12L66.869,234.545z M68.979,236.545l0.393,0.373l0.142,2.062L69.11,238.9l0.032-0.002L68.979,236.545z M70.827,238.296
	l1.243,1.178l-1.177-0.228L70.827,238.296z M75.653,237.367l0.326,0.235l-0.51,0.57L75.653,237.367z M75.981,235.932l0.155-0.676
	l1.245,0.779l-0.492,0.55L75.981,235.932z M76.455,233.858l0.155-0.676l2.121,1.345l-0.434,0.485L76.455,233.858z M76.93,231.78
	l0.134-0.584l2.965,1.881l-0.382,0.426L76.93,231.78z M78.089,230.241l0.515-0.398l2.484,1.576l-0.247,0.569L78.089,230.241z
	 M81.31,227.752l0.564-0.436l0.76,0.547l-0.245,0.564L81.31,227.752z M82.993,226.451l0.383-0.296l-0.189,0.435L82.993,226.451z
	 M22.864,231.595l15.785-7.603l-10.224,14.546l-0.169-4.868c-0.012-0.343-0.279-0.623-0.621-0.652l-5.539-0.464L22.864,231.595z
	 M23.309,234.015l-0.398,0.383l-0.427-0.453L23.309,234.015z M25.107,234.166l0.732,0.061l-1.653,1.522l-0.345-0.365L25.107,234.166
	z M26.947,235.048l0.034,0.991l-1.157,1.445l-0.708-0.75L26.947,235.048z M27.054,238.119l0.024,0.691l-0.312-0.331L27.054,238.119z
	 M30.077,238.543l0.053,0.76l-0.712,0.178L30.077,238.543z M31.315,236.783l0.557-0.792l0.179,2.833l-0.584,0.146L31.315,236.783z
	 M33.118,234.218l0.199-0.283l0.336,0.13l0.271,4.291l-0.535,0.134L33.118,234.218z M35.044,234.604l0.629,0.243l0.191,3.024
	l-0.604,0.151L35.044,234.604z M37.065,235.385l0.514,0.199l0.126,1.826l-0.504,0.126L37.065,235.385z M38.975,236.124l1.521,0.588
	l-1.455,0.364L38.975,236.124z M45.069,235.695l0.077,1.113l-1.022-0.279L45.069,235.695z M46.35,234.564l0.484-0.427l0.15,3.172
	l-0.453-0.123L46.35,234.564z M48.188,234.065l1.103,0.699l0.14,2.026l-1.099,0.309L48.188,234.065z M50.712,235.666l0.836,0.53
	l-0.784,0.22L50.712,235.666z M57.082,235.778l0.053,0.766l-1.408-0.285L57.082,235.778z M58.408,235.307l1.156-0.41l0.15,2.168
	l-1.201-0.243L58.408,235.307z M32.127,214.128l-5.834-7.124l-0.001,0.001c-0.162-0.199-0.428-0.297-0.69-0.228l-11.04,2.82
	l10.678-4.54l8.405,3.256L32.127,214.128z M9.265,176.619l1.352,2.261l0.581-0.348l-1.344-2.249l2.047-1.17l1.285,1.638l0.533-0.418
	l-1.224-1.56l2.589-1.479l1.434,1.828l0.533-0.418l-1.372-1.749l2.754-1.574l1.291,1.646l0.533-0.418l-1.23-1.568l2.662-1.521
	l1.578,2.012l0.533-0.418l-1.517-1.934l2.527-1.444l1.089,1.389l0.533-0.418l-1.028-1.31l4.963-2.836l-2.259,17.507l-4.819,7.591
	l-15.42-3.608l-0.922-3.967v-3.862l0.299-0.449L9.265,176.619z M16.59,153.022l-0.582-14.836l8.355,4.745L16.59,153.022z
	 M11.092,168.255l0.397-0.013l-0.397,0.769V168.255z M12.202,166.863l-1.11,0.036v-0.656l1.443-0.026L12.202,166.863z
	 M11.092,164.887v-0.654l1.402-0.03l0.361,0.652L11.092,164.887z M11.092,162.878v-1.207l0.66,1.193L11.092,162.878z
	 M17.056,122.835l2.62-1.655l-2.815,4.19L17.056,122.835z M19.148,97.495l0.613-6.134l5.737,0.614L19.148,97.495z M24.385,62.198
	l0.619,1.95l-2.048,2.692L24.385,62.198z M29.422,43.716l2.717,0.839l-4.66,7.048L29.422,43.716z M33.38,27.651l1.693,3.907
	l-3.344,2.794L33.38,27.651z M36.382,25.127l1.224,3.683l0.643-0.214L37.021,24.9l1.218-0.433l0.913,2.747l0.643-0.214l-0.917-2.76
	l1.358-0.483l1.443,4.346l0.643-0.214l-1.448-4.359l1.016-0.361l0.757,2.28l0.643-0.214l-0.762-2.293l1.368-0.486l0.994,2.993
	l0.643-0.214l-0.999-3.006l1.47-0.522l0.963,2.823l0.642-0.219l-0.966-2.831l1.983-0.704c1.078,1.977,4.611,8.312,6.325,9.647
	c0.181,0.141,0.458,0.343,0.802,0.589l-8.525,8.394l-10.784-8.088l-2.334-5.385L36.382,25.127z M58.986,33.252l0.963,2.457
	l0.631-0.248l-0.601-1.533c0.465,0.316,0.94,0.638,1.417,0.961l0.779,1.987l0.631-0.248l-0.42-1.07
	c0.344,0.232,0.686,0.463,1.023,0.69l0.443,1.405l0.646-0.204l-0.188-0.595c1.752,1.177,3.258,2.184,3.988,2.671L64.684,48.7
	c-0.023,0.059-0.024,0.121-0.03,0.182l-0.014-0.001l-0.896,8.961l-5.299,2.805L57.831,71.19l-13.949,3.204l0.557-8.64l2.834-8.606
	l-1.12-4.073l3.519-6.314l-1.627-6.255l0.953-0.939l0.731,1.55l0.613-0.289l-0.832-1.764l0.843-0.83l0.923,1.809l0.604-0.308
	l-1.02-2l0.895-0.881l1.453,3.109l0.614-0.287l-1.555-3.327l1.247-1.228l1.213,2.632l0.615-0.284l-1.315-2.853l1.003-0.987
	l0.845,1.79l0.613-0.289l-0.946-2.005l1.054-1.038l1.27,3.316l0.633-0.242l-1.166-3.045C57.839,32.466,58.397,32.849,58.986,33.252z
	 M67.95,50.292l0.74,2.027l0.637-0.232l-0.584-1.601l1.422,0.349l0.686,1.88l0.637-0.232l-0.53-1.453l1.515,0.371l0.629,1.723
	l0.637-0.232l-0.473-1.296l2.17,0.532l-4.137,13.296c-0.019,0.061-0.029,0.124-0.03,0.188l-0.134,7.048l-10.357,8.346l-0.212-1.716
	H41.374l-1.658,12.845l-7.343-0.786l4.691-12.124l0.712,1.521l0.614-0.287l-0.901-1.925l0.983-0.44l0.693,1.481l0.614-0.287
	l-0.688-1.47l1.453-0.65l0.586,1.252l0.614-0.287l-0.581-1.242l1.907-0.853l0.867,1.853l0.614-0.287l-0.833-1.778l2.035-0.467
	l0.638,1.362l0.614-0.287l-0.576-1.23l1.789-0.411l0.661,1.412l0.614-0.287l-0.6-1.281l3.396-0.78l0.956,2.042l0.614-0.287
	l-0.894-1.91l2.558-0.588l-0.199,0.093l1.097,2.342l0.614-0.287l-1.055-2.253l2.706-0.622l0.691,1.475l0.614-0.287l-0.838-1.789
	l0.129-2.22l0.406,0.867l0.614-0.287l-0.937-2.002l0.111-1.907l0.775,1.312l0.584-0.345l-1.288-2.18l0.115-1.978l0.562,1.575
	l0.638-0.228l-1.048-2.935l0.959-0.508l0.695,2.126l0.645-0.21l-0.732-2.238l0.831-0.44l0.492,1.377l0.638-0.228l-0.525-1.469
	l1.055-0.559l0.652,1.823l0.638-0.228l-0.684-1.915l0.541-0.286l0.153-1.532l0.371,1.038l0.638-0.228l-0.852-2.383l0.151-1.514
	l0.421,1.18l0.638-0.228l-0.902-2.525l0.182-1.823l0.724,2.028l0.638-0.228l-0.932-2.609L67.95,50.292z M88.026,115.177l-1.416,0.03
	l0.795-2.587L88.026,115.177z M93.939,146.983l-0.416-0.482l2.046-0.126l-0.01-0.163l0.159,0.655L93.939,146.983z M96.042,148.205
	l0.409,1.685l-1.4-1.62L96.042,148.205z M95.273,145.035l-2.865,0.177l-0.398-0.461l3.149-0.187L95.273,145.035z M91.615,143.418
	l0.046-0.52l3.049-0.181l0.124,0.51L91.615,143.418z M91.783,141.533l0.057-0.645l2.39-0.146l0.155,0.637L91.783,141.533z
	 M91.962,139.522l0.08-0.893l1.65-0.108l0.214,0.882L91.962,139.522z M92.164,137.263l0.071-0.799l0.941-0.067l0.191,0.787
	L92.164,137.263z M92.357,135.097l0.136-1.519l0.36,1.484L92.357,135.097z M91.053,127.65l-1.941-2.298h1.384L91.053,127.65z
	 M87.967,123.997l-0.732-0.866l2.713-0.033l0.218,0.899H87.967z M86.102,121.789l-0.525-0.622l3.891-0.052l0.153,0.631
	L86.102,121.789z M67.14,132.6l5.573-8.278c0.06-0.089,0.094-0.19,0.107-0.294l0.004,0l1.651-13.051l0.241,0.515l0.614-0.287
	l-0.696-1.486l0.307-2.427l0.607,1.296l0.614-0.287l-0.96-2.051l0.533-1.641l1.221,2.5l0.609-0.298l-1.529-3.13l0.943-2.903
	l1.014,2.019l0.606-0.304l-1.322-2.632l0.618-1.903l0.955,1.902l0.606-0.304l-1.263-2.515l0.463-1.424l1.118,2.31l0.61-0.295
	l-0.929-1.919l1.057,0.195l6.249,14.2l-3.174,10.324c-0.01,0.032-0.012,0.064-0.017,0.096l-0.005-0.001l-1.801,11.588l-5.684,7.514
	l-8.542-3.812L67.14,132.6z M62.095,91.706l6.093,1.546l-4.423,11.992L62.095,91.706z M71.93,94.202l0.705,1.669l0.625-0.263
	l-0.505-1.197l0.939,0.238c0.015,0.004,0.03,0.003,0.045,0.006l-0.001,0.004l0.62,0.114l0.569,1.146l0.608-0.302l-0.343-0.691
	l2.134,0.393l-3.386,10.427l-3.627-2.073c-0.182-0.105-0.4-0.117-0.594-0.038l-4.615,1.899l2.227-6.038l0.287,0.577l0.608-0.302
	l-0.572-1.151l0.592-1.604l0.566,1.209l0.614-0.287l-0.85-1.816l0.752-2.039l1.355,2.968l0.617-0.282l-1.408-3.085L71.93,94.202z
	 M69.928,105.015l3.67,2.098l-1.829,14.458l-6.915-14.468L69.928,105.015z M85.193,119.817l0.245-0.797l3.511-0.043l0.191,0.787
	L85.193,119.817z M85.856,117.659l0.334-1.088l2.163-0.046l0.267,1.1L85.856,117.659z M86.377,105.87l-4.255-9.668l3.186,0.586
	C85.701,99.82,86.067,102.964,86.377,105.87z M74.976,93.509l3.437-5.358l5.803,7.058L74.976,93.509z M73.554,93.216l-11.638-2.953
	l-0.947-7.674l0.967-0.779l0.926,1.977l0.614-0.287l-0.996-2.128l1.911-1.54l0.86,1.836l0.614-0.287l-0.93-1.987l1.49-1.2
	l1.804,3.271l0.593-0.327l-1.861-3.376l1.439-1.159l0.85,1.815l0.614-0.287l-0.921-1.966l0.92-0.741l0.606,1.294l0.614-0.287
	l-0.676-1.445l1.029-0.829l0.958,2.045l0.614-0.287l-0.994-2.123l8.224,3.08l-1.121,7.675L73.554,93.216z M75.408,56.773
	l0.991-0.021l0.088,0.573l-1.259,0.027L75.408,56.773z M73.652,62.418h3.622l0.01,0.066c0.024,0.136,0.064,0.364,0.116,0.654h-3.973
	L73.652,62.418z M74.805,70.328V70.4h0.058c1.2,1.489,2.517,3.095,3.621,4.367l-5.992-2.244l0.095-4.981
	C73.186,68.303,73.963,69.283,74.805,70.328z M78.532,72.735l0.819-0.018c0.106,0.455,0.214,0.907,0.324,1.355
	C79.319,73.666,78.936,73.216,78.532,72.735z M77.427,71.403c-0.272-0.331-0.546-0.665-0.82-1.003h2.225
	c0.069,0.321,0.14,0.644,0.212,0.968L77.427,71.403z M75.513,69.044c-0.189-0.236-0.375-0.467-0.558-0.697h3.446
	c0.047,0.229,0.095,0.461,0.144,0.697H75.513z M78.128,66.992h-4.25c-0.184-0.233-0.361-0.457-0.527-0.669l4.637-0.048
	C78.033,66.508,78.08,66.747,78.128,66.992z M72.857,64.973l0.149-0.48h4.642c0.026,0.138,0.053,0.281,0.08,0.43L72.857,64.973z
	 M74.073,61.062l0.15-0.482l2.761-0.038l0.08,0.52H74.073z M74.647,59.219l0.156-0.503l1.893-0.041l0.079,0.514L74.647,59.219z
	 M76.19,55.4l-0.357,0.008l0.239-0.77L76.19,55.4z M55.606,154.15H45.372l5.117-55.511L55.606,154.15z M32.861,145.254
	l-7.785-18.011l2.333-0.171l-0.091,1.567l0.676,0.04l0.096-1.656l1.441-0.106l-0.123,2.124l0.676,0.04l0.128-2.213l1.235-0.09
	l-0.066,1.132l0.676,0.04l0.08-1.373c0.048-0.045,0.092-0.094,0.127-0.152l1.004-1.714l0.025,1.514l0.678-0.011l-0.043-2.629
	l2.217-3.784L32.861,145.254z M15.992,136.619l0.656-8.503l0.363-0.54l-0.062,1.063l0.676,0.04l0.128-2.208l0.606-0.902
	l-0.044,0.759l0.676,0.04l0.11-1.904l0.822-1.224l-0.054,0.939l0.676,0.04l0.121-2.084l0.686-1.021l0.033,2.025l0.678-0.011
	l-0.025-1.548l1.382,5.231c0.009,0.033,0.029,0.06,0.043,0.091l-0.009,0.004l7.991,18.488L15.992,136.619z M19.896,90.012
	l0.377-3.774l0.209-0.094l0.792,1.594l0.608-0.302l-0.78-1.57l1.273-0.57l0.809,1.727l0.614-0.287l-0.804-1.717l1.155-0.517
	l1.27,2.782l0.617-0.281l-1.268-2.778l1.343-0.601l0.714,1.692l0.625-0.263l-0.72-1.705l1.763-0.789l2.24,8.613L19.896,90.012z
	 M22.379,75.745l-1.058,0.023l0.05-0.502l0.867-0.019L22.379,75.745z M21.185,77.127l1.575-0.034l0.134,0.473l-1.755,0.031
	L21.185,77.127z M24.477,78.191l-2.214-7.841l2.857-0.287l1.004,2.144l0.614-0.287l-0.903-1.928l1.715-0.172l0.877,1.872
	l0.614-0.287l-0.776-1.657l3.593-0.361l0.936,1.999l0.614-0.287l-0.835-1.783l0.73-0.073c0.048-0.005,0.095-0.015,0.141-0.029
	l1.451-0.469l1.073,2.293l0.614-0.287l-1.037-2.216l2.603-0.842l0.776,1.658l0.614-0.287l-0.74-1.581l4.281-1.384L42.5,74.806
	l-21.138,9.46l3.056-5.564C24.505,78.546,24.526,78.363,24.477,78.191z M26.402,64.073l-1.164-3.665l1.537-0.389l0.797,2.475
	l0.645-0.208l-0.783-2.434l2.08-0.527l1.081,2.308l0.614-0.287l-1.025-2.19l2.352-0.595l0.91,1.944l0.614-0.287l-0.855-1.826
	l2.067-0.523l0.866,1.851l0.614-0.287l-0.811-1.733l1.935-0.49l0.882,1.884l0.614-0.287l-0.827-1.766l1.68-0.425l0.905,1.933
	l0.614-0.287l-0.85-1.816l4.469-1.131l0.495,1.799l-2.455,7.454l-10.307,3.334l-10.008,1.004l3.207-4.217
	C26.43,64.513,26.469,64.284,26.402,64.073z M35.541,79.405l-3.868,9.996l-1.925-7.403L35.541,79.405z M31.616,42.976l5.77-1.238
	c0.131-0.028,0.251-0.096,0.345-0.193l0.154,0.567l0.654-0.177l-0.263-0.968l0.73-0.777l0.274,0.843l0.645-0.21l-0.389-1.197
	l0.553-0.589l0.359,1.057l0.642-0.218l-0.475-1.399l0.939-1l0.619,2.357l0.655-0.172l-0.61-2.323l1.445,1.084l0.305,1.443
	l0.663-0.14l-0.145-0.685l2.21,1.657l1.366,5.252l-8.008-0.368L31.616,42.976z M31.181,36.577l4.739-3.96l4.891,3.668l-3.917,4.172
	l-7.041,1.51L31.181,36.577z M26.373,55.734l1.565-2.366l0.194,0.563l0.641-0.221l-0.363-1.055l0.72-1.089l0.842,1.778l0.613-0.29
	l-1.018-2.149l1.177-1.78l0.488,1.208l0.629-0.254l-0.663-1.64l0.898-1.358l0.802,1.69l0.612-0.291l-0.978-2.059l0.957-1.448
	l0.079,0.024l-0.059,0.023l0.948,2.433l0.631-0.246l-0.771-1.978l1.569,0.485l0.785,1.98l0.63-0.25l-0.584-1.474l2.286,0.706
	l0.136,0.717l0.666-0.126l-0.069-0.364l0,0c0.055,0.017,0.111,0.027,0.169,0.029l7.918,0.364L44.7,52.9l0.304,1.107l-19.629,4.968
	L26.373,55.734z M21.857,73.899l-0.351,0.008l0.092-0.922L21.857,73.899z M21.002,78.955l1.749-0.031l-0.397,0.723l-1.426,0.046
	L21.002,78.955z M20.792,81.053l0.804-0.026l-0.979,1.782L20.792,81.053z M25.432,93.829l0.692,1.478l0.614-0.287l-0.774-1.653
	l1.057-0.919l0.79,1.689l0.614-0.287l-0.769-1.643l2.025,0.217l0.837,1.787l0.614-0.287l-0.663-1.416l1.8,0.193l-0.024,0.011
	l1.097,2.342l0.614-0.287l-0.929-1.985l1.977,0.212l0.965,2.06l0.614-0.287l-0.791-1.689l2.9,0.311l-9.072,13.414l-5.114-12.168
	L25.432,93.829z M30.044,108.617l-0.051,0.873l0.676,0.04l0.118-2.036l1.493-2.207l-0.066,1.142l0.676,0.04l0.133-2.279l0.84-1.242
	l-0.077,1.331l0.676,0.04l0.144-2.469l1.493-2.207l0.033,2.299l0.678-0.009l-0.046-3.271l0.838-1.239l0.13,1.67l0.675-0.053
	L38.21,96.52l1.162-1.718l-2.782,21.556l-5.314,9.073l-6.688,0.49l-1.776-6.721l3.306-2.089c0.113-0.071,0.202-0.175,0.257-0.296
	L30.044,108.617z M13.151,149.973c0.005-0.024,0.001-0.049,0.004-0.074l1.955-0.035l0.05,1.267l-2.258,0.09L13.151,149.973z
	 M12.628,152.588l2.585-0.103l0.05,1.282l-2.853-0.089L12.628,152.588z M14.714,139.778l-0.359,0.006l0.338-0.546L14.714,139.778z
	 M13.508,141.154l1.26-0.021l0.035,0.896l-1.857,0.034L13.508,141.154z M12.097,143.435l2.759-0.051l0.037,0.936l-3.321-0.035
	L12.097,143.435z M14.946,145.676l0.021,0.534l-3.209,0.12l-0.288-0.691L14.946,145.676z M15.02,147.564l0.037,0.945l-2.373,0.042
	l-0.369-0.886L15.02,147.564z M11.816,156.647l0.003,0.179l0.789-0.013l-0.987,0.81L11.816,156.647z M14.155,155.542l-0.002-0.11
	l-2.102,0.034l0.088-0.441l2.548,0.079L14.155,155.542z M32.535,147.571c0.008,0.005,0.017,0.006,0.026,0.011l-1.164,9.019
	l-4.715-12.353L32.535,147.571z M7.471,203.101l3.092-2.268l1.389,1.794l0.536-0.414l-1.379-1.781l1.671-1.226l1.494,1.494
	l0.479-0.479l-1.42-1.421l1.6-1.173l1.591,1.593l0.479-0.479l-1.518-1.519l1.02-0.748l1.642,1.642l0.479-0.479l-1.568-1.569
	l1.492-1.094l1.762,1.763l0.479-0.479l-1.688-1.689l1.802-1.322l1.708,1.708l0.479-0.479l-1.634-1.634l1.958-1.436l9.391,15.129
	l-7.336-2.842c-0.165-0.064-0.347-0.061-0.51,0.009l-17.034,7.243L7.471,203.101z M7.659,187.391l14.359,3.36L6.734,201.96
	l-5.223-3.107L7.659,187.391z M2.731,201.156l-1.036,0.41c-0.074-0.418-0.134-0.801-0.181-1.134L2.731,201.156z M4.203,202.032
	l1.048,0.624l-3.052,1.262c-0.087-0.34-0.166-0.674-0.237-0.999L4.203,202.032z M2.569,205.23l3.582-1.48l0.055,0.95l-3.384,1.285
	C2.733,205.734,2.648,205.482,2.569,205.23z M6.289,206.118l0.045,0.768l-2.77,0.881c-0.084-0.171-0.165-0.345-0.244-0.521
	L6.289,206.118z M6.415,208.282l0.039,0.667l-1.82,0.546c-0.132-0.167-0.258-0.343-0.379-0.526L6.415,208.282z M6.535,210.34
	l0.041,0.706c-0.295-0.12-0.574-0.276-0.838-0.467L6.535,210.34z M71.373,123.887l-4.486,6.663l-2.669-21.632L71.373,123.887z
	 M76.019,141.085c0.089,0.04,0.183,0.059,0.276,0.059c0.207,0,0.409-0.095,0.541-0.269l6.111-8.08
	c0.068-0.089,0.112-0.194,0.129-0.305l1.6-10.288l6.757,7.997l-1.263,14.18c-0.017,0.183,0.042,0.365,0.162,0.504l5.983,6.921
	l-9.171,0.18l-18.165-4.488l-1.247-10.11L76.019,141.085z M96.033,162.7l0.148,1.032l-0.382,0.007L96.033,162.7z M102.805,200.498
	l-0.376-0.678h0.223L102.805,200.498z M101.679,198.465l-0.276-0.499l0.829-0.02l0.117,0.519H101.679z M100.661,196.628
	l-0.261-0.471l1.422-0.027l0.105,0.467L100.661,196.628z M99.657,194.815l-0.18-0.325l1.974-0.014l0.068,0.304L99.657,194.815z
	 M98.728,193.14l-0.152-0.273l0.05-0.271l2.447-0.041l0.104,0.568L98.728,193.14z M100.826,191.203l-1.95,0.033l0.101-0.552
	l1.747-0.031L100.826,191.203z M99.227,189.324l0.147-0.8l0.956-0.022l0.147,0.799L99.227,189.324z M99.624,187.162l0.23-1.251
	l0.228,1.241L99.624,187.162z M96.37,175.697l-0.329-0.495l1.84-0.033l0.092,0.5L96.37,175.697z M98.22,177.02l0.37,2.016
	l-1.33-1.999L98.22,177.02z M97.589,173.58l0.044,0.237l-2.483,0.045l-0.325-0.488l2.73-0.033L97.589,173.58z M93.93,172.029
	L93.93,172.029l0.117-0.518l3.241-0.039l0.074,0.515L93.93,172.029z M94.353,170.152l0.145-0.642l2.504-0.034l0.092,0.644
	L94.353,170.152z M94.805,168.15l0.201-0.89l1.676-0.03l0.128,0.892L94.805,168.15z M96.488,165.878l-1.176,0.021l0.18-0.799
	l0.882-0.016L96.488,165.878z M94.404,163.764l-0.011,0l0.001,0.047l-1.849,8.202c-0.04,0.181-0.006,0.37,0.097,0.524l6.496,9.768
	l-1.092,5.948l-5.68-3.078l-0.02-0.059l-0.055,0.019l-10.432-5.654c-0.138-0.075-0.296-0.1-0.452-0.07l-8.293,1.605l-0.937-7.595
	l4.69-7.362c0.124-0.195,0.14-0.44,0.042-0.65l-7.655-16.449l2.567,0.634l1.823,3.566l0.604-0.308l-1.555-3.042l2.059,0.509
	l1.604,3.309l0.61-0.295l-1.359-2.803l2.718,0.671l2.005,4.72l0.623-0.265l-1.807-4.252l2.208,0.546l0.828,2.493l0.643-0.213
	l-0.693-2.088l2.041,0.504l0.885,2.667l0.643-0.213l-0.751-2.261l1.82,0.449l0.832,2.439l0.642-0.218l-0.539-1.58l7.715,5.326
	L94.404,163.764z M75.524,165.644l-3.608,5.663l-2.252-18.255L75.524,165.644z M97.613,208.046l6.554,3.008l-0.528,0.594
	l-6.372-3.129L97.613,208.046z M98.467,206.946l1.499-0.32l4.748,2.359l0.208,0.924L98.467,206.946z M102.098,206.171l1.893-0.404
	l0.341,1.514L102.098,206.171z M95.776,157.851l-6.594-4.552l7.849-0.154L95.776,157.851z M84.925,93.938l-5.743-6.986l1.153-1.798
	c0.052-0.081,0.086-0.173,0.1-0.268l0.791-5.411c0.399,1.113,0.797,1.976,1.178,2.432C83.153,82.806,84.078,87.879,84.925,93.938z
	 M73.957,50.37l-7.727-1.895l2.406-6.103c0.149,0.731,0.384,1.452,0.74,2.127C70.549,46.721,72.5,48.905,73.957,50.37z
	 M54.564,9.302c0.026,0.074,0.06,0.168,0.097,0.272l-1.793,3.359l0.598,0.319l1.502-2.815c0.195,0.544,0.437,1.222,0.714,1.989
	l-0.95,1.862l0.604,0.308l0.662-1.297c0.114,0.317,0.233,0.645,0.354,0.981l-1.246,2.442l0.604,0.308l0.958-1.878
	c0.16,0.441,0.324,0.892,0.49,1.346l-0.651,1.276l0.604,0.308l0.365-0.715c0.159,0.434,0.319,0.868,0.477,1.299l-0.517,1.013
	l0.604,0.308l0.233-0.456c0.138,0.373,0.275,0.74,0.409,1.099l-0.775,1.377l0.59,0.332l0.496-0.882
	c0.101,0.267,0.199,0.526,0.295,0.778l-0.924,1.81l0.604,0.308l0.647-1.268c0.252,0.65,0.477,1.215,0.667,1.674l-0.889,1.742
	l0.604,0.308l0.635-1.244c0.071,0.152,0.131,0.268,0.174,0.337c0.021,0.032,0.043,0.062,0.069,0.09l8.333,9.237
	c-0.17,0.539-0.458,1.581-0.635,2.85c-2.836-1.895-11.266-7.543-12.786-8.725c-1.412-1.099-4.868-7.184-6.171-9.6L48.54,2.439
	l2.37,2.397L54.564,9.302z M40.599,15.666l1.544,2.415l0.57-0.365l-1.704-2.666l0.216-0.324c0.014-0.021,0.026-0.042,0.038-0.064
	l0.125-0.241l1.004,1.522l0.565-0.373l-1.212-1.838l0.614-1.184l1.514,2.369l0.57-0.365l-1.725-2.698l0.546-1.053l1.019,1.594
	l0.57-0.365l-1.229-1.923l3.601-6.946l1.013,16.315l-13.342,4.74l3.074-4.61l1.02,1.548l0.565-0.373l-1.178-1.786l0.781-1.171
	l0.847,1.285l0.565-0.373l-1.004-1.524L40.599,15.666z M18.547,103.501l0.404-4.039l0.241-0.209l0.71,1.516l0.614-0.287
	l-0.792-1.691l0.896-0.779l0.773,1.652l0.614-0.287l-0.855-1.827l0.965-0.839l0.834,1.781l0.614-0.287l-0.916-1.957l0.78-0.678
	l5.312,12.64l-3.52,7.864l-8.036,5.076L18.547,103.501z M10.978,172.176c0.014-0.021,0.021-0.046,0.032-0.068l0.006,0.003
	l3.407-6.596c0.104-0.201,0.101-0.441-0.009-0.639l-2.964-5.358l2.243-1.842l1.378,1.756l0.533-0.418l-1.387-1.768l2.199-1.806
	c0.04-0.033,0.061-0.08,0.092-0.121l0.014,0.011l0.089-0.116l0.867,1.106l0.533-0.418l-0.974-1.242l1.725-2.24l1.321,1.684
	l0.533-0.418l-1.427-1.82l1.305-1.693l0.825,1.052l0.533-0.418l-0.932-1.188l1.76-2.285l1.455,1.856l0.533-0.418l-1.562-1.992
	l2.065-2.681l5.856,15.343l-0.443,3.433L8.929,175.25L10.978,172.176z M6.159,184.667l0.43,1.85l-2.692,5.019L6.159,184.667z
	 M28.185,213.095c0.08-0.161,0.093-0.347,0.035-0.518l-0.62-1.837l3.804,4.645l-6.392,3.489
	C26.203,216.97,27.352,214.777,28.185,213.095z M20.193,227.07c-0.108-1.794,0.044-3.621,0.334-4.087
	c0.142,0.061,0.293,0.092,0.452,0.092c0.641,0,1.434-0.671,2.275-1.696l4.223-2.305l-5.181,10.701L20.193,227.07z M61.092,237.345
	l-0.201-2.918l0.565-0.2l0.224,3.236l-0.166-0.032L61.092,237.345z M83.411,223.207l-9.609-0.707l0.582-9.276L83.411,223.207z
	 M73.21,211.26c-0.046,0.087-0.064,0.181-0.07,0.275l-0.007,0l-0.68,10.839l-21.517-2.407c-0.061-0.007-0.122-0.006-0.181,0.005
	l-10.131,1.606c-0.001,0-0.002,0-0.003,0l-9.425,1.494l3.795-14.55l0.105,1.515l0.676-0.046l-0.148-2.149l1.275-1.003l0.125,1.801
	l0.676-0.046l-0.157-2.262l1.325-1.043l0.131,1.9l0.676-0.046l-0.163-2.36l0.917-0.721l0.147,2.121l0.676-0.046l-0.179-2.58
	l-0.001,0l0.826-0.65l0.138,1.986l0.676-0.046l-0.169-2.447l1.234-0.971l0.104,1.504l0.676-0.046l-0.136-1.965l3.289-2.587
	c0.159-0.125,0.253-0.314,0.259-0.517c0.005-0.202-0.081-0.396-0.234-0.528l-3.754-3.255l1.688-1.231l0.131,1.891l0.676-0.046
	l-0.16-2.316l1.679-1.225l0.1,1.451l0.676-0.046l-0.13-1.876l1.205-0.879l0.136,1.968l0.676-0.046l-0.166-2.393l1.046-0.763
	l0.109,1.577l0.676-0.046l-0.139-2.002l1.04-0.758h0.175l0.133,1.926l0.676-0.046l-0.13-1.88h1.191l0.105,1.517l0.676-0.046
	l-0.102-1.471h1.276l0.125,1.805l0.676-0.046l-0.122-1.758h1.477l0.539,4.759h9.964l5.214,16.043
	C74.249,209.355,73.557,210.604,73.21,211.26z M79.428,204.252c-0.362,0-0.741,0.141-1.126,0.366l2.506-5.316l9.037,10.548
	c-3.637-2.257-8.697-5.285-10.103-5.567C79.64,204.262,79.535,204.252,79.428,204.252z M102.131,213.343l-1.182-0.161l-4.971-2.9
	l0.477-0.652l6.25,3.069L102.131,213.343z M55.965,50.133l0.662,0.144l-1.385,6.351l-0.662-0.144L55.965,50.133z M52.255,51.237
	l0.662,0.144l-1.385,6.351l-0.662-0.144L52.255,51.237z M55.255,48.205l-1.385,6.351l-0.662-0.144l1.385-6.351L55.255,48.205z
	 M32.711,117.12l1.169-4.01l0.488,0.142l-1.169,4.01L32.711,117.12z M30.066,117.96l-0.488-0.143l1.169-4.01l0.488,0.143
	L30.066,117.96z M32.041,115.954l-0.488-0.142l1.169-4.011l0.488,0.142L32.041,115.954z M77.914,127.715l1.23-5.641l0.496,0.109
	l-1.23,5.641L77.914,127.715z M76.344,123.163l-1.23,5.641l-0.496-0.109l1.23-5.641L76.344,123.163z M77.191,125.983l-0.496-0.109
	l1.23-5.641l0.496,0.109L77.191,125.983z M59.963,201.546l0.662,0.144l-2.227,10.215l-0.662-0.144L59.963,201.546z M55.22,202.92
	l0.662,0.144l-2.227,10.215l-0.662-0.144L55.22,202.92z M59.216,197.957l-2.227,10.215l-0.662-0.144l2.227-10.215L59.216,197.957z
	 M36.705,197.949l-0.941,4.314l-0.662-0.144l0.941-4.314L36.705,197.949z M33.791,195.837l0.662,0.144l-0.94,4.314l-0.662-0.144
	L33.791,195.837z M35.294,198.727l-0.662-0.144l0.94-4.314l0.662,0.144L35.294,198.727z M84.907,142.309l0.662,0.144l-0.94,4.315
	l-0.662-0.144L84.907,142.309z M82.376,144.8l-0.662-0.144l0.94-4.314l0.662,0.144L82.376,144.8z M84.158,143.232l-0.662-0.144
	l0.94-4.314l0.662,0.144L84.158,143.232z M20.727,183.606l1.5-5.872l0.657,0.168l-1.5,5.872L20.727,183.606z M18.189,184.564
	l-0.657-0.168l1.5-5.872l0.657,0.168L18.189,184.564z M20.436,181.628l-0.657-0.168l1.5-5.872l0.657,0.168L20.436,181.628z
	 M23.408,163.144l1.841-7.208l0.657,0.168l-1.841,7.208L23.408,163.144z M20.142,164.282l-0.657-0.168l1.842-7.208l0.657,0.168
	L20.142,164.282z M22.9,160.677l-0.657-0.168l1.841-7.208l0.657,0.168L22.9,160.677z M85.325,163.767l0.657,0.168l-2.012,7.878
	l-0.657-0.168L85.325,163.767z M81.04,164.826l0.657,0.168l-2.013,7.878l-0.657-0.168L81.04,164.826z M84.71,161.056l-2.013,7.878
	l-0.657-0.168l2.013-7.878L84.71,161.056z"/>
</svg>
