<svg xmlns="http://www.w3.org/2000/svg" width="244.754" height="124.3" viewBox="-800.277 -327.75 244.754 124.3"><path fill="#FFF" d="M-745.277-219.45l-1.9-8.5-1.1-6-.8-4.5-1.1-7.4.8-3.1v-.2l-5.3-22c-.1-1.5-1.3-13.6-2.4-14.9-.3-.3-.6-1.2-.9-2.4-.6-2.1-1.2-5.1-1.6-7.2l-.9-5.5v-.1s0-.1-.1-.1c0 0-2.2-1.9-3.2-3.7-.9-1.8 0-4.4 0-4.4 0-.1 0-.3-.1-.4l-4.4-4.9c-.3-.5-2.1-5.4-3.2-8.5 0 0 0-.1-.1-.1l-1.9-2.4-1.9-1.9c-.1-.1-.2-.1-.3-.1s-.2.1-.3.2l-3.7 7-3.8 5.8-3.6 14.7-2.6 8.3v.1l-1.7 17.1-1.3 17.2-2.5 4c-.1.1-.1.2 0 .3l1 2.5-1 4.8-.1.4v6l-2 3.1c0 .1-.1.1-.1.2v2.1l-2.9 8.7v.1c0 .3.6 6.4 3.7 6.9h.5l8.9-2.3.8 2.3c-.8 1.6-1.7 3.1-2.3 3.9-.3.4-.6.7-.7.7-.3-.1-.5-.1-.7.1-.5.5-.4 2.3-.4 2.8 0 .1 0 .1.1.2l1.3 1.7-.7.9c-.1.1-.1.3 0 .5l3.6 3.9.1.1h.2l7.6-1.9 2.3.6h.2l3-.8 4.1.8 6.6 1.3h.1l3.6-4.1s0-.1.1-.1l2-4.5v-.1-.1-.1l-5.6-6.2c.8-1.5 2-3 2.5-3 .7.1 4.6 2.5 6.9 4h.1l4.7.6c.1 0 .2 0 .3-.1l1.7-1.9c.4-.2.4-.3.4-.4zm-5.8.6l1.2.7-1.5-.2.3-.5zm-1 .2l-6.2-7.3c-.1-.1-.2-.1-.3-.1-.1 0-.2.1-.3.2l-2.1 4.4-2.4-7.4h1.6l-.6-5 1-.2.8 1.6.3-.2-.8-1.4 1.2-.2.7 1.4.3-.2-.6-1.3 1-.2 1.1 2.5.3-.2-1-2.3 1.6.9.3 1 .3-.1-.2-.6 1 .5.6 1.7.4-.1-.4-1.3 1.8 1 .4 1.1.3-.1-.2-.7 2.5 1.3-.4 1.6v.2l3.2 5.8-2.9.6c-.1 0-.2.1-.2.1l-2.1 3zm-20.8-13.3c-.1 0-.1 0-.2.1l-5 3.6-.9-.7 1.3-12.2h6.9l1 9.2h-3.1zm-9.5 10.8l-5.3-8.5 1.7-2.7-.5 3.5h6.6l3.4 3-5.9 4.7zm-2.5 9c.1.1.2.1.3.1h.1l3-.5-6.4 3.1 2.9-6 1-.5-.9 3.5c-.1.1-.1.2 0 .3zm6.5-.8l.1.8h.3l-.1-.8.5-.1.1.9h.3l-.1-.9.5-.1.1.8h.3l-.1-.9.4-.1.1.9h.3l-.1-.9 1.7-.3 2.3.3-.1 1.4h.3l.1-1.4 1 .1.1 1.3h.3l-.1-1.2 1 .1.1 1.3h.3l-.1-1.3 1.2.1.1 1.2h.3l-.1-1.2 1.4.2.1 1.2h.3l-.1-1.2 1.1.1.1 1.2h.3l-.1-1.1 1 .1.1 1.2h.3l-.1-1.2.9.1.1 1.3h.3l-.1-1.2.9.1.1.9h.3l-.1-.9.9.1.1 1h.3l-.1-1 1.5.1-3.7 2.8c-.1 0-.1.1-.1.2l-1 4.5-4.2-3.9c-.1-.1-.2-.1-.4-.1l-6.1 2.2-2.9-1.8c-.1-.1-.3-.1-.4 0l-2.2 2-4.4-1.7 2.8-4.1v.5h.3l-.1-.9.2-.4v.6h.3l-.1-.9h1.5zm20.3 3.8l-1-.6.2-.2.9.5-.1.3zm-9.4 1.8l.2 2.2-.3-.1-.1-2.1h.2zm.7-.3l.2-.1.1.1.2 2.6-.4-.1-.1-2.5zm1.1.8l.3.3.1 1.8-.3-.1-.1-2zm1.1 1l.2.2.1 1.1h-.2l-.1-1.3zm.9.9l.6.6-.6-.1v-.5zm2.5-.5l.2.1-.3.3.1-.4zm.2-.7l.1-.3.6.4-.3.3-.4-.4zm.2-1.1l.1-.3 1.1.7-.2.3-1-.7zm.3-1l.1-.3 1.5 1-.2.2-1.4-.9zm.6-.8l.3-.2 1.3.8-.1.3-1.5-.9zm1.6-1.3l.3-.2.4.3-.1.3-.6-.4zm.9-.7l.2-.2-.1.2h-.1zm-31 2.7l8.1-3.9-5.3 7.5-.1-2.5c0-.2-.1-.3-.3-.3l-2.9-.2.5-.6zm.2 1.2l-.2.2-.2-.2h.4zm.9.1h.4l-.9.8-.2-.2.7-.6zm1 .4v.5l-.6.7-.4-.4 1-.8zm0 1.6v.4l-.2-.2.2-.2zm1.6.3v.4l-.4.1.4-.5zm.6-1l.3-.4.1 1.5-.3.1-.1-1.2zm1-1.3l.1-.1.2.1.1 2.2-.3.1-.1-2.3zm.9.2l.3.1.1 1.6-.3.1-.1-1.8zm1.1.4l.3.1.1.9-.3.1-.1-1.1zm1 .4l.8.3-.8.2v-.5zm3.1-.2v.6l-.5-.1.5-.5zm.7-.6l.3-.2.1 1.6-.2-.1-.2-1.3zm.9-.3l.6.4.1 1-.6.2-.1-1.6zm1.3.9l.4.3-.4.1v-.4zm3.3 0v.4l-.7-.1.7-.3zm.7-.2l.6-.2.1 1.1-.6-.1-.1-.8zm-13.6-11l-3-3.7c-.1-.1-.2-.2-.4-.1l-5.7 1.5 5.5-2.3 4.3 1.7-.7 2.9zm-11.8-19.3l.7 1.2.3-.2-.7-1.2 1.1-.6.7.8.3-.2-.6-.8 1.3-.8.7.9.3-.2-.7-.9 1.4-.8.7.8.3-.2-.6-.8 1.4-.8.8 1 .3-.2-.8-1 1.3-.7.6.7.3-.2-.7-.6 2.6-1.5-1.2 9-2.5 3.9-8-1.9-.5-2v-2l.2-.2 1-.5zm3.8-12.2l-.3-7.7 4.3 2.4-4 5.3zm-2.8 7.9h.2l-.2.4v-.4zm.6-.7h-.6v-.3h.7l-.1.3zm-.6-1.1v-.3h.7l.2.3h-.9zm0-1v-.6l.3.6h-.3zm3.1-20.7l1.4-.9-1.5 2.2.1-1.3zm1-13.1l.3-3.2 3 .3-3.3 2.9zm2.7-18.2l.3 1-1.1 1.4.8-2.4zm2.6-9.5l1.4.4-2.4 3.7 1-4.1zm2.1-8.3l.9 2-1.8 1.4.9-3.4zm1.5-1.3l.6 1.9.3-.1-.5-1.9.6-.2.5 1.4.3-.1-.5-1.4.7-.2.7 2.2.3-.1-.6-2.3.5-.2.4 1.2.3-.1-.4-1.2.7-.3.5 1.5.3-.1-.5-1.6.8-.3.5 1.5.3-.1-.5-1.5 1-.4c.6 1 2.4 4.3 3.3 5 .1.1.2.2.4.3l-4.4 4.3-5.6-4.2-1.2-2.8 1.2-.2zm11.7 4.2l.5 1.3.3-.1-.3-.8c.2.2.5.3.7.5l.4 1 .3-.1-.2-.6c.2.1.4.2.5.4l.2.7.3-.1-.1-.3c.9.6 1.7 1.1 2.1 1.4l-1.9 4.7v.1l-.5 4.6-2.6 1.4-.3 5.4-7.2 1.7.3-4.5 1.5-4.4-.6-2.1 1.8-3.3-.8-3.2.5-.5.4.8.3-.1-.4-.9.4-.4.5.9.3-.2-.5-1 .5-.5.7 1.6.3-.1-.8-1.7.6-.6.6 1.4.3-.1-.7-1.5.5-.5.4.9.3-.1-.5-1 .5-.5.7 1.7.3-.1-.6-1.6c.4 0 .7.2 1 .4zm4.6 8.8l.4 1 .3-.1-.3-.8.7.2.4 1 .3-.1-.3-.7.8.2.3.9.3-.1-.2-.7 1.1.3-2.1 6.9v.1l-.1 3.6-5.3 4.3-.1-.9h-9.9l-.9 6.6-3.8-.4 2.4-6.3.4.8.3-.1-.5-1 .5-.2.4.8.3-.1-.3-1 .7-.3.3.6.3-.1-.2-.7 1-.4.4 1 .3-.1-.4-.9 1.1-.2.3.7.3-.1-.3-.6.9-.2.3.7.3-.1-.3-.7 1.8-.4.5 1.1.3-.1-.5-1 1.3-.3h-.1l.6 1.2.3-.1-.4-1.5 1.4-.3.4.8.3-.1-.4-.9.1-1.1.2.4.3-.1-.5-1 .1-1 .4.7.3-.2-.7-1.1.1-1 .3.8.3-.1-.7-1.8.5-.3.4 1.1.3-.1-.4-1.2.4-.2.3.7.3-.1-.3-.8.5-.3.3.9.3-.1-.4-1 .3-.1.1-.8.2.5.3-.1-.2-1.1.1-.8.2.6.3-.1-.5-1.3.1-.9.4 1 .3-.1-.5-1.3.9.2zm10.4 33.5h-.7l.4-1.3.3 1.3zm3 16.4l-.2-.2 1.1-.1v-.1l.1.3-1 .1zm1.1.6l.2.9-.7-.8.5-.1zm-.4-1.6l-1.5.1-.1-.3 1.6-.1v.3zm-1.9-.9v-.3l1.6-.1.1.3-1.7.1zm.1-.9v-.3l1.2-.1.1.3-1.3.1zm.1-1.1v-.5l.9-.1.1.5-1 .1zm.1-1.1v-.4h.5l.1.4h-.6zm.1-1.1l.1-.8.2.8h-.3zm-.6-3.9l-1-1.2h.7l.3 1.2zm-1.6-1.9l-.4-.4h1.4l.1.5c0-.1-1.1-.1-1.1-.1zm-1-1.1l-.3-.3h2l.1.3h-1.8zm-9.8 5.6l2.9-4.3s0-.1.1-.2l.9-6.7.1.3.3-.1-.4-.8.2-1.3.3.7.3-.1-.5-1.1.3-.8.6 1.3.3-.2-.8-1.6.5-1.5.5 1 .3-.2-.7-1.4.3-1 .5 1 .3-.2-.7-1.3.2-.7.6 1.2.3-.2-.5-1 .5.1 3.2 7.3-1.4 5.5-.9 6-2.9 3.9-4.4-2-.3-1.6zm-2.6-21.1l3.1.8-2.3 6.2-.8-7zm5.1 1.2l.4.9.3-.1-.3-.6.5.1.3.1.3.6.3-.2-.2-.4 1.1.2-1.7 5.4-1.9-1.1c-.1-.1-.2-.1-.3 0l-2.4 1 1.2-3.1.1.3.3-.2-.3-.6.3-.8.3.6.3-.1-.4-.9.4-1.1.7 1.5.3-.1-.7-1.6 1.1.2zm-1 5.6l1.9 1.1-.9 7.5-3.6-7.5 2.6-1.1zm7.8 7.7l.1-.4h1.8l.1.4h-2zm.4-1.1l.2-.6h1.1l.1.6h-1.4zm.2-6.1l-2.2-5 1.6.3c.3 1.5.5 3.2.6 4.7zm-5.8-6.4l1.8-2.8 3 3.6-4.8-.8zm-.8-.2l-6-1.5-.5-4 .5-.4.5 1 .3-.1-.5-1.1 1-.8.4.9.3-.1-.5-1 .8-.6.9 1.7.3-.2-1-1.7.7-.6.4.9.3-.1-.5-1 .5-.4.3.7.3-.1-.1-.9.5-.4.5 1.1.3-.1-.5-1.2 4.2 1.6-.6 4-2.8 4.4zm1-18.8h.5v.3h-.7l.2-.3zm-.9 2.9h1.9c0 .1 0 .2.1.3h-2.1l.1-.3zm.6 4.1c.6.8 1.3 1.6 1.9 2.3l-3.1-1.2v-2.6c.3.5.7 1 1.2 1.5zm1.9 1.3h.4c.1.2.1.5.2.7-.2-.3-.4-.5-.6-.7zm-.6-.7c-.1-.2-.3-.3-.4-.5h1.1c0 .2.1.3.1.5h-.8zm-1-1.2c-.1-.1-.2-.2-.3-.4h1.8c0 .1 0 .2.1.4h-1.6zm1.4-1.1h-2.2l-.3-.3h2.4s.1.2.1.3zm-2.7-1l.1-.2h2.4v.2h-2.5zm.6-2.1l.1-.2h1.4v.3c0-.1-1.5-.1-1.5-.1zm.3-.9l.1-.3h1v.3h-1.1zm.8-2h-.2l.1-.4.1.4zm-10.6 51h-5.3l2.6-28.7 2.7 28.7zm-11.8-4.6l-4-9.3 1.2-.1v.8h.3v-.9l.7-.1v1.2h.3l.1-1.1h.6v.6h.3v-.7l.1-.1.5-.9v.8h.3v-1.4l1.1-2-1.5 13.2zm-8.7-4.5l.3-4.4.2-.3v.5h.3l.1-1 .3-.5v.4h.3l.1-1 .4-.6v.5h.3l.1-1.1.4-.5v1h.3v-.8l.7 2.7 4.1 9.5-7.9-4.4zm2-24l.2-1.9h.1l.4.8.3-.2-.4-.8.7-.3.4.9.3-.1-.4-.9.6-.3.7 1.4.3-.1-.7-1.4.7-.3.4.9.3-.1-.4-.9.9-.4 1.2 4.4-5.6-.7zm1.3-7.4h-.5v-.3h.4l.1.3zm-.6.7h.8l.1.2h-.9v-.2zm1.7.6l-1.1-4 1.5-.1.5 1.1.3-.1-.5-1 .9-.1.5 1 .3-.1-.4-.9 1.9-.2.5 1 .3-.1-.4-.9h.5l.7-.2.6 1.2.3-.1-.5-1.1 1.3-.4.4.9.3-.1-.4-.8 2.2-.7-.3 4.5-10.9 4.9 1.6-2.9c-.1-.6-.1-.7-.1-.8zm1-7.3l-.6-1.9.8-.2.4 1.3.3-.1-.4-1.3 1.1-.3.6 1.2.3-.1-.5-1.1 1.2-.3.5 1 .3-.1-.5-1 1.1-.3.4 1 .3-.1-.4-.9 1-.3.5 1 .3-.1-.4-.9.9-.2.5 1 .3-.1-.5-1.1 2.3-.6.3.9-1.3 3.8-5.3 1.7-5.2.5 1.7-2.2v-.2zm4.7 7.9l-2 5.2-1-3.8 3-1.4zm-2-18.8l3-.6c.1 0 .1 0 .2-.1l.1.3.3-.1-.1-.5.4-.4.1.4.3-.1-.2-.6.3-.3.2.5.3-.1-.2-.7.5-.5.3 1.2.3-.1-.3-1.2.7.6.2.7.3-.1-.1-.4 1.1.9.7 2.7-4.1-.2-4.3-1.3zm-.2-3.3l2.4-2 2.5 1.9-2 2.2-3.6.7.7-2.8zm-2.5 9.9l.8-1.2.1.3.3-.1-.2-.5.4-.6.4.9.3-.1-.5-1.1.6-.9.3.6.3-.1-.3-1 .5-.7.4.9.3-.1-.5-1.1.5-.7.5 1.3.3-.1-.4-1 .8.3.4 1 .3-.1-.3-1 1.2.4.1.4.3-.1v-.2h.1l4.1.2-1.6 2.9.2.6-10.2 2.6.5-1.7zm-2.4 9.4h-.2v-.5l.2.5zm-.4 2.6h.9l-.2.4h-.7v-.4zm-.1 1.1h.4l-.5.9.1-.9zm2.4 6.6l.4.8.3-.1-.4-.9.5-.5.4.9.3-.1-.4-.8 1 .1.4.9.3-.1-.3-.7.9.1.6 1.2.3-.1-.5-1 1 .1.5 1.1.3-.1-.4-.9 1.5.2-4.7 6.9-2.6-6.3.6-.7zm2.4 7.6v.5h.3l.1-1.1.8-1.1v.6h.3l.1-1.2.4-.6v.7h.3l.1-1.3.8-1.1v1.2h.3v-1.7l.4-.6.1.9h.3l-.1-1.3.6-.9-1.4 11.1-2.8 4.6-3.5.3-.9-3.5 1.7-1.1c.1 0 .1-.1.1-.2l2-4.2zm-8.8 21.3l1-.1v.7h-1.2l.2-.6zm-.2 1.4l1.3-.1v.7h-1.5l.2-.6zm1.1-6.6h-.2l.2-.3v.3zm-.7.7h.7v.5h-1l.3-.5zm-.7 1.2h1.4v.5h-1.7l.3-.5zm1.5 1.1v.3l-1.7.1-.1-.4h1.8zm0 1v.5h-1.2l-.2-.5h1.4zm-1.6 4.7l.4.1-.5.4.1-.5zm1.2-.6h-1.1v-.2h1.3l-.2.2zm9.5-4.1l-.6 4.7-2.4-6.4 3 1.7zm-13 28.7l1.6-1.2.7.9.3-.2-.7-.9.9-.6.8.8.2-.2-.7-.7.8-.6.8.8.2-.2-.8-.8.5-.4.8.8.2-.2-.8-.8.8-.6.9.9.2-.2-.9-.9.9-.7.9.9.2-.2-.8-.8 1-.7 4.8 7.8-3.8-1.5h-.3l-8.8 3.7.1-4.2zm.1-8.2l7.4 1.7-7.9 5.8-2.7-1.5 3.2-6zm-2.5 7.2l-.5.2c0-.2-.1-.4-.1-.6l.6.4zm.7.4l.5.3-1.5.7c0-.2-.1-.3-.1-.5l1.1-.5zm-.8 1.7l1.8-.8v.5l-1.7.7c0-.2-.1-.3-.1-.4zm1.9.4v.4l-1.4.5c0-.1-.1-.2-.1-.3l1.5-.6zm.1 1.1v.3l-.9.3c-.1-.1-.1-.2-.2-.3l1.1-.3zm0 1.1v.4c-.2-.1-.3-.1-.4-.2l.4-.2zm33.5-44.6l-2.3 3.4-1.4-11.2 3.7 7.8zm2.4 8.8h.1c.1 0 .2 0 .3-.1l3.2-4.2s.1-.1.1-.2l.8-5.3 3.5 4.1-.7 7.3c0 .1 0 .2.1.3l3.1 3.6-4.7.1-9.4-2.3-.6-5.2 4.2 1.9zm10.3 11.2l.1.5h-.2l.1-.5zm3.5 19.5l-.2-.3h.1l.1.3zm-.6-1l-.1-.3h.4l.1.3h-.4zm-.5-1l-.1-.2h.7l.1.2h-.7zm-.5-.9l-.1-.2h1v.2h-.9zm-.5-.9l-.1-.1v-.1h1.3l.1.3-1.3-.1zm1.1-1h-1l.1-.3h.9v.3zm-.8-1l.1-.4h.5l.1.4h-.7zm.2-1.1l.1-.6.1.6h-.2zm-1.7-5.9l-.2-.3h.9v.3h-.7zm1 .7l.2 1-.7-1h.5zm-.4-1.8v.1h-1.3l-.2-.3h1.4l.1.2zm-1.9-.8l.1-.3h1.7v.3h-1.8zm.3-1l.1-.3h1.3v.3h-1.4zm.2-1l.1-.5h.9l.1.5h-1.1zm.9-1.2h-.6l.1-.4h.5v.4zm-1.1-1l-1 4.3c0 .1 0 .2.1.3l3.4 5-.6 3.1-2.9-1.6-5.5-3c-.1 0-.2-.1-.2 0l-4.3.8-.5-3.9 2.4-3.8c.1-.1.1-.2 0-.3l-4-8.5 1.3.3.9 1.8.3-.2-.8-1.6 1.1.3.8 1.7.3-.2-.5-1.4 1.4.3 1 2.4.3-.1-.9-2.2 1.1.3.4 1.3.3-.1-.4-1.1 1.1.3.5 1.4.3-.1-.4-1.2.9.2.4 1.3.3-.1-.3-.8 4 2.7-.3 2.4zm-9.8.9l-1.8 2.9-1.2-9.4 3 6.5zm11.4 21.9l3.4 1.6-.3.3-3.3-1.6.2-.3zm.5-.6l.8-.2 2.5 1.2.1.5-3.4-1.5zm1.9-.4l1-.2.2.8-1.2-.6zm-3.3-24.9l-3.4-2.3 4.1-.1-.7 2.4zm-5.6-33l-3-3.6.6-.9s0-.1.1-.1l.4-2.8c.2.6.4 1 .6 1.3.4.4.9 3 1.3 6.1zm-5.7-22.5l-4-1 1.2-3.2c.1.4.2.7.4 1.1.7 1.2 1.7 2.4 2.4 3.1zm-10-21.2s0 .1.1.1l-1 1.8.3.2.8-1.5c.1.3.2.6.4 1l-.5 1 .3.2.3-.7c.1.2.1.3.2.5l-.6 1.3.3.2.5-1c.1.2.2.5.3.7l-.4.6.3.2.2-.4c.1.2.2.4.2.7l-.3.5.3.2.1-.2c.1.2.1.4.2.6l-.4.7.3.2.3-.5c.1.1.1.3.2.4l-.4.8.3.2.3-.7.3.9-.4.9.3.2.3-.6c0 .1.1.1.1.2l4.3 4.8c-.1.3-.2.8-.3 1.5-1.5-1-5.8-3.9-6.6-4.5-.7-.6-2.5-3.7-3.2-5l-.6-8.9 1.2 1.2 2 2.2zm-7.2 3.3l.8 1.2.3-.2-.9-1.3.1-.2.1-.1.5.8.3-.2-.6-.9.3-.6.8 1.1.3-.2-.9-1.4.3-.5.5.8.3-.2-.6-1 1.9-3.6.5 8.4-6.9 2.4 1.6-2.4.5.8.3-.2-.6-.9.4-.6.4.7.3-.1-.5-.8.5-.8zm-11.4 45.3l.2-2.1.1-.1.4.8.3-.1-.4-.9.5-.4.4.9.3-.1-.4-.9.5-.4.4.9.3-.3-.5-1 .4-.3 2.7 6.5-1.8 4.1-4.1 2.6.7-9.2zm-3.9 35.5l1.8-3.4c.1-.1.1-.2 0-.3l-1.5-2.8 1.2-1 .7.9.3-.2-.7-.9 1.1-.9v-.2l.5.6.3-.2-.5-.6.8-1.2.7.9.3-.2-.7-.9.7-.9.4.5.3-.2-.5-.6.9-1.2.8 1 .3-.2-.8-1 1.1-1.4 3 7.9-.2 1.8-11.3 6.3 1-1.6zm-2.5 6.4l.2 1-1.4 2.6 1.2-3.6zm11.4 14.7v-.3l-.3-.9 2 2.4-3.3 1.8c.6-1 1.2-2.1 1.6-3zm-4.1 7.2c-.1-.9 0-1.9.2-2.1h.2c.3 0 .7-.3 1.2-.9l2.2-1.2-2.7 5.5-1.1-1.3zm21.1 5.3l-.1-1.5.3-.1.1 1.7h-.1l-.2-.1zm11.5-7.3l-5-.4.3-4.8 4.7 5.2zm-5.3-6.1v.1l-.4 5.6-11.1-1.2h-.1l-5.2.8-4.9.8 2-7.5.1.8h.3l-.1-1.1.7-.5.1.8h.3l-.1-1.2.7-.5.1 1h.3l-.1-1.2.5-.4.1 1.1h.3l-.1-1.3.4-.3.1 1h.3l-.1-1.3.6-.5.1.8h.3l-.1-1 1.7-1.3c.1-.1.1-.2.1-.3 0-.1 0-.2-.1-.3l-1.9-1.7.9-.6.1 1h.3l-.1-1.2.9-.6.1.7h.3l-.1-1 .6-.5.1 1h.3l.1-1.4.5-.4.1.8h.3l-.1-1 .5-.4h.1l.1 1h.3l-.1-1h.6l.1.8h.3l.1-.8h.7l.1.9h.3l-.1-.9h.8l.3 2.5h5.1l2.7 8.3c-.4.6-.8 1.2-1 1.6zm3.3-3.6c-.2 0-.4.1-.6.2l1.3-2.7 4.7 5.4c-1.9-1.2-4.5-2.7-5.2-2.9h-.2zm11.7 4.6l-.6-.1-2.6-1.5.2-.3 3.2 1.6-.2.3zm-23.9-84.2l.3.1-.7 3.3-.3-.1.7-3.3zm-1.9.6l.3.1-.7 3.3-.3-.2.7-3.2zm1.6-1.6l-.7 3.3-.3-.1.7-3.3.3.1zm-11.7 35.6l.6-2.1.3.1-.6 2h-.3zm-1.3.4l-.3-.1.6-2.1.3.1-.6 2.1zm1-1l-.3-.1.6-2.1.3.1-.6 2.1zm23.7 6l.6-2.9.3.1-.6 2.9-.3-.1zm-.8-2.3l-.6 2.9-.3-.1.6-2.9.3.1zm.4 1.4l-.3-.1.6-2.9.3.1-.6 2.9zm-8.9 39.1l.3.1-1.2 5.3-.3-.1 1.2-5.3zm-2.4.7l.3.1-1.2 5.3-.3-.1 1.2-5.3zm2-2.6l-1.2 5.3-.3-.1 1.2-5.3.3.1zm-11.6 0l-.5 2.2-.3-.1.5-2.2.3.1zm-1.5-1.1l.3.1-.5 2.2-.3-.1.5-2.2zm.8 1.5l-.3-.1.5-2.2.3.1-.5 2.2zm25.6-29.1l.3.1-.5 2.2-.3-.1.5-2.2zm-1.3 1.3l-.4-.1.5-2.2.3.1-.4 2.2zm.9-.8l-.3-.1.5-2.2.3.1-.5 2.2zm-32.7 20.8l.8-3 .3.1-.8 3-.3-.1zm-1.4.5l-.3-.1.8-3 .3.1-.8 3zm1.2-1.5l-.3-.1.8-3 .3.1-.8 3zm1.5-9.6l.9-3.7.3.1-.9 3.7-.3-.1zm-1.6.6l-.4-.1 1-3.7.3.1-.9 3.7zm1.4-1.8l-.3-.1.9-3.7.3.1-.9 3.7zm32.2 1.6l.3.1-1 4.1-.3-.1 1-4.1zm-2.2.5l.3.1-1 4.1-.3-.1 1-4.1zm1.9-1.9l-1 4.1-.3-.1 1-4.1.3.1z"/><g fill="#E3CC98"><path d="M-718.164-219.993h-6.9l8.626-91.213h11.157l8.625 91.213h-6.9l-2.99-31.632h-8.628l-2.99 31.632zm7.246-78.33l-.92 10.81-2.646 28.987h7.247l-2.76-28.87-.92-10.928zM-668.475-274.86c0 .998-.057 2.09-.17 3.278-.113 1.19-.32 2.32-.622 3.393-.302 1.076-.773 2.014-1.413 2.82-.642.804-1.452 1.322-2.432 1.552.98 0 1.79.402 2.432 1.208.642.805 1.132 1.783 1.472 2.933.338 1.15.564 2.398.677 3.74a44.78 44.78 0 0 1 .17 3.737v19.21c0 2.53.058 4.6.172 6.21.115 1.61.268 2.875.46 3.796.19.92.403 1.592.633 2.013.23.42.46.747.69.977h-6.817a2.453 2.453 0 0 1-.624-.632c-.19-.268-.377-.766-.565-1.495-.19-.728-.34-1.783-.454-3.163s-.17-3.22-.17-5.52v-22.776c0-2.605-.287-4.465-.86-5.578-.576-1.11-1.17-1.858-1.784-2.243a3.3 3.3 0 0 0-1.725-.634 25.402 25.402 0 0 0-1.495-.058h-2.876v42.1h-6.9v-91.214h11.327c2.06 0 3.776.23 5.15.69 1.372.46 2.48 1.17 3.318 2.128.84.96 1.43 2.205 1.773 3.738.343 1.535.553 3.336.63 5.406v24.384zm-11.962 5.867c1.993 0 3.336-.383 4.026-1.15.69-.766 1.072-2.34 1.15-4.717v-23.58c0-1.763-.25-3.163-.75-4.2-.5-1.034-1.86-1.59-4.082-1.667h-3.68v35.312h3.335zM-614.414-311.207l-7.247 91.213h-9.088l-7.592-71.314-7.477 71.314h-9.202l-7.13-91.213h7.016l3.91 51.875.46 8.396.806 12.423 1.265-12.423.69-8.396 5.867-51.875h7.592l5.98 51.99.69 8.742 1.266 11.963.805-12.077.46-8.856 3.91-51.76h7.02zM-586.694-311.207v91.213h-6.9v-42.1h-8.513v42.1h-6.9v-91.213h6.9v42.214h8.512v-42.214h6.9zM-566.105-219.993h-11.733v-91.213h11.733a26.7 26.7 0 0 1 3.968.287 7.27 7.27 0 0 1 3.393 1.44c.995.767 1.783 1.917 2.358 3.45.575 1.535.863 3.68.863 6.44v67.98c0 2.76-.288 4.908-.863 6.44-.575 1.536-1.363 2.686-2.358 3.452a7.243 7.243 0 0 1-3.393 1.438c-1.265.19-2.588.287-3.968.287zm-4.83-6.902h3.91c2.224 0 3.546-.555 3.97-1.668.42-1.11.632-2.51.632-4.198v-65.68c-.077-2.222-.365-3.755-.863-4.6-.5-.843-1.745-1.265-3.74-1.265h-3.91v77.41z"/></g></svg>