<svg xmlns="http://www.w3.org/2000/svg" width="106.391" height="241.258" viewBox="0 0 106.391 241.258"><path fill="#D04D36" d="M106.374 210.185l-3.724-16.547-2.133-11.613v-.004l-1.59-8.658-2.054-14.365 1.622-6.08a.69.69 0 0 0 .004-.336L88.15 109.95c-.278-2.915-2.576-26.352-4.707-28.91-.522-.627-1.15-2.413-1.794-4.746-1.124-4.078-2.296-9.834-3.028-14.03l-1.657-10.727a.653.653 0 0 0-.08-.227v-.003c-.005-.01-.015-.015-.02-.024a.688.688 0 0 0-.13-.157c-.04-.036-4.273-3.686-6.16-7.26-1.8-3.414.02-8.516.038-8.567a.678.678 0 0 0-.134-.687l-8.554-9.48c-.58-1.035-4.043-10.547-6.124-16.396a.684.684 0 0 0-.114-.202l-3.77-4.605L48.233.2a.678.678 0 0 0-1.084.164l-7.073 13.64-7.438 11.157c-.014.02-.018.044-.03.065-.007.015-.022.026-.03.042-.006.015-.004.033-.01.048-.006.02-.02.04-.025.06L25.51 53.927l-4.97 16.16a.656.656 0 0 0-.027.13l-3.316 33.163-2.577 33.398-4.782 7.733a.677.677 0 0 0-.05.618l1.994 4.78-1.863 9.315-.17.84a.666.666 0 0 0-.012.134v11.396l-4.03 6.044a.68.68 0 0 0-.113.376v4.035l-5.56 16.885a.684.684 0 0 0-.032.266c.043.526 1.077 12.41 7.12 13.395a5 5 0 0 0 .808.073.67.67 0 0 0 .166-.02l17.232-4.403 1.518 4.498c-1.56 3.118-3.247 5.943-4.454 7.56l-.007.005.002.003c-.606.81-1.093 1.322-1.38 1.4-.516-.23-1.046-.123-1.417.277-.966 1.038-.808 4.383-.737 5.383a.67.67 0 0 0 .14.368l2.573 3.307-1.325 1.654a.678.678 0 0 0 .037.888l7.044 7.458c.01.01.026.015.037.026a.662.662 0 0 0 .15.105c.023.012.045.024.07.033.014.006.026.016.042.02a.678.678 0 0 0 .356.008h.002l14.745-3.686 4.387 1.197a.68.68 0 0 0 .36-.002l5.747-1.613 8.03 1.625 12.844 2.486c.032.006.064.005.096.006.01 0 .022.006.034.006.007 0 .013-.003.02-.003.046 0 .09-.01.134-.02.014-.003.03-.002.043-.006l.01-.005c.032-.01.062-.027.092-.042.022-.01.046-.02.067-.032.023-.015.044-.036.066-.054.023-.02.047-.036.067-.058l.006-.005 7.043-7.872a.67.67 0 0 0 .116-.18l3.78-8.702c.005-.01.005-.022.01-.033.01-.03.017-.06.024-.093a.68.68 0 0 0 .016-.1c.002-.03 0-.06-.002-.092a.618.618 0 0 0-.015-.105c-.003-.014-.002-.028-.006-.043-.005-.016-.015-.03-.02-.045a.63.63 0 0 0-.098-.173c-.01-.013-.017-.03-.03-.042l-10.918-12.075c1.59-2.897 3.798-5.866 4.842-5.866h.002c1.428.286 8.82 4.81 13.44 7.78.013.008.03.008.045.016.045.024.09.037.14.05.03.01.06.03.09.035l9.116 1.245a.683.683 0 0 0 .598-.222l3.315-3.73a.677.677 0 0 0 .154-.598zm-11.2 1.196l2.267 1.323-2.938-.4.673-.922zm-1.933.35l-12.083-14.104a.677.677 0 0 0-1.128.152l-4.057 8.607-4.657-14.336h3.163l-1.195-9.686 1.922-.372 1.583 3.097.604-.31-1.495-2.92 2.383-.462 1.273 2.625.61-.295-1.194-2.463 2.004-.388 2.056 4.837.623-.265-1.91-4.49 3.188 1.727.616 1.855.643-.213-.39-1.17 1.883 1.02 1.08 3.246.642-.213-.85-2.562 3.58 1.942.718 2.106.642-.218-.48-1.41 4.776 2.588-.588 3.205a.68.68 0 0 0 .073.45l6.195 11.182-5.597 1.195a.675.675 0 0 0-.405.263l-4.224 5.776zm-40.234-25.795a.68.68 0 0 0-.4.13l-9.675 7.057-1.675-1.453 2.518-23.608h13.433l2.025 17.873h-6.224zM34.628 206.9l-10.222-16.47 3.294-5.188-.878 6.807h12.8l6.605 5.725-11.6 9.124zm-4.853 17.46a.677.677 0 0 0 .608.212l5.865-.93-12.36 5.954 5.636-11.64 1.87-1.022-1.772 6.798a.677.677 0 0 0 .153.627zm12.515-1.675l.105 1.517.676-.046-.108-1.577.89-.142.117 1.71.675-.047-.122-1.77.91-.143.112 1.625.676-.046-.115-1.685.816-.128.12 1.74.677-.046-.125-1.8 3.282-.52 4.375.49-.158 2.735.676.04.155-2.7 2.012.225.174 2.506.675-.045-.165-2.383 1.98.222.18 2.57.675-.047-.17-2.446 2.232.25.167 2.41.676-.046-.158-2.286 2.624.294.164 2.383.676-.046-.156-2.26 2.116.236.16 2.308.675-.046-.15-2.185 1.98.22.164 2.372.676-.046-.156-2.25.032.005v-.005c.01 0 .017.006.026.007l1.657.122.172 2.512.676-.046-.167-2.417 1.825.133.125 1.81.676-.047-.118-1.712 1.714.126.137 1.98.675-.047-.13-1.883 2.955.217-7.146 5.52a.678.678 0 0 0-.246.386l-2.014 8.812-8.047-7.625a.676.676 0 0 0-.692-.147l-11.81 4.19-5.535-3.51a.68.68 0 0 0-.81.063l-4.34 3.828-8.473-3.278 5.517-7.85.06.884.677-.046-.117-1.718.483-.688.08 1.16.676-.045-.115-1.66.913-.148zm39.346 7.475l-1.89-1.2.42-.325 1.677 1.05-.207.475zm-18.232 3.375l.3 4.32-.648-.126-.275-3.974.624-.22zm1.327-.47l.42-.15.265.252.352 5.087-.686-.133-.35-5.055zm2.14 1.48l.654.62.24 3.475-.62-.12-.275-3.975zm2.11 2l.392.373.142 2.062-.404-.08.032-.002-.163-2.353zm1.847 1.75l1.243 1.18-1.177-.23-.066-.95zm4.826-.928l.326.235-.51.57.183-.805zm.328-1.435l.156-.676 1.245.78-.49.55-.91-.654zm.475-2.074l.155-.676 2.12 1.345-.433.485-1.842-1.154zm.475-2.078l.134-.584 2.965 1.88-.383.427-2.717-1.723zm1.16-1.54l.514-.397 2.484 1.576-.247.568-2.75-1.747zm3.22-2.488l.564-.436.76.547-.245.564-1.08-.675zm1.683-1.3l.383-.297-.19.435-.193-.14zm-60.13 5.143l15.786-7.603-10.225 14.546-.17-4.868a.68.68 0 0 0-.62-.652l-5.54-.464.77-.96zm.446 2.42l-.4.383-.426-.453.825.07zm1.797.15l.732.062-1.654 1.522-.345-.366 1.267-1.218zm1.84.883l.034.99-1.156 1.446-.708-.75 1.83-1.686zm.107 3.07l.024.692-.312-.33.288-.36zm3.023.425l.053.76-.712.178.66-.937zm1.238-1.76l.557-.792.18 2.834-.585.146-.152-2.187zm1.803-2.565l.2-.283.335.13.27 4.29-.534.135-.272-4.272zm1.926.386l.63.243.19 3.024-.604.152-.216-3.418zm2.02.78l.515.2.125 1.826-.504.126-.135-2.15zm1.91.74l1.522.588-1.455.364-.065-.952zm6.095-.43l.076 1.114-1.022-.28.945-.833zm1.28-1.13l.484-.427.15 3.172-.453-.124-.18-2.622zm1.838-.5l1.103.7.14 2.026-1.098.31-.144-3.035zm2.524 1.602l.836.53-.784.22-.052-.75zm6.37.112l.053.766-1.408-.285 1.355-.482zm1.326-.47l1.156-.41.15 2.167-1.2-.243-.106-1.515zm-26.28-21.18l-5.835-7.124a.67.67 0 0 0-.69-.227l-11.04 2.82 10.677-4.54 8.405 3.256-1.518 5.815zm-22.863-37.51l1.352 2.262.58-.348-1.343-2.25 2.047-1.17 1.286 1.64.533-.42-1.225-1.56 2.59-1.478 1.433 1.828.533-.418-1.37-1.75 2.753-1.573 1.29 1.647.534-.418-1.23-1.57 2.662-1.52 1.577 2.012.533-.418-1.517-1.934 2.527-1.444 1.09 1.39.532-.42-1.028-1.31 4.963-2.835-2.26 17.508-4.818 7.59-15.42-3.607-.923-3.966v-3.862l.3-.45 2.018-1.153zm7.325-23.596l-.582-14.836 8.355 4.745-7.773 10.092zm-5.498 15.233l.397-.013-.398.77v-.757zm1.11-1.392l-1.11.036v-.657l1.443-.026-.333.646zm-1.11-1.976v-.654l1.402-.03.36.652-1.762.032zm0-2.01v-1.206l.66 1.194-.66.014zm5.964-40.042l2.62-1.655-2.815 4.19.196-2.535zm2.092-25.34l.613-6.134 5.738.615-6.35 5.52zm5.237-35.297l.62 1.95-2.05 2.692 1.43-4.642zm5.037-18.482l2.717.84-4.66 7.047 1.942-7.887zM33.38 27.65l1.693 3.908-3.344 2.794 1.65-6.7zm3.002-2.523l1.224 3.683.643-.214-1.23-3.696 1.22-.433.912 2.747.643-.214-.917-2.76 1.358-.483 1.443 4.346.642-.214-1.448-4.36 1.016-.36.757 2.28.643-.215-.762-2.293 1.368-.486.994 2.993.643-.215-1-3.006 1.47-.523.964 2.823.642-.22-.967-2.83 1.983-.704c1.078 1.977 4.61 8.312 6.325 9.647.182.14.46.343.803.59l-8.525 8.393-10.784-8.088-2.334-5.385 2.272-.806zm22.604 8.125l.963 2.457.63-.25-.6-1.532c.464.316.94.638 1.416.96l.78 1.988.63-.248-.42-1.07 1.023.69.442 1.405.646-.204-.188-.596c1.752 1.177 3.258 2.184 3.988 2.67L64.684 48.7c-.023.06-.024.12-.03.182h-.014l-.896 8.96-5.3 2.805-.613 10.543-13.948 3.204.557-8.64 2.833-8.606-1.12-4.073 3.52-6.314-1.628-6.254.953-.94.73 1.55.614-.288-.832-1.764.843-.83.923 1.81.604-.31-1.02-2 .895-.88 1.453 3.11.614-.288-1.555-3.327 1.247-1.23 1.213 2.633.615-.284-1.315-2.854 1.003-.987.845 1.79.613-.29-.946-2.005 1.054-1.038 1.27 3.316.633-.242-1.167-3.044c.506.35 1.064.733 1.653 1.136zm8.964 17.04l.74 2.027.637-.233-.584-1.6 1.422.348.686 1.88.638-.232-.53-1.453 1.515.37.63 1.724.636-.232-.474-1.296 2.17.532L71.3 65.424a.665.665 0 0 0-.03.188l-.135 7.048-10.357 8.346-.212-1.716H41.374l-1.658 12.845-7.343-.786 4.69-12.125.713 1.52.614-.286-.9-1.926.982-.44.693 1.48.614-.286-.69-1.47 1.454-.65.586 1.252.614-.287-.58-1.242 1.906-.852.867 1.853.614-.286-.832-1.778 2.035-.467.638 1.36.615-.286-.576-1.23 1.788-.41.66 1.41.615-.286-.6-1.28 3.396-.78.955 2.04.614-.286-.895-1.91 2.558-.588-.2.093 1.098 2.342.615-.288-1.055-2.253 2.706-.623.69 1.475.615-.287-.837-1.79.13-2.22.405.868.614-.287-.937-2.002.11-1.907.776 1.312.585-.346-1.288-2.18.115-1.978.562 1.575.638-.227-1.048-2.935.96-.508.694 2.126.645-.21-.732-2.238.832-.44.492 1.377.638-.228-.525-1.47 1.055-.558.652 1.822.638-.228-.684-1.915.54-.287.154-1.532.37 1.04.64-.23-.853-2.382.15-1.514.42 1.18.64-.228-.903-2.525.182-1.822.723 2.028.638-.228-.93-2.61 1.7.414zm20.076 64.885l-1.416.03.795-2.587.62 2.557zm5.913 31.806l-.417-.482 2.046-.125-.01-.163.158.655-1.78.116zm2.102 1.222l.41 1.685-1.4-1.62.99-.065zm-.77-3.17l-2.864.177-.398-.46 3.15-.188.113.47zm-3.657-1.617l.046-.52 3.05-.18.124.51-3.22.19zm.168-1.885l.057-.645 2.39-.146.155.637-2.602.153zm.18-2.01l.08-.894 1.65-.11.213.883-1.944.12zm.2-2.26l.072-.8.94-.066.192.787-1.203.08zm.194-2.166l.136-1.52.36 1.485-.496.035zm-1.304-7.447l-1.94-2.298h1.383l.557 2.298zm-3.086-3.653l-.732-.866 2.713-.032.218.9h-2.2zm-1.865-2.208l-.525-.623 3.89-.052.154.63-3.518.044zM67.14 132.6l5.573-8.278a.67.67 0 0 0 .107-.294h.004l1.65-13.05.242.514.614-.287-.696-1.486.307-2.428.608 1.296.614-.287-.96-2.05.533-1.64 1.22 2.5.61-.3-1.53-3.13.944-2.902 1.013 2.02.606-.305-1.323-2.632.618-1.902.955 1.902.606-.304-1.263-2.515.463-1.423 1.118 2.31.61-.295-.93-1.92 1.058.196 6.25 14.2-3.175 10.324c-.01.032-.012.064-.017.096h-.005l-1.8 11.587-5.685 7.514-8.542-3.813-.398-3.217zm-5.045-40.894l6.093 1.546-4.423 11.992-1.67-13.538zm9.835 2.496l.705 1.67.625-.264-.505-1.197.94.24c.014.003.03.002.044.005l-.002.004.62.113.57 1.146.607-.303-.343-.69 2.134.392-3.386 10.426-3.627-2.073a.675.675 0 0 0-.594-.038l-4.616 1.9 2.227-6.04.288.578.608-.302-.572-1.15.592-1.604.566 1.21.614-.288-.85-1.816.752-2.04 1.355 2.97.617-.283-1.408-3.086 2.038.518zm-2.002 10.813l3.67 2.098-1.83 14.458-6.914-14.467 5.074-2.088zm15.265 14.802l.245-.797 3.51-.043.192.787-3.947.053zm.663-2.158l.334-1.09 2.163-.045.267 1.1-2.764.034zm.52-11.79l-4.254-9.668 3.186.586c.393 3.032.76 6.176 1.07 9.082zm-11.4-12.36l3.437-5.36 5.803 7.06-9.24-1.7zm-1.422-.294l-11.638-2.953-.947-7.674.966-.78.926 1.977.614-.287-.996-2.128 1.91-1.54.86 1.836.615-.287-.93-1.986 1.49-1.2 1.804 3.27.592-.326-1.86-3.376 1.438-1.16.85 1.816.614-.287-.92-1.965.92-.74.605 1.293.613-.287-.676-1.444 1.03-.83.957 2.046.614-.287-.994-2.123 8.224 3.08-1.12 7.675-5.564 8.67zm1.854-36.443l.99-.02.09.572-1.26.027.18-.58zm-1.756 5.645h3.622l.01.066.116.654h-3.973l.225-.72zm1.153 7.91v.072h.058c1.2 1.49 2.517 3.095 3.62 4.367l-5.99-2.244.094-4.98c.6.76 1.376 1.74 2.218 2.785zm3.727 2.407l.82-.018c.105.455.213.907.323 1.355-.356-.406-.74-.856-1.143-1.337zm-1.105-1.332c-.272-.33-.546-.665-.82-1.003h2.225c.07.32.14.644.212.968l-1.617.035zm-1.914-2.36c-.19-.235-.375-.466-.558-.696H78.4l.145.697h-3.032zm2.615-2.05h-4.25l-.527-.67 4.638-.048.14.717zm-5.27-2.02l.148-.48h4.642l.08.43-4.87.05zm1.215-3.91l.15-.483 2.76-.038.08.52h-2.99zm.574-1.844l.156-.504 1.893-.04.08.513-2.13.03zm1.543-3.82l-.357.008.24-.77.117.762zm-20.584 98.75H45.372l5.117-55.51 5.116 55.51zm-22.745-8.896l-7.784-18.01 2.333-.172-.092 1.567.676.04.096-1.657 1.44-.106-.122 2.124.676.04.128-2.212 1.235-.09-.066 1.132.677.04.08-1.373a.718.718 0 0 0 .127-.152l1.004-1.714.025 1.515.678-.01-.042-2.63 2.217-3.784-3.284 25.454zm-16.868-8.635l.656-8.504.363-.54-.06 1.063.675.04.128-2.21.606-.9-.045.758.676.04.11-1.904.823-1.224-.054.94.675.04.12-2.085.687-1.02.033 2.024.678-.012-.025-1.548 1.382 5.23c.01.034.03.06.043.092l-.01.004 7.992 18.488-15.453-8.775zm3.904-46.608l.377-3.774.21-.094.79 1.594.61-.302-.78-1.57 1.272-.57.81 1.727.613-.287-.804-1.717 1.155-.518 1.27 2.782.616-.28-1.268-2.78 1.343-.6.715 1.692.625-.263-.72-1.705 1.763-.79 2.24 8.614-10.837-1.16zm2.483-14.267l-1.06.023.05-.502.868-.02.14.5zm-1.195 1.382l1.575-.034.134.473-1.755.03.045-.47zm3.292 1.064l-2.214-7.84 2.857-.287 1.004 2.144.614-.287-.903-1.928 1.715-.172.877 1.872.614-.287-.775-1.657 3.593-.36.936 1.998.614-.287-.835-1.784.73-.073a.75.75 0 0 0 .14-.03l1.452-.468 1.073 2.293.614-.287-1.037-2.215 2.603-.842.776 1.658.614-.286-.74-1.58 4.28-1.385-.578 8.706-21.138 9.46 3.056-5.564a.67.67 0 0 0 .06-.51zm1.925-14.117l-1.164-3.665 1.537-.39.797 2.476.645-.208-.783-2.434 2.08-.527 1.08 2.308.615-.287-1.026-2.19 2.352-.595.91 1.945.614-.287-.855-1.826 2.067-.523.866 1.85.614-.287-.81-1.733 1.934-.49.882 1.884.614-.287-.827-1.766 1.68-.424.905 1.933.614-.288-.85-1.816 4.47-1.13.494 1.798-2.455 7.454-10.307 3.334-10.008 1.004 3.207-4.217a.674.674 0 0 0 .107-.617zm9.14 15.332L31.67 89.4 29.75 82l5.793-2.593zm-3.926-36.43l5.77-1.237a.68.68 0 0 0 .345-.193l.155.567.654-.177-.264-.968.73-.777.274.843.645-.21-.39-1.197.554-.59.358 1.058.642-.218-.475-1.4.94-1 .618 2.358.655-.172-.61-2.323 1.445 1.083.305 1.443.663-.14-.144-.685 2.21 1.658 1.366 5.252-8.008-.368-8.438-2.606zm-.435-6.398l4.74-3.96 4.89 3.668-3.916 4.172-7.04 1.51 1.327-5.39zm-4.807 19.157l1.565-2.366.194.563.64-.22-.362-1.055.72-1.09.842 1.78.613-.29-1.018-2.15 1.177-1.78.488 1.208.63-.254-.664-1.64.898-1.36.802 1.69.612-.29-.978-2.06.957-1.447.078.024-.06.023.95 2.433.63-.246-.77-1.978 1.568.484.785 1.98.63-.25-.583-1.474 2.286.706.136.717.665-.126-.07-.364c.056.017.112.027.17.03l7.918.363L44.7 52.9l.304 1.107-19.63 4.968 1-3.24zM21.857 73.9l-.35.007.09-.922.26.914zm-.855 5.055l1.75-.03-.398.722-1.426.046.074-.738zm-.21 2.098l.804-.026-.98 1.782.176-1.757zm4.64 12.776l.692 1.477.614-.287-.774-1.653 1.057-.92.79 1.69.615-.287-.77-1.643 2.026.217.838 1.787.614-.286-.663-1.416 1.8.193-.025.012 1.097 2.342.614-.287-.93-1.985 1.978.212.965 2.06.613-.287-.79-1.69 2.9.312-9.073 13.413-5.114-12.168.926-.806zm4.612 14.787l-.05.873.675.04.117-2.036 1.493-2.207-.066 1.142.676.04.133-2.28.84-1.242-.077 1.33.676.04.144-2.468 1.493-2.207.032 2.3.678-.01-.046-3.27.838-1.24.13 1.67.675-.053-.197-2.52 1.162-1.718-2.782 21.556-5.314 9.073-6.688.49-1.776-6.72 3.306-2.09a.683.683 0 0 0 .257-.295l3.67-8.198zM13.15 149.973c.006-.024.002-.05.005-.074l1.955-.036.05 1.267-2.258.09.25-1.247zm-.522 2.615l2.585-.103.05 1.282-2.853-.09.218-1.09zm2.086-12.81l-.36.006.34-.546.02.54zm-1.206 1.376l1.26-.02.035.895-1.857.033.562-.91zm-1.41 2.28l2.758-.05.037.936-3.32-.035.524-.85zm2.848 2.242l.02.534-3.208.12-.288-.69 3.476.036zm.074 1.888l.037.945-2.373.04-.37-.885 2.706-.1zm-3.204 9.083l.003.18.788-.014-.987.81.196-.976zm2.34-1.105l-.003-.11-2.102.034.09-.44 2.547.078-.532.438zm18.38-7.97c.007.004.016.005.025.01l-1.163 9.02-4.715-12.354 5.853 3.323zM7.47 203.1l3.093-2.27 1.39 1.795.535-.414-1.38-1.78 1.672-1.227 1.494 1.494.48-.48-1.42-1.42 1.6-1.173 1.59 1.593.48-.48-1.52-1.518 1.02-.748 1.643 1.642.48-.48-1.57-1.568 1.493-1.094 1.762 1.763.48-.48-1.69-1.688 1.803-1.323 1.708 1.708.48-.48-1.635-1.633 1.958-1.436 9.39 15.13-7.335-2.843a.672.672 0 0 0-.51.01l-17.033 7.242-.456-7.844zm.19-15.71l14.358 3.36L6.734 201.96l-5.223-3.107 6.15-11.462zm-4.93 13.764l-1.035.41a33.03 33.03 0 0 1-.18-1.134l1.216.724zm1.473.876l1.048.624-3.05 1.262c-.088-.34-.167-.674-.238-1l2.24-.886zM2.57 205.23l3.58-1.48.056.95-3.384 1.285a21.57 21.57 0 0 1-.253-.755zm3.72.888l.044.768-2.77.88c-.084-.17-.165-.344-.244-.52l2.97-1.128zm.125 2.164l.04.667-1.82.545a7.668 7.668 0 0 1-.38-.526l2.16-.688zm.12 2.058l.04.706a3.993 3.993 0 0 1-.837-.467l.797-.24zm64.838-86.453l-4.486 6.663-2.67-21.632 7.156 14.97zm4.646 17.198a.68.68 0 0 0 .817-.21l6.11-8.08a.67.67 0 0 0 .13-.305l1.6-10.288 6.756 7.997-1.263 14.18a.676.676 0 0 0 .162.503l5.983 6.92-9.17.18-18.166-4.487-1.248-10.11 8.287 3.7zM96.032 162.7l.148 1.032-.38.007.233-1.04zm6.772 37.798l-.376-.678h.222l.153.678zm-1.126-2.033l-.277-.5.83-.02.116.52h-.67zm-1.02-1.837l-.26-.47 1.422-.028.105.467-1.266.03zm-1.003-1.813l-.18-.325 1.974-.014.07.304-1.863.035zm-.93-1.675l-.15-.273.05-.27 2.446-.042.104.568-2.45.017zm2.1-1.937l-1.95.033.1-.552 1.747-.03.102.55zm-1.6-1.88l.147-.8.956-.02.147.798-1.25.024zm.397-2.16l.23-1.252.228 1.242-.458.01zm-3.254-11.466l-.33-.495 1.84-.033.093.5-1.603.027zm1.85 1.323l.37 2.016-1.33-2 .96-.016zm-.63-3.44l.043.237-2.483.045-.325-.488 2.73-.033.034.24zm-3.66-1.55l.117-.52 3.24-.038.075.515-3.432.042zm.423-1.878l.145-.642 2.504-.034.092.644-2.74.032zm.452-2.002l.2-.89 1.677-.03.128.892-2.005.028zm1.683-2.272l-1.176.02.18-.798.882-.016.114.794zm-2.084-2.114h-.01v.047l-1.85 8.203c-.04.18-.005.37.098.524l6.496 9.768-1.092 5.948-5.68-3.078-.02-.06-.055.02-10.43-5.654a.675.675 0 0 0-.453-.07l-8.293 1.606-.937-7.595 4.69-7.36a.677.677 0 0 0 .042-.65l-7.656-16.45 2.567.634 1.824 3.566.604-.308-1.555-3.042 2.06.51 1.603 3.308.61-.295-1.36-2.803 2.72.67 2.004 4.72.623-.264-1.807-4.252 2.208.546.828 2.493.643-.213-.693-2.088 2.04.504.886 2.667.643-.213-.75-2.26 1.82.448.832 2.44.642-.22-.54-1.58 7.716 5.327-1.016 4.51zm-18.88 1.88l-3.608 5.663-2.252-18.255 5.86 12.592zm22.09 42.402l6.553 3.008-.528.594-6.373-3.13.346-.472zm.853-1.1l1.5-.32 4.747 2.36.208.923-6.455-2.964zm3.63-.775l1.894-.403.342 1.514-2.234-1.11zm-6.32-48.32l-6.595-4.55 7.85-.155-1.256 4.706zM84.924 93.94l-5.743-6.986 1.153-1.798a.68.68 0 0 0 .1-.268l.79-5.41c.4 1.112.798 1.975 1.18 2.43.748.9 1.673 5.973 2.52 12.032zM73.957 50.37l-7.727-1.895 2.406-6.103c.15.73.384 1.452.74 2.127 1.173 2.22 3.124 4.405 4.58 5.87zM54.564 9.302l.097.272-1.792 3.36.598.318 1.502-2.815c.195.544.437 1.222.714 1.99l-.95 1.86.604.31.662-1.298.354.98-1.246 2.442.604.308.958-1.878.49 1.346-.65 1.276.603.308.366-.715c.16.434.32.868.477 1.3l-.517 1.012.604.307.233-.456c.138.374.275.74.41 1.1l-.776 1.377.59.332.496-.883c.1.267.2.526.295.778l-.924 1.81.604.308.647-1.268c.252.65.477 1.215.667 1.674l-.89 1.74.605.31.635-1.245c.07.152.13.268.174.337a.67.67 0 0 0 .07.09l8.332 9.237c-.17.538-.458 1.58-.635 2.85-2.836-1.896-11.266-7.544-12.786-8.726-1.412-1.1-4.868-7.184-6.17-9.6L48.54 2.44l2.37 2.396 3.654 4.466zM40.6 15.666l1.543 2.415.57-.364-1.704-2.666.215-.324a.828.828 0 0 0 .038-.064l.125-.24 1.004 1.52.565-.372-1.212-1.838.614-1.184 1.513 2.37.57-.366-1.725-2.698.546-1.053 1.02 1.595.57-.365-1.23-1.923 3.6-6.946 1.014 16.316-13.342 4.74 3.074-4.61 1.02 1.548.565-.373-1.178-1.785.78-1.17.848 1.284.565-.374-1.004-1.524 1.033-1.546zM18.546 103.5l.404-4.038.242-.21.71 1.517.614-.288-.792-1.69.896-.78.773 1.652.614-.287-.855-1.827.965-.84.834 1.782.615-.287-.916-1.957.78-.678 5.31 12.64-3.52 7.864-8.035 5.076 1.362-17.65zm-7.57 68.676c.015-.02.022-.046.033-.068l.006.003 3.407-6.595c.104-.2.1-.44-.01-.64l-2.963-5.357 2.243-1.842 1.378 1.756.534-.418-1.387-1.768 2.2-1.806c.04-.033.06-.08.09-.12l.015.01.09-.116.866 1.106.533-.418-.973-1.242 1.725-2.24 1.32 1.684.534-.418-1.427-1.82 1.304-1.693.825 1.052.532-.418-.932-1.188 1.76-2.286 1.455 1.856.533-.418-1.562-1.992 2.065-2.68 5.857 15.342-.443 3.433L8.93 175.25l2.048-3.074zm-4.818 12.49l.43 1.85-2.693 5.02 2.262-6.87zm22.025 28.43a.675.675 0 0 0 .035-.52l-.62-1.836 3.804 4.645-6.392 3.49c1.19-1.905 2.34-4.098 3.173-5.78zm-7.992 13.974c-.108-1.794.044-3.62.334-4.087.142.06.293.092.452.092.64 0 1.433-.67 2.274-1.696l4.223-2.306-5.18 10.7-2.104-2.704zm40.9 10.275l-.202-2.918.566-.2.224 3.236-.166-.032-.422-.085zm22.318-14.138l-9.608-.707.582-9.276 9.027 9.983zm-10.2-11.947a.67.67 0 0 0-.07.275h-.007l-.68 10.84-21.517-2.408a.61.61 0 0 0-.18.005l-10.132 1.606h-.003l-9.424 1.494 3.795-14.55.106 1.515.676-.046-.148-2.148 1.275-1.003.124 1.8.676-.046-.157-2.262 1.325-1.043.13 1.9.677-.047-.163-2.36.917-.72.146 2.12.676-.046-.18-2.58.826-.65.138 1.986.676-.046-.17-2.447 1.235-.97.104 1.503.677-.046-.136-1.965 3.29-2.587a.676.676 0 0 0 .025-1.045l-3.754-3.255 1.69-1.23.13 1.89.676-.046-.16-2.317 1.68-1.225.1 1.45.675-.045-.13-1.876 1.206-.88.136 1.97.676-.047-.166-2.393 1.046-.763.11 1.577.675-.045-.14-2.002 1.04-.758h.176l.132 1.926.676-.045-.13-1.88h1.19l.106 1.517.676-.046-.102-1.47h1.276l.125 1.804.675-.046-.122-1.758h1.477l.54 4.76h9.963l5.214 16.042a36.085 36.085 0 0 0-1.887 3.162zm6.218-7.008c-.362 0-.74.14-1.126.366l2.506-5.316 9.037 10.548c-3.637-2.257-8.697-5.285-10.103-5.567a1.555 1.555 0 0 0-.314-.03zm22.703 9.09l-1.18-.16-4.972-2.9.477-.652 6.25 3.07-.574.643zM55.966 50.133l.662.145-1.385 6.35-.662-.143 1.385-6.35zm-3.71 1.105l.662.144-1.385 6.352-.662-.144 1.385-6.35zm3-3.032l-1.385 6.35-.662-.143 1.385-6.35.662.143zM32.71 117.12l1.17-4.01.488.142-1.17 4.01-.487-.142zm-2.644.84l-.488-.143 1.17-4.01.487.143-1.17 4.01zm1.975-2.006l-.487-.142 1.17-4.01.487.14-1.17 4.012zm45.874 11.76l1.23-5.64.496.11-1.23 5.64-.496-.11zm-1.57-4.55l-1.23 5.64-.496-.11 1.23-5.64.496.11zm.847 2.82l-.495-.11 1.23-5.64.496.108-1.23 5.64zm-17.227 75.562l.662.144-2.227 10.215-.662-.144 2.227-10.214zm-4.743 1.374l.662.144-2.227 10.215-.662-.145 2.227-10.215zm3.996-4.963l-2.227 10.215-.663-.144 2.227-10.215.662.144zm-22.51-.008l-.942 4.313-.662-.144.94-4.315.663.144zm-2.915-2.113l.663.144-.94 4.315-.662-.144.94-4.313zm1.504 2.89l-.662-.144.94-4.314.662.143-.94 4.314zm49.613-56.418l.662.143-.94 4.315-.663-.144.94-4.315zm-2.53 2.49l-.663-.144.94-4.314.662.144-.94 4.314zm1.78-1.568l-.66-.144.94-4.314.66.144-.94 4.314zm-63.43 40.374l1.5-5.872.657.168-1.5 5.872-.657-.168zm-2.538.958l-.658-.168 1.5-5.872.657.168-1.5 5.872zm2.246-2.936l-.657-.168 1.5-5.872.656.168-1.5 5.872zm2.972-18.484l1.84-7.208.658.168-1.84 7.208-.658-.168zm-3.266 1.138l-.657-.168 1.842-7.208.657.168-1.842 7.208zm2.758-3.605l-.657-.168 1.84-7.21.658.17-1.84 7.207zm62.425 3.09l.657.168-2.012 7.878-.657-.168 2.012-7.878zm-4.285 1.06l.657.167-2.013 7.878-.657-.168 2.013-7.878zm3.67-3.77l-2.013 7.877-.657-.168 2.013-7.878.657.168z"/></svg>