<svg xmlns="http://www.w3.org/2000/svg" width="440.966" height="1000" viewBox="-193.167 -438.057 440.966 1000"><path fill="#FFF" d="M247.735 433.129l-15.433-68.585-8.838-48.131c0-.008-.008-.016-.008-.016l-6.586-35.886-8.508-59.536 6.724-25.208c.121-.452.121-.928.016-1.388L172.208 17.674c-1.154-12.083-10.679-109.225-19.509-119.831-2.163-2.599-4.77-10.001-7.434-19.671-4.665-16.902-9.525-40.762-12.551-58.148l-6.869-44.459a2.616 2.616 0 0 0-.331-.944c0-.008 0-.008-.008-.016-.024-.04-.065-.065-.089-.097a2.746 2.746 0 0 0-.533-.654c-.178-.145-17.717-15.28-25.531-30.091-7.466-14.15.081-35.297.153-35.507a2.812 2.812 0 0 0-.557-2.841l-35.442-39.301c-2.405-4.286-16.757-43.708-25.385-67.955a2.707 2.707 0 0 0-.476-.839L22.02-421.761 6.756-437.219a2.805 2.805 0 0 0-4.495.678l-29.316 56.542-30.826 46.242c-.057.081-.073.178-.113.266-.032.065-.097.105-.121.178-.032.065-.024.137-.04.202-.032.089-.089.161-.105.25l-29.171 118.33-20.607 66.978a2.56 2.56 0 0 0-.105.549L-121.89-9.559l-10.679 138.429-19.824 32.052a2.817 2.817 0 0 0-.202 2.559l8.257 19.816-7.725 38.607-.694 3.487a2.61 2.61 0 0 0-.056.549v47.235l-16.7 25.054a2.808 2.808 0 0 0-.476 1.558v16.724l-23.045 69.989a2.84 2.84 0 0 0-.129 1.106c.178 2.187 4.464 51.449 29.51 55.525.024.008.04.008.057.016 1.065.17 2.155.291 3.293.291.234 0 .468-.032.694-.089l71.426-18.242 6.296 18.645c-6.473 12.923-13.455 24.635-18.46 31.342l-.032.016.008.016c-2.51 3.358-4.528 5.473-5.715 5.804-2.139-.952-4.343-.517-5.876 1.146-4.004 4.302-3.35 18.169-3.051 22.31.04.557.242 1.09.581 1.526l10.663 13.706-5.489 6.853a2.822 2.822 0 0 0 .153 3.689l29.195 30.914c.048.048.105.065.153.105.186.178.387.315.622.436.097.048.186.097.283.137.065.024.113.065.178.081.266.081.533.113.799.113.226 0 .452-.032.678-.081h.008l61.118-15.28 18.185 4.964a2.843 2.843 0 0 0 1.493-.008l23.819-6.683 33.271 6.732 53.241 10.307c.129.024.266.024.396.024.048.008.089.024.137.024.032 0 .056-.016.081-.016a3.13 3.13 0 0 0 .557-.081c.057-.016.121-.008.178-.024.016-.008.024-.016.032-.016.137-.04.258-.113.387-.178.089-.048.194-.081.274-.129.097-.065.186-.153.274-.226.097-.081.194-.145.274-.242l.024-.024 29.195-32.626c.202-.226.363-.484.484-.751l15.675-36.064c.024-.04.024-.089.04-.137.048-.121.073-.25.105-.387s.057-.274.065-.412c.008-.129 0-.25-.008-.387a2.624 2.624 0 0 0-.065-.436c-.016-.057-.008-.113-.024-.178-.024-.065-.065-.121-.089-.186-.057-.137-.113-.274-.194-.404-.065-.105-.129-.21-.21-.315-.04-.057-.065-.121-.113-.178l-45.258-50.052c6.586-12.011 15.74-24.312 20.066-24.312h.008c5.917 1.178 36.556 19.929 55.71 32.238.057.04.129.04.186.073.186.097.371.153.573.21.129.04.25.121.379.137L230.86 452a2.825 2.825 0 0 0 2.478-.92l13.738-15.457c.618-.685.86-1.614.659-2.494zm-46.42 4.956l9.395 5.481-12.18-1.663 2.785-3.818zm-8.015 1.445l-50.084-58.455a2.803 2.803 0 0 0-4.673.629l-16.821 35.677-19.307-59.423h13.108l-4.956-40.14 7.959-1.542 6.562 12.834 2.502-1.275-6.191-12.107 9.88-1.913 5.279 10.881 2.526-1.219-4.948-10.219 8.306-1.606 8.524 20.05 2.583-1.098-7.91-18.605 13.213 7.16 2.551 7.692 2.664-.88-1.614-4.851 7.797 4.23 4.472 13.455 2.664-.88-3.527-10.622 14.844 8.047 2.978 8.725 2.664-.904-1.994-5.852 19.8 10.727-2.438 13.286c-.113.638-.016 1.3.299 1.873l25.676 46.347-23.198 4.956a2.758 2.758 0 0 0-1.679 1.09L193.3 439.53zM26.532 332.613a2.84 2.84 0 0 0-1.655.541l-40.108 29.252-6.95-6.021 10.437-97.844h55.678l8.395 74.081-25.797-.009zm-76.172 86.9l-42.368-68.254 13.649-21.511-3.64 28.21h53.055l27.371 23.731-48.067 37.824zm-20.115 72.362a2.82 2.82 0 0 0 2.082.92c.145 0 .291-.016.436-.04l24.312-3.858-51.231 24.675 23.367-48.252 7.757-4.23-7.345 28.178a2.785 2.785 0 0 0 .622 2.607zm51.876-6.934l.436 6.288 2.801-.194-.452-6.538 3.689-.581.492 7.087 2.801-.194-.509-7.337 3.769-.597.468 6.732 2.801-.194-.484-6.982 3.382-.533.5 7.216 2.801-.194-.517-7.458 13.601-2.155 18.137 2.026-.654 11.341 2.801.161.646-11.187 8.338.936.718 10.388 2.801-.194-.686-9.88 8.209.92.735 10.646 2.801-.194-.702-10.138 9.25 1.033.694 9.985 2.801-.194-.654-9.476 10.872 1.219.678 9.88 2.801-.194-.646-9.371 8.775.986.662 9.565 2.801-.194-.63-9.056 8.209.912.678 9.831 2.801-.194-.646-9.315.129.016.008-.024c.04.008.065.024.105.032l6.869.509.718 10.412 2.801-.194-.694-10.017 7.563.557.517 7.499 2.801-.194-.492-7.095 7.103.525.565 8.201 2.801-.194-.541-7.805 12.245.896-29.623 22.883a2.781 2.781 0 0 0-1.017 1.598l-8.346 36.524-33.352-31.6a2.797 2.797 0 0 0-2.865-.605l-48.946 17.362L4.69 524.29a2.807 2.807 0 0 0-3.358.266l-17.984 15.869-35.12-13.585 22.867-32.529.25 3.656 2.801-.194-.492-7.119 2.002-2.849.331 4.811 2.801-.194-.476-6.885 3.809-.596zm163.08 30.979l-7.838-4.972 1.743-1.348 6.95 4.351-.855 1.969zm-75.567 13.988l1.243 17.903-2.68-.517-1.138-16.466 2.575-.92zm5.497-1.945l1.735-.622 1.098 1.041 1.461 21.083-2.841-.549-1.453-20.953zm8.863 6.135l2.712 2.575.993 14.4-2.575-.5-1.13-16.475zm8.749 8.289l1.63 1.55.589 8.548-1.671-.331.129-.008-.677-9.759zm7.652 7.256l5.15 4.883-4.875-.944-.275-3.939zm20.01-3.85l1.348.977-2.115 2.365.767-3.342zm1.356-5.948l.646-2.801 5.158 3.229-2.042 2.276-3.762-2.704zm1.961-8.597l.646-2.801 8.79 5.578-1.8 2.01-7.636-4.787zm1.97-8.612l.557-2.422 12.293 7.797-1.582 1.768-11.268-7.143zm4.81-6.377l2.131-1.647 10.299 6.53-1.025 2.357-11.405-7.24zm13.351-10.315l2.341-1.808 3.148 2.268-1.017 2.341-4.472-2.801zm6.974-5.392l1.59-1.227-.783 1.8-.807-.573zm-249.228 21.317l65.429-31.512-42.376 60.287-.702-20.179a2.812 2.812 0 0 0-2.575-2.704l-22.956-1.921 3.18-3.971zm1.848 10.033l-1.647 1.59-1.768-1.881 3.415.291zm7.45.622l3.035.25-6.853 6.312-1.429-1.509 5.247-5.053zm7.628 3.656l.137 4.108-4.795 5.989-2.938-3.108 7.596-6.989zm.444 12.729l.097 2.865-1.291-1.372 1.194-1.493zm12.527 1.76l.218 3.148-2.954.735 2.736-3.883zm5.134-7.297l2.308-3.285.743 11.744-2.421.605-.63-9.064zm7.474-10.63l.823-1.17 1.396.541 1.122 17.782-2.22.557-1.121-17.71zm7.983 1.598l2.607 1.009.791 12.535-2.502.63-.896-14.174zm8.378 3.236l2.131.823.525 7.571-2.091.525-.565-8.919zm7.91 3.068l6.304 2.438-6.03 1.509-.274-3.947zm25.265-1.784l.323 4.617-4.238-1.154 3.915-3.463zm5.303-4.682l2.01-1.768.622 13.149-1.881-.509-.751-10.872zm7.619-2.074l4.569 2.898.581 8.394-4.552 1.283-.598-12.575zm10.461 6.643l3.463 2.195-3.253.912-.21-3.107zm26.403.46l.218 3.172-5.836-1.178 5.618-1.994zm5.496-1.953l4.795-1.703.622 8.984-4.98-1.009-.437-6.272zm-108.926-87.779l-24.183-29.526-.008.008c-.67-.823-1.776-1.235-2.857-.944l-45.758 11.688 44.257-18.815 34.837 13.496-6.288 24.093zm-94.761-155.468l5.602 9.371 2.405-1.445-5.569-9.323 8.483-4.851 5.327 6.788 2.212-1.735-5.077-6.465 10.727-6.126 5.941 7.579 2.212-1.735-5.69-7.248 11.413-6.522 5.351 6.821 2.212-1.735-5.085-6.498 11.034-6.304 6.538 8.338 2.212-1.735-6.288-8.015 10.477-5.989 4.512 5.755 2.212-1.735-4.262-5.432 20.575-11.752-9.363 72.564-19.977 31.463-63.911-14.957-3.818-16.442v-16.006l1.243-1.865 8.352-4.764zm30.365-97.812l-2.413-61.49 34.627 19.671-32.214 41.819zm-22.794 63.144l1.647-.057-1.647 3.188v-3.131zm4.601-5.771l-4.601.145v-2.72l5.981-.105-1.38 2.68zm-4.601-8.193v-2.712l5.812-.121 1.493 2.704-7.305.129zm0-8.322v-5.004l2.736 4.948-2.736.056zm24.723-165.977l10.856-6.861-11.672 17.37.816-10.509zm8.669-105.028l2.543-25.426 23.779 2.543-26.322 22.883zm21.705-146.298l2.567 8.08-8.491 11.155 5.924-19.235zm20.881-76.608l11.26 3.479-19.315 29.211 8.055-32.69zm16.402-66.583l7.014 16.192-13.859 11.583 6.845-27.775zm12.446-10.461l5.077 15.263 2.664-.888-5.093-15.32 5.045-1.792 3.786 11.389 2.664-.888-3.802-11.438 5.626-2.002 5.981 18.016 2.664-.888-6.005-18.064 4.213-1.493 3.14 9.452 2.664-.888-3.156-9.5 5.666-2.018 4.117 12.406 2.664-.888-4.141-12.463 6.094-2.163 3.995 11.704 2.664-.904-4.004-11.736 8.217-2.922c4.472 8.193 19.114 34.45 26.217 39.987.751.581 1.897 1.421 3.326 2.438l-35.34 34.79-44.701-33.522-9.678-22.318 9.436-3.35zm93.688 33.675l3.995 10.186 2.615-1.025-2.494-6.36c1.929 1.308 3.899 2.647 5.876 3.979l3.229 8.233 2.615-1.025-1.743-4.431c1.429.961 2.841 1.921 4.238 2.857l1.832 5.82 2.68-.848-.783-2.47c7.264 4.875 13.504 9.048 16.531 11.074L74.93-236.212c-.097.242-.097.5-.121.751l-.056-.008-3.713 37.146L49.077-186.7 46.534-143l-57.817 13.278 2.308-35.814 11.744-35.669-4.641-16.862 14.585-26.168-6.74-25.926 3.947-3.891 3.027 6.425 2.543-1.195-3.447-7.313 3.495-3.439 3.826 7.499 2.502-1.275-4.23-8.29 3.713-3.648 6.021 12.882 2.543-1.187-6.449-13.786 5.166-5.093 5.029 10.913 2.551-1.178-5.448-11.825 4.157-4.092 3.503 7.418 2.543-1.195-3.923-8.314 4.367-4.302L46.67-291.3l2.623-1.001-4.835-12.624c2.107 1.437 4.424 3.027 6.862 4.698zM88.473-229.6l3.067 8.403 2.639-.961-2.421-6.635 5.892 1.445 2.841 7.789 2.639-.961-2.195-6.021 6.28 1.542 2.607 7.143 2.639-.961-1.961-5.376 8.992 2.204-17.144 55.113c-.081.25-.121.517-.121.783l-.557 29.211-42.925 34.595-.88-7.111H-21.68l-6.869 53.24-30.438-3.261 19.445-50.254 2.954 6.304 2.543-1.187-3.737-7.975 4.076-1.824 2.874 6.143 2.543-1.187-2.849-6.094 6.021-2.696 2.43 5.19 2.543-1.187-2.405-5.15 7.902-3.535 3.592 7.684 2.543-1.187-3.455-7.369 8.435-1.937 2.647 5.642 2.543-1.187-2.389-5.101 7.418-1.703 2.736 5.852 2.543-1.187-2.486-5.311 14.077-3.237 3.963 8.467 2.543-1.187-3.705-7.918 10.606-2.438-.823.387 4.544 9.71 2.543-1.187-4.375-9.339 11.22-2.575 2.865 6.11 2.543-1.187-3.471-7.418.533-9.202 1.679 3.592 2.543-1.187-3.882-8.298.46-7.902 3.213 5.44 2.421-1.429-5.335-9.032.476-8.201 2.333 6.53 2.647-.944-4.343-12.164 3.971-2.107 2.882 8.814 2.672-.872-3.035-9.274 3.447-1.824 2.042 5.707 2.647-.944-2.179-6.086 4.375-2.317 2.704 7.555 2.647-.944-2.833-7.934 2.244-1.187.638-6.352 1.542 4.302 2.647-.944-3.535-9.88.63-6.272 1.743 4.891 2.647-.944-3.737-10.469.751-7.555 3.003 8.403 2.647-.944-3.866-10.816 7.024 1.677zm83.211 268.939l-5.868.121 3.293-10.719 2.575 10.598zm24.513 131.826l-1.727-2.002 8.483-.525-.048-.67.662 2.712-7.37.485zm8.71 5.069l1.695 6.982-5.804-6.716 4.109-.266zm-3.181-13.141l-11.873.735-1.647-1.913 13.052-.775.468 1.953zm-15.166-6.699l.194-2.155 12.64-.751.517 2.115-13.351.791zm.694-7.814l.234-2.672 9.904-.605.646 2.639-10.784.638zm.743-8.338l.331-3.705 6.837-.444.888 3.656-8.056.493zm.839-9.363l.291-3.309 3.899-.274.791 3.261-4.981.322zm.799-8.976l.565-6.296 1.493 6.151-2.058.145zm-5.4-30.865l-8.047-9.525h5.739l2.308 9.525zm-12.793-15.143l-3.035-3.592 11.244-.137.904 3.729h-9.113zm-7.733-9.153l-2.179-2.575 16.127-.218.638 2.615-14.586.178zm-78.593 44.814l23.101-34.313a2.83 2.83 0 0 0 .444-1.219h.016l6.845-54.096 1.001 2.131 2.543-1.187-2.882-6.159 1.275-10.057 2.518 5.376 2.543-1.187-3.979-8.499 2.212-6.804 5.061 10.364 2.526-1.235L122.003-8.3l3.907-12.035 4.205 8.37 2.51-1.259-5.481-10.913 2.551-7.894 3.955 7.886 2.51-1.259-5.238-10.42 1.921-5.9 4.633 9.573 2.526-1.219-3.85-7.951 4.383.807 25.902 58.858-13.157 42.788c-.04.129-.048.266-.073.396l-.024-.008-7.466 48.026-23.545 31.14L86.77 124.89l-1.654-13.334zM64.21-57.949l25.256 6.409L71.135-1.835 64.21-57.949zm40.762 10.348l2.922 6.917 2.591-1.09-2.099-4.964 3.891.985c.065.016.121.016.186.024l-.008.016 2.567.476 2.357 4.746 2.518-1.251-1.421-2.865 8.847 1.63L113.286.24l-15.03-8.589a2.809 2.809 0 0 0-2.462-.161L76.664-.64l9.234-25.03 1.187 2.389 2.518-1.251-2.373-4.77 2.454-6.651 2.349 5.012 2.543-1.187-3.519-7.531 3.116-8.451 5.618 12.301 2.559-1.17-5.836-12.785 8.458 2.163zM96.674-2.779l15.215 8.693-7.579 59.924L75.647 5.874l21.027-8.653zm63.266 61.352l1.017-3.301 14.553-.178.791 3.261-16.361.218zm2.752-8.951l1.388-4.512 8.968-.194 1.106 4.56-11.462.146zM164.847.764L147.21-39.312l13.205 2.43A1679.421 1679.421 0 0 1 164.847.764zm-47.251-51.238l14.246-22.205 24.053 29.252-38.299-7.047zm-5.893-1.211L63.467-63.922l-3.923-31.81 4.012-3.229 3.842 8.193 2.543-1.187-4.125-8.822 7.918-6.385 3.568 7.612 2.543-1.187-3.858-8.233 6.175-4.972 7.474 13.56 2.462-1.356-7.716-13.996 5.965-4.803 3.519 7.523 2.543-1.187-3.818-8.152 3.81-3.075 2.51 5.36 2.543-1.187-2.801-5.989 4.262-3.439 3.971 8.475 2.543-1.187-4.117-8.798 34.087 12.769-4.649 31.81-23.047 35.929zm7.685-151.053l4.108-.089.363 2.373-5.222.113.751-2.397zm-7.281 23.4h15.013l.04.274c.097.565.266 1.509.484 2.712h-16.466l.929-2.986zm4.778 32.787v.299h.242c4.972 6.175 10.429 12.826 15.005 18.097l-24.836-9.299.396-20.647c2.486 3.155 5.706 7.215 9.193 11.55zm15.45 9.976l3.398-.073c.436 1.889.888 3.761 1.34 5.618a327.256 327.256 0 0 1-4.738-5.545zm-4.577-5.52a654.06 654.06 0 0 1-3.398-4.157h9.226c.283 1.332.581 2.672.88 4.012l-6.708.145zm-7.934-9.783c-.783-.977-1.558-1.937-2.317-2.89h14.287c.194.952.396 1.913.597 2.89h-12.567zm10.84-8.5h-17.612c-.759-.969-1.493-1.897-2.187-2.777l19.219-.202c.184.969.378 1.962.58 2.979zm-21.85-8.37l.622-1.986h19.243c.105.573.218 1.162.331 1.784l-20.196.202zm5.037-16.208l.622-2.002 11.446-.161.331 2.155c-.001.008-12.399.008-12.399.008zm2.381-7.644l.646-2.082 7.846-.17.331 2.131-8.823.121zm6.392-15.828l-1.477.032.993-3.188.484 3.156zM37.307 200.876H-5.109L16.103-29.206l21.204 230.082zm-94.268-36.871l-32.27-74.655 9.67-.71-.379 6.498 2.801.17.396-6.861 5.973-.436-.509 8.806 2.801.17.533-9.169 5.117-.371-.274 4.69 2.801.17.331-5.691c.202-.186.379-.387.525-.63l4.165-7.103.105 6.272 2.809-.048-.178-10.897 9.186-15.683-13.603 105.478zm-69.925-35.798l2.72-35.241 1.501-2.236-.258 4.407 2.801.17.533-9.153 2.51-3.737-.186 3.148 2.801.17.452-7.894 3.406-5.077-.226 3.891 2.801.17.5-8.637 2.841-4.23.137 8.395 2.809-.048-.105-6.417 5.731 21.68c.04.137.121.25.178.379l-.04.016 33.118 76.632-64.024-36.388zm16.184-193.17l1.566-15.643.864-.387 3.285 6.611 2.518-1.251-3.237-6.506 5.279-2.373 3.35 7.16 2.543-1.187-3.334-7.119 4.786-2.139 5.263 11.534 2.559-1.162-5.255-11.518 5.569-2.494 2.962 7.014 2.591-1.09-2.987-7.071 7.305-3.269 9.282 35.701-44.909-4.811zm10.291-59.141l-4.383.097.21-2.082 3.592-.081.581 2.066zm-4.948 5.731l6.53-.137.557 1.961-7.273.129.186-1.953zm13.649 4.407l-9.177-32.496 11.841-1.187 4.165 8.887 2.543-1.187-3.745-7.991 7.111-.71 3.632 7.757 2.543-1.187-3.213-6.869 14.892-1.493 3.882 8.281 2.543-1.187-3.463-7.394 3.027-.299a3.38 3.38 0 0 0 .581-.121l6.013-1.945 4.447 9.5 2.543-1.187-4.302-9.186 10.792-3.487 3.213 6.869 2.543-1.187-3.067-6.554 17.741-5.739-2.397 36.088-87.601 39.204 12.664-23.061c.362-.642.451-1.4.249-2.119zm7.975-58.511l-4.827-15.191 6.369-1.614 3.301 10.259 2.672-.864-3.245-10.09 8.62-2.187 4.48 9.565 2.543-1.187-4.238-9.072 9.751-2.47 3.769 8.055 2.543-1.187-3.543-7.571 8.564-2.171 3.592 7.668 2.543-1.187-3.358-7.184 8.023-2.034 3.656 7.805 2.543-1.187-3.43-7.321 6.966-1.76 3.753 8.015 2.543-1.187-3.519-7.523 18.524-4.69 2.05 7.458-10.178 30.898-42.723 13.819-41.48 4.165 13.294-17.475a2.823 2.823 0 0 0 .442-2.555zm37.88 63.548l-16.03 41.432-7.975-30.68 24.005-10.752zm-16.272-150.996l23.916-5.134a2.787 2.787 0 0 0 1.429-.799l.638 2.349 2.712-.735-1.09-4.012 3.027-3.221 1.138 3.495 2.672-.872-1.614-4.964 2.292-2.438 1.485 4.383 2.664-.904-1.969-5.795 3.891-4.149 2.567 9.767 2.712-.71-2.526-9.629 5.989 4.496 1.267 5.981 2.744-.581-.597-2.841 9.161 6.869L6.038-247.6l-33.191-1.526-34.974-10.799zm-1.8-26.524l19.638-16.41 20.276 15.207-16.232 17.289-29.187 6.255 5.505-22.341zm-19.929 79.409l6.49-9.807.807 2.333 2.656-.912-1.501-4.375 2.986-4.512 3.487 7.369 2.543-1.203-4.221-8.911 4.875-7.377 2.026 5.004 2.607-1.049-2.744-6.796 3.721-5.626 3.326 7.006 2.534-1.203-4.052-8.532 3.963-6.005.331.097-.242.097 3.931 10.081 2.615-1.017-3.196-8.201 6.506 2.01 3.253 8.209 2.615-1.033-2.421-6.11 9.476 2.93.565 2.97 2.76-.525-.283-1.509c.226.073.46.113.702.121l32.819 1.509-12.947 23.23 1.259 4.585-81.362 20.591 4.116-13.439zm-18.718 75.284l-1.453.032.379-3.818 1.074 3.786zm-3.544 20.962l7.248-.129-1.647 2.995-5.908.194.307-3.06zm-.871 8.693l3.334-.105-4.06 7.386.726-7.281zm19.234 52.958l2.865 6.126 2.543-1.187-3.204-6.853 4.383-3.81 3.277 6.998 2.543-1.187-3.188-6.812 8.394.896 3.471 7.41 2.543-1.187-2.744-5.868 7.458.799-.097.048 4.544 9.71 2.543-1.187-3.85-8.225 8.193.88 4.004 8.54 2.543-1.187-3.277-6.998 12.019 1.291-37.609 55.601-21.196-50.432 3.842-3.366zm19.114 61.288l-.21 3.616 2.801.17.492-8.435 6.191-9.145-.274 4.73 2.801.17.549-9.444 3.479-5.15-.323 5.513 2.801.17.597-10.235 6.191-9.145.137 9.533 2.809-.04-.194-13.56 3.471-5.134.541 6.925 2.801-.218-.815-10.445 4.819-7.119-11.527 89.328-22.027 37.606-27.719 2.034-7.361-27.855 13.706-8.661a2.806 2.806 0 0 0 1.065-1.227l15.199-33.982zm-70.013 171.418c.024-.097.008-.202.016-.307l8.104-.145.21 5.255-9.355.371 1.025-5.174zm-2.172 10.84l10.711-.428.21 5.311-11.825-.371.904-4.512zm8.645-53.095l-1.485.024 1.404-2.26.081 2.236zm-4.996 5.698l5.222-.089.145 3.713-7.7.145 2.333-3.769zm-5.852 9.452l11.438-.21.153 3.882-13.762-.145 2.171-3.527zm11.809 9.291l.089 2.212-13.302.5-1.195-2.865 14.408.153zm.306 7.829l.153 3.915-9.839.178-1.526-3.673 11.212-.42zm-13.278 37.646l.016.743 3.269-.057-4.092 3.358.807-4.044zm9.695-4.585l-.008-.452-8.709.137.363-1.824 10.558.331-2.204 1.808zm76.18-33.037c.032.024.073.024.105.048l-4.827 37.38-19.541-51.198 24.263 13.77zm-103.882 230.163l12.818-9.403 5.755 7.434 2.22-1.719-5.715-7.386 6.925-5.085 6.191 6.191 1.986-1.986-5.884-5.892 6.635-4.859 6.595 6.603 1.986-1.986-6.288-6.296 4.23-3.1 6.804 6.804 1.986-1.986-6.498-6.506 6.183-4.536 7.305 7.305 1.986-1.986-7.006-6.974 7.466-5.481L-99.44 370l1.986-1.986-6.772-6.772 8.112-5.949 38.921 62.708-30.406-11.776a2.787 2.787 0 0 0-2.115.04l-70.603 30.018-1.882-32.518zm.775-65.114l59.512 13.924-63.346 46.46-21.648-12.874 25.482-47.51zm-20.422 57.05l-4.294 1.703a135.005 135.005 0 0 1-.751-4.698l5.045 2.995zm6.102 3.633l4.343 2.583-12.648 5.23a127.88 127.88 0 0 1-.985-4.141l9.29-3.672zm-6.772 13.253l14.844-6.134.226 3.939-14.029 5.327a89.704 89.704 0 0 1-1.041-3.132zm15.417 3.681l.186 3.18-11.478 3.648a59.539 59.539 0 0 1-1.009-2.163l12.301-4.665zm.525 8.975l.161 2.769-7.547 2.26a34.467 34.467 0 0 1-1.574-2.179l8.96-2.85zm.492 8.524l.17 2.93a16.674 16.674 0 0 1-3.471-1.937l3.301-.993zM102.663 75.435l-18.597 27.613-11.058-89.652 29.655 62.039zm19.259 71.289a2.83 2.83 0 0 0 3.39-.872l25.329-33.489c.283-.371.468-.807.533-1.267l6.635-42.642 28.009 33.142-5.238 58.778a2.825 2.825 0 0 0 .67 2.091l24.796 28.687-38.009.743-75.292-18.605-5.166-41.908 34.343 15.342zm82.952 89.587l.613 4.278-1.582.032.969-4.31zm28.065 156.67l-1.558-2.809h.928l.63 2.809zm-4.665-8.427l-1.146-2.066 3.439-.081.484 2.155h-2.777v-.008zm-4.221-7.619l-1.082-1.953 5.892-.113.436 1.937-5.246.129zm-4.157-7.515l-.743-1.348 8.185-.057.283 1.259-7.725.146zm-3.851-6.942l-.63-1.13.21-1.122 10.146-.17.428 2.357-10.154.065zm8.694-8.023l-8.08.137.42-2.284 7.24-.129.42 2.276zm-6.627-7.789l.605-3.317 3.963-.089.605 3.309-5.173.097zm1.646-8.967l.952-5.182.944 5.142-1.896.04zm-13.487-47.518l-1.364-2.05 7.628-.137.379 2.074-6.643.113zm7.668 5.489l1.534 8.354-5.513-8.281 3.979-.073zm-2.615-14.263l.186.985-10.291.186-1.348-2.026 11.316-.137.137.992zm-15.167-6.425l.484-2.147 13.431-.161.307 2.131-14.222.177zm1.752-7.781l.597-2.664 10.38-.137.379 2.672-11.356.129zm1.872-8.298l.831-3.689 6.95-.121.533 3.697-8.314.113zm6.982-9.419l-4.875.089.743-3.309 3.656-.065.476 3.285zm-8.645-8.758h-.048l.008.194-7.66 33.998a2.788 2.788 0 0 0 .404 2.171l26.927 40.487-4.528 24.651-23.545-12.761-.081-.242-.226.081-43.24-23.432a2.792 2.792 0 0 0-1.873-.291l-34.369 6.651-3.882-31.479 19.437-30.511a2.811 2.811 0 0 0 .178-2.696l-31.73-68.181 10.638 2.631 7.555 14.779 2.502-1.275-6.449-12.608 8.532 2.107 6.651 13.714 2.526-1.219-5.634-11.615 11.268 2.785 8.314 19.566 2.583-1.098-7.49-17.62 9.153 2.26 3.43 10.332 2.664-.88-2.873-8.653 8.459 2.091 3.665 11.058 2.664-.88-3.116-9.371 7.547 1.865 3.447 10.106 2.664-.904-2.236-6.546 31.98 22.076-4.216 18.659zm-78.254 7.789l-14.957 23.472-9.331-75.663 24.288 52.191zm91.556 175.752l27.169 12.471-2.187 2.462-26.41-12.971 1.428-1.962zm3.544-4.561l6.215-1.324 19.679 9.775.864 3.826-26.758-12.277zm15.045-3.212l7.846-1.671 1.413 6.272-9.259-4.601zm-26.2-200.282l-27.331-18.863 32.529-.638-5.198 19.501zM158.834-48.691L135.03-77.643l4.778-7.45c.218-.339.355-.718.412-1.114l3.277-22.431c1.655 4.617 3.301 8.193 4.883 10.081 3.109 3.721 6.943 24.748 10.454 49.866zm-45.46-180.586l-32.028-7.854 9.968-25.296c.622 3.027 1.59 6.021 3.067 8.814 4.868 9.21 12.956 18.266 18.993 24.336zM32.989-399.492c.105.307.25.694.404 1.13l-7.434 13.924 2.478 1.324 6.223-11.672c.807 2.252 1.808 5.069 2.962 8.241l-3.939 7.716 2.502 1.275 2.744-5.376c.476 1.316.969 2.672 1.469 4.068l-5.166 10.122 2.502 1.275 3.979-7.781c.662 1.824 1.34 3.697 2.034 5.578l-2.696 5.287 2.502 1.275 1.509-2.962c.662 1.8 1.324 3.6 1.978 5.384l-2.139 4.197 2.502 1.275.969-1.889c.573 1.55 1.138 3.067 1.695 4.552l-3.213 5.707 2.446 1.372 2.058-3.656c.42 1.106.823 2.179 1.219 3.229l-3.826 7.499 2.502 1.275 2.68-5.255a303.898 303.898 0 0 0 2.769 6.942l-3.689 7.224 2.502 1.275 2.631-5.158c.291.63.541 1.114.718 1.396.089.129.178.258.283.371l34.539 38.284c-.702 2.236-1.897 6.554-2.631 11.809-11.752-7.854-46.694-31.261-52.998-36.161-5.852-4.552-20.179-29.776-25.579-39.793l-4.464-71.765 9.823 9.936 15.152 18.526zm-57.882 26.37l6.401 10.009 2.365-1.509-7.063-11.05.896-1.34c.057-.089.105-.178.161-.266l.517-1.001 4.165 6.312 2.341-1.55-5.021-7.62 2.543-4.908 6.272 9.815 2.365-1.509-7.151-11.179 2.26-4.367 4.221 6.611 2.365-1.509-5.093-7.975L2.575-424.95l4.197 67.624-55.299 19.646 12.745-19.106 4.23 6.417 2.341-1.55-4.883-7.402 3.237-4.851 3.511 5.327 2.341-1.55-4.165-6.32 4.277-6.407zM-116.296-9.059l1.671-16.741 1.001-.864 2.946 6.28 2.543-1.187-3.285-7.006 3.713-3.229 3.204 6.845 2.543-1.187-3.543-7.571 4.004-3.479 3.455 7.386 2.543-1.187-3.794-8.112 3.237-2.809 22.019 52.393-14.594 32.593-33.312 21.043 5.649-73.168zm-31.366 284.646c.057-.089.089-.194.129-.283l.024.016 14.125-27.339a2.8 2.8 0 0 0-.04-2.648l-12.285-22.213 9.299-7.636 5.715 7.281 2.212-1.735-5.747-7.329 9.113-7.482c.17-.137.25-.331.379-.5l.057.048.371-.484 3.592 4.585 2.212-1.735-4.036-5.15 7.151-9.282 5.473 6.982 2.212-1.735-5.917-7.547 5.408-7.014 3.422 4.359 2.212-1.735-3.866-4.924 7.297-9.468 6.03 7.692 2.212-1.735-6.473-8.257 8.556-11.115 24.271 63.596-1.832 14.23-89.757 51.295 8.481-12.738zm-19.978 51.772l1.784 7.668-11.155 20.801 9.371-28.469zm91.299 117.83c.331-.67.387-1.437.145-2.147l-2.567-7.612 15.764 19.251-26.491 14.464c4.932-7.894 9.694-16.983 13.149-23.956zm-33.126 57.922c-.444-7.434.186-15.005 1.388-16.942.589.25 1.211.379 1.873.379 2.656 0 5.941-2.785 9.428-7.03l17.507-9.557-21.471 44.354-8.725-11.204zm169.512 42.594l-.831-12.091 2.341-.831.928 13.415-.686-.129-1.752-.364zm92.509-58.601l-39.825-2.93 2.413-38.445 37.412 41.375zm-42.279-49.519c-.194.363-.266.751-.291 1.138h-.032l-2.817 44.927-89.183-9.977a2.361 2.361 0 0 0-.751.024l-41.989 6.659h-.016l-39.067 6.191 15.732-60.303.436 6.28 2.801-.194-.613-8.911 5.287-4.157.517 7.466 2.801-.194-.654-9.379 5.489-4.326.541 7.878 2.801-.194-.678-9.783 3.802-2.987.605 8.79 2.801-.194-.743-10.695h-.008l3.422-2.696.573 8.233 2.801-.194-.702-10.146 5.117-4.028.428 6.231 2.801-.194-.565-8.144 13.633-10.719a2.799 2.799 0 0 0 .105-4.326l-15.562-13.488 6.998-5.101.541 7.838 2.801-.194-.662-9.597 6.958-5.077.412 6.013 2.801-.194-.541-7.773 4.996-3.64.565 8.16 2.801-.194-.654-9.904 4.334-3.164.452 6.538 2.801-.194-.573-8.298 4.31-3.14h.726l.549 7.983 2.801-.194-.541-7.789h4.94l.436 6.288 2.801-.194-.42-6.094h5.287l.517 7.482 2.801-.194-.509-7.289h6.118l2.236 19.727H96.48l21.608 66.494c-3.503 5.219-6.376 10.393-7.813 13.113zm25.773-29.05c-1.501 0-3.075.581-4.665 1.517l10.388-22.036 37.46 43.716c-15.078-9.355-36.048-21.906-41.876-23.077a7.189 7.189 0 0 0-1.307-.12zm94.099 37.687l-4.899-.67-20.607-12.019 1.978-2.704 25.902 12.721-2.374 2.672zM38.8-230.262l2.744.597-5.739 26.322-2.744-.597 5.739-26.322zm-15.376 4.577l2.744.597-5.739 26.322-2.744-.597 5.739-26.322zm12.43-12.568l-5.739 26.322-2.744-.597 5.739-26.322 2.744.597zM-57.583 47.394l4.843-16.619 2.026.589-4.843 16.62-2.026-.59zm-10.969 3.479l-2.018-.589 4.843-16.619 2.026.589-4.851 16.619zm8.192-8.314l-2.026-.589 4.843-16.628 2.026.589-4.843 16.628zm190.136 48.745l5.101-23.384 2.058.452-5.101 23.384-2.058-.452zm-6.514-18.864l-5.101 23.384-2.058-.452 5.101-23.384 2.058.452zm3.511 11.688l-2.058-.452 5.101-23.384 2.058.452-5.101 23.384zM55.372 397.324l2.744.597-9.234 42.336-2.744-.597 9.234-42.336zm-19.663 5.69l2.744.597-9.234 42.336-2.744-.597 9.234-42.336zm16.563-20.566l-9.234 42.336-2.744-.597 9.234-42.336 2.744.597zm-93.3-.033l-3.899 17.879-2.744-.597 3.899-17.879 2.744.597zm-12.083-8.757l2.744.597-3.899 17.879-2.744-.597 3.899-17.879zm6.231 11.978l-2.744-.597 3.899-17.879 2.744.597-3.899 17.879zm205.641-233.843l2.744.597-3.899 17.887-2.744-.597 3.899-17.887zm-10.493 10.323l-2.744-.597 3.899-17.879 2.744.597-3.899 17.879zm7.386-6.497l-2.744-.597 3.899-17.879 2.744.597-3.899 17.879zm-262.91 167.341l6.215-24.336 2.72.694-6.215 24.336-2.72-.694zm-10.517 3.971l-2.72-.694 6.215-24.336 2.72.694-6.215 24.336zm9.307-12.164l-2.72-.694 6.215-24.336 2.72.694-6.215 24.336zm12.325-76.616l7.628-29.873 2.72.694-7.628 29.873-2.72-.694zm-13.544 4.714l-2.72-.694 7.636-29.873 2.72.694-7.636 29.873zm11.437-14.941l-2.72-.694 7.628-29.873 2.72.694-7.628 29.873zm258.736 12.81l2.72.694-8.338 32.65-2.72-.694 8.338-32.65zm-17.757 4.391l2.72.694-8.346 32.65-2.72-.694 8.346-32.65zm15.207-15.627l-8.346 32.65-2.72-.694 8.346-32.65 2.72.694z"/></svg>