<svg xmlns="http://www.w3.org/2000/svg" width="54.632" height="123.887" viewBox="0 0 54.632 123.887"><path fill="#FFF" d="M54.624 107.93l-1.912-8.496-1.095-5.963-.817-4.447-1.054-7.376.833-3.123a.357.357 0 0 0 0-.172L45.268 56.46c-.143-1.497-1.323-13.532-2.417-14.846-.268-.322-.59-1.24-.92-2.437-.58-2.094-1.18-5.05-1.556-7.204l-.85-5.508a.327.327 0 0 0-.042-.117v-.002c-.004-.005-.01-.008-.012-.012a.34.34 0 0 0-.066-.08c-.022-.02-2.195-1.894-3.163-3.73-.924-1.752.01-4.372.02-4.398a.348.348 0 0 0-.07-.352l-4.39-4.87c-.298-.53-2.076-5.414-3.145-8.418a.337.337 0 0 0-.06-.104L26.66 2.018 24.77.103a.348.348 0 0 0-.557.084L20.58 7.192l-3.82 5.73c-.006.01-.008.02-.013.032-.004.008-.012.013-.015.022-.004.008-.003.017-.005.025-.004.012-.01.02-.013.032L13.1 27.692l-2.553 8.298a.314.314 0 0 0-.013.068L8.83 53.086 7.51 70.236l-2.456 3.97a.35.35 0 0 0-.025.318L6.05 76.98l-.957 4.782-.086.432a.32.32 0 0 0-.007.068v5.852l-2.07 3.104a.348.348 0 0 0-.058.193v2.073l-2.855 8.67a.35.35 0 0 0-.016.138c.023.272.554 6.375 3.657 6.88a2.58 2.58 0 0 0 .415.038c.03 0 .058-.004.086-.01l8.85-2.26.78 2.31c-.803 1.6-1.668 3.05-2.288 3.882l-.004.002v.002c-.31.416-.56.678-.707.72a.614.614 0 0 0-.73.14c-.495.534-.414 2.252-.377 2.765a.35.35 0 0 0 .072.188l1.32 1.698-.68.85a.35.35 0 0 0 .02.456l3.617 3.83c.006.006.013.008.02.013.022.022.047.04.076.054l.035.016c.008.003.014.008.022.01a.338.338 0 0 0 .183.004l7.573-1.893 2.254.615c.06.016.125.016.185 0l2.95-.83 4.122.835 6.596 1.277c.016.003.033.003.05.003.005 0 .01.003.016.003l.01-.002a.396.396 0 0 0 .07-.01c.006-.002.014 0 .02-.003.003 0 .004-.002.005-.002.016-.005.03-.014.047-.022l.034-.015c.013-.008.024-.02.035-.028.012-.01.024-.018.034-.03 0 0 0-.002.002-.003l3.617-4.042a.37.37 0 0 0 .06-.093l1.94-4.47c.004-.004.004-.01.006-.016.006-.015.01-.03.013-.048a.3.3 0 0 0 .007-.05v-.05a.335.335 0 0 0-.01-.053c0-.007 0-.014-.002-.022-.003-.007-.008-.014-.01-.022-.008-.017-.015-.034-.025-.05a.44.44 0 0 0-.026-.04c-.005-.006-.008-.014-.014-.02l-5.607-6.202c.816-1.488 1.95-3.012 2.486-3.012.733.146 4.53 2.47 6.902 3.994.007.005.016.005.023.01.023.01.046.018.07.025.017.005.032.015.048.017l4.68.64a.35.35 0 0 0 .308-.115l1.703-1.915a.347.347 0 0 0 .08-.31zm-5.75.615l1.163.68-1.51-.207.346-.473zm-.994.18l-6.205-7.243a.347.347 0 0 0-.58.078l-2.083 4.42-2.392-7.362h1.624l-.614-4.973.986-.19.813 1.59.31-.16-.768-1.5 1.224-.236.654 1.347.313-.15-.613-1.267 1.03-.2 1.055 2.485.32-.136-.98-2.306 1.637.887.316.954.33-.11-.2-.6.966.524.554 1.667.33-.11-.437-1.315 1.84.997.37 1.08.33-.11-.248-.726 2.453 1.33-.302 1.646a.353.353 0 0 0 .037.232l3.18 5.742-2.873.614a.342.342 0 0 0-.208.135l-2.17 2.964zM27.22 95.477a.35.35 0 0 0-.206.067l-4.97 3.624-.86-.747L22.477 86.3h6.898l1.04 9.18-3.196-.002zm-9.438 10.766l-5.25-8.456 1.692-2.665-.45 3.495h6.572l3.39 2.94-5.954 4.686zm-2.492 8.965a.35.35 0 0 0 .312.108l3.012-.478-6.347 3.057 2.895-5.978.96-.525-.91 3.49a.345.345 0 0 0 .078.324zm6.427-.86l.054.78.348-.025-.056-.81.457-.072.06.878.347-.023-.063-.91.467-.073.06.834.346-.024-.06-.865.42-.067.06.894.348-.024-.064-.924 1.685-.268 2.247.25-.08 1.406.346.02.08-1.386 1.033.116.09 1.287.347-.024-.085-1.223 1.017.114.09 1.32.347-.024-.087-1.256 1.146.128.086 1.237.347-.024-.082-1.173 1.347.15.084 1.225.346-.024-.08-1.16 1.087.12.082 1.186.347-.024-.078-1.122 1.017.113.085 1.22.347-.025-.08-1.154.016.003v-.003c.006 0 .01.003.014.004l.85.063.09 1.29.347-.024-.087-1.24.937.068.064.93.347-.024-.06-.88.88.066.07 1.016.347-.024-.067-.967 1.517.11-3.67 2.836a.345.345 0 0 0-.126.198l-1.033 4.526-4.132-3.915a.347.347 0 0 0-.355-.074l-6.064 2.15-2.843-1.8a.348.348 0 0 0-.416.032l-2.228 1.966-4.352-1.683 2.833-4.03.032.454.347-.024-.062-.882.248-.353.04.596.348-.023-.06-.853.473-.074zm20.204 3.838l-.97-.616.216-.167.86.54-.105.243zm-9.36 1.733l.153 2.22-.332-.065-.14-2.04.32-.114zm.68-.24l.215-.077.136.13.182 2.61-.352-.067-.18-2.596zm1.098.76l.336.32.123 1.783-.32-.062-.14-2.04zm1.084 1.027l.202.192.073 1.058-.207-.04.016-.002-.084-1.21zm.948.9l.638.604-.604-.116-.034-.488zm2.48-.478l.166.12-.262.293.095-.414zm.167-.738l.08-.347.64.4-.254.282-.466-.335zm.243-1.065l.08-.347 1.09.69-.224.25-.946-.593zm.244-1.067l.07-.3 1.522.966-.196.22-1.396-.886zm.596-.79l.264-.204 1.276.81-.127.29-1.413-.896zm1.654-1.278l.29-.224.39.28-.126.29-.554-.346zm.864-.668l.197-.152-.097.223-.1-.07zm-30.877 2.64l8.107-3.903-5.25 7.47-.087-2.5a.35.35 0 0 0-.32-.335l-2.843-.238.394-.492zm.23 1.244l-.204.197-.22-.233.424.036zm.923.077l.376.03-.85.783-.177-.187.65-.625zm.945.453l.017.51-.594.74-.363-.384.94-.866zm.055 1.577l.012.355-.16-.17.148-.185zm1.552.218l.027.39-.366.09.34-.48zm.636-.904l.287-.408.092 1.455-.3.075-.08-1.123zm.927-1.318l.102-.145.172.067.14 2.203-.276.07-.14-2.195zm.99.198l.322.125.097 1.553-.31.078-.11-1.756zm1.037.4l.264.103.065.938-.26.066-.07-1.105zm.98.38l.78.303-.746.187-.034-.49zm3.13-.22l.04.572-.525-.143.484-.43zm.657-.58l.25-.22.077 1.63-.233-.063-.093-1.347zm.945-.257l.566.36.073 1.04-.564.158-.075-1.557zm1.296.823l.43.272-.403.113-.026-.384zm3.272.057l.027.393-.724-.146.696-.247zm.68-.242l.595-.21.077 1.113-.617-.125-.054-.777zM16.5 109.957l-2.996-3.658a.343.343 0 0 0-.355-.116l-5.67 1.448 5.484-2.33 4.317 1.67-.78 2.986zm-11.74-19.26l.694 1.16.298-.18-.69-1.154 1.05-.6.66.84.275-.215-.63-.8 1.33-.76.736.94.275-.216-.705-.897 1.414-.808.663.845.274-.215-.63-.805 1.368-.78.81 1.032.274-.215-.78-.993 1.3-.742.558.713.274-.215-.528-.673 2.55-1.456-1.16 8.99-2.476 3.9-7.918-1.854L3.57 93.5v-1.984l.153-.23 1.035-.59zm3.762-12.12l-.3-7.617 4.29 2.436-3.99 5.18zM5.696 86.4l.204-.007-.204.395V86.4zm.57-.715l-.57.018v-.337l.74-.013-.17.332zm-.57-1.015v-.336l.72-.015.185.334-.904.016zm0-1.03v-.62l.34.612-.34.007zM8.76 63.075l1.344-.85-1.446 2.152.1-1.302zm1.073-13.012l.315-3.15 2.946.315-3.26 2.834zm2.69-18.125l.317 1-1.052 1.382.734-2.383zm2.586-9.492l1.394.43-2.393 3.62 1-4.05zm2.03-8.25l.87 2.007-1.717 1.435.848-3.44zm1.543-1.295l.63 1.89.33-.11-.632-1.897.626-.222.47 1.41.33-.11-.472-1.416.697-.248.742 2.232.33-.11-.744-2.238.522-.185.39 1.17.33-.11-.392-1.177.702-.25.51 1.537.33-.11-.513-1.544.755-.268.495 1.45.33-.112-.496-1.454 1.02-.362c.553 1.015 2.367 4.268 3.247 4.954.093.072.235.176.412.302l-4.38 4.31-5.537-4.153-1.2-2.765 1.17-.415zm11.607 4.172l.495 1.262.324-.127-.31-.788.728.493.4 1.02.324-.127-.216-.55c.177.12.352.24.525.355l.228.72.332-.104-.097-.307 2.048 1.372-1.855 4.71c-.012.03-.012.063-.015.094l-.007-.002-.46 4.602-2.72 1.44-.316 5.414-7.163 1.645.286-4.438 1.455-4.42-.575-2.088 1.807-3.242-.835-3.212.49-.482.374.796.315-.148-.426-.906.433-.426.474.93.31-.16-.523-1.026.46-.452.746 1.596.315-.147-.8-1.708.64-.63.624 1.35.316-.145-.675-1.465.515-.507.434.92.315-.15-.486-1.03.542-.532.652 1.703.325-.123-.6-1.564.85.582zm4.603 8.75l.38 1.04.327-.118-.3-.822.73.18.352.964.327-.12-.273-.746.778.19.323.886.327-.12-.243-.665 1.114.273-2.124 6.828a.317.317 0 0 0-.015.097l-.07 3.62-5.317 4.285-.11-.88h-9.854l-.85 6.595-3.772-.404 2.41-6.227.365.78.314-.146-.463-.988.506-.227.356.76.315-.146-.353-.755.746-.334.3.643.316-.146-.298-.638.98-.438.444.952.315-.147-.428-.913 1.044-.24.328.7.315-.148-.296-.632.92-.21.34.724.314-.147-.308-.658 1.744-.402.49 1.05.316-.148-.46-.98 1.315-.303-.1.048.562 1.203.315-.147-.542-1.156 1.39-.32.355.758.315-.147-.43-.92.066-1.14.21.446.314-.146-.48-1.028.056-.98.398.675.3-.176-.66-1.12.058-1.015.29.808.327-.117-.538-1.506.492-.26.357 1.09.33-.107-.375-1.15.426-.225.253.707.327-.118-.27-.754.542-.287.334.937.328-.117-.35-.983.277-.147.078-.787.19.533.33-.117-.44-1.225.08-.777.215.606.328-.117-.462-1.297.093-.936.373 1.04.328-.116-.478-1.34.87.207zm10.31 33.32l-.728.014.408-1.33.32 1.314zm3.036 16.33l-.215-.247 1.05-.065-.005-.083.082.336-.913.06zm1.078.63l.21.864-.72-.833.51-.033zm-.394-1.63l-1.47.092-.205-.237 1.616-.096.058.242zm-1.88-.83l.025-.266 1.565-.094.064.262-1.655.098zm.087-.967l.03-.33 1.227-.076.08.327-1.336.078zm.093-1.033l.04-.46.848-.054.11.454-.997.06zm.104-1.16l.036-.41.483-.034.098.405-.617.04zm.1-1.112l.07-.78.184.762-.254.018zm-.67-3.824l-.997-1.18h.71l.287 1.18zm-1.585-1.877l-.376-.445 1.393-.017.11.463h-1.128zm-.958-1.134l-.27-.32 1.998-.027.08.324-1.808.022zm-9.737 5.55l2.862-4.25a.35.35 0 0 0 .054-.15h.002l.848-6.703.124.264.315-.146-.357-.763.158-1.245.312.666.315-.146-.492-1.053.274-.842.627 1.284.312-.153-.785-1.608.484-1.49.522 1.036.31-.156-.678-1.352.316-.978.49.977.31-.157-.648-1.29.238-.732.574 1.187.313-.15-.477-.986.543.1 3.21 7.293-1.63 5.3c-.006.017-.007.034-.01.05h-.003l-.925 5.95-2.917 3.857-4.386-1.957-.205-1.652zm-2.59-21l3.13.795-2.272 6.158-.858-6.952zm5.05 1.283l.362.857.32-.135-.26-.615.482.122.023.003v.002l.317.06.292.587.312-.155-.176-.356 1.096.202-1.74 5.354-1.86-1.064a.348.348 0 0 0-.306-.02l-2.37.975 1.144-3.1.147.296.313-.155-.294-.59.303-.824.29.62.316-.146-.437-.933.386-1.047.695 1.524.317-.145-.723-1.585 1.047.268zm-1.028 5.553l1.884 1.077-.94 7.424-3.55-7.43 2.605-1.07zm7.837 7.6l.126-.408 1.803-.022.098.404-2.027.027zm.34-1.108l.173-.56 1.11-.023.138.565-1.42.018zm.268-6.053L42.17 49.4l1.636.3c.202 1.558.39 3.172.55 4.665zM38.5 48.017l1.766-2.75 2.98 3.623-4.745-.873zm-.73-.15l-5.975-1.516-.486-3.94.496-.4.476 1.015.315-.147-.51-1.093.98-.79.442.942.314-.147-.478-1.02.765-.616.927 1.68.305-.168-.956-1.734.74-.595.435.932.316-.148-.473-1.01.472-.38.31.663.316-.147-.346-.742.528-.426.492 1.05.315-.147-.51-1.09 4.222 1.582-.576 3.94-2.855 4.452zm.953-18.714l.51-.01.044.293-.647.014.093-.297zm-.902 2.9h1.86l.006.033.06.336h-2.04l.115-.37zm.593 4.06v.038h.03a83.66 83.66 0 0 0 1.86 2.243l-3.078-1.152.05-2.557c.307.39.706.894 1.138 1.43zm1.914 1.237l.42-.01c.055.235.11.467.167.697-.183-.21-.38-.44-.587-.687zm-.567-.684c-.14-.17-.28-.34-.42-.515h1.142c.035.166.072.332.11.498l-.832.018zm-.983-1.212l-.287-.358h1.77l.074.358h-1.557zM40.12 34.4h-2.182l-.27-.343 2.38-.025.072.37zm-2.707-1.036l.077-.246h2.384l.04.22-2.5.026zm.624-2.008l.077-.248 1.418-.02.04.267h-1.535zm.295-.947l.08-.26.972-.02.04.264-1.092.015zm.792-1.962l-.183.004.124-.395.06.39zm-10.57 50.71H23.3l2.627-28.506 2.627 28.505zm-11.68-4.57l-3.997-9.248 1.198-.088-.047.805.347.02.05-.85.74-.053-.064 1.09.348.022.066-1.136.634-.046-.034.58.347.022.042-.705a.35.35 0 0 0 .065-.077l.516-.88.013.777.348-.006-.022-1.35 1.138-1.943-1.685 13.07zm-8.662-4.434l.337-4.366.185-.277-.032.547.347.02.066-1.133.31-.463-.022.39.347.022.057-.978.422-.63-.03.483.348.02.062-1.07.352-.523.017 1.04.347-.006-.013-.795.71 2.686c.005.016.015.03.022.046l-.005.002 4.104 9.494-7.932-4.508zm2.005-23.932l.194-1.938.108-.048.407.82.312-.156-.4-.806.653-.294.415.887.315-.147-.413-.882.593-.265.652 1.43.317-.145-.652-1.427.69-.308.367.87.32-.136-.37-.876.906-.405 1.15 4.423-5.563-.596zm1.275-7.327l-.543.012.025-.258.445-.01.072.255zm-.613.71l.808-.017.07.243-.902.017.023-.242zm1.69.546l-1.137-4.025 1.467-.147.516 1.1.315-.146-.463-.99.88-.088.45.96.316-.146-.398-.85 1.845-.186.48 1.026.316-.147-.43-.915.376-.037a.418.418 0 0 0 .072-.015l.745-.24.55 1.176.315-.148-.533-1.138 1.337-.432.397.85.315-.146-.38-.812 2.198-.71-.297 4.47L10.97 43.27l1.57-2.856a.344.344 0 0 0 .03-.263zm.988-7.248l-.598-1.882.79-.2.408 1.27.33-.106-.4-1.25 1.067-.27.555 1.184.315-.147-.525-1.123 1.208-.306.467 1 .315-.148-.44-.938 1.062-.27.445.95.315-.146-.416-.89.994-.252.453.967.315-.147-.425-.907.863-.22.465.994.316-.147-.436-.932 2.295-.58.254.923-1.262 3.828-5.293 1.712-5.14.516 1.648-2.165a.35.35 0 0 0 .055-.318zm4.693 7.873l-1.985 5.133-.988-3.8 2.974-1.333zm-2.015-18.707l2.963-.636a.345.345 0 0 0 .177-.1l.08.292.335-.09-.135-.498.375-.4.14.434.332-.108-.2-.615.284-.302.184.543.33-.112-.244-.718.482-.514.318 1.21.336-.088-.313-1.193.74.557.158.74.34-.07-.074-.353 1.135.85.7 2.698-4.112-.19-4.333-1.337zm-.223-3.286l2.433-2.033 2.512 1.883-2.01 2.142-3.617.775.682-2.768zm-2.47 9.838l.805-1.215.1.29.33-.114-.187-.54.37-.56.432.913.315-.15-.523-1.103.604-.914.25.62.324-.13-.34-.842.46-.697.413.868.314-.15-.503-1.056.49-.745.042.012-.03.012.486 1.248.324-.126-.396-1.016.806.25.403 1.016.324-.128-.3-.757 1.174.363.07.368.343-.065-.035-.187c.028.01.057.014.087.015l4.066.188-1.603 2.878.156.568-10.08 2.55.51-1.664zm-2.318 9.327l-.18.004.047-.472.134.47zm-.44 2.597l.9-.016-.205.37-.733.025.038-.38zm-.107 1.077l.413-.012-.503.915.09-.902zm2.383 6.562l.355.76.315-.148-.397-.85.543-.47.406.866.315-.147-.395-.844 1.04.11.43.918.315-.147-.34-.726.924.1-.01.005.562 1.202.315-.147-.477-1.02 1.015.11.496 1.058.316-.147-.406-.867 1.49.16-4.66 6.887-2.626-6.248.476-.418zm2.368 7.593l-.026.448.347.02.06-1.044.767-1.134-.034.586.347.02.068-1.17.43-.637-.04.683.348.02.074-1.267.767-1.132.017 1.18.348-.004-.024-1.68.43-.636.067.858.347-.027-.1-1.295.596-.882L18.79 59.75l-2.73 4.66-3.433.25-.912-3.45 1.698-1.073a.348.348 0 0 0 .132-.152l1.883-4.21zM6.754 77.012c.003-.012 0-.025.002-.038l1.004-.018.026.65-1.16.047.128-.64zm-.27 1.343l1.328-.053.026.658-1.465-.046.112-.56zm1.072-6.578l-.184.003.174-.28.01.277zm-.62.706l.648-.01.018.46-.954.017.29-.467zm-.724 1.17l1.417-.025.018.48-1.705-.017.27-.436zm1.463 1.152l.01.274-1.647.06-.148-.354 1.785.02zm.038.97l.02.485-1.22.022-.19-.455 1.39-.052zM6.068 80.44l.002.09.405-.006-.507.416.1-.5zm1.2-.57v-.055l-1.08.017.046-.226 1.308.04-.273.225zm9.44-4.092c.003.003.008.003.012.006l-.598 4.63-2.42-6.342 3.005 1.706zm-12.87 28.515l1.587-1.165.713.92.275-.212-.708-.915.858-.63.767.768.246-.246-.73-.73.823-.602.816.818.246-.246-.78-.78.525-.384.843.843.246-.245-.805-.806.767-.563.905.905.246-.246-.868-.864.925-.68.877.878.246-.246-.84-.84 1.006-.736 4.822 7.77-3.767-1.46a.345.345 0 0 0-.263.005l-8.747 3.72-.233-4.03zm.095-8.067l7.373 1.725-7.848 5.757-2.682-1.595 3.157-5.886zm-2.53 7.068l-.532.21a16.77 16.77 0 0 1-.092-.58l.625.37zm.756.45l.537.32-1.567.648a15.623 15.623 0 0 1-.122-.513l1.15-.456zm-.84 1.642l1.84-.76.027.488-1.738.66c-.046-.13-.09-.258-.13-.388zm1.91.456l.023.394-1.422.452a7.312 7.312 0 0 1-.124-.268l1.524-.578zm.065 1.112l.02.343-.935.28a4.233 4.233 0 0 1-.195-.27l1.11-.353zm.06 1.056l.022.363a2.068 2.068 0 0 1-.43-.24l.41-.123zm33.296-44.394l-2.303 3.42-1.37-11.106 3.674 7.686zm2.387 8.832a.35.35 0 0 0 .42-.108l3.137-4.15a.337.337 0 0 0 .066-.156l.823-5.283 3.47 4.107-.65 7.282a.35.35 0 0 0 .084.258l3.072 3.554-4.71.092-9.328-2.305-.64-5.193 4.255 1.9zm10.277 11.1l.076.53-.196.003.12-.533zm3.477 19.41l-.192-.35h.115l.078.35zm-.577-1.045l-.142-.256.427-.01.06.267h-.344zm-.523-.944l-.134-.243.73-.014.054.24-.65.016zm-.515-.932l-.092-.167 1.014-.006.035.156-.957.018zm-.477-.86l-.078-.14.026-.14 1.257-.02.053.292-1.258.008zm1.077-.994l-1 .017.05-.282.898-.016.052.282zm-.82-.965l.074-.412.49-.01.075.41-.64.01zm.203-1.112l.118-.642.117.637-.235.005zm-1.67-5.887l-.17-.253.945-.017.047.257-.823.014zm.95.68l.19 1.036-.684-1.026.493-.01zm-.325-1.766l.023.122-1.275.023-.166-.252 1.402-.017.017.124zm-1.88-.796l.06-.266 1.665-.02.038.264-1.762.022zm.218-.964l.075-.33 1.286-.017.048.33-1.407.017zm.233-1.028l.103-.457.86-.016.067.458-1.03.014zm.865-1.167l-.604.01.092-.41.453-.008.058.407zm-1.07-1.086h-.007l.002.024-.95 4.212a.345.345 0 0 0 .05.27l3.337 5.015-.562 3.054-2.917-1.582-.01-.03-.027.01-5.357-2.903a.346.346 0 0 0-.232-.036l-4.258.823-.48-3.9 2.407-3.78a.348.348 0 0 0 .022-.334l-3.93-8.448 1.317.326.936 1.83.31-.157-.8-1.56 1.058.26.824 1.7.313-.152-.698-1.44 1.396.346 1.03 2.424.32-.136-.927-2.183 1.134.28.425 1.28.33-.11-.356-1.072 1.048.26.454 1.37.33-.11-.386-1.16.935.23.427 1.252.33-.112-.277-.81L49 81.78l-.523 2.312zm-9.696.965l-1.853 2.907-1.157-9.374 3.01 6.466zm11.343 21.773l3.366 1.545-.27.305-3.272-1.607.177-.243zm.44-.565l.77-.164 2.437 1.21.107.475-3.316-1.522zm1.863-.398l.972-.207.175.777-1.147-.57zm-3.246-24.813l-3.386-2.337 4.03-.08-.644 2.417zm-5.572-32.82l-2.95-3.586.593-.922a.345.345 0 0 0 .05-.138l.407-2.78c.205.573.41 1.016.605 1.25.385.46.86 3.066 1.295 6.178zm-5.632-22.372l-3.968-.973 1.235-3.134c.077.375.197.746.38 1.092.603 1.14 1.605 2.263 2.353 3.015zm-9.96-21.088c.014.038.032.086.05.14l-.92 1.725.307.164.77-1.446c.1.28.225.628.368 1.02l-.488.957.31.158.34-.666c.06.162.12.33.182.503l-.64 1.254.31.158.493-.964c.082.227.166.46.252.692l-.334.655.31.158.187-.367.245.667-.265.52.31.158.12-.234c.07.19.14.38.21.563l-.398.707.303.17.255-.453.15.4-.473.93.31.157.332-.65c.13.333.245.623.343.86l-.457.894.31.158.326-.64c.036.08.067.14.09.174.01.016.02.032.034.046l4.28 4.743a9.362 9.362 0 0 0-.327 1.462c-1.456-.973-5.785-3.873-6.566-4.48-.725-.564-2.5-3.69-3.17-4.93l-.552-8.89 1.217 1.23 1.877 2.295zm-7.17 3.267l.793 1.24.294-.187-.875-1.37.11-.165.02-.033.064-.125.516.782.29-.192-.622-.944.315-.607.777 1.216.293-.188-.886-1.385.28-.54.523.818.293-.187-.63-.988 1.848-3.567.52 8.378-6.85 2.435 1.58-2.367.523.795.29-.192-.605-.916.4-.6.436.66.29-.193-.516-.782.53-.794zM9.524 53.148l.207-2.074.125-.107.365.778.315-.147-.407-.868.46-.4.397.848.315-.147-.44-.937.497-.43.428.914.315-.147-.47-1.005.4-.348 2.73 6.49-1.81 4.04-4.126 2.606.7-9.065zM5.638 88.413c.007-.01.01-.024.016-.035l.003.002 1.75-3.387a.347.347 0 0 0-.005-.328L5.88 81.913l1.152-.946.708.902.274-.216-.712-.908 1.13-.927c.02-.018.03-.042.046-.063l.007.006.046-.06.446.568.274-.214-.5-.638.886-1.15.678.865.274-.215-.733-.935.67-.87.424.54.273-.214-.48-.61.905-1.174.747.953.274-.216-.803-1.023 1.06-1.376 3.007 7.88-.227 1.762-11.12 6.355 1.05-1.577zm-2.475 6.414l.22.95-1.38 2.577 1.16-3.527zm11.31 14.598a.346.346 0 0 0 .02-.266l-.32-.944 1.954 2.385-3.282 1.793c.61-.978 1.2-2.104 1.63-2.968zM10.37 116.6c-.055-.92.023-1.858.172-2.098.073.03.15.047.232.047.33 0 .736-.346 1.168-.872l2.17-1.184-2.66 5.495-1.082-1.39zm21 5.278l-.102-1.498.29-.103.115 1.662-.085-.017-.217-.045zm11.462-7.26l-4.934-.363.3-4.763 4.634 5.126zm-5.238-6.135a.34.34 0 0 0-.036.14h-.004l-.35 5.567-11.048-1.236a.29.29 0 0 0-.093.003l-5.202.825-4.84.767 1.948-7.472.054.778.347-.024-.077-1.104.655-.515.064.925.347-.024-.082-1.162.68-.536.067.976.347-.024-.084-1.212.47-.37.076 1.09.347-.025-.09-1.324h-.002l.424-.334.07 1.02.348-.024-.087-1.257.634-.498.053.772.347-.024-.07-1.01 1.69-1.327a.348.348 0 0 0 .012-.536l-1.93-1.67.868-.633.067.97.347-.023-.082-1.188.862-.63.05.746.348-.024-.067-.963.62-.45.07 1.01.346-.023-.082-1.227.537-.392.056.81.348-.024-.07-1.028.533-.39h.09l.07.99.346-.024-.067-.965h.61l.055.78.347-.025-.052-.755h.655l.064.927.346-.024-.063-.903h.758l.278 2.444h5.117l2.677 8.24c-.434.645-.79 1.286-.968 1.623zm3.193-3.6c-.186 0-.38.073-.578.19l1.286-2.73 4.64 5.415c-1.867-1.16-4.465-2.714-5.187-2.86a.872.872 0 0 0-.163-.014zm11.658 4.67l-.607-.083-2.553-1.49.245-.334 3.21 1.576-.295.33zM28.74 25.743l.34.074-.712 3.26-.34-.073.71-3.26zm-1.906.567l.34.074-.71 3.26-.34-.073.71-3.26zm1.54-1.557l-.71 3.26-.34-.073.71-3.26.34.073zm-11.576 35.39l.6-2.06.25.073-.6 2.06-.25-.074zm-1.36.43l-.25-.073.6-2.06.252.074-.6 2.06zm1.016-1.03l-.25-.073.6-2.06.25.073-.6 2.06zm23.556 6.04l.632-2.898.255.056-.632 2.898-.255-.056zm-.807-2.338l-.632 2.897-.254-.056.632-2.897.255.055zm.435 1.448l-.255-.056.632-2.897.255.056-.632 2.897zm-8.846 38.802l.34.074-1.144 5.244-.34-.074 1.144-5.245zm-2.436.705l.34.074-1.144 5.245-.34-.075 1.144-5.245zm2.052-2.548l-1.144 5.245-.34-.074 1.144-5.245.34.074zm-11.56-.004l-.482 2.215-.34-.074.483-2.216.34.074zm-1.496-1.085l.34.074-.483 2.215-.34-.074.482-2.215zm.772 1.484l-.34-.074.483-2.215.34.074-.483 2.215zM43.6 73.077l.34.073-.482 2.216-.34-.074.483-2.216zm-1.3 1.278l-.34-.074.484-2.214.34.074-.483 2.215zm.916-.805l-.34-.074.483-2.215.34.075-.484 2.215zM10.644 94.282l.77-3.015.337.086-.77 3.015-.336-.086zm-1.303.492l-.336-.086.77-3.015.337.086-.77 3.014zm1.154-1.507l-.337-.086.77-3.014.337.086-.77 3.015zm1.527-9.492l.946-3.7.337.085-.945 3.7-.337-.085zm-1.677.584l-.337-.087.946-3.7.337.085-.947 3.7zm1.417-1.852l-.337-.086.945-3.7.337.085-.945 3.7zm32.055 1.587l.337.086-1.033 4.046-.338-.086 1.033-4.045zm-2.2.544l.337.085-1.034 4.045-.337-.086 1.035-4.045zm1.884-1.937l-1.035 4.045-.337-.086 1.034-4.045.337.086z"/></svg>