<svg xmlns="http://www.w3.org/2000/svg" width="440.966" height="1000" viewBox="-193.167 -438.057 440.966 1000"><path fill="#FFF" d="M247.735 433.13l-15.433-68.586-8.838-48.13c0-.01-.008-.017-.008-.017l-6.586-35.886-8.508-59.535 6.724-25.208c.12-.452.12-.928.016-1.388L172.208 17.673c-1.154-12.083-10.68-109.225-19.51-119.83-2.162-2.6-4.77-10.002-7.433-19.672-4.665-16.902-9.525-40.762-12.55-58.148l-6.87-44.46a2.616 2.616 0 0 0-.33-.943c0-.007 0-.007-.01-.015-.023-.04-.064-.065-.088-.097a2.746 2.746 0 0 0-.533-.654c-.178-.145-17.717-15.28-25.53-30.09-7.467-14.15.08-35.298.152-35.508a2.812 2.812 0 0 0-.557-2.84l-35.443-39.302c-2.405-4.286-16.757-43.708-25.385-67.955-.105-.3-.266-.59-.476-.84L22.02-421.76 6.756-437.22a2.805 2.805 0 0 0-4.495.678l-29.316 56.543-30.826 46.243c-.058.08-.074.178-.114.266-.032.064-.097.104-.12.177-.033.065-.025.137-.04.202-.033.088-.09.16-.106.25l-29.17 118.33-20.608 66.977a2.56 2.56 0 0 0-.105.55L-121.89-9.56l-10.68 138.43-19.823 32.052a2.817 2.817 0 0 0-.202 2.56l8.257 19.815-7.725 38.607-.694 3.487a2.61 2.61 0 0 0-.056.55v47.235l-16.7 25.054c-.307.46-.476 1-.476 1.557v16.724l-23.044 69.99a2.84 2.84 0 0 0-.13 1.106c.18 2.187 4.465 51.45 29.51 55.525.025.01.04.01.058.017 1.065.17 2.155.29 3.293.29.234 0 .468-.03.694-.088l71.427-18.243 6.296 18.645c-6.473 12.923-13.455 24.635-18.46 31.342l-.032.016.01.016c-2.51 3.358-4.53 5.473-5.716 5.804-2.14-.952-4.343-.517-5.876 1.146-4.004 4.302-3.35 18.17-3.05 22.31.04.557.24 1.09.58 1.526l10.663 13.706-5.488 6.853a2.822 2.822 0 0 0 .153 3.69l29.195 30.914c.048.048.105.065.153.105.186.177.387.314.622.435.097.048.186.097.283.137.065.024.113.065.178.08.266.082.533.114.8.114.225 0 .45-.032.677-.08h.008l61.12-15.28 18.184 4.963c.492.128 1.01.128 1.493-.01l23.82-6.682 33.27 6.732 53.24 10.307c.13.024.267.024.397.024.048.01.09.025.137.025.033 0 .057-.016.082-.016.194-.01.37-.04.557-.082.056-.016.12-.008.177-.024.016-.008.024-.016.032-.016.136-.04.257-.113.386-.178.09-.048.194-.08.274-.13.097-.064.186-.152.274-.225.097-.08.194-.145.274-.242l.024-.024 29.195-32.627c.202-.226.363-.484.484-.75l15.676-36.065c.024-.04.024-.09.04-.137.048-.12.073-.25.105-.386s.058-.274.066-.412c.008-.13 0-.25-.008-.387a2.624 2.624 0 0 0-.065-.436c-.016-.058-.008-.114-.024-.18-.025-.064-.066-.12-.09-.185-.057-.137-.113-.274-.194-.404-.065-.104-.13-.21-.21-.314-.04-.057-.065-.12-.113-.178l-45.258-50.052c6.586-12.01 15.74-24.312 20.066-24.312h.01c5.916 1.178 36.555 19.93 55.71 32.238.056.04.128.04.185.073.186.097.37.153.573.21.13.04.25.12.38.137L230.86 452c.92.12 1.856-.218 2.478-.92l13.738-15.457c.618-.685.86-1.614.66-2.494zm-46.42 4.955l9.395 5.48-12.18-1.662 2.785-3.818zm-8.015 1.445l-50.084-58.455a2.803 2.803 0 0 0-4.673.63l-16.82 35.676-19.308-59.422h13.108l-4.956-40.14 7.96-1.542 6.56 12.834 2.503-1.275-6.19-12.107 9.88-1.913 5.278 10.88 2.526-1.218-4.948-10.22 8.306-1.605 8.524 20.05 2.583-1.098L145.64 312l13.212 7.16 2.55 7.69 2.665-.88-1.614-4.85 7.797 4.23 4.472 13.455 2.664-.88-3.527-10.622 14.843 8.047 2.978 8.725 2.665-.904-1.994-5.85 19.8 10.726-2.437 13.286a2.85 2.85 0 0 0 .3 1.873l25.675 46.347-23.198 4.956a2.758 2.758 0 0 0-1.68 1.09L193.3 439.53zM26.532 332.613a2.84 2.84 0 0 0-1.655.54l-40.108 29.253-6.95-6.02 10.436-97.845h55.678l8.395 74.082-25.798-.01zm-76.172 86.9l-42.368-68.254 13.65-21.512-3.64 28.21h53.054l27.37 23.73-48.066 37.825zm-20.115 72.362c.54.59 1.29.92 2.082.92.145 0 .29-.016.436-.04l24.312-3.858-51.23 24.675 23.366-48.252 7.758-4.23-7.345 28.178a2.785 2.785 0 0 0 .622 2.607zm51.876-6.934l.437 6.29 2.8-.195-.45-6.538 3.688-.58.492 7.086 2.8-.194-.508-7.338 3.768-.597.468 6.732 2.8-.194-.483-6.982 3.382-.532.5 7.216 2.8-.194-.516-7.458 13.6-2.155 18.137 2.026-.654 11.34 2.8.162.647-11.187 8.338.936.718 10.388 2.8-.194-.685-9.88 8.21.92.735 10.646 2.8-.194-.7-10.138 9.25 1.033.693 9.985 2.8-.194-.653-9.476 10.872 1.22.678 9.88 2.8-.195-.645-9.37 8.775.985.662 9.565 2.8-.194-.63-9.055 8.21.912.678 9.83 2.8-.193-.645-9.315.13.015.007-.024c.04.01.065.025.105.033l6.87.51.717 10.41 2.8-.193-.694-10.017 7.563.557.516 7.5 2.8-.195-.49-7.095 7.102.525.565 8.2 2.8-.193-.54-7.805 12.245.896-29.623 22.883a2.78 2.78 0 0 0-1.017 1.598l-8.346 36.524-33.352-31.6a2.797 2.797 0 0 0-2.865-.605L27.64 538.835 4.69 524.29a2.807 2.807 0 0 0-3.358.266l-17.984 15.87-35.12-13.586 22.867-32.53.25 3.657 2.8-.194-.49-7.12 2-2.848.332 4.81 2.8-.193-.475-6.885 3.81-.596zm163.08 30.98l-7.837-4.972 1.743-1.348 6.95 4.35-.855 1.97zm-75.566 13.988l1.243 17.903-2.68-.516-1.138-16.466 2.574-.92zm5.497-1.945l1.736-.622 1.098 1.042 1.46 21.083-2.84-.55-1.453-20.952zm8.864 6.135l2.712 2.575.993 14.4-2.576-.5-1.13-16.475zm8.75 8.29l1.63 1.55.588 8.547-1.67-.33.128-.01-.677-9.758zm7.65 7.255l5.15 4.883-4.874-.944-.275-3.94zm20.01-3.85l1.35.977-2.116 2.365.767-3.342zm1.357-5.948l.647-2.8 5.158 3.228-2.042 2.276-3.762-2.705zm1.962-8.597l.646-2.8 8.79 5.577-1.8 2.01-7.636-4.787zm1.97-8.612l.557-2.422 12.292 7.797-1.582 1.77-11.268-7.144zm4.81-6.377l2.13-1.648 10.3 6.53-1.025 2.357-11.405-7.24zm13.35-10.316l2.342-1.808 3.148 2.268-1.017 2.34-4.472-2.8zm6.975-5.392l1.59-1.227-.783 1.8-.807-.573zM-98.4 521.87l65.428-31.513-42.376 60.287-.702-20.18a2.812 2.812 0 0 0-2.575-2.703l-22.956-1.92 3.18-3.97zm1.847 10.032l-1.647 1.59-1.768-1.88 3.415.29zm7.45.622l3.035.25-6.853 6.312-1.43-1.51 5.247-5.052zm7.628 3.656l.137 4.108-4.795 5.99-2.938-3.11 7.595-6.988zm.444 12.73l.096 2.864-1.29-1.372 1.193-1.493zm12.526 1.76l.218 3.147-2.954.735 2.736-3.883zm5.134-7.298l2.308-3.285.743 11.744-2.42.606-.63-9.064zm7.474-10.63l.823-1.17 1.396.54 1.122 17.783-2.22.557-1.12-17.71zm7.983 1.598l2.607 1.01.79 12.534-2.5.63-.897-14.174zm8.378 3.236l2.13.823.526 7.57-2.09.525-.565-8.92zm7.91 3.068l6.304 2.438-6.03 1.51-.275-3.948zm25.265-1.784l.323 4.617-4.238-1.154 3.915-3.463zm5.303-4.682l2.01-1.768.622 13.15-1.88-.51-.752-10.872zm7.62-2.074l4.568 2.898.582 8.394-4.552 1.283-.598-12.576zm10.46 6.643l3.463 2.195-3.253.912-.21-3.107zm26.403.46l.218 3.172-5.836-1.18 5.618-1.993zm5.496-1.953l4.795-1.703.622 8.985-4.98-1.01-.438-6.27zm-108.926-87.78l-24.183-29.525-.008.007c-.67-.823-1.776-1.235-2.857-.944L-132.81 430.7l44.257-18.814 34.837 13.496-6.288 24.093zm-94.76-155.467l5.6 9.37 2.406-1.444-5.57-9.323 8.484-4.85 5.327 6.787 2.212-1.735-5.077-6.465 10.727-6.126 5.94 7.58 2.213-1.735-5.69-7.248 11.413-6.522 5.352 6.82 2.212-1.734-5.085-6.497 11.033-6.304 6.538 8.337 2.213-1.735-6.288-8.015 10.477-5.99 4.512 5.756 2.212-1.735-4.262-5.432 20.575-11.752-9.364 72.564-19.977 31.463-63.912-14.956-3.818-16.442v-16.006l1.243-1.865 8.352-4.763zm30.364-97.812l-2.413-61.49 34.627 19.67-32.214 41.82zm-22.794 63.144l1.647-.058-1.647 3.188v-3.13zm4.6-5.772l-4.6.145v-2.72l5.98-.105-1.38 2.68zm-4.6-8.193v-2.712l5.812-.12 1.493 2.703-7.304.13zm0-8.322v-5.004l2.736 4.947-2.736.056zm24.723-165.977l10.855-6.86-11.672 17.37.816-10.51zm8.668-105.028l2.543-25.426 23.78 2.543-26.322 22.883zm21.705-146.298l2.567 8.08-8.49 11.155 5.923-19.235zm20.88-76.608l11.26 3.48-19.314 29.21 8.054-32.69zm16.403-66.583l7.014 16.19-13.86 11.584 6.846-27.775zm12.446-10.462l5.077 15.263 2.663-.887-5.093-15.32 5.045-1.792 3.786 11.39 2.665-.888-3.802-11.438 5.626-2.002 5.98 18.016 2.664-.888-6.005-18.064 4.212-1.493 3.14 9.452 2.664-.888-3.156-9.5 5.666-2.018 4.117 12.405 2.664-.888-4.14-12.463 6.093-2.163 3.995 11.705 2.664-.904-4.005-11.735 8.217-2.922c4.472 8.193 19.114 34.45 26.217 39.987.75.58 1.896 1.42 3.325 2.438l-35.34 34.79-44.7-33.522-9.68-22.318 9.437-3.35zm93.688 33.675l3.995 10.186 2.615-1.026-2.494-6.36c1.93 1.308 3.9 2.647 5.876 3.98l3.23 8.232 2.614-1.025-1.743-4.43c1.43.96 2.84 1.92 4.238 2.857l1.833 5.82 2.68-.848-.783-2.47c7.264 4.874 13.504 9.047 16.53 11.073l-14.98 38.025c-.097.242-.097.5-.12.75l-.057-.007-3.713 37.147L49.077-186.7 46.534-143l-57.817 13.278 2.308-35.814 11.744-35.67-4.642-16.86 14.585-26.17-6.74-25.925 3.947-3.892 3.027 6.425 2.543-1.195-3.447-7.313 3.495-3.44 3.826 7.5 2.502-1.275-4.23-8.29 3.713-3.648 6.02 12.882 2.543-1.187-6.45-13.786 5.167-5.092 5.03 10.913 2.55-1.177-5.448-11.825 4.157-4.092 3.502 7.418 2.543-1.195-3.923-8.315 4.367-4.302 5.26 13.747 2.623-1-4.835-12.625c2.107 1.437 4.424 3.027 6.862 4.698zM88.473-229.6l3.067 8.403 2.64-.96-2.422-6.636 5.892 1.445 2.84 7.79 2.64-.962-2.195-6.02 6.28 1.54 2.607 7.144 2.64-.96-1.962-5.377 8.992 2.204-17.144 55.114c-.08.25-.12.517-.12.783l-.558 29.21-42.925 34.596-.88-7.11H-21.68l-6.87 53.24-30.437-3.262 19.445-50.253 2.954 6.304 2.543-1.186-3.737-7.975 4.076-1.825 2.874 6.143 2.543-1.187-2.848-6.093 6.02-2.696 2.43 5.19 2.544-1.186-2.405-5.15 7.903-3.535 3.592 7.683 2.543-1.187-3.455-7.37 8.435-1.936 2.647 5.642 2.543-1.187-2.39-5.1 7.42-1.704 2.735 5.853 2.543-1.187-2.486-5.31 14.077-3.238 3.963 8.467 2.543-1.187-3.705-7.918 10.606-2.438-.823.387 4.545 9.71 2.543-1.188-4.375-9.34 11.22-2.574 2.865 6.11 2.543-1.187-3.47-7.417.533-9.202 1.68 3.593 2.542-1.187-3.882-8.298.46-7.902 3.213 5.44 2.42-1.43-5.334-9.03.476-8.202 2.333 6.53 2.648-.944-4.343-12.164 3.97-2.107 2.883 8.813 2.672-.872-3.035-9.273 3.447-1.824 2.042 5.707 2.647-.944-2.178-6.086 4.375-2.317 2.704 7.555 2.648-.944-2.833-7.934 2.244-1.187.637-6.352 1.542 4.303 2.646-.944-3.535-9.88.63-6.273 1.744 4.89 2.647-.943-3.736-10.47.75-7.554 3.004 8.403 2.647-.944-3.866-10.817 7.023 1.677zm83.21 268.94l-5.867.12 3.293-10.72 2.574 10.6zm24.514 131.825l-1.727-2.002 8.483-.525-.048-.67.662 2.712-7.37.485zm8.71 5.07l1.695 6.98-5.804-6.715 4.11-.266zm-3.18-13.142l-11.874.735-1.647-1.913 13.052-.775.468 1.953zm-15.167-6.7l.194-2.154 12.64-.752.517 2.115-13.35.79zm.694-7.813l.234-2.672 9.904-.605.646 2.64-10.784.637zm.743-8.338l.33-3.705 6.838-.444.888 3.656-8.056.492zm.84-9.363l.29-3.31 3.9-.274.79 3.26-4.98.323zm.798-8.977l.565-6.296 1.493 6.15-2.058.146zm-5.4-30.865l-8.047-9.525h5.74l2.307 9.525zm-12.793-15.143l-3.035-3.592 11.244-.137.905 3.73h-9.113zm-7.733-9.153l-2.18-2.575 16.127-.218.638 2.614-14.586.178zm-78.594 44.814l23.1-34.313c.25-.37.388-.79.445-1.22h.017l6.845-54.095 1 2.13 2.544-1.186-2.882-6.16 1.275-10.056 2.517 5.376 2.543-1.187-3.98-8.5 2.213-6.803 5.06 10.364 2.527-1.235-6.337-12.97 3.907-12.035 4.205 8.37 2.51-1.26-5.48-10.912 2.55-7.894 3.955 7.885 2.51-1.26-5.238-10.42 1.92-5.9 4.634 9.574 2.526-1.22-3.85-7.95 4.383.806 25.902 58.858-13.157 42.788c-.04.13-.048.266-.073.396l-.024-.008-7.466 48.026-23.545 31.14L86.77 124.89l-1.654-13.334zM64.21-57.95l25.256 6.41-18.33 49.705L64.21-57.95zm40.762 10.35l2.922 6.916 2.59-1.09-2.098-4.964 3.89.985c.066.016.122.016.187.024l-.008.017 2.567.476 2.357 4.746 2.517-1.252-1.42-2.865 8.846 1.63L113.286.24l-15.03-8.59a2.81 2.81 0 0 0-2.462-.16L76.664-.64l9.234-25.03 1.187 2.39 2.518-1.252-2.373-4.77 2.454-6.65 2.35 5.01 2.542-1.186-3.52-7.53 3.117-8.452 5.618 12.3 2.56-1.17-5.836-12.784 8.458 2.163zM96.674-2.78l15.215 8.694-7.58 59.924L75.647 5.874 96.674-2.78zm63.266 61.353l1.017-3.3 14.553-.18.79 3.262-16.36.218zm2.752-8.95l1.388-4.513 8.968-.194 1.106 4.56-11.462.146zm2.155-48.86L147.21-39.31l13.205 2.43A1679.42 1679.42 0 0 1 164.847.764zm-47.25-51.237L131.84-72.68l24.053 29.253-38.3-7.047zm-5.894-1.21L63.467-63.923l-3.923-31.81 4.012-3.23 3.842 8.194 2.543-1.187-4.124-8.822 7.918-6.385 3.568 7.612 2.543-1.187-3.858-8.233 6.175-4.972 7.474 13.56 2.462-1.356-7.716-13.996 5.965-4.803 3.52 7.523 2.542-1.187-3.82-8.153 3.81-3.075 2.51 5.36 2.544-1.187-2.8-5.99 4.26-3.438 3.972 8.475 2.543-1.187-4.118-8.798 34.087 12.77-4.65 31.81-23.047 35.928zm7.685-151.054l4.108-.09.363 2.374-5.223.113.75-2.398zm-7.28 23.4h15.012l.04.274c.097.565.266 1.51.484 2.712h-16.466l.93-2.986zm4.777 32.787v.298h.242c4.972 6.175 10.43 12.826 15.005 18.097l-24.836-9.3.396-20.646c2.486 3.154 5.706 7.214 9.193 11.55zm15.45 9.975l3.398-.073c.436 1.89.888 3.76 1.34 5.618a327.256 327.256 0 0 1-4.738-5.545zm-4.577-5.52a654.06 654.06 0 0 1-3.398-4.157h9.226c.283 1.332.58 2.672.88 4.012l-6.708.145zm-7.934-9.783c-.783-.977-1.558-1.937-2.317-2.89h14.287c.194.952.396 1.913.597 2.89h-12.566zm10.84-8.5h-17.612c-.76-.97-1.493-1.897-2.187-2.777l19.22-.202c.183.97.377 1.962.58 2.98zm-21.85-8.37l.622-1.986h19.243c.104.573.217 1.162.33 1.784l-20.196.202zm5.037-16.208l.623-2.002 11.446-.16.33 2.154c0 .008-12.4.008-12.4.008zm2.382-7.644l.646-2.082 7.846-.17.33 2.13-8.822.122zm6.392-15.828l-1.477.032.993-3.188.484 3.156zM37.307 200.876H-5.11L16.104-29.206l21.204 230.082zm-94.268-36.87L-89.23 89.35l9.67-.71-.38 6.498 2.8.17.397-6.86 5.973-.437-.51 8.807 2.802.17.533-9.17 5.117-.37-.274 4.69 2.8.17.332-5.69c.202-.187.38-.388.525-.63l4.165-7.104.105 6.272 2.81-.048-.18-10.897 9.187-15.683-13.603 105.478zm-69.926-35.8l2.72-35.24 1.5-2.236-.257 4.407 2.8.17.534-9.153 2.51-3.737-.185 3.148 2.8.17.453-7.894 3.406-5.076-.226 3.89 2.8.17.5-8.636 2.842-4.23.137 8.395 2.81-.048-.106-6.417 5.732 21.68c.04.137.12.25.178.38l-.04.015 33.118 76.632-64.024-36.388zm16.184-193.17l1.566-15.642.864-.387 3.285 6.61 2.518-1.25-3.236-6.506 5.28-2.372 3.35 7.16 2.542-1.187-3.334-7.118 4.786-2.14 5.263 11.535 2.56-1.162-5.255-11.518 5.57-2.494 2.96 7.014 2.592-1.09-2.987-7.07 7.305-3.27 9.282 35.7-44.91-4.81zm10.29-59.14l-4.382.097.21-2.082 3.592-.08.58 2.066zm-4.947 5.73l6.53-.136.558 1.96-7.273.13.186-1.953zm13.65 4.408l-9.177-32.496 11.84-1.187 4.166 8.888 2.542-1.187-3.745-7.99 7.11-.71 3.633 7.757 2.543-1.187-3.213-6.87 14.892-1.492 3.882 8.28 2.543-1.186-3.463-7.394 3.027-.3a3.38 3.38 0 0 0 .582-.12l6.013-1.945 4.447 9.5 2.543-1.187-4.302-9.186 10.792-3.487 3.213 6.87 2.543-1.188-3.066-6.554 17.74-5.738-2.396 36.088-87.6 39.204 12.663-23.06c.363-.643.452-1.4.25-2.12zm7.975-58.51l-4.827-15.192 6.37-1.614 3.3 10.26 2.672-.865-3.245-10.09 8.62-2.187 4.48 9.565 2.543-1.186-4.238-9.072 9.75-2.47 3.77 8.055 2.543-1.187-3.543-7.57 8.564-2.172 3.592 7.668 2.543-1.187-3.36-7.185 8.024-2.034 3.656 7.806 2.543-1.187-3.43-7.322 6.966-1.76 3.752 8.015 2.543-1.187-3.52-7.523 18.525-4.69 2.05 7.458-10.178 30.9-42.723 13.818-41.48 4.165 13.293-17.475c.555-.73.716-1.683.442-2.555zm37.88 63.547l-16.03 41.433-7.975-30.68 24.005-10.752zm-16.272-150.995l23.916-5.134a2.787 2.787 0 0 0 1.428-.798l.638 2.35 2.712-.736-1.09-4.012 3.027-3.22 1.138 3.494 2.672-.872-1.614-4.964 2.293-2.438 1.485 4.383 2.664-.904-1.97-5.795 3.892-4.15 2.567 9.768 2.713-.71-2.526-9.63 5.99 4.497 1.266 5.98 2.744-.58-.597-2.84 9.16 6.868L6.04-247.6l-33.19-1.526-34.975-10.8zm-1.8-26.524l19.638-16.41 20.277 15.208-16.232 17.29-29.187 6.254 5.505-22.34zm-19.93 79.41l6.49-9.807.808 2.333 2.657-.912-1.5-4.375 2.985-4.513 3.487 7.37 2.542-1.204-4.22-8.91 4.874-7.378 2.026 5.004 2.607-1.05-2.745-6.796 3.72-5.626 3.327 7.006 2.534-1.203-4.052-8.53 3.963-6.006.33.097-.24.098 3.93 10.08 2.615-1.016-3.196-8.2 6.506 2.01 3.253 8.208 2.615-1.033-2.42-6.11 9.475 2.93.565 2.97 2.76-.525-.283-1.51c.226.074.46.114.702.122l32.818 1.51-12.947 23.23 1.26 4.584-81.362 20.59 4.116-13.438zm-18.717 75.284l-1.453.032.38-3.818 1.073 3.786zm-3.544 20.962l7.248-.13-1.647 2.996-5.908.194.307-3.06zm-.87 8.693l3.333-.106-4.06 7.386.726-7.28zm19.233 52.957l2.865 6.126 2.543-1.187-3.204-6.853 4.382-3.81 3.277 6.998 2.542-1.186-3.188-6.812 8.394.896 3.47 7.41 2.544-1.187-2.744-5.867 7.458.8-.097.047 4.543 9.71 2.543-1.187-3.85-8.225 8.193.88 4.003 8.54 2.543-1.187-3.277-6.997 12.018 1.29-37.61 55.602-21.195-50.432 3.842-3.366zm19.114 61.288l-.21 3.616 2.8.17.492-8.434 6.19-9.145-.273 4.73 2.8.17.55-9.443 3.478-5.15-.323 5.513 2.8.17.598-10.235 6.19-9.145.138 9.533 2.81-.04-.194-13.56 3.47-5.134.542 6.924 2.8-.218-.814-10.445 4.82-7.118-11.528 89.328-22.027 37.606-27.72 2.034-7.36-27.855 13.705-8.66c.468-.292.84-.727 1.065-1.228l15.2-33.982zm-70.014 171.418c.024-.097.008-.202.016-.307l8.104-.145.21 5.256-9.355.37 1.026-5.173zm-2.172 10.84l10.71-.428.21 5.31-11.824-.37.904-4.512zm8.645-53.095l-1.486.024 1.404-2.26.08 2.236zm-4.997 5.698l5.222-.09.145 3.714-7.7.145 2.333-3.77zm-5.852 9.452l11.44-.21.152 3.882-13.762-.145 2.17-3.527zm11.81 9.29l.09 2.213-13.303.5-1.195-2.864 14.408.153zm.306 7.83l.153 3.915-9.84.178-1.526-3.672 11.212-.42zm-13.278 37.646l.016.743 3.27-.057-4.093 3.358.808-4.044zm9.695-4.585l-.008-.453-8.71.137.364-1.824 10.557.33-2.204 1.81zm76.18-33.038c.032.024.073.024.105.048l-4.827 37.38-19.54-51.198 24.263 13.77zM-162.2 403.765l12.82-9.403 5.754 7.434 2.22-1.72-5.715-7.385 6.924-5.084 6.19 6.19 1.987-1.985-5.883-5.89 6.635-4.86 6.595 6.603 1.986-1.986-6.288-6.296 4.23-3.1 6.804 6.805 1.985-1.986-6.498-6.507 6.183-4.536 7.305 7.305 1.986-1.986-7.005-6.974 7.466-5.48 7.08 7.078 1.986-1.986-6.772-6.772 8.112-5.95 38.92 62.71-30.405-11.777a2.787 2.787 0 0 0-2.114.04l-70.603 30.018-1.882-32.518zm.776-65.114l59.512 13.925-63.346 46.46-21.648-12.874 25.482-47.51zm-20.422 57.05l-4.294 1.704a135.005 135.005 0 0 1-.75-4.698l5.044 2.995zm6.102 3.634l4.343 2.583-12.65 5.23a127.88 127.88 0 0 1-.984-4.14l9.29-3.673zm-6.772 13.253l14.844-6.134.226 3.94-14.03 5.326a89.704 89.704 0 0 1-1.04-3.133zm15.417 3.68l.187 3.18-11.478 3.65a59.54 59.54 0 0 1-1.01-2.164l12.3-4.665zm.526 8.976l.16 2.77-7.546 2.26a34.467 34.467 0 0 1-1.574-2.18l8.96-2.85zm.492 8.524l.17 2.93c-1.22-.5-2.38-1.146-3.47-1.937l3.3-.993zM102.663 75.435l-18.597 27.613-11.058-89.652 29.655 62.04zm19.26 71.29a2.83 2.83 0 0 0 3.39-.872l25.328-33.49a2.72 2.72 0 0 0 .534-1.267l6.635-42.642 28.008 33.142-5.238 58.778c-.073.76.178 1.51.67 2.09l24.796 28.688-38.01.743-75.29-18.605-5.167-41.908 34.342 15.342zm82.95 89.586l.614 4.28-1.582.03.97-4.31zm28.066 156.67l-1.56-2.808h.93l.63 2.81zm-4.666-8.426l-1.146-2.066 3.44-.08.483 2.154h-2.776v-.008zm-4.22-7.62l-1.083-1.952 5.893-.113.436 1.936-5.247.13zm-4.158-7.514l-.743-1.348 8.185-.057.283 1.26-7.724.145zm-3.85-6.942l-.63-1.13.21-1.122 10.145-.17.43 2.357-10.155.065zm8.693-8.023l-8.08.137.42-2.284 7.24-.13.42 2.277zm-6.628-7.79l.605-3.316 3.963-.09.605 3.31-5.173.096zm1.646-8.966l.952-5.183.944 5.142-1.896.04zm-13.487-47.52l-1.363-2.05 7.628-.136.38 2.074-6.644.113zm7.67 5.49l1.533 8.354-5.513-8.28 3.98-.074zm-2.616-14.263l.186.985-10.29.186-1.35-2.026 11.317-.137.137.992zm-15.167-6.425l.484-2.147 13.432-.16.307 2.13-14.223.177zm1.752-7.78l.596-2.665 10.38-.137.38 2.672-11.357.13zm1.87-8.3l.832-3.688 6.95-.12.533 3.696-8.314.113zm6.983-9.418l-4.875.09.743-3.31 3.657-.065.476 3.284zm-8.645-8.758h-.048l.008.194-7.66 33.998c-.17.75-.024 1.534.404 2.17l26.927 40.488-4.53 24.65-23.544-12.76-.08-.242-.227.08-43.24-23.43a2.792 2.792 0 0 0-1.874-.292l-34.37 6.65-3.88-31.478 19.436-30.51a2.81 2.81 0 0 0 .178-2.697l-31.73-68.18 10.638 2.63 7.555 14.78 2.502-1.276-6.45-12.607L116.67 185l6.65 13.714 2.527-1.22-5.634-11.614 11.27 2.785 8.313 19.566 2.583-1.097-7.49-17.62 9.153 2.26 3.43 10.332 2.663-.88-2.873-8.653 8.46 2.09 3.664 11.06 2.664-.88-3.116-9.372 7.547 1.865 3.446 10.106 2.664-.903-2.236-6.546 31.98 22.077-4.216 18.66zm-78.254 7.79l-14.957 23.47-9.33-75.662 24.287 52.19zm91.556 175.75l27.17 12.472-2.188 2.462-26.41-12.97 1.428-1.963zm3.544-4.56l6.215-1.324 19.678 9.775.864 3.826-26.758-12.277zm15.045-3.212l7.845-1.67 1.413 6.27-9.26-4.6zm-26.2-200.282l-27.332-18.863 32.53-.64-5.2 19.502zM158.833-48.69L135.03-77.644l4.778-7.45c.218-.34.355-.718.412-1.114l3.277-22.43c1.655 4.616 3.3 8.192 4.883 10.08 3.11 3.72 6.943 24.748 10.454 49.866zm-45.46-180.587l-32.028-7.854 9.968-25.297c.622 3.027 1.59 6.02 3.067 8.814 4.87 9.21 12.957 18.266 18.994 24.336zM32.99-399.492c.104.307.25.694.403 1.13l-7.434 13.924 2.477 1.324 6.223-11.672c.807 2.252 1.808 5.07 2.962 8.24l-3.94 7.717 2.503 1.276 2.744-5.376c.475 1.316.968 2.672 1.468 4.068l-5.166 10.122 2.502 1.275 3.98-7.78c.66 1.823 1.34 3.696 2.033 5.577l-2.696 5.287 2.503 1.274 1.51-2.962c.66 1.8 1.323 3.6 1.977 5.384l-2.14 4.197 2.503 1.275.97-1.89c.572 1.55 1.137 3.068 1.694 4.553l-3.213 5.708 2.446 1.372 2.058-3.656c.42 1.106.823 2.18 1.22 3.23L48.75-338.4l2.503 1.275 2.68-5.255a303.898 303.898 0 0 0 2.77 6.942l-3.69 7.224 2.502 1.275 2.63-5.158c.292.63.542 1.114.72 1.396.088.13.177.26.282.372l34.54 38.284c-.703 2.236-1.898 6.554-2.632 11.81-11.752-7.855-46.694-31.262-52.998-36.162-5.852-4.552-20.18-29.776-25.58-39.793l-4.463-71.764 9.823 9.936 15.152 18.526zm-57.883 26.37l6.4 10.01 2.366-1.51-7.063-11.05.896-1.34c.057-.09.105-.178.16-.266l.518-1 4.165 6.31 2.34-1.55-5.02-7.62 2.542-4.907 6.272 9.815 2.365-1.51-7.152-11.178 2.26-4.367 4.22 6.61 2.366-1.508-5.093-7.975L2.576-424.95l4.197 67.624-55.3 19.646 12.746-19.106 4.23 6.417 2.34-1.55-4.882-7.4 3.237-4.852 3.51 5.327 2.342-1.55-4.165-6.32 4.277-6.407zM-116.296-9.06l1.67-16.74 1.002-.864 2.946 6.28 2.543-1.187-3.285-7.007 3.713-3.23 3.204 6.846 2.543-1.188-3.543-7.57 4.004-3.48 3.456 7.386L-95.5-31l-3.795-8.11 3.237-2.81 22.02 52.393-14.595 32.593-33.312 21.043 5.65-73.17zm-31.366 284.647c.057-.09.09-.194.13-.283l.023.016 14.126-27.34a2.8 2.8 0 0 0-.04-2.647l-12.285-22.213 9.3-7.636 5.715 7.28 2.212-1.734-5.747-7.33 9.113-7.48c.17-.138.25-.332.38-.5l.056.047.37-.484 3.592 4.585 2.212-1.735-4.036-5.15 7.15-9.282 5.474 6.983 2.212-1.735-5.917-7.547 5.408-7.013 3.422 4.36 2.212-1.736-3.867-4.923 7.297-9.468 6.03 7.69 2.212-1.734-6.473-8.257 8.555-11.116 24.27 63.596-1.83 14.23-89.758 51.295 8.48-12.738zm-19.978 51.772l1.784 7.667-11.155 20.8 9.37-28.468zm91.3 117.83c.33-.67.386-1.438.144-2.148l-2.567-7.612L-63 454.68l-26.49 14.465c4.932-7.894 9.694-16.983 13.15-23.956zm-33.127 57.92c-.444-7.433.186-15.004 1.388-16.94.59.25 1.212.378 1.874.378 2.656 0 5.94-2.785 9.428-7.03l17.507-9.557-21.472 44.355-8.725-11.204zm169.512 42.595l-.83-12.09 2.34-.832.928 13.415-.686-.13-1.752-.363zm92.51-58.6l-39.826-2.93 2.412-38.446 37.412 41.374zm-42.28-49.52c-.194.363-.266.75-.29 1.138h-.033l-2.817 44.927-89.183-9.977a2.36 2.36 0 0 0-.75.024l-41.99 6.66h-.016l-39.067 6.19 15.73-60.303.437 6.28 2.8-.194-.612-8.91 5.287-4.158.517 7.466 2.8-.194-.654-9.38 5.49-4.325.54 7.877 2.8-.194-.677-9.783 3.8-2.987.606 8.79 2.8-.194-.742-10.696h-.008l3.422-2.696.573 8.233 2.802-.193-.702-10.146 5.117-4.027.428 6.23 2.8-.193-.564-8.144 13.634-10.72a2.8 2.8 0 0 0 .105-4.326l-15.562-13.487 6.998-5.1.54 7.837 2.802-.194-.662-9.597 6.958-5.078.412 6.013 2.8-.194-.54-7.772 4.996-3.64.566 8.16 2.8-.194-.653-9.904 4.334-3.164.452 6.538 2.8-.194-.573-8.298 4.31-3.14h.726l.55 7.983 2.8-.194-.54-7.788h4.94l.435 6.288 2.8-.194-.42-6.094h5.288l.517 7.482 2.8-.194-.508-7.29h6.118l2.236 19.728h41.3l21.608 66.494c-3.503 5.22-6.376 10.393-7.813 13.113zm25.773-29.05c-1.5 0-3.075.58-4.665 1.517l10.388-22.036 37.46 43.716c-15.077-9.355-36.047-21.906-41.875-23.077a7.19 7.19 0 0 0-1.307-.12zm94.1 37.687l-4.9-.67-20.607-12.02 1.98-2.703 25.9 12.72-2.373 2.672zM38.8-230.262l2.744.597-5.74 26.322-2.743-.597 5.74-26.322zm-15.376 4.577l2.744.597-5.74 26.322-2.743-.597 5.74-26.322zm12.43-12.568l-5.74 26.322-2.743-.598 5.74-26.322 2.744.597zM-57.583 47.394l4.843-16.62 2.026.59-4.843 16.62-2.026-.59zm-10.97 3.48l-2.017-.59 4.843-16.62 2.026.59-4.852 16.62zm8.193-8.315l-2.026-.59 4.843-16.628 2.026.59-4.843 16.627zm190.136 48.744l5.1-23.384 2.06.452-5.102 23.384-2.058-.452zm-6.514-18.864l-5.1 23.384-2.06-.452 5.102-23.384 2.058.452zm3.51 11.688l-2.057-.452 5.1-23.384 2.06.452-5.102 23.384zm-71.4 313.196l2.744.597-9.234 42.337-2.744-.597 9.234-42.336zm-19.663 5.69l2.743.597-9.234 42.337-2.745-.597 9.234-42.336zm16.562-20.566l-9.234 42.336-2.744-.597 9.234-42.336 2.744.598zm-93.3-.033l-3.9 17.88-2.743-.598 3.898-17.88 2.744.598zm-12.083-8.757l2.743.597-3.9 17.88-2.743-.598 3.9-17.88zm6.23 11.978l-2.744-.597 3.9-17.88 2.743.597-3.9 17.88zm205.64-233.843l2.745.597-3.9 17.887-2.743-.597 3.9-17.887zm-10.492 10.323l-2.744-.597 3.9-17.88 2.743.597-3.9 17.88zm7.386-6.497l-2.744-.598 3.9-17.88 2.743.598-3.9 17.88zm-262.91 167.34l6.215-24.336 2.72.694-6.216 24.336-2.72-.694zm-10.517 3.97l-2.72-.693 6.215-24.336 2.72.695-6.215 24.336zm9.307-12.163l-2.72-.694 6.215-24.336 2.72.694-6.216 24.337zm12.325-76.616l7.627-29.872 2.72.694-7.628 29.873-2.72-.694zm-13.545 4.715l-2.72-.694 7.636-29.872 2.72.694-7.635 29.873zm11.437-14.94l-2.72-.695 7.628-29.873 2.72.694-7.628 29.874zm258.736 12.81l2.72.693-8.338 32.65-2.72-.694 8.338-32.65zm-17.757 4.39l2.72.694-8.345 32.65-2.72-.695 8.346-32.65zm15.208-15.627l-8.346 32.65-2.72-.694 8.346-32.65 2.72.694z"/></svg>